%TF.GenerationSoftware,KiCad,Pcbnew,9.0.6*%
%TF.CreationDate,2025-12-24T02:22:15+01:00*%
%TF.ProjectId,secondary_mmc,7365636f-6e64-4617-9279-5f6d6d632e6b,rev?*%
%TF.SameCoordinates,Original*%
%TF.FileFunction,Legend,Bot*%
%TF.FilePolarity,Positive*%
%FSLAX46Y46*%
G04 Gerber Fmt 4.6, Leading zero omitted, Abs format (unit mm)*
G04 Created by KiCad (PCBNEW 9.0.6) date 2025-12-24 02:22:15*
%MOMM*%
%LPD*%
G01*
G04 APERTURE LIST*
%ADD10C,0.000000*%
%ADD11C,3.200000*%
G04 APERTURE END LIST*
D10*
%TO.C,G\u002A\u002A\u002A*%
G36*
X118237842Y-122626876D02*
G01*
X121932475Y-126321509D01*
X121349112Y-126904872D01*
X120765749Y-127488235D01*
X117071116Y-123793602D01*
X113376483Y-120098969D01*
X113959846Y-119515606D01*
X114543209Y-118932243D01*
X118237842Y-122626876D01*
G37*
G36*
X131922378Y-127380019D02*
G01*
X131917342Y-127453897D01*
X131903196Y-127591668D01*
X131879607Y-127795845D01*
X131846245Y-128068941D01*
X131802781Y-128413464D01*
X131748883Y-128831927D01*
X131684220Y-129326840D01*
X131608463Y-129900715D01*
X131521281Y-130556064D01*
X131422343Y-131295397D01*
X131311319Y-132121225D01*
X131187878Y-133036062D01*
X131051689Y-134042415D01*
X130902422Y-135142798D01*
X130739747Y-136339721D01*
X130565119Y-137623522D01*
X129827654Y-137534227D01*
X129804340Y-137531395D01*
X129514708Y-137493640D01*
X129311790Y-137460648D01*
X129183442Y-137429525D01*
X129117519Y-137397381D01*
X129101877Y-137361321D01*
X129104962Y-137339212D01*
X129120696Y-137226384D01*
X129148618Y-137026127D01*
X129187685Y-136745926D01*
X129236853Y-136393262D01*
X129295079Y-135975619D01*
X129361320Y-135500480D01*
X129434533Y-134975328D01*
X129513674Y-134407646D01*
X129597701Y-133804915D01*
X129685570Y-133174619D01*
X130257574Y-129071532D01*
X129788219Y-129144651D01*
X129688259Y-129160347D01*
X129485797Y-129192340D01*
X129201268Y-129237426D01*
X128843740Y-129294161D01*
X128422287Y-129361105D01*
X127945976Y-129436815D01*
X127423881Y-129519852D01*
X126865071Y-129608772D01*
X126278618Y-129702136D01*
X125673594Y-129798500D01*
X125087266Y-129891419D01*
X124365845Y-130004075D01*
X123741992Y-130099322D01*
X123215192Y-130177235D01*
X122784935Y-130237882D01*
X122450708Y-130281336D01*
X122211999Y-130307670D01*
X122068297Y-130316953D01*
X122019088Y-130309258D01*
X122017933Y-130300527D01*
X122005600Y-130207424D01*
X121983469Y-130040494D01*
X121954276Y-129820352D01*
X121920752Y-129567613D01*
X121831651Y-128895942D01*
X122022881Y-128863237D01*
X122186162Y-128835932D01*
X122458274Y-128791800D01*
X122800127Y-128737405D01*
X123203696Y-128673962D01*
X123660952Y-128602686D01*
X124163868Y-128524790D01*
X124704418Y-128441492D01*
X125274573Y-128354004D01*
X125866306Y-128263543D01*
X126471591Y-128171322D01*
X127082399Y-128078557D01*
X127690703Y-127986464D01*
X128288477Y-127896256D01*
X128867694Y-127809149D01*
X129420325Y-127726357D01*
X129938343Y-127649096D01*
X130413724Y-127578580D01*
X130838435Y-127516024D01*
X131204454Y-127462644D01*
X131503751Y-127419654D01*
X131728299Y-127388269D01*
X131870072Y-127369704D01*
X131921040Y-127365174D01*
X131922378Y-127380019D01*
G37*
G36*
X113405871Y-109135542D02*
G01*
X113392203Y-109253898D01*
X113366781Y-109457445D01*
X113330685Y-109738192D01*
X113284999Y-110088146D01*
X113230806Y-110499323D01*
X113169188Y-110963727D01*
X113101228Y-111473371D01*
X113028008Y-112020266D01*
X112950611Y-112596419D01*
X112870119Y-113193840D01*
X112787615Y-113804541D01*
X112704182Y-114420532D01*
X112620902Y-115033820D01*
X112538858Y-115636417D01*
X112459133Y-116220333D01*
X112382808Y-116777577D01*
X112310967Y-117300160D01*
X112244692Y-117780090D01*
X112185066Y-118209380D01*
X112133171Y-118580036D01*
X112090090Y-118884072D01*
X112056906Y-119113494D01*
X112034700Y-119260315D01*
X112024556Y-119316543D01*
X112014280Y-119321618D01*
X111926601Y-119326051D01*
X111764994Y-119319197D01*
X111547574Y-119302067D01*
X111292461Y-119275670D01*
X110578909Y-119193932D01*
X110673337Y-118501191D01*
X110684269Y-118421408D01*
X110714276Y-118204075D01*
X110755988Y-117903340D01*
X110807993Y-117529317D01*
X110868883Y-117092120D01*
X110937247Y-116601862D01*
X111011675Y-116068658D01*
X111090758Y-115502619D01*
X111173086Y-114913860D01*
X111257248Y-114312495D01*
X111746731Y-110816540D01*
X111599774Y-110836644D01*
X111586185Y-110838637D01*
X111482930Y-110854676D01*
X111291345Y-110884925D01*
X111019201Y-110928142D01*
X110674266Y-110983087D01*
X110264306Y-111048520D01*
X109797093Y-111123199D01*
X109280394Y-111205885D01*
X108721977Y-111295338D01*
X108129610Y-111390314D01*
X107511064Y-111489576D01*
X107277524Y-111527018D01*
X106672399Y-111623533D01*
X106098781Y-111714317D01*
X105564135Y-111798226D01*
X105075930Y-111874116D01*
X104641632Y-111940848D01*
X104268708Y-111997277D01*
X103964626Y-112042262D01*
X103736852Y-112074660D01*
X103592853Y-112093328D01*
X103540096Y-112097124D01*
X103535064Y-112086756D01*
X103513808Y-111998333D01*
X103483746Y-111836085D01*
X103448136Y-111618409D01*
X103410235Y-111363702D01*
X103309589Y-110655561D01*
X103810086Y-110579149D01*
X103810116Y-110579144D01*
X103933308Y-110560192D01*
X104147353Y-110527092D01*
X104444303Y-110481081D01*
X104816206Y-110423392D01*
X105255109Y-110355262D01*
X105753063Y-110277923D01*
X106302115Y-110192613D01*
X106894314Y-110100566D01*
X107521709Y-110003016D01*
X108176350Y-109901199D01*
X108850282Y-109796349D01*
X108939985Y-109782395D01*
X109597409Y-109680371D01*
X110225386Y-109583337D01*
X110816980Y-109492340D01*
X111365258Y-109408429D01*
X111863282Y-109332654D01*
X112304120Y-109266059D01*
X112680837Y-109209696D01*
X112986496Y-109164611D01*
X113214166Y-109131852D01*
X113356908Y-109112469D01*
X113407789Y-109107508D01*
X113405871Y-109135542D01*
G37*
G36*
X96254306Y-103099310D02*
G01*
X96307003Y-103196279D01*
X96395965Y-103373502D01*
X96518047Y-103624321D01*
X96670102Y-103942075D01*
X96848983Y-104320102D01*
X97051543Y-104751745D01*
X97274640Y-105230340D01*
X97515123Y-105749228D01*
X97769849Y-106301749D01*
X98035670Y-106881243D01*
X98289989Y-107437034D01*
X98710827Y-108356740D01*
X99093528Y-109193108D01*
X99440315Y-109950998D01*
X99753409Y-110635270D01*
X100035035Y-111250782D01*
X100287416Y-111802396D01*
X100512774Y-112294971D01*
X100713332Y-112733366D01*
X100891313Y-113122441D01*
X101048942Y-113467057D01*
X101188438Y-113772073D01*
X101312028Y-114042349D01*
X101421932Y-114282744D01*
X101520374Y-114498119D01*
X101609577Y-114693333D01*
X101691764Y-114873246D01*
X101769157Y-115042718D01*
X101843981Y-115206608D01*
X101918457Y-115369777D01*
X102396601Y-116417437D01*
X101725883Y-116764432D01*
X101602634Y-116828126D01*
X101385732Y-116939849D01*
X101211498Y-117029105D01*
X101095298Y-117088035D01*
X101052501Y-117108778D01*
X101052411Y-117108607D01*
X101029122Y-117058607D01*
X100966323Y-116923159D01*
X100866337Y-116707287D01*
X100731489Y-116416015D01*
X100564105Y-116054366D01*
X100366506Y-115627365D01*
X100141021Y-115140035D01*
X99889971Y-114597401D01*
X99615681Y-114004488D01*
X99320478Y-113366318D01*
X99006683Y-112687916D01*
X98676623Y-111974306D01*
X98332622Y-111230512D01*
X97977004Y-110461558D01*
X97960467Y-110425798D01*
X97604846Y-109656821D01*
X97260666Y-108912591D01*
X96930277Y-108198186D01*
X96616027Y-107518684D01*
X96320265Y-106879164D01*
X96045339Y-106284705D01*
X95793597Y-105740384D01*
X95567390Y-105251281D01*
X95369065Y-104822471D01*
X95200971Y-104459036D01*
X95065456Y-104166051D01*
X94964868Y-103948596D01*
X94901558Y-103811749D01*
X94877874Y-103760588D01*
X94902845Y-103720554D01*
X95016489Y-103645560D01*
X95221508Y-103537291D01*
X95519118Y-103395056D01*
X95622927Y-103347244D01*
X95851862Y-103243750D01*
X96042913Y-103160051D01*
X96178546Y-103103744D01*
X96241225Y-103082415D01*
X96254306Y-103099310D01*
G37*
G36*
X124554427Y-138720281D02*
G01*
X124614293Y-138752580D01*
X124754464Y-138829357D01*
X124968892Y-138947267D01*
X125251526Y-139102962D01*
X125596315Y-139293097D01*
X125997210Y-139514324D01*
X126448159Y-139763297D01*
X126943114Y-140036671D01*
X127476022Y-140331097D01*
X128040836Y-140643230D01*
X128631503Y-140969725D01*
X129241973Y-141307234D01*
X129866197Y-141652410D01*
X130498125Y-142001907D01*
X131131704Y-142352378D01*
X131760886Y-142700478D01*
X132379621Y-143042862D01*
X132981858Y-143376178D01*
X133561546Y-143697085D01*
X134112636Y-144002235D01*
X134629076Y-144288280D01*
X135104818Y-144551875D01*
X135533810Y-144789674D01*
X135910002Y-144998329D01*
X136227345Y-145174495D01*
X136479787Y-145314825D01*
X136661279Y-145415971D01*
X136765769Y-145474590D01*
X136907508Y-145554879D01*
X136550564Y-146214812D01*
X136487168Y-146331059D01*
X136366927Y-146545962D01*
X136266339Y-146718416D01*
X136194455Y-146833112D01*
X136160326Y-146874745D01*
X136134209Y-146861854D01*
X136026403Y-146804117D01*
X135839838Y-146702554D01*
X135579494Y-146559917D01*
X135250357Y-146378958D01*
X134857406Y-146162429D01*
X134405627Y-145913082D01*
X133900001Y-145633671D01*
X133345511Y-145326947D01*
X132747139Y-144995661D01*
X132109868Y-144642567D01*
X131438680Y-144270417D01*
X130738559Y-143881963D01*
X130014487Y-143479957D01*
X129484959Y-143185824D01*
X128777403Y-142792663D01*
X128097332Y-142414617D01*
X127449742Y-142054469D01*
X126839629Y-141715004D01*
X126271991Y-141399005D01*
X125751821Y-141109258D01*
X125284117Y-140848545D01*
X124873874Y-140619651D01*
X124526089Y-140425361D01*
X124245758Y-140268459D01*
X124037876Y-140151727D01*
X123907440Y-140077952D01*
X123859446Y-140049917D01*
X123858294Y-140041330D01*
X123884312Y-139965166D01*
X123946052Y-139827296D01*
X124033682Y-139646590D01*
X124137372Y-139441917D01*
X124247290Y-139232145D01*
X124353607Y-139036143D01*
X124446490Y-138872781D01*
X124516111Y-138760926D01*
X124552636Y-138719447D01*
X124554427Y-138720281D01*
G37*
G36*
X120553617Y-132155140D02*
G01*
X121119302Y-132720825D01*
X119545989Y-134294138D01*
X117972677Y-135867450D01*
X117406991Y-135301765D01*
X116841306Y-134736079D01*
X118414619Y-133162767D01*
X119987931Y-131589454D01*
X120553617Y-132155140D01*
G37*
G36*
X108479768Y-120222713D02*
G01*
X109027776Y-120770720D01*
X107436786Y-122361711D01*
X105845796Y-123952701D01*
X105297788Y-123404693D01*
X104749780Y-122856685D01*
X106340770Y-121265695D01*
X107931761Y-119674705D01*
X108479768Y-120222713D01*
G37*
G36*
X122811266Y-141847520D02*
G01*
X122883577Y-141934383D01*
X122899031Y-141954771D01*
X122974444Y-142050134D01*
X123106247Y-142214769D01*
X123290020Y-142443210D01*
X123521342Y-142729994D01*
X123795795Y-143069655D01*
X124108959Y-143456728D01*
X124456414Y-143885750D01*
X124833738Y-144351257D01*
X125236515Y-144847781D01*
X125660323Y-145369862D01*
X126100741Y-145912031D01*
X126346649Y-146214718D01*
X126775125Y-146742472D01*
X127183001Y-147245283D01*
X127566022Y-147717887D01*
X127919939Y-148155022D01*
X128240500Y-148551426D01*
X128523454Y-148901838D01*
X128764550Y-149200993D01*
X128959537Y-149443631D01*
X129104163Y-149624488D01*
X129194179Y-149738303D01*
X129225331Y-149779813D01*
X129217254Y-149791310D01*
X129150946Y-149855108D01*
X129031647Y-149960941D01*
X128876164Y-150094693D01*
X128701299Y-150242246D01*
X128523858Y-150389482D01*
X128360645Y-150522286D01*
X128228465Y-150626538D01*
X128144122Y-150688122D01*
X128074358Y-150717731D01*
X128003255Y-150708007D01*
X127988893Y-150691454D01*
X127917573Y-150605212D01*
X127791931Y-150451575D01*
X127617067Y-150236851D01*
X127398077Y-149967349D01*
X127140061Y-149649378D01*
X126848119Y-149289246D01*
X126527346Y-148893263D01*
X126182843Y-148467737D01*
X125819707Y-148018976D01*
X125443039Y-147553290D01*
X125057934Y-147076987D01*
X124669493Y-146596376D01*
X124282813Y-146117766D01*
X123902993Y-145647465D01*
X123535132Y-145191782D01*
X123184328Y-144757027D01*
X122855680Y-144349506D01*
X122554285Y-143975531D01*
X122285243Y-143641408D01*
X122053651Y-143353448D01*
X121864608Y-143117958D01*
X121723214Y-142941247D01*
X121634566Y-142829624D01*
X121603762Y-142789399D01*
X121606266Y-142785604D01*
X121660730Y-142735745D01*
X121775611Y-142638820D01*
X121936635Y-142506719D01*
X122129536Y-142351333D01*
X122171227Y-142317982D01*
X122367850Y-142159623D01*
X122536499Y-142022117D01*
X122660385Y-141919234D01*
X122722726Y-141864744D01*
X122757663Y-141837860D01*
X122811266Y-141847520D01*
G37*
G36*
X91304293Y-112028937D02*
G01*
X91324826Y-112048742D01*
X91416980Y-112135189D01*
X91574795Y-112281969D01*
X91793084Y-112484290D01*
X92066660Y-112737369D01*
X92390336Y-113036414D01*
X92758929Y-113376639D01*
X93167251Y-113753256D01*
X93610115Y-114161475D01*
X94082337Y-114596508D01*
X94578729Y-115053569D01*
X95094105Y-115527869D01*
X95392894Y-115802860D01*
X95893281Y-116263787D01*
X96369490Y-116702929D01*
X96816573Y-117115703D01*
X97229584Y-117497521D01*
X97603575Y-117843798D01*
X97933601Y-118149946D01*
X98214713Y-118411381D01*
X98441965Y-118623514D01*
X98610410Y-118781761D01*
X98715102Y-118881533D01*
X98751091Y-118918247D01*
X98742750Y-118932031D01*
X98681206Y-119008009D01*
X98569581Y-119137425D01*
X98419561Y-119306840D01*
X98242834Y-119502814D01*
X97734641Y-120061733D01*
X97238885Y-119611226D01*
X97115280Y-119498633D01*
X96909073Y-119310262D01*
X96651910Y-119074948D01*
X96356164Y-118804029D01*
X96034212Y-118508841D01*
X95698428Y-118200723D01*
X95361187Y-117891010D01*
X95184670Y-117728915D01*
X94814456Y-117389341D01*
X94394886Y-117004907D01*
X93941820Y-116590127D01*
X93471121Y-116159513D01*
X92998651Y-115727581D01*
X92540272Y-115308844D01*
X92111844Y-114917814D01*
X92031231Y-114844260D01*
X91667885Y-114512341D01*
X91326781Y-114200107D01*
X91015301Y-113914363D01*
X90740836Y-113661913D01*
X90510774Y-113449558D01*
X90332502Y-113284104D01*
X90213408Y-113172355D01*
X90160880Y-113121113D01*
X90077314Y-113027901D01*
X90624425Y-112461318D01*
X91171535Y-111894735D01*
X91304293Y-112028937D01*
G37*
G36*
X109719593Y-130815367D02*
G01*
X109778605Y-130894695D01*
X109872284Y-131028857D01*
X109987920Y-131199889D01*
X110096419Y-131361717D01*
X110293543Y-131648347D01*
X110459979Y-131875557D01*
X110610403Y-132060842D01*
X110759493Y-132221695D01*
X110921928Y-132375611D01*
X111112386Y-132540083D01*
X111302934Y-132697415D01*
X111555372Y-132893812D01*
X111770549Y-133041946D01*
X111968886Y-133155477D01*
X112170804Y-133248067D01*
X112233557Y-133273722D01*
X112365106Y-133330581D01*
X112451814Y-133385657D01*
X112495412Y-133454897D01*
X112497633Y-133554240D01*
X112460207Y-133699632D01*
X112384865Y-133907014D01*
X112273338Y-134192331D01*
X112212393Y-134347101D01*
X112120962Y-134575611D01*
X112046245Y-134757759D01*
X111994696Y-134877910D01*
X111972770Y-134920428D01*
X111842741Y-134873356D01*
X111616742Y-134774706D01*
X111352223Y-134646832D01*
X111075311Y-134503371D01*
X110812125Y-134357961D01*
X110588791Y-134224239D01*
X110431432Y-134115839D01*
X110384006Y-134077369D01*
X110170208Y-133886060D01*
X109921654Y-133642078D01*
X109658539Y-133366981D01*
X109401064Y-133082328D01*
X109169427Y-132809681D01*
X108983823Y-132570601D01*
X108926726Y-132490923D01*
X108760027Y-132248278D01*
X108611841Y-132018421D01*
X108492406Y-131818258D01*
X108411956Y-131664692D01*
X108380728Y-131574628D01*
X108382280Y-131570932D01*
X108437534Y-131526576D01*
X108558510Y-131446997D01*
X108726880Y-131342883D01*
X108924320Y-131224923D01*
X109132502Y-131103807D01*
X109333101Y-130990224D01*
X109507789Y-130894862D01*
X109638241Y-130828412D01*
X109706131Y-130801563D01*
X109719593Y-130815367D01*
G37*
G36*
X107701951Y-133374899D02*
G01*
X121225368Y-146898316D01*
X120624327Y-147499357D01*
X120023287Y-148100398D01*
X106499869Y-134576980D01*
X92976452Y-121053563D01*
X93577493Y-120452522D01*
X94178534Y-119851482D01*
X107701951Y-133374899D01*
G37*
%TD*%
%LPC*%
D11*
%TO.C,H1*%
X86900000Y-88100000D03*
%TD*%
%TO.C,H2*%
X141000000Y-88100000D03*
%TD*%
%TO.C,H3*%
X86900000Y-165300000D03*
%TD*%
%TO.C,H4*%
X141000000Y-165300000D03*
%TD*%
%LPD*%
M02*
