%TF.GenerationSoftware,KiCad,Pcbnew,9.0.6*%
%TF.CreationDate,2025-12-24T02:22:15+01:00*%
%TF.ProjectId,secondary_mmc,7365636f-6e64-4617-9279-5f6d6d632e6b,rev?*%
%TF.SameCoordinates,Original*%
%TF.FileFunction,Copper,L1,Top*%
%TF.FilePolarity,Positive*%
%FSLAX46Y46*%
G04 Gerber Fmt 4.6, Leading zero omitted, Abs format (unit mm)*
G04 Created by KiCad (PCBNEW 9.0.6) date 2025-12-24 02:22:15*
%MOMM*%
%LPD*%
G01*
G04 APERTURE LIST*
G04 Aperture macros list*
%AMRoundRect*
0 Rectangle with rounded corners*
0 $1 Rounding radius*
0 $2 $3 $4 $5 $6 $7 $8 $9 X,Y pos of 4 corners*
0 Add a 4 corners polygon primitive as box body*
4,1,4,$2,$3,$4,$5,$6,$7,$8,$9,$2,$3,0*
0 Add four circle primitives for the rounded corners*
1,1,$1+$1,$2,$3*
1,1,$1+$1,$4,$5*
1,1,$1+$1,$6,$7*
1,1,$1+$1,$8,$9*
0 Add four rect primitives between the rounded corners*
20,1,$1+$1,$2,$3,$4,$5,0*
20,1,$1+$1,$4,$5,$6,$7,0*
20,1,$1+$1,$6,$7,$8,$9,0*
20,1,$1+$1,$8,$9,$2,$3,0*%
G04 Aperture macros list end*
%TA.AperFunction,Conductor*%
%ADD10C,1.500000*%
%TD*%
%TA.AperFunction,NonConductor*%
%ADD11C,0.200000*%
%TD*%
%TA.AperFunction,SMDPad,CuDef*%
%ADD12RoundRect,0.250000X-1.450000X0.537500X-1.450000X-0.537500X1.450000X-0.537500X1.450000X0.537500X0*%
%TD*%
%TA.AperFunction,ViaPad*%
%ADD13C,0.600000*%
%TD*%
%TA.AperFunction,Conductor*%
%ADD14C,1.000000*%
%TD*%
G04 APERTURE END LIST*
D10*
%TO.N,Net-(C2-Pad2)*%
X115050000Y-90300000D02*
X120000000Y-90300000D01*
X107000000Y-90600000D02*
X111875000Y-90600000D01*
%TO.N,Net-(C1-Pad2)*%
X107000000Y-85800000D02*
X111875000Y-85800000D01*
X114950000Y-86100000D02*
X120000000Y-86100000D01*
%TO.N,Net-(C3-Pad2)*%
X114950000Y-95100000D02*
X120000000Y-95100000D01*
X107000000Y-94800000D02*
X111875000Y-94800000D01*
%TO.N,Net-(C4-Pad2)*%
X107000000Y-99600000D02*
X111875000Y-99600000D01*
%TO.N,Net-(C5-Pad2)*%
X107000000Y-103900000D02*
X111875000Y-103900000D01*
%TO.N,Net-(C6-Pad2)*%
X107000000Y-108600000D02*
X111875000Y-108600000D01*
%TO.N,Net-(C7-Pad2)*%
X107000000Y-112800000D02*
X111875000Y-112800000D01*
%TO.N,Net-(C8-Pad2)*%
X107000000Y-117600000D02*
X111875000Y-117600000D01*
%TO.N,Net-(C10-Pad1)*%
X107000000Y-121800000D02*
X111875000Y-121800000D01*
%TO.N,Net-(C10-Pad2)*%
X107000000Y-126600000D02*
X111875000Y-126600000D01*
%TO.N,Net-(C11-Pad2)*%
X107000000Y-130800000D02*
X111875000Y-130800000D01*
%TO.N,Net-(C12-Pad2)*%
X107000000Y-135600000D02*
X111875000Y-135600000D01*
%TO.N,Net-(C13-Pad2)*%
X107000000Y-139800000D02*
X111875000Y-139800000D01*
%TO.N,Net-(C14-Pad2)*%
X107000000Y-144600000D02*
X111900000Y-144600000D01*
%TO.N,Net-(C15-Pad2)*%
X107000000Y-148800000D02*
X111900000Y-148800000D01*
%TO.N,Net-(C16-Pad2)*%
X107000000Y-153600000D02*
X111900000Y-153600000D01*
%TO.N,Net-(C17-Pad2)*%
X107000000Y-157800000D02*
X111900000Y-157800000D01*
%TO.N,Net-(C18-Pad2)*%
X107000000Y-162600000D02*
X111900000Y-162600000D01*
%TO.N,Net-(C19-Pad2)*%
X107000000Y-166800000D02*
X111900000Y-166800000D01*
%TO.N,Net-(C4-Pad2)*%
X115050000Y-99300000D02*
X120000000Y-99300000D01*
%TO.N,Net-(C5-Pad2)*%
X114950000Y-104100000D02*
X120000000Y-104100000D01*
%TO.N,Net-(C6-Pad2)*%
X115050000Y-108300000D02*
X120000000Y-108300000D01*
%TO.N,Net-(C7-Pad2)*%
X114950000Y-113100000D02*
X120000000Y-113100000D01*
%TO.N,Net-(C8-Pad2)*%
X115050000Y-117300000D02*
X120000000Y-117300000D01*
%TO.N,Net-(C10-Pad1)*%
X114950000Y-122100000D02*
X120000000Y-122100000D01*
%TO.N,Net-(C10-Pad2)*%
X115050000Y-126300000D02*
X120000000Y-126300000D01*
%TO.N,Net-(C11-Pad2)*%
X114950000Y-131100000D02*
X120000000Y-131100000D01*
%TO.N,Net-(C12-Pad2)*%
X115050000Y-135300000D02*
X120000000Y-135300000D01*
%TO.N,Net-(C13-Pad2)*%
X114950000Y-140100000D02*
X120000000Y-140100000D01*
%TO.N,Net-(C14-Pad2)*%
X115025000Y-144300000D02*
X120000000Y-144300000D01*
%TO.N,Net-(C15-Pad2)*%
X114950000Y-149100000D02*
X120000000Y-149100000D01*
%TO.N,Net-(C16-Pad2)*%
X115050000Y-153300000D02*
X120000000Y-153300000D01*
%TO.N,Net-(C17-Pad2)*%
X114925000Y-158100000D02*
X120000000Y-158100000D01*
%TO.N,Net-(C18-Pad2)*%
X115025000Y-162300000D02*
X120000000Y-162300000D01*
%TO.N,Net-(C19-Pad2)*%
X114925000Y-167100000D02*
X120000000Y-167100000D01*
D11*
X131700000Y-94700000D02*
X144600000Y-94700000D01*
X144600000Y-98100000D01*
X131700000Y-98100000D01*
X131700000Y-94700000D01*
%TA.AperFunction,NonConductor*%
G36*
X131700000Y-94700000D02*
G01*
X144600000Y-94700000D01*
X144600000Y-98100000D01*
X131700000Y-98100000D01*
X131700000Y-94700000D01*
G37*
%TD.AperFunction*%
%TD*%
D12*
%TO.P,C5,1*%
%TO.N,Net-(C4-Pad2)*%
X111000000Y-99562500D03*
%TO.P,C5,2*%
%TO.N,Net-(C5-Pad2)*%
X111000000Y-103837500D03*
%TD*%
%TO.P,C4,1*%
%TO.N,Net-(C3-Pad2)*%
X116000000Y-95062500D03*
%TO.P,C4,2*%
%TO.N,Net-(C4-Pad2)*%
X116000000Y-99337500D03*
%TD*%
%TO.P,C1,1*%
%TO.N,CONN_1*%
X111000000Y-81562500D03*
%TO.P,C1,2*%
%TO.N,Net-(C1-Pad2)*%
X111000000Y-85837500D03*
%TD*%
%TO.P,C2,1*%
%TO.N,Net-(C1-Pad2)*%
X116000000Y-86062500D03*
%TO.P,C2,2*%
%TO.N,Net-(C2-Pad2)*%
X116000000Y-90337500D03*
%TD*%
%TO.P,C3,1*%
%TO.N,Net-(C2-Pad2)*%
X111000000Y-90562500D03*
%TO.P,C3,2*%
%TO.N,Net-(C3-Pad2)*%
X111000000Y-94837500D03*
%TD*%
%TO.P,C19,2*%
%TO.N,Net-(C19-Pad2)*%
X111000000Y-166837500D03*
%TO.P,C19,1*%
%TO.N,Net-(C18-Pad2)*%
X111000000Y-162562500D03*
%TD*%
%TO.P,C18,2*%
%TO.N,Net-(C18-Pad2)*%
X116000000Y-162337500D03*
%TO.P,C18,1*%
%TO.N,Net-(C17-Pad2)*%
X116000000Y-158062500D03*
%TD*%
%TO.P,C17,2*%
%TO.N,Net-(C17-Pad2)*%
X111000000Y-157837500D03*
%TO.P,C17,1*%
%TO.N,Net-(C16-Pad2)*%
X111000000Y-153562500D03*
%TD*%
%TO.P,C16,2*%
%TO.N,Net-(C16-Pad2)*%
X116000000Y-153337500D03*
%TO.P,C16,1*%
%TO.N,Net-(C15-Pad2)*%
X116000000Y-149062500D03*
%TD*%
%TO.P,C15,2*%
%TO.N,Net-(C15-Pad2)*%
X111000000Y-148837500D03*
%TO.P,C15,1*%
%TO.N,Net-(C14-Pad2)*%
X111000000Y-144562500D03*
%TD*%
%TO.P,C14,2*%
%TO.N,Net-(C14-Pad2)*%
X116000000Y-144337500D03*
%TO.P,C14,1*%
%TO.N,Net-(C13-Pad2)*%
X116000000Y-140062500D03*
%TD*%
%TO.P,C13,2*%
%TO.N,Net-(C13-Pad2)*%
X111000000Y-139837500D03*
%TO.P,C13,1*%
%TO.N,Net-(C12-Pad2)*%
X111000000Y-135562500D03*
%TD*%
%TO.P,C12,2*%
%TO.N,Net-(C12-Pad2)*%
X116000000Y-135337500D03*
%TO.P,C12,1*%
%TO.N,Net-(C11-Pad2)*%
X116000000Y-131062500D03*
%TD*%
%TO.P,C11,2*%
%TO.N,Net-(C11-Pad2)*%
X111000000Y-130837500D03*
%TO.P,C11,1*%
%TO.N,Net-(C10-Pad2)*%
X111000000Y-126562500D03*
%TD*%
%TO.P,C10,2*%
%TO.N,Net-(C10-Pad2)*%
X116000000Y-126337500D03*
%TO.P,C10,1*%
%TO.N,Net-(C10-Pad1)*%
X116000000Y-122062500D03*
%TD*%
%TO.P,C9,2*%
%TO.N,Net-(C10-Pad1)*%
X111000000Y-121837500D03*
%TO.P,C9,1*%
%TO.N,Net-(C8-Pad2)*%
X111000000Y-117562500D03*
%TD*%
%TO.P,C8,2*%
%TO.N,Net-(C8-Pad2)*%
X116000000Y-117337500D03*
%TO.P,C8,1*%
%TO.N,Net-(C7-Pad2)*%
X116000000Y-113062500D03*
%TD*%
%TO.P,C7,2*%
%TO.N,Net-(C7-Pad2)*%
X111000000Y-112837500D03*
%TO.P,C7,1*%
%TO.N,Net-(C6-Pad2)*%
X111000000Y-108562500D03*
%TD*%
%TO.P,C6,2*%
%TO.N,Net-(C6-Pad2)*%
X116000000Y-108337500D03*
%TO.P,C6,1*%
%TO.N,Net-(C5-Pad2)*%
X116000000Y-104062500D03*
%TD*%
%TO.P,C20,2*%
%TO.N,CONN_2*%
X116000000Y-171337500D03*
%TO.P,C20,1*%
%TO.N,Net-(C19-Pad2)*%
X116000000Y-167062500D03*
%TD*%
D13*
%TO.N,Net-(C19-Pad2)*%
X113000000Y-167100000D03*
X113500000Y-167100000D03*
X114000000Y-167100000D03*
%TO.N,Net-(C18-Pad2)*%
X113000000Y-162600000D03*
X113500000Y-162600000D03*
X114000000Y-162600000D03*
%TO.N,Net-(C17-Pad2)*%
X113000000Y-158100000D03*
X113500000Y-158100000D03*
X114000000Y-158100000D03*
%TO.N,Net-(C16-Pad2)*%
X113000000Y-153600000D03*
X113500000Y-153600000D03*
X114000000Y-153600000D03*
%TO.N,Net-(C15-Pad2)*%
X113000000Y-149100000D03*
X113500000Y-149100000D03*
X114000000Y-149100000D03*
%TO.N,Net-(C14-Pad2)*%
X113000000Y-144600000D03*
X113500000Y-144600000D03*
X114000000Y-144600000D03*
%TO.N,Net-(C13-Pad2)*%
X113000000Y-140100000D03*
X113500000Y-140100000D03*
X114000000Y-140100000D03*
%TO.N,Net-(C12-Pad2)*%
X113000000Y-135600000D03*
X113500000Y-135600000D03*
X114000000Y-135600000D03*
%TO.N,Net-(C11-Pad2)*%
X113000000Y-131100000D03*
X113500000Y-131100000D03*
X114000000Y-131100000D03*
%TO.N,Net-(C10-Pad2)*%
X113000000Y-126600000D03*
X113500000Y-126600000D03*
X114000000Y-126600000D03*
%TO.N,Net-(C10-Pad1)*%
X113000000Y-122100000D03*
X113500000Y-122100000D03*
X114000000Y-122100000D03*
%TO.N,Net-(C8-Pad2)*%
X113000000Y-117600000D03*
X113500000Y-117600000D03*
X114000000Y-117600000D03*
%TO.N,Net-(C7-Pad2)*%
X113000000Y-113100000D03*
X113500000Y-113100000D03*
X114000000Y-113100000D03*
%TO.N,Net-(C6-Pad2)*%
X113000000Y-108600000D03*
X113500000Y-108600000D03*
X114000000Y-108600000D03*
%TO.N,Net-(C5-Pad2)*%
X113000000Y-104100000D03*
X113500000Y-104100000D03*
X114000000Y-104100000D03*
%TO.N,Net-(C4-Pad2)*%
X113000000Y-99600000D03*
X113500000Y-99600000D03*
X114000000Y-99600000D03*
%TO.N,Net-(C3-Pad2)*%
X113000000Y-95100000D03*
X113500000Y-95100000D03*
X114000000Y-95100000D03*
%TO.N,Net-(C2-Pad2)*%
X113000000Y-90600000D03*
X113500000Y-90600000D03*
X114000000Y-90600000D03*
%TO.N,Net-(C1-Pad2)*%
X113500000Y-86062500D03*
X114000000Y-86062500D03*
X113000000Y-86062500D03*
%TO.N,Net-(C19-Pad2)*%
X119600000Y-166600000D03*
X118000000Y-167600000D03*
X119600000Y-167600000D03*
X118000000Y-166600000D03*
X120000000Y-166600000D03*
X118400000Y-167600000D03*
X118800000Y-166600000D03*
X120000000Y-167600000D03*
X118400000Y-166600000D03*
X119200000Y-167600000D03*
X118800000Y-167600000D03*
X119200000Y-166600000D03*
X108600000Y-166300000D03*
X107000000Y-167300000D03*
X108600000Y-167300000D03*
X107000000Y-166300000D03*
X109000000Y-166300000D03*
X107400000Y-167300000D03*
X107800000Y-166300000D03*
X109000000Y-167300000D03*
X107400000Y-166300000D03*
X108200000Y-167300000D03*
X107800000Y-167300000D03*
X108200000Y-166300000D03*
%TO.N,Net-(C18-Pad2)*%
X108600000Y-162100000D03*
X107000000Y-163100000D03*
X108600000Y-163100000D03*
X107000000Y-162100000D03*
X109000000Y-162100000D03*
X107400000Y-163100000D03*
X107800000Y-162100000D03*
X109000000Y-163100000D03*
X107400000Y-162100000D03*
X108200000Y-163100000D03*
X107800000Y-163100000D03*
X108200000Y-162100000D03*
X119600000Y-161800000D03*
X118000000Y-162800000D03*
X119600000Y-162800000D03*
X118000000Y-161800000D03*
X120000000Y-161800000D03*
X118400000Y-162800000D03*
X118800000Y-161800000D03*
X120000000Y-162800000D03*
X118400000Y-161800000D03*
X119200000Y-162800000D03*
X118800000Y-162800000D03*
X119200000Y-161800000D03*
%TO.N,Net-(C17-Pad2)*%
X119600000Y-157600000D03*
X118000000Y-158600000D03*
X119600000Y-158600000D03*
X118000000Y-157600000D03*
X120000000Y-157600000D03*
X118400000Y-158600000D03*
X118800000Y-157600000D03*
X120000000Y-158600000D03*
X118400000Y-157600000D03*
X119200000Y-158600000D03*
X118800000Y-158600000D03*
X119200000Y-157600000D03*
X108600000Y-157300000D03*
X107000000Y-158300000D03*
X108600000Y-158300000D03*
X107000000Y-157300000D03*
X109000000Y-157300000D03*
X107400000Y-158300000D03*
X107800000Y-157300000D03*
X109000000Y-158300000D03*
X107400000Y-157300000D03*
X108200000Y-158300000D03*
X107800000Y-158300000D03*
X108200000Y-157300000D03*
%TO.N,Net-(C16-Pad2)*%
X108600000Y-153100000D03*
X107000000Y-154100000D03*
X108600000Y-154100000D03*
X107000000Y-153100000D03*
X109000000Y-153100000D03*
X107400000Y-154100000D03*
X107800000Y-153100000D03*
X109000000Y-154100000D03*
X107400000Y-153100000D03*
X108200000Y-154100000D03*
X107800000Y-154100000D03*
X108200000Y-153100000D03*
X119600000Y-152800000D03*
X118000000Y-153800000D03*
X119600000Y-153800000D03*
X118000000Y-152800000D03*
X120000000Y-152800000D03*
X118400000Y-153800000D03*
X118800000Y-152800000D03*
X120000000Y-153800000D03*
X118400000Y-152800000D03*
X119200000Y-153800000D03*
X118800000Y-153800000D03*
X119200000Y-152800000D03*
%TO.N,Net-(C15-Pad2)*%
X119600000Y-148600000D03*
X118000000Y-149600000D03*
X119600000Y-149600000D03*
X118000000Y-148600000D03*
X120000000Y-148600000D03*
X118400000Y-149600000D03*
X118800000Y-148600000D03*
X120000000Y-149600000D03*
X118400000Y-148600000D03*
X119200000Y-149600000D03*
X118800000Y-149600000D03*
X119200000Y-148600000D03*
X108600000Y-148300000D03*
X107000000Y-149300000D03*
X108600000Y-149300000D03*
X107000000Y-148300000D03*
X109000000Y-148300000D03*
X107400000Y-149300000D03*
X107800000Y-148300000D03*
X109000000Y-149300000D03*
X107400000Y-148300000D03*
X108200000Y-149300000D03*
X107800000Y-149300000D03*
X108200000Y-148300000D03*
%TO.N,Net-(C14-Pad2)*%
X119600000Y-143800000D03*
X118000000Y-144800000D03*
X119600000Y-144800000D03*
X118000000Y-143800000D03*
X120000000Y-143800000D03*
X118400000Y-144800000D03*
X118800000Y-143800000D03*
X120000000Y-144800000D03*
X118400000Y-143800000D03*
X119200000Y-144800000D03*
X118800000Y-144800000D03*
X119200000Y-143800000D03*
X108600000Y-144100000D03*
X107000000Y-145100000D03*
X108600000Y-145100000D03*
X107000000Y-144100000D03*
X109000000Y-144100000D03*
X107400000Y-145100000D03*
X107800000Y-144100000D03*
X109000000Y-145100000D03*
X107400000Y-144100000D03*
X108200000Y-145100000D03*
X107800000Y-145100000D03*
X108200000Y-144100000D03*
%TO.N,Net-(C13-Pad2)*%
X119600000Y-139600000D03*
X118000000Y-140600000D03*
X119600000Y-140600000D03*
X118000000Y-139600000D03*
X120000000Y-139600000D03*
X118400000Y-140600000D03*
X118800000Y-139600000D03*
X120000000Y-140600000D03*
X118400000Y-139600000D03*
X119200000Y-140600000D03*
X118800000Y-140600000D03*
X119200000Y-139600000D03*
X108600000Y-139300000D03*
X107000000Y-140300000D03*
X108600000Y-140300000D03*
X107000000Y-139300000D03*
X109000000Y-139300000D03*
X107400000Y-140300000D03*
X107800000Y-139300000D03*
X109000000Y-140300000D03*
X107400000Y-139300000D03*
X108200000Y-140300000D03*
X107800000Y-140300000D03*
X108200000Y-139300000D03*
%TO.N,Net-(C12-Pad2)*%
X119600000Y-134800000D03*
X118000000Y-135800000D03*
X119600000Y-135800000D03*
X118000000Y-134800000D03*
X120000000Y-134800000D03*
X118400000Y-135800000D03*
X118800000Y-134800000D03*
X120000000Y-135800000D03*
X118400000Y-134800000D03*
X119200000Y-135800000D03*
X118800000Y-135800000D03*
X119200000Y-134800000D03*
X108600000Y-135100000D03*
X107000000Y-136100000D03*
X108600000Y-136100000D03*
X107000000Y-135100000D03*
X109000000Y-135100000D03*
X107400000Y-136100000D03*
X107800000Y-135100000D03*
X109000000Y-136100000D03*
X107400000Y-135100000D03*
X108200000Y-136100000D03*
X107800000Y-136100000D03*
X108200000Y-135100000D03*
%TO.N,Net-(C11-Pad2)*%
X119600000Y-130600000D03*
X118000000Y-131600000D03*
X119600000Y-131600000D03*
X118000000Y-130600000D03*
X120000000Y-130600000D03*
X118400000Y-131600000D03*
X118800000Y-130600000D03*
X120000000Y-131600000D03*
X118400000Y-130600000D03*
X119200000Y-131600000D03*
X118800000Y-131600000D03*
X119200000Y-130600000D03*
X108600000Y-130300000D03*
X107000000Y-131300000D03*
X108600000Y-131300000D03*
X107000000Y-130300000D03*
X109000000Y-130300000D03*
X107400000Y-131300000D03*
X107800000Y-130300000D03*
X109000000Y-131300000D03*
X107400000Y-130300000D03*
X108200000Y-131300000D03*
X107800000Y-131300000D03*
X108200000Y-130300000D03*
%TO.N,Net-(C10-Pad2)*%
X119600000Y-125800000D03*
X118000000Y-126800000D03*
X119600000Y-126800000D03*
X118000000Y-125800000D03*
X120000000Y-125800000D03*
X118400000Y-126800000D03*
X118800000Y-125800000D03*
X120000000Y-126800000D03*
X118400000Y-125800000D03*
X119200000Y-126800000D03*
X118800000Y-126800000D03*
X119200000Y-125800000D03*
X108600000Y-126100000D03*
X107000000Y-127100000D03*
X108600000Y-127100000D03*
X107000000Y-126100000D03*
X109000000Y-126100000D03*
X107400000Y-127100000D03*
X107800000Y-126100000D03*
X109000000Y-127100000D03*
X107400000Y-126100000D03*
X108200000Y-127100000D03*
X107800000Y-127100000D03*
X108200000Y-126100000D03*
%TO.N,Net-(C10-Pad1)*%
X108600000Y-121300000D03*
X107000000Y-122300000D03*
X108600000Y-122300000D03*
X107000000Y-121300000D03*
X109000000Y-121300000D03*
X107400000Y-122300000D03*
X107800000Y-121300000D03*
X109000000Y-122300000D03*
X107400000Y-121300000D03*
X108200000Y-122300000D03*
X107800000Y-122300000D03*
X108200000Y-121300000D03*
X119600000Y-121600000D03*
X118000000Y-122600000D03*
X119600000Y-122600000D03*
X118000000Y-121600000D03*
X120000000Y-121600000D03*
X118400000Y-122600000D03*
X118800000Y-121600000D03*
X120000000Y-122600000D03*
X118400000Y-121600000D03*
X119200000Y-122600000D03*
X118800000Y-122600000D03*
X119200000Y-121600000D03*
%TO.N,Net-(C8-Pad2)*%
X119600000Y-116800000D03*
X118000000Y-117800000D03*
X119600000Y-117800000D03*
X118000000Y-116800000D03*
X120000000Y-116800000D03*
X118400000Y-117800000D03*
X118800000Y-116800000D03*
X120000000Y-117800000D03*
X118400000Y-116800000D03*
X119200000Y-117800000D03*
X118800000Y-117800000D03*
X119200000Y-116800000D03*
X108600000Y-117100000D03*
X107000000Y-118100000D03*
X108600000Y-118100000D03*
X107000000Y-117100000D03*
X109000000Y-117100000D03*
X107400000Y-118100000D03*
X107800000Y-117100000D03*
X109000000Y-118100000D03*
X107400000Y-117100000D03*
X108200000Y-118100000D03*
X107800000Y-118100000D03*
X108200000Y-117100000D03*
%TO.N,Net-(C6-Pad2)*%
X108600000Y-108100000D03*
X107000000Y-109100000D03*
X108600000Y-109100000D03*
X107000000Y-108100000D03*
X109000000Y-108100000D03*
X107400000Y-109100000D03*
X107800000Y-108100000D03*
X109000000Y-109100000D03*
X107400000Y-108100000D03*
X108200000Y-109100000D03*
X107800000Y-109100000D03*
X108200000Y-108100000D03*
%TO.N,Net-(C7-Pad2)*%
X108600000Y-112300000D03*
X107000000Y-113300000D03*
X108600000Y-113300000D03*
X107000000Y-112300000D03*
X109000000Y-112300000D03*
X107400000Y-113300000D03*
X107800000Y-112300000D03*
X109000000Y-113300000D03*
X107400000Y-112300000D03*
X108200000Y-113300000D03*
X107800000Y-113300000D03*
X108200000Y-112300000D03*
X119600000Y-112600000D03*
X118000000Y-113600000D03*
X119600000Y-113600000D03*
X118000000Y-112600000D03*
X120000000Y-112600000D03*
X118400000Y-113600000D03*
X118800000Y-112600000D03*
X120000000Y-113600000D03*
X118400000Y-112600000D03*
X119200000Y-113600000D03*
X118800000Y-113600000D03*
X119200000Y-112600000D03*
%TO.N,Net-(C6-Pad2)*%
X119600000Y-107800000D03*
X118000000Y-108800000D03*
X119600000Y-108800000D03*
X118000000Y-107800000D03*
X120000000Y-107800000D03*
X118400000Y-108800000D03*
X118800000Y-107800000D03*
X120000000Y-108800000D03*
X118400000Y-107800000D03*
X119200000Y-108800000D03*
X118800000Y-108800000D03*
X119200000Y-107800000D03*
%TO.N,Net-(C5-Pad2)*%
X119600000Y-103600000D03*
X118000000Y-104600000D03*
X119600000Y-104600000D03*
X118000000Y-103600000D03*
X120000000Y-103600000D03*
X118400000Y-104600000D03*
X118800000Y-103600000D03*
X120000000Y-104600000D03*
X118400000Y-103600000D03*
X119200000Y-104600000D03*
X118800000Y-104600000D03*
X119200000Y-103600000D03*
X108600000Y-103400000D03*
X107000000Y-104400000D03*
X108600000Y-104400000D03*
X107000000Y-103400000D03*
X109000000Y-103400000D03*
X107400000Y-104400000D03*
X107800000Y-103400000D03*
X109000000Y-104400000D03*
X107400000Y-103400000D03*
X108200000Y-104400000D03*
X107800000Y-104400000D03*
X108200000Y-103400000D03*
%TO.N,Net-(C4-Pad2)*%
X108600000Y-99100000D03*
X107000000Y-100100000D03*
X108600000Y-100100000D03*
X107000000Y-99100000D03*
X109000000Y-99100000D03*
X107400000Y-100100000D03*
X107800000Y-99100000D03*
X109000000Y-100100000D03*
X107400000Y-99100000D03*
X108200000Y-100100000D03*
X107800000Y-100100000D03*
X108200000Y-99100000D03*
X119600000Y-98800000D03*
X118000000Y-99800000D03*
X119600000Y-99800000D03*
X118000000Y-98800000D03*
X120000000Y-98800000D03*
X118400000Y-99800000D03*
X118800000Y-98800000D03*
X120000000Y-99800000D03*
X118400000Y-98800000D03*
X119200000Y-99800000D03*
X118800000Y-99800000D03*
X119200000Y-98800000D03*
%TO.N,Net-(C3-Pad2)*%
X119600000Y-94600000D03*
X118000000Y-95600000D03*
X119600000Y-95600000D03*
X118000000Y-94600000D03*
X120000000Y-94600000D03*
X118400000Y-95600000D03*
X118800000Y-94600000D03*
X120000000Y-95600000D03*
X118400000Y-94600000D03*
X119200000Y-95600000D03*
X118800000Y-95600000D03*
X119200000Y-94600000D03*
X108600000Y-94300000D03*
X107000000Y-95300000D03*
X108600000Y-95300000D03*
X107000000Y-94300000D03*
X109000000Y-94300000D03*
X107400000Y-95300000D03*
X107800000Y-94300000D03*
X109000000Y-95300000D03*
X107400000Y-94300000D03*
X108200000Y-95300000D03*
X107800000Y-95300000D03*
X108200000Y-94300000D03*
%TO.N,Net-(C2-Pad2)*%
X108600000Y-90100000D03*
X107000000Y-91100000D03*
X108600000Y-91100000D03*
X107000000Y-90100000D03*
X109000000Y-90100000D03*
X107400000Y-91100000D03*
X107800000Y-90100000D03*
X109000000Y-91100000D03*
X107400000Y-90100000D03*
X108200000Y-91100000D03*
X107800000Y-91100000D03*
X108200000Y-90100000D03*
X119600000Y-89800000D03*
X118000000Y-90800000D03*
X119600000Y-90800000D03*
X118000000Y-89800000D03*
X120000000Y-89800000D03*
X118400000Y-90800000D03*
X118800000Y-89800000D03*
X120000000Y-90800000D03*
X118400000Y-89800000D03*
X119200000Y-90800000D03*
X118800000Y-90800000D03*
X119200000Y-89800000D03*
%TO.N,Net-(C1-Pad2)*%
X119600000Y-85600000D03*
X118000000Y-86600000D03*
X119600000Y-86600000D03*
X118000000Y-85600000D03*
X120000000Y-85600000D03*
X118400000Y-86600000D03*
X118800000Y-85600000D03*
X120000000Y-86600000D03*
X118400000Y-85600000D03*
X119200000Y-86600000D03*
X118800000Y-86600000D03*
X119200000Y-85600000D03*
X108200000Y-86300000D03*
X107800000Y-86300000D03*
X107000000Y-86300000D03*
X107400000Y-86300000D03*
X109000000Y-86300000D03*
X108600000Y-86300000D03*
X108200000Y-85300000D03*
X107800000Y-85300000D03*
X107000000Y-85300000D03*
X107400000Y-85300000D03*
X109000000Y-85300000D03*
X108600000Y-85300000D03*
%TO.N,Net-(C19-Pad2)*%
X108200000Y-166800000D03*
X107800000Y-166800000D03*
X106600000Y-166800000D03*
X107000000Y-166800000D03*
X107400000Y-166800000D03*
X109000000Y-166800000D03*
X108600000Y-166800000D03*
%TO.N,Net-(C18-Pad2)*%
X108200000Y-162600000D03*
X107800000Y-162600000D03*
X106600000Y-162600000D03*
X107000000Y-162600000D03*
X107400000Y-162600000D03*
X109000000Y-162600000D03*
X108600000Y-162600000D03*
%TO.N,Net-(C17-Pad2)*%
X108200000Y-157800000D03*
X107800000Y-157800000D03*
X106600000Y-157800000D03*
X107000000Y-157800000D03*
X107400000Y-157800000D03*
X109000000Y-157800000D03*
X108600000Y-157800000D03*
%TO.N,Net-(C16-Pad2)*%
X108200000Y-153600000D03*
X107800000Y-153600000D03*
X106600000Y-153600000D03*
X107000000Y-153600000D03*
X107400000Y-153600000D03*
X109000000Y-153600000D03*
X108600000Y-153600000D03*
%TO.N,Net-(C15-Pad2)*%
X108200000Y-148800000D03*
X107800000Y-148800000D03*
X106600000Y-148800000D03*
X107000000Y-148800000D03*
X107400000Y-148800000D03*
X109000000Y-148800000D03*
X108600000Y-148800000D03*
%TO.N,Net-(C14-Pad2)*%
X108200000Y-144600000D03*
X107800000Y-144600000D03*
X106600000Y-144600000D03*
X107000000Y-144600000D03*
X107400000Y-144600000D03*
X109000000Y-144600000D03*
X108600000Y-144600000D03*
%TO.N,Net-(C13-Pad2)*%
X108200000Y-139800000D03*
X107800000Y-139800000D03*
X106600000Y-139800000D03*
X107000000Y-139800000D03*
X107400000Y-139800000D03*
X109000000Y-139800000D03*
X108600000Y-139800000D03*
%TO.N,Net-(C12-Pad2)*%
X108200000Y-135600000D03*
X107800000Y-135600000D03*
X106600000Y-135600000D03*
X107000000Y-135600000D03*
X107400000Y-135600000D03*
X109000000Y-135600000D03*
X108600000Y-135600000D03*
%TO.N,Net-(C11-Pad2)*%
X108200000Y-130800000D03*
X107800000Y-130800000D03*
X106600000Y-130800000D03*
X107000000Y-130800000D03*
X107400000Y-130800000D03*
X109000000Y-130800000D03*
X108600000Y-130800000D03*
%TO.N,Net-(C10-Pad2)*%
X108200000Y-126600000D03*
X107800000Y-126600000D03*
X106600000Y-126600000D03*
X107000000Y-126600000D03*
X107400000Y-126600000D03*
X109000000Y-126600000D03*
X108600000Y-126600000D03*
%TO.N,Net-(C10-Pad1)*%
X108200000Y-121800000D03*
X107800000Y-121800000D03*
X106600000Y-121800000D03*
X107000000Y-121800000D03*
X107400000Y-121800000D03*
X109000000Y-121800000D03*
X108600000Y-121800000D03*
%TO.N,Net-(C8-Pad2)*%
X108200000Y-117600000D03*
X107800000Y-117600000D03*
X106600000Y-117600000D03*
X107000000Y-117600000D03*
X107400000Y-117600000D03*
X109000000Y-117600000D03*
X108600000Y-117600000D03*
%TO.N,Net-(C7-Pad2)*%
X108200000Y-112800000D03*
X107800000Y-112800000D03*
X106600000Y-112800000D03*
X107000000Y-112800000D03*
X107400000Y-112800000D03*
X109000000Y-112800000D03*
X108600000Y-112800000D03*
%TO.N,Net-(C6-Pad2)*%
X108200000Y-108600000D03*
X107800000Y-108600000D03*
X106600000Y-108600000D03*
X107000000Y-108600000D03*
X107400000Y-108600000D03*
X109000000Y-108600000D03*
X108600000Y-108600000D03*
%TO.N,Net-(C5-Pad2)*%
X108200000Y-103900000D03*
X107800000Y-103900000D03*
X106600000Y-103900000D03*
X107000000Y-103900000D03*
X107400000Y-103900000D03*
X109000000Y-103900000D03*
X108600000Y-103900000D03*
%TO.N,Net-(C4-Pad2)*%
X108200000Y-99600000D03*
X107800000Y-99600000D03*
X106600000Y-99600000D03*
X107000000Y-99600000D03*
X107400000Y-99600000D03*
X109000000Y-99600000D03*
X108600000Y-99600000D03*
%TO.N,Net-(C3-Pad2)*%
X108200000Y-94800000D03*
X107800000Y-94800000D03*
X106600000Y-94800000D03*
X107000000Y-94800000D03*
X107400000Y-94800000D03*
X109000000Y-94800000D03*
X108600000Y-94800000D03*
%TO.N,Net-(C2-Pad2)*%
X108200000Y-90600000D03*
X107800000Y-90600000D03*
X106600000Y-90600000D03*
X107000000Y-90600000D03*
X107400000Y-90600000D03*
X109000000Y-90600000D03*
X108600000Y-90600000D03*
%TO.N,Net-(C19-Pad2)*%
X119600000Y-167100000D03*
X119200000Y-167100000D03*
X118000000Y-167100000D03*
X118400000Y-167100000D03*
X118800000Y-167100000D03*
X120400000Y-167100000D03*
X120000000Y-167100000D03*
%TO.N,Net-(C18-Pad2)*%
X119600000Y-162300000D03*
X119200000Y-162300000D03*
X118000000Y-162300000D03*
X118400000Y-162300000D03*
X118800000Y-162300000D03*
X120400000Y-162300000D03*
X120000000Y-162300000D03*
%TO.N,Net-(C17-Pad2)*%
X119600000Y-158100000D03*
X119200000Y-158100000D03*
X118000000Y-158100000D03*
X118400000Y-158100000D03*
X118800000Y-158100000D03*
X120400000Y-158100000D03*
X120000000Y-158100000D03*
%TO.N,Net-(C16-Pad2)*%
X119600000Y-153300000D03*
X119200000Y-153300000D03*
X118000000Y-153300000D03*
X118400000Y-153300000D03*
X118800000Y-153300000D03*
X120400000Y-153300000D03*
X120000000Y-153300000D03*
%TO.N,Net-(C15-Pad2)*%
X119600000Y-149100000D03*
X119200000Y-149100000D03*
X118000000Y-149100000D03*
X118400000Y-149100000D03*
X118800000Y-149100000D03*
X120400000Y-149100000D03*
X120000000Y-149100000D03*
%TO.N,Net-(C14-Pad2)*%
X119600000Y-144300000D03*
X119200000Y-144300000D03*
X118000000Y-144300000D03*
X118400000Y-144300000D03*
X118800000Y-144300000D03*
X120400000Y-144300000D03*
X120000000Y-144300000D03*
%TO.N,Net-(C13-Pad2)*%
X119600000Y-140100000D03*
X119200000Y-140100000D03*
X118000000Y-140100000D03*
X118400000Y-140100000D03*
X118800000Y-140100000D03*
X120400000Y-140100000D03*
X120000000Y-140100000D03*
%TO.N,Net-(C12-Pad2)*%
X119600000Y-135300000D03*
X119200000Y-135300000D03*
X118000000Y-135300000D03*
X118400000Y-135300000D03*
X118800000Y-135300000D03*
X120400000Y-135300000D03*
X120000000Y-135300000D03*
%TO.N,Net-(C11-Pad2)*%
X119600000Y-131100000D03*
X119200000Y-131100000D03*
X118000000Y-131100000D03*
X118400000Y-131100000D03*
X118800000Y-131100000D03*
X120400000Y-131100000D03*
X120000000Y-131100000D03*
%TO.N,Net-(C10-Pad2)*%
X119600000Y-126300000D03*
X119200000Y-126300000D03*
X118000000Y-126300000D03*
X118400000Y-126300000D03*
X118800000Y-126300000D03*
X120400000Y-126300000D03*
X120000000Y-126300000D03*
%TO.N,Net-(C10-Pad1)*%
X119600000Y-122100000D03*
X119200000Y-122100000D03*
X118000000Y-122100000D03*
X118400000Y-122100000D03*
X118800000Y-122100000D03*
X120400000Y-122100000D03*
X120000000Y-122100000D03*
%TO.N,Net-(C8-Pad2)*%
X119600000Y-117300000D03*
X119200000Y-117300000D03*
X118000000Y-117300000D03*
X118400000Y-117300000D03*
X118800000Y-117300000D03*
X120400000Y-117300000D03*
X120000000Y-117300000D03*
%TO.N,Net-(C7-Pad2)*%
X119600000Y-113100000D03*
X119200000Y-113100000D03*
X118000000Y-113100000D03*
X118400000Y-113100000D03*
X118800000Y-113100000D03*
X120400000Y-113100000D03*
X120000000Y-113100000D03*
%TO.N,Net-(C6-Pad2)*%
X119600000Y-108300000D03*
X119200000Y-108300000D03*
X118000000Y-108300000D03*
X118400000Y-108300000D03*
X118800000Y-108300000D03*
X120400000Y-108300000D03*
X120000000Y-108300000D03*
%TO.N,Net-(C5-Pad2)*%
X119600000Y-104100000D03*
X119200000Y-104100000D03*
X118000000Y-104100000D03*
X118400000Y-104100000D03*
X118800000Y-104100000D03*
X120400000Y-104100000D03*
X120000000Y-104100000D03*
%TO.N,Net-(C4-Pad2)*%
X119600000Y-99300000D03*
X119200000Y-99300000D03*
X118000000Y-99300000D03*
X118400000Y-99300000D03*
X118800000Y-99300000D03*
X120400000Y-99300000D03*
X120000000Y-99300000D03*
%TO.N,Net-(C3-Pad2)*%
X119600000Y-95100000D03*
X119200000Y-95100000D03*
X118000000Y-95100000D03*
X118400000Y-95100000D03*
X118800000Y-95100000D03*
X120400000Y-95100000D03*
X120000000Y-95100000D03*
%TO.N,Net-(C2-Pad2)*%
X119600000Y-90300000D03*
X119200000Y-90300000D03*
X118000000Y-90300000D03*
X118400000Y-90300000D03*
X118800000Y-90300000D03*
X120400000Y-90300000D03*
X120000000Y-90300000D03*
%TO.N,Net-(C1-Pad2)*%
X119600000Y-86100000D03*
X119200000Y-86100000D03*
X118000000Y-86100000D03*
X118400000Y-86100000D03*
X118800000Y-86100000D03*
X120400000Y-86100000D03*
X120000000Y-86100000D03*
X106600000Y-85800000D03*
X109000000Y-85800000D03*
X108600000Y-85800000D03*
X108200000Y-85800000D03*
X107800000Y-85800000D03*
X107400000Y-85800000D03*
X107000000Y-85800000D03*
%TD*%
D14*
%TO.N,Net-(C1-Pad2)*%
X113500000Y-86062500D02*
X113000000Y-86062500D01*
X114000000Y-86062500D02*
X113500000Y-86062500D01*
X116000000Y-86062500D02*
X114000000Y-86062500D01*
X113000000Y-86062500D02*
X111225000Y-86062500D01*
X111225000Y-86062500D02*
X111000000Y-85837500D01*
%TO.N,Net-(C2-Pad2)*%
X111000000Y-90562500D02*
X115775000Y-90562500D01*
X115775000Y-90562500D02*
X116000000Y-90337500D01*
%TO.N,Net-(C3-Pad2)*%
X116000000Y-95062500D02*
X111225000Y-95062500D01*
X111225000Y-95062500D02*
X111000000Y-94837500D01*
%TO.N,Net-(C4-Pad2)*%
X111000000Y-99562500D02*
X115775000Y-99562500D01*
X115775000Y-99562500D02*
X116000000Y-99337500D01*
%TO.N,Net-(C5-Pad2)*%
X116000000Y-104062500D02*
X111225000Y-104062500D01*
X111225000Y-104062500D02*
X111000000Y-103837500D01*
%TO.N,Net-(C6-Pad2)*%
X111000000Y-108562500D02*
X115775000Y-108562500D01*
X115775000Y-108562500D02*
X116000000Y-108337500D01*
%TO.N,Net-(C7-Pad2)*%
X116000000Y-113062500D02*
X111225000Y-113062500D01*
X111225000Y-113062500D02*
X111000000Y-112837500D01*
%TO.N,Net-(C8-Pad2)*%
X111000000Y-117562500D02*
X115775000Y-117562500D01*
X115775000Y-117562500D02*
X116000000Y-117337500D01*
%TO.N,Net-(C10-Pad1)*%
X116000000Y-122062500D02*
X111225000Y-122062500D01*
X111225000Y-122062500D02*
X111000000Y-121837500D01*
%TO.N,Net-(C10-Pad2)*%
X111000000Y-126562500D02*
X115775000Y-126562500D01*
X115775000Y-126562500D02*
X116000000Y-126337500D01*
%TO.N,Net-(C11-Pad2)*%
X116000000Y-131062500D02*
X111225000Y-131062500D01*
X111225000Y-131062500D02*
X111000000Y-130837500D01*
%TO.N,Net-(C12-Pad2)*%
X111000000Y-135562500D02*
X115775000Y-135562500D01*
X115775000Y-135562500D02*
X116000000Y-135337500D01*
%TO.N,Net-(C13-Pad2)*%
X116000000Y-140062500D02*
X111225000Y-140062500D01*
X111225000Y-140062500D02*
X111000000Y-139837500D01*
%TO.N,Net-(C14-Pad2)*%
X111000000Y-144562500D02*
X115775000Y-144562500D01*
X115775000Y-144562500D02*
X116000000Y-144337500D01*
%TO.N,Net-(C15-Pad2)*%
X116000000Y-149062500D02*
X111225000Y-149062500D01*
X111225000Y-149062500D02*
X111000000Y-148837500D01*
%TO.N,Net-(C16-Pad2)*%
X111000000Y-153562500D02*
X115775000Y-153562500D01*
X115775000Y-153562500D02*
X116000000Y-153337500D01*
%TO.N,Net-(C17-Pad2)*%
X116000000Y-158062500D02*
X111225000Y-158062500D01*
X111225000Y-158062500D02*
X111000000Y-157837500D01*
%TO.N,Net-(C18-Pad2)*%
X111000000Y-162562500D02*
X115775000Y-162562500D01*
X115775000Y-162562500D02*
X116000000Y-162337500D01*
%TO.N,Net-(C19-Pad2)*%
X115500000Y-167062500D02*
X111225000Y-167062500D01*
X111225000Y-167062500D02*
X111000000Y-166837500D01*
X116000000Y-167062500D02*
X111225000Y-167062500D01*
%TD*%
%TA.AperFunction,Conductor*%
%TO.N,CONN_1*%
G36*
X142053736Y-77100226D02*
G01*
X142349884Y-77118139D01*
X142364746Y-77119944D01*
X142444181Y-77134500D01*
X142652883Y-77172747D01*
X142667412Y-77176328D01*
X142947081Y-77263477D01*
X142961077Y-77268785D01*
X143228205Y-77389009D01*
X143241463Y-77395967D01*
X143492152Y-77547514D01*
X143504463Y-77556012D01*
X143735061Y-77736674D01*
X143746269Y-77746604D01*
X143953395Y-77953730D01*
X143963325Y-77964938D01*
X144143983Y-78195530D01*
X144152489Y-78207853D01*
X144304031Y-78458535D01*
X144310990Y-78471794D01*
X144431214Y-78738922D01*
X144436523Y-78752922D01*
X144523669Y-79032580D01*
X144527253Y-79047120D01*
X144580055Y-79335253D01*
X144581860Y-79350117D01*
X144599547Y-79642513D01*
X144599547Y-79657487D01*
X144581860Y-79949882D01*
X144580055Y-79964746D01*
X144527253Y-80252879D01*
X144523669Y-80267419D01*
X144436523Y-80547077D01*
X144431214Y-80561077D01*
X144310990Y-80828205D01*
X144304031Y-80841464D01*
X144152489Y-81092146D01*
X144143983Y-81104469D01*
X143963325Y-81335061D01*
X143953395Y-81346269D01*
X143746269Y-81553395D01*
X143735061Y-81563325D01*
X143504469Y-81743983D01*
X143492146Y-81752489D01*
X143241464Y-81904031D01*
X143228205Y-81910990D01*
X142961077Y-82031214D01*
X142947077Y-82036523D01*
X142667419Y-82123669D01*
X142652879Y-82127253D01*
X142364746Y-82180055D01*
X142349882Y-82181860D01*
X142053736Y-82199774D01*
X142046249Y-82200000D01*
X113124000Y-82200000D01*
X113056961Y-82180315D01*
X113011206Y-82127511D01*
X113000000Y-82076000D01*
X113000000Y-82062500D01*
X109000000Y-82062500D01*
X109000000Y-82076000D01*
X108980315Y-82143039D01*
X108927511Y-82188794D01*
X108876000Y-82200000D01*
X85153751Y-82200000D01*
X85146264Y-82199774D01*
X84850117Y-82181860D01*
X84835253Y-82180055D01*
X84547120Y-82127253D01*
X84532580Y-82123669D01*
X84252922Y-82036523D01*
X84238922Y-82031214D01*
X83971794Y-81910990D01*
X83958535Y-81904031D01*
X83707853Y-81752489D01*
X83695530Y-81743983D01*
X83464938Y-81563325D01*
X83453730Y-81553395D01*
X83246604Y-81346269D01*
X83236674Y-81335061D01*
X83056016Y-81104469D01*
X83047514Y-81092152D01*
X82980892Y-80981946D01*
X109000000Y-80981946D01*
X109000000Y-81062500D01*
X110500000Y-81062500D01*
X111500000Y-81062500D01*
X113000000Y-81062500D01*
X113000000Y-80981946D01*
X112989386Y-80893556D01*
X112933920Y-80752904D01*
X112842564Y-80632435D01*
X112722095Y-80541079D01*
X112581443Y-80485613D01*
X112493054Y-80475000D01*
X111500000Y-80475000D01*
X111500000Y-81062500D01*
X110500000Y-81062500D01*
X110500000Y-80475000D01*
X109506946Y-80475000D01*
X109418556Y-80485613D01*
X109277904Y-80541079D01*
X109157435Y-80632435D01*
X109066079Y-80752904D01*
X109010613Y-80893556D01*
X109000000Y-80981946D01*
X82980892Y-80981946D01*
X82895967Y-80841463D01*
X82889009Y-80828205D01*
X82855119Y-80752904D01*
X82768784Y-80561074D01*
X82763476Y-80547077D01*
X82676330Y-80267419D01*
X82672746Y-80252879D01*
X82619944Y-79964746D01*
X82618139Y-79949882D01*
X82600452Y-79657472D01*
X82600452Y-79642527D01*
X82618139Y-79350113D01*
X82619944Y-79335253D01*
X82672746Y-79047120D01*
X82676327Y-79032591D01*
X82763479Y-78752913D01*
X82768781Y-78738930D01*
X82889012Y-78471787D01*
X82895963Y-78458542D01*
X83047519Y-78207839D01*
X83056006Y-78195543D01*
X83236681Y-77964929D01*
X83246596Y-77953738D01*
X83453738Y-77746596D01*
X83464929Y-77736681D01*
X83695543Y-77556006D01*
X83707839Y-77547519D01*
X83958542Y-77395963D01*
X83971787Y-77389012D01*
X84238930Y-77268781D01*
X84252913Y-77263479D01*
X84532591Y-77176327D01*
X84547112Y-77172747D01*
X84835254Y-77119943D01*
X84850113Y-77118139D01*
X85146264Y-77100226D01*
X85153751Y-77100000D01*
X142046249Y-77100000D01*
X142053736Y-77100226D01*
G37*
%TD.AperFunction*%
%TD*%
%TA.AperFunction,Conductor*%
%TO.N,CONN_2*%
G36*
X113943039Y-170719685D02*
G01*
X113988794Y-170772489D01*
X114000000Y-170824000D01*
X114000000Y-170837500D01*
X118000000Y-170837500D01*
X118000000Y-170824000D01*
X118019685Y-170756961D01*
X118072489Y-170711206D01*
X118124000Y-170700000D01*
X142195186Y-170700000D01*
X142202763Y-170700232D01*
X142508648Y-170718957D01*
X142523688Y-170720805D01*
X142550185Y-170725720D01*
X142821294Y-170776013D01*
X142835967Y-170779675D01*
X143119603Y-170869190D01*
X143124616Y-170870772D01*
X143138761Y-170876207D01*
X143414138Y-171001830D01*
X143427503Y-171008944D01*
X143685207Y-171167038D01*
X143685494Y-171167214D01*
X143697903Y-171175913D01*
X143934662Y-171364471D01*
X143945916Y-171374618D01*
X144157903Y-171590642D01*
X144167836Y-171602086D01*
X144351891Y-171842357D01*
X144360354Y-171854927D01*
X144513729Y-172115858D01*
X144520595Y-172129366D01*
X144640995Y-172407050D01*
X144646163Y-172421296D01*
X144731795Y-172711601D01*
X144735186Y-172726370D01*
X144784768Y-173024949D01*
X144786332Y-173040021D01*
X144799127Y-173342500D01*
X144798856Y-173357472D01*
X144774738Y-173663868D01*
X144772699Y-173678521D01*
X144712246Y-173979938D01*
X144708477Y-173994244D01*
X144612553Y-174286331D01*
X144607106Y-174300087D01*
X144477086Y-174578651D01*
X144470041Y-174591659D01*
X144307761Y-174852773D01*
X144299216Y-174864850D01*
X144106996Y-175104776D01*
X144097073Y-175115749D01*
X143877658Y-175331063D01*
X143866499Y-175340777D01*
X143622985Y-175528440D01*
X143610750Y-175536755D01*
X143346635Y-175694073D01*
X143333495Y-175700873D01*
X143052505Y-175825624D01*
X143038649Y-175830809D01*
X142744824Y-175921200D01*
X142730450Y-175924699D01*
X142427938Y-175979457D01*
X142413249Y-175981219D01*
X142111038Y-175999279D01*
X142103641Y-175999500D01*
X85395536Y-175999500D01*
X85387959Y-175999268D01*
X85090241Y-175981042D01*
X85075201Y-175979194D01*
X84824087Y-175932610D01*
X84777607Y-175923988D01*
X84762911Y-175920321D01*
X84669113Y-175890718D01*
X84474273Y-175829227D01*
X84460128Y-175823792D01*
X84184757Y-175698172D01*
X84171381Y-175691052D01*
X83913395Y-175532785D01*
X83900986Y-175524086D01*
X83664227Y-175335528D01*
X83652973Y-175325381D01*
X83440986Y-175109357D01*
X83431053Y-175097913D01*
X83246998Y-174857642D01*
X83238535Y-174845072D01*
X83085160Y-174584141D01*
X83078294Y-174570633D01*
X82957894Y-174292949D01*
X82952726Y-174278703D01*
X82909910Y-174133550D01*
X82867093Y-173988396D01*
X82863703Y-173973629D01*
X82814121Y-173675050D01*
X82812557Y-173659978D01*
X82799762Y-173357499D01*
X82800033Y-173342527D01*
X82800035Y-173342500D01*
X82824152Y-173036118D01*
X82826188Y-173021492D01*
X82886644Y-172720055D01*
X82890412Y-172705755D01*
X82986341Y-172413653D01*
X82991774Y-172399932D01*
X83121809Y-172121335D01*
X83128844Y-172108346D01*
X83247109Y-171918053D01*
X114000000Y-171918053D01*
X114010613Y-172006443D01*
X114066079Y-172147095D01*
X114157435Y-172267564D01*
X114277904Y-172358920D01*
X114418556Y-172414386D01*
X114506946Y-172425000D01*
X115500000Y-172425000D01*
X116500000Y-172425000D01*
X117493054Y-172425000D01*
X117581443Y-172414386D01*
X117722095Y-172358920D01*
X117842564Y-172267564D01*
X117933920Y-172147095D01*
X117989386Y-172006443D01*
X118000000Y-171918053D01*
X118000000Y-171837500D01*
X116500000Y-171837500D01*
X116500000Y-172425000D01*
X115500000Y-172425000D01*
X115500000Y-171837500D01*
X114000000Y-171837500D01*
X114000000Y-171918053D01*
X83247109Y-171918053D01*
X83291132Y-171847219D01*
X83299667Y-171835156D01*
X83491900Y-171595214D01*
X83501808Y-171584258D01*
X83721240Y-171368927D01*
X83732390Y-171359222D01*
X83975904Y-171171559D01*
X83988134Y-171163246D01*
X84252264Y-171005920D01*
X84265383Y-170999131D01*
X84546396Y-170874370D01*
X84560227Y-170869194D01*
X84854079Y-170778795D01*
X84868426Y-170775303D01*
X85170969Y-170720539D01*
X85185623Y-170718782D01*
X85496219Y-170700221D01*
X85503616Y-170700000D01*
X113876000Y-170700000D01*
X113943039Y-170719685D01*
G37*
%TD.AperFunction*%
%TD*%
M02*
