%TF.GenerationSoftware,KiCad,Pcbnew,9.0.6*%
%TF.CreationDate,2025-12-24T02:22:15+01:00*%
%TF.ProjectId,secondary_mmc,7365636f-6e64-4617-9279-5f6d6d632e6b,rev?*%
%TF.SameCoordinates,Original*%
%TF.FileFunction,Soldermask,Top*%
%TF.FilePolarity,Negative*%
%FSLAX46Y46*%
G04 Gerber Fmt 4.6, Leading zero omitted, Abs format (unit mm)*
G04 Created by KiCad (PCBNEW 9.0.6) date 2025-12-24 02:22:15*
%MOMM*%
%LPD*%
G01*
G04 APERTURE LIST*
G04 Aperture macros list*
%AMRoundRect*
0 Rectangle with rounded corners*
0 $1 Rounding radius*
0 $2 $3 $4 $5 $6 $7 $8 $9 X,Y pos of 4 corners*
0 Add a 4 corners polygon primitive as box body*
4,1,4,$2,$3,$4,$5,$6,$7,$8,$9,$2,$3,0*
0 Add four circle primitives for the rounded corners*
1,1,$1+$1,$2,$3*
1,1,$1+$1,$4,$5*
1,1,$1+$1,$6,$7*
1,1,$1+$1,$8,$9*
0 Add four rect primitives between the rounded corners*
20,1,$1+$1,$2,$3,$4,$5,0*
20,1,$1+$1,$4,$5,$6,$7,0*
20,1,$1+$1,$6,$7,$8,$9,0*
20,1,$1+$1,$8,$9,$2,$3,0*%
G04 Aperture macros list end*
%ADD10C,0.100000*%
%ADD11C,0.250000*%
%ADD12RoundRect,0.250000X-1.450000X0.537500X-1.450000X-0.537500X1.450000X-0.537500X1.450000X0.537500X0*%
G04 APERTURE END LIST*
D10*
X85350000Y-172650000D02*
X142150000Y-172650000D01*
X142150000Y-175550000D01*
X85350000Y-175550000D01*
X85350000Y-172650000D01*
G36*
X85350000Y-172650000D02*
G01*
X142150000Y-172650000D01*
X142150000Y-175550000D01*
X85350000Y-175550000D01*
X85350000Y-172650000D01*
G37*
X84700000Y-77500000D02*
X142400000Y-77500000D01*
X142400000Y-80200000D01*
X84700000Y-80200000D01*
X84700000Y-77500000D01*
G36*
X84700000Y-77500000D02*
G01*
X142400000Y-77500000D01*
X142400000Y-80200000D01*
X84700000Y-80200000D01*
X84700000Y-77500000D01*
G37*
D11*
X133607330Y-95603428D02*
X133893044Y-95603428D01*
X133893044Y-95603428D02*
X134035901Y-95674857D01*
X134035901Y-95674857D02*
X134178758Y-95817714D01*
X134178758Y-95817714D02*
X134250187Y-96103428D01*
X134250187Y-96103428D02*
X134250187Y-96603428D01*
X134250187Y-96603428D02*
X134178758Y-96889142D01*
X134178758Y-96889142D02*
X134035901Y-97032000D01*
X134035901Y-97032000D02*
X133893044Y-97103428D01*
X133893044Y-97103428D02*
X133607330Y-97103428D01*
X133607330Y-97103428D02*
X133464473Y-97032000D01*
X133464473Y-97032000D02*
X133321615Y-96889142D01*
X133321615Y-96889142D02*
X133250187Y-96603428D01*
X133250187Y-96603428D02*
X133250187Y-96103428D01*
X133250187Y-96103428D02*
X133321615Y-95817714D01*
X133321615Y-95817714D02*
X133464473Y-95674857D01*
X133464473Y-95674857D02*
X133607330Y-95603428D01*
X134893044Y-96103428D02*
X134893044Y-97603428D01*
X134893044Y-96174857D02*
X135035902Y-96103428D01*
X135035902Y-96103428D02*
X135321616Y-96103428D01*
X135321616Y-96103428D02*
X135464473Y-96174857D01*
X135464473Y-96174857D02*
X135535902Y-96246285D01*
X135535902Y-96246285D02*
X135607330Y-96389142D01*
X135607330Y-96389142D02*
X135607330Y-96817714D01*
X135607330Y-96817714D02*
X135535902Y-96960571D01*
X135535902Y-96960571D02*
X135464473Y-97032000D01*
X135464473Y-97032000D02*
X135321616Y-97103428D01*
X135321616Y-97103428D02*
X135035902Y-97103428D01*
X135035902Y-97103428D02*
X134893044Y-97032000D01*
X136821616Y-97032000D02*
X136678759Y-97103428D01*
X136678759Y-97103428D02*
X136393045Y-97103428D01*
X136393045Y-97103428D02*
X136250187Y-97032000D01*
X136250187Y-97032000D02*
X136178759Y-96889142D01*
X136178759Y-96889142D02*
X136178759Y-96317714D01*
X136178759Y-96317714D02*
X136250187Y-96174857D01*
X136250187Y-96174857D02*
X136393045Y-96103428D01*
X136393045Y-96103428D02*
X136678759Y-96103428D01*
X136678759Y-96103428D02*
X136821616Y-96174857D01*
X136821616Y-96174857D02*
X136893045Y-96317714D01*
X136893045Y-96317714D02*
X136893045Y-96460571D01*
X136893045Y-96460571D02*
X136178759Y-96603428D01*
X137535901Y-96103428D02*
X137535901Y-97103428D01*
X137535901Y-96246285D02*
X137607330Y-96174857D01*
X137607330Y-96174857D02*
X137750187Y-96103428D01*
X137750187Y-96103428D02*
X137964473Y-96103428D01*
X137964473Y-96103428D02*
X138107330Y-96174857D01*
X138107330Y-96174857D02*
X138178759Y-96317714D01*
X138178759Y-96317714D02*
X138178759Y-97103428D01*
X139893044Y-97246285D02*
X139750187Y-97174857D01*
X139750187Y-97174857D02*
X139607330Y-97032000D01*
X139607330Y-97032000D02*
X139393044Y-96817714D01*
X139393044Y-96817714D02*
X139250187Y-96746285D01*
X139250187Y-96746285D02*
X139107330Y-96746285D01*
X139178759Y-97103428D02*
X139035902Y-97032000D01*
X139035902Y-97032000D02*
X138893044Y-96889142D01*
X138893044Y-96889142D02*
X138821616Y-96603428D01*
X138821616Y-96603428D02*
X138821616Y-96103428D01*
X138821616Y-96103428D02*
X138893044Y-95817714D01*
X138893044Y-95817714D02*
X139035902Y-95674857D01*
X139035902Y-95674857D02*
X139178759Y-95603428D01*
X139178759Y-95603428D02*
X139464473Y-95603428D01*
X139464473Y-95603428D02*
X139607330Y-95674857D01*
X139607330Y-95674857D02*
X139750187Y-95817714D01*
X139750187Y-95817714D02*
X139821616Y-96103428D01*
X139821616Y-96103428D02*
X139821616Y-96603428D01*
X139821616Y-96603428D02*
X139750187Y-96889142D01*
X139750187Y-96889142D02*
X139607330Y-97032000D01*
X139607330Y-97032000D02*
X139464473Y-97103428D01*
X139464473Y-97103428D02*
X139178759Y-97103428D01*
X141321616Y-96960571D02*
X141250188Y-97032000D01*
X141250188Y-97032000D02*
X141035902Y-97103428D01*
X141035902Y-97103428D02*
X140893045Y-97103428D01*
X140893045Y-97103428D02*
X140678759Y-97032000D01*
X140678759Y-97032000D02*
X140535902Y-96889142D01*
X140535902Y-96889142D02*
X140464473Y-96746285D01*
X140464473Y-96746285D02*
X140393045Y-96460571D01*
X140393045Y-96460571D02*
X140393045Y-96246285D01*
X140393045Y-96246285D02*
X140464473Y-95960571D01*
X140464473Y-95960571D02*
X140535902Y-95817714D01*
X140535902Y-95817714D02*
X140678759Y-95674857D01*
X140678759Y-95674857D02*
X140893045Y-95603428D01*
X140893045Y-95603428D02*
X141035902Y-95603428D01*
X141035902Y-95603428D02*
X141250188Y-95674857D01*
X141250188Y-95674857D02*
X141321616Y-95746285D01*
X141821616Y-95603428D02*
X142178759Y-97103428D01*
X142178759Y-97103428D02*
X142464473Y-96032000D01*
X142464473Y-96032000D02*
X142750188Y-97103428D01*
X142750188Y-97103428D02*
X143107331Y-95603428D01*
D12*
%TO.C,C5*%
X111000000Y-99562500D03*
X111000000Y-103837500D03*
%TD*%
%TO.C,C4*%
X116000000Y-95062500D03*
X116000000Y-99337500D03*
%TD*%
%TO.C,C1*%
X111000000Y-81562500D03*
X111000000Y-85837500D03*
%TD*%
%TO.C,C2*%
X116000000Y-86062500D03*
X116000000Y-90337500D03*
%TD*%
%TO.C,C3*%
X111000000Y-90562500D03*
X111000000Y-94837500D03*
%TD*%
%TO.C,C19*%
X111000000Y-166837500D03*
X111000000Y-162562500D03*
%TD*%
%TO.C,C18*%
X116000000Y-162337500D03*
X116000000Y-158062500D03*
%TD*%
%TO.C,C17*%
X111000000Y-157837500D03*
X111000000Y-153562500D03*
%TD*%
%TO.C,C16*%
X116000000Y-153337500D03*
X116000000Y-149062500D03*
%TD*%
%TO.C,C15*%
X111000000Y-148837500D03*
X111000000Y-144562500D03*
%TD*%
%TO.C,C14*%
X116000000Y-144337500D03*
X116000000Y-140062500D03*
%TD*%
%TO.C,C13*%
X111000000Y-139837500D03*
X111000000Y-135562500D03*
%TD*%
%TO.C,C12*%
X116000000Y-135337500D03*
X116000000Y-131062500D03*
%TD*%
%TO.C,C11*%
X111000000Y-130837500D03*
X111000000Y-126562500D03*
%TD*%
%TO.C,C10*%
X116000000Y-126337500D03*
X116000000Y-122062500D03*
%TD*%
%TO.C,C9*%
X111000000Y-121837500D03*
X111000000Y-117562500D03*
%TD*%
%TO.C,C8*%
X116000000Y-117337500D03*
X116000000Y-113062500D03*
%TD*%
%TO.C,C7*%
X111000000Y-112837500D03*
X111000000Y-108562500D03*
%TD*%
%TO.C,C6*%
X116000000Y-108337500D03*
X116000000Y-104062500D03*
%TD*%
%TO.C,C20*%
X116000000Y-171337500D03*
X116000000Y-167062500D03*
%TD*%
M02*
