%TF.GenerationSoftware,KiCad,Pcbnew,9.0.6*%
%TF.CreationDate,2025-12-24T02:22:15+01:00*%
%TF.ProjectId,secondary_mmc,7365636f-6e64-4617-9279-5f6d6d632e6b,rev?*%
%TF.SameCoordinates,Original*%
%TF.FileFunction,Copper,L2,Bot*%
%TF.FilePolarity,Positive*%
%FSLAX46Y46*%
G04 Gerber Fmt 4.6, Leading zero omitted, Abs format (unit mm)*
G04 Created by KiCad (PCBNEW 9.0.6) date 2025-12-24 02:22:15*
%MOMM*%
%LPD*%
G01*
G04 APERTURE LIST*
%TA.AperFunction,ViaPad*%
%ADD10C,0.600000*%
%TD*%
G04 APERTURE END LIST*
D10*
%TO.N,Net-(C19-Pad2)*%
X113000000Y-167100000D03*
X113500000Y-167100000D03*
X114000000Y-167100000D03*
%TO.N,Net-(C18-Pad2)*%
X113000000Y-162600000D03*
X113500000Y-162600000D03*
X114000000Y-162600000D03*
%TO.N,Net-(C17-Pad2)*%
X113000000Y-158100000D03*
X113500000Y-158100000D03*
X114000000Y-158100000D03*
%TO.N,Net-(C16-Pad2)*%
X113000000Y-153600000D03*
X113500000Y-153600000D03*
X114000000Y-153600000D03*
%TO.N,Net-(C15-Pad2)*%
X113000000Y-149100000D03*
X113500000Y-149100000D03*
X114000000Y-149100000D03*
%TO.N,Net-(C14-Pad2)*%
X113000000Y-144600000D03*
X113500000Y-144600000D03*
X114000000Y-144600000D03*
%TO.N,Net-(C13-Pad2)*%
X113000000Y-140100000D03*
X113500000Y-140100000D03*
X114000000Y-140100000D03*
%TO.N,Net-(C12-Pad2)*%
X113000000Y-135600000D03*
X113500000Y-135600000D03*
X114000000Y-135600000D03*
%TO.N,Net-(C11-Pad2)*%
X113000000Y-131100000D03*
X113500000Y-131100000D03*
X114000000Y-131100000D03*
%TO.N,Net-(C10-Pad2)*%
X113000000Y-126600000D03*
X113500000Y-126600000D03*
X114000000Y-126600000D03*
%TO.N,Net-(C10-Pad1)*%
X113000000Y-122100000D03*
X113500000Y-122100000D03*
X114000000Y-122100000D03*
%TO.N,Net-(C8-Pad2)*%
X113000000Y-117600000D03*
X113500000Y-117600000D03*
X114000000Y-117600000D03*
%TO.N,Net-(C7-Pad2)*%
X113000000Y-113100000D03*
X113500000Y-113100000D03*
X114000000Y-113100000D03*
%TO.N,Net-(C6-Pad2)*%
X113000000Y-108600000D03*
X113500000Y-108600000D03*
X114000000Y-108600000D03*
%TO.N,Net-(C5-Pad2)*%
X113000000Y-104100000D03*
X113500000Y-104100000D03*
X114000000Y-104100000D03*
%TO.N,Net-(C4-Pad2)*%
X113000000Y-99600000D03*
X113500000Y-99600000D03*
X114000000Y-99600000D03*
%TO.N,Net-(C3-Pad2)*%
X113000000Y-95100000D03*
X113500000Y-95100000D03*
X114000000Y-95100000D03*
%TO.N,Net-(C2-Pad2)*%
X113000000Y-90600000D03*
X113500000Y-90600000D03*
X114000000Y-90600000D03*
%TO.N,Net-(C1-Pad2)*%
X113500000Y-86062500D03*
X114000000Y-86062500D03*
X113000000Y-86062500D03*
%TO.N,Net-(C19-Pad2)*%
X119600000Y-166600000D03*
X118000000Y-167600000D03*
X119600000Y-167600000D03*
X118000000Y-166600000D03*
X120000000Y-166600000D03*
X118400000Y-167600000D03*
X118800000Y-166600000D03*
X120000000Y-167600000D03*
X118400000Y-166600000D03*
X119200000Y-167600000D03*
X118800000Y-167600000D03*
X119200000Y-166600000D03*
X108600000Y-166300000D03*
X107000000Y-167300000D03*
X108600000Y-167300000D03*
X107000000Y-166300000D03*
X109000000Y-166300000D03*
X107400000Y-167300000D03*
X107800000Y-166300000D03*
X109000000Y-167300000D03*
X107400000Y-166300000D03*
X108200000Y-167300000D03*
X107800000Y-167300000D03*
X108200000Y-166300000D03*
%TO.N,Net-(C18-Pad2)*%
X108600000Y-162100000D03*
X107000000Y-163100000D03*
X108600000Y-163100000D03*
X107000000Y-162100000D03*
X109000000Y-162100000D03*
X107400000Y-163100000D03*
X107800000Y-162100000D03*
X109000000Y-163100000D03*
X107400000Y-162100000D03*
X108200000Y-163100000D03*
X107800000Y-163100000D03*
X108200000Y-162100000D03*
X119600000Y-161800000D03*
X118000000Y-162800000D03*
X119600000Y-162800000D03*
X118000000Y-161800000D03*
X120000000Y-161800000D03*
X118400000Y-162800000D03*
X118800000Y-161800000D03*
X120000000Y-162800000D03*
X118400000Y-161800000D03*
X119200000Y-162800000D03*
X118800000Y-162800000D03*
X119200000Y-161800000D03*
%TO.N,Net-(C17-Pad2)*%
X119600000Y-157600000D03*
X118000000Y-158600000D03*
X119600000Y-158600000D03*
X118000000Y-157600000D03*
X120000000Y-157600000D03*
X118400000Y-158600000D03*
X118800000Y-157600000D03*
X120000000Y-158600000D03*
X118400000Y-157600000D03*
X119200000Y-158600000D03*
X118800000Y-158600000D03*
X119200000Y-157600000D03*
X108600000Y-157300000D03*
X107000000Y-158300000D03*
X108600000Y-158300000D03*
X107000000Y-157300000D03*
X109000000Y-157300000D03*
X107400000Y-158300000D03*
X107800000Y-157300000D03*
X109000000Y-158300000D03*
X107400000Y-157300000D03*
X108200000Y-158300000D03*
X107800000Y-158300000D03*
X108200000Y-157300000D03*
%TO.N,Net-(C16-Pad2)*%
X108600000Y-153100000D03*
X107000000Y-154100000D03*
X108600000Y-154100000D03*
X107000000Y-153100000D03*
X109000000Y-153100000D03*
X107400000Y-154100000D03*
X107800000Y-153100000D03*
X109000000Y-154100000D03*
X107400000Y-153100000D03*
X108200000Y-154100000D03*
X107800000Y-154100000D03*
X108200000Y-153100000D03*
X119600000Y-152800000D03*
X118000000Y-153800000D03*
X119600000Y-153800000D03*
X118000000Y-152800000D03*
X120000000Y-152800000D03*
X118400000Y-153800000D03*
X118800000Y-152800000D03*
X120000000Y-153800000D03*
X118400000Y-152800000D03*
X119200000Y-153800000D03*
X118800000Y-153800000D03*
X119200000Y-152800000D03*
%TO.N,Net-(C15-Pad2)*%
X119600000Y-148600000D03*
X118000000Y-149600000D03*
X119600000Y-149600000D03*
X118000000Y-148600000D03*
X120000000Y-148600000D03*
X118400000Y-149600000D03*
X118800000Y-148600000D03*
X120000000Y-149600000D03*
X118400000Y-148600000D03*
X119200000Y-149600000D03*
X118800000Y-149600000D03*
X119200000Y-148600000D03*
X108600000Y-148300000D03*
X107000000Y-149300000D03*
X108600000Y-149300000D03*
X107000000Y-148300000D03*
X109000000Y-148300000D03*
X107400000Y-149300000D03*
X107800000Y-148300000D03*
X109000000Y-149300000D03*
X107400000Y-148300000D03*
X108200000Y-149300000D03*
X107800000Y-149300000D03*
X108200000Y-148300000D03*
%TO.N,Net-(C14-Pad2)*%
X119600000Y-143800000D03*
X118000000Y-144800000D03*
X119600000Y-144800000D03*
X118000000Y-143800000D03*
X120000000Y-143800000D03*
X118400000Y-144800000D03*
X118800000Y-143800000D03*
X120000000Y-144800000D03*
X118400000Y-143800000D03*
X119200000Y-144800000D03*
X118800000Y-144800000D03*
X119200000Y-143800000D03*
X108600000Y-144100000D03*
X107000000Y-145100000D03*
X108600000Y-145100000D03*
X107000000Y-144100000D03*
X109000000Y-144100000D03*
X107400000Y-145100000D03*
X107800000Y-144100000D03*
X109000000Y-145100000D03*
X107400000Y-144100000D03*
X108200000Y-145100000D03*
X107800000Y-145100000D03*
X108200000Y-144100000D03*
%TO.N,Net-(C13-Pad2)*%
X119600000Y-139600000D03*
X118000000Y-140600000D03*
X119600000Y-140600000D03*
X118000000Y-139600000D03*
X120000000Y-139600000D03*
X118400000Y-140600000D03*
X118800000Y-139600000D03*
X120000000Y-140600000D03*
X118400000Y-139600000D03*
X119200000Y-140600000D03*
X118800000Y-140600000D03*
X119200000Y-139600000D03*
X108600000Y-139300000D03*
X107000000Y-140300000D03*
X108600000Y-140300000D03*
X107000000Y-139300000D03*
X109000000Y-139300000D03*
X107400000Y-140300000D03*
X107800000Y-139300000D03*
X109000000Y-140300000D03*
X107400000Y-139300000D03*
X108200000Y-140300000D03*
X107800000Y-140300000D03*
X108200000Y-139300000D03*
%TO.N,Net-(C12-Pad2)*%
X119600000Y-134800000D03*
X118000000Y-135800000D03*
X119600000Y-135800000D03*
X118000000Y-134800000D03*
X120000000Y-134800000D03*
X118400000Y-135800000D03*
X118800000Y-134800000D03*
X120000000Y-135800000D03*
X118400000Y-134800000D03*
X119200000Y-135800000D03*
X118800000Y-135800000D03*
X119200000Y-134800000D03*
X108600000Y-135100000D03*
X107000000Y-136100000D03*
X108600000Y-136100000D03*
X107000000Y-135100000D03*
X109000000Y-135100000D03*
X107400000Y-136100000D03*
X107800000Y-135100000D03*
X109000000Y-136100000D03*
X107400000Y-135100000D03*
X108200000Y-136100000D03*
X107800000Y-136100000D03*
X108200000Y-135100000D03*
%TO.N,Net-(C11-Pad2)*%
X119600000Y-130600000D03*
X118000000Y-131600000D03*
X119600000Y-131600000D03*
X118000000Y-130600000D03*
X120000000Y-130600000D03*
X118400000Y-131600000D03*
X118800000Y-130600000D03*
X120000000Y-131600000D03*
X118400000Y-130600000D03*
X119200000Y-131600000D03*
X118800000Y-131600000D03*
X119200000Y-130600000D03*
X108600000Y-130300000D03*
X107000000Y-131300000D03*
X108600000Y-131300000D03*
X107000000Y-130300000D03*
X109000000Y-130300000D03*
X107400000Y-131300000D03*
X107800000Y-130300000D03*
X109000000Y-131300000D03*
X107400000Y-130300000D03*
X108200000Y-131300000D03*
X107800000Y-131300000D03*
X108200000Y-130300000D03*
%TO.N,Net-(C10-Pad2)*%
X119600000Y-125800000D03*
X118000000Y-126800000D03*
X119600000Y-126800000D03*
X118000000Y-125800000D03*
X120000000Y-125800000D03*
X118400000Y-126800000D03*
X118800000Y-125800000D03*
X120000000Y-126800000D03*
X118400000Y-125800000D03*
X119200000Y-126800000D03*
X118800000Y-126800000D03*
X119200000Y-125800000D03*
X108600000Y-126100000D03*
X107000000Y-127100000D03*
X108600000Y-127100000D03*
X107000000Y-126100000D03*
X109000000Y-126100000D03*
X107400000Y-127100000D03*
X107800000Y-126100000D03*
X109000000Y-127100000D03*
X107400000Y-126100000D03*
X108200000Y-127100000D03*
X107800000Y-127100000D03*
X108200000Y-126100000D03*
%TO.N,Net-(C10-Pad1)*%
X108600000Y-121300000D03*
X107000000Y-122300000D03*
X108600000Y-122300000D03*
X107000000Y-121300000D03*
X109000000Y-121300000D03*
X107400000Y-122300000D03*
X107800000Y-121300000D03*
X109000000Y-122300000D03*
X107400000Y-121300000D03*
X108200000Y-122300000D03*
X107800000Y-122300000D03*
X108200000Y-121300000D03*
X119600000Y-121600000D03*
X118000000Y-122600000D03*
X119600000Y-122600000D03*
X118000000Y-121600000D03*
X120000000Y-121600000D03*
X118400000Y-122600000D03*
X118800000Y-121600000D03*
X120000000Y-122600000D03*
X118400000Y-121600000D03*
X119200000Y-122600000D03*
X118800000Y-122600000D03*
X119200000Y-121600000D03*
%TO.N,Net-(C8-Pad2)*%
X119600000Y-116800000D03*
X118000000Y-117800000D03*
X119600000Y-117800000D03*
X118000000Y-116800000D03*
X120000000Y-116800000D03*
X118400000Y-117800000D03*
X118800000Y-116800000D03*
X120000000Y-117800000D03*
X118400000Y-116800000D03*
X119200000Y-117800000D03*
X118800000Y-117800000D03*
X119200000Y-116800000D03*
X108600000Y-117100000D03*
X107000000Y-118100000D03*
X108600000Y-118100000D03*
X107000000Y-117100000D03*
X109000000Y-117100000D03*
X107400000Y-118100000D03*
X107800000Y-117100000D03*
X109000000Y-118100000D03*
X107400000Y-117100000D03*
X108200000Y-118100000D03*
X107800000Y-118100000D03*
X108200000Y-117100000D03*
%TO.N,Net-(C6-Pad2)*%
X108600000Y-108100000D03*
X107000000Y-109100000D03*
X108600000Y-109100000D03*
X107000000Y-108100000D03*
X109000000Y-108100000D03*
X107400000Y-109100000D03*
X107800000Y-108100000D03*
X109000000Y-109100000D03*
X107400000Y-108100000D03*
X108200000Y-109100000D03*
X107800000Y-109100000D03*
X108200000Y-108100000D03*
%TO.N,Net-(C7-Pad2)*%
X108600000Y-112300000D03*
X107000000Y-113300000D03*
X108600000Y-113300000D03*
X107000000Y-112300000D03*
X109000000Y-112300000D03*
X107400000Y-113300000D03*
X107800000Y-112300000D03*
X109000000Y-113300000D03*
X107400000Y-112300000D03*
X108200000Y-113300000D03*
X107800000Y-113300000D03*
X108200000Y-112300000D03*
X119600000Y-112600000D03*
X118000000Y-113600000D03*
X119600000Y-113600000D03*
X118000000Y-112600000D03*
X120000000Y-112600000D03*
X118400000Y-113600000D03*
X118800000Y-112600000D03*
X120000000Y-113600000D03*
X118400000Y-112600000D03*
X119200000Y-113600000D03*
X118800000Y-113600000D03*
X119200000Y-112600000D03*
%TO.N,Net-(C6-Pad2)*%
X119600000Y-107800000D03*
X118000000Y-108800000D03*
X119600000Y-108800000D03*
X118000000Y-107800000D03*
X120000000Y-107800000D03*
X118400000Y-108800000D03*
X118800000Y-107800000D03*
X120000000Y-108800000D03*
X118400000Y-107800000D03*
X119200000Y-108800000D03*
X118800000Y-108800000D03*
X119200000Y-107800000D03*
%TO.N,Net-(C5-Pad2)*%
X119600000Y-103600000D03*
X118000000Y-104600000D03*
X119600000Y-104600000D03*
X118000000Y-103600000D03*
X120000000Y-103600000D03*
X118400000Y-104600000D03*
X118800000Y-103600000D03*
X120000000Y-104600000D03*
X118400000Y-103600000D03*
X119200000Y-104600000D03*
X118800000Y-104600000D03*
X119200000Y-103600000D03*
X108600000Y-103400000D03*
X107000000Y-104400000D03*
X108600000Y-104400000D03*
X107000000Y-103400000D03*
X109000000Y-103400000D03*
X107400000Y-104400000D03*
X107800000Y-103400000D03*
X109000000Y-104400000D03*
X107400000Y-103400000D03*
X108200000Y-104400000D03*
X107800000Y-104400000D03*
X108200000Y-103400000D03*
%TO.N,Net-(C4-Pad2)*%
X108600000Y-99100000D03*
X107000000Y-100100000D03*
X108600000Y-100100000D03*
X107000000Y-99100000D03*
X109000000Y-99100000D03*
X107400000Y-100100000D03*
X107800000Y-99100000D03*
X109000000Y-100100000D03*
X107400000Y-99100000D03*
X108200000Y-100100000D03*
X107800000Y-100100000D03*
X108200000Y-99100000D03*
X119600000Y-98800000D03*
X118000000Y-99800000D03*
X119600000Y-99800000D03*
X118000000Y-98800000D03*
X120000000Y-98800000D03*
X118400000Y-99800000D03*
X118800000Y-98800000D03*
X120000000Y-99800000D03*
X118400000Y-98800000D03*
X119200000Y-99800000D03*
X118800000Y-99800000D03*
X119200000Y-98800000D03*
%TO.N,Net-(C3-Pad2)*%
X119600000Y-94600000D03*
X118000000Y-95600000D03*
X119600000Y-95600000D03*
X118000000Y-94600000D03*
X120000000Y-94600000D03*
X118400000Y-95600000D03*
X118800000Y-94600000D03*
X120000000Y-95600000D03*
X118400000Y-94600000D03*
X119200000Y-95600000D03*
X118800000Y-95600000D03*
X119200000Y-94600000D03*
X108600000Y-94300000D03*
X107000000Y-95300000D03*
X108600000Y-95300000D03*
X107000000Y-94300000D03*
X109000000Y-94300000D03*
X107400000Y-95300000D03*
X107800000Y-94300000D03*
X109000000Y-95300000D03*
X107400000Y-94300000D03*
X108200000Y-95300000D03*
X107800000Y-95300000D03*
X108200000Y-94300000D03*
%TO.N,Net-(C2-Pad2)*%
X108600000Y-90100000D03*
X107000000Y-91100000D03*
X108600000Y-91100000D03*
X107000000Y-90100000D03*
X109000000Y-90100000D03*
X107400000Y-91100000D03*
X107800000Y-90100000D03*
X109000000Y-91100000D03*
X107400000Y-90100000D03*
X108200000Y-91100000D03*
X107800000Y-91100000D03*
X108200000Y-90100000D03*
X119600000Y-89800000D03*
X118000000Y-90800000D03*
X119600000Y-90800000D03*
X118000000Y-89800000D03*
X120000000Y-89800000D03*
X118400000Y-90800000D03*
X118800000Y-89800000D03*
X120000000Y-90800000D03*
X118400000Y-89800000D03*
X119200000Y-90800000D03*
X118800000Y-90800000D03*
X119200000Y-89800000D03*
%TO.N,Net-(C1-Pad2)*%
X119600000Y-85600000D03*
X118000000Y-86600000D03*
X119600000Y-86600000D03*
X118000000Y-85600000D03*
X120000000Y-85600000D03*
X118400000Y-86600000D03*
X118800000Y-85600000D03*
X120000000Y-86600000D03*
X118400000Y-85600000D03*
X119200000Y-86600000D03*
X118800000Y-86600000D03*
X119200000Y-85600000D03*
X108200000Y-86300000D03*
X107800000Y-86300000D03*
X107000000Y-86300000D03*
X107400000Y-86300000D03*
X109000000Y-86300000D03*
X108600000Y-86300000D03*
X108200000Y-85300000D03*
X107800000Y-85300000D03*
X107000000Y-85300000D03*
X107400000Y-85300000D03*
X109000000Y-85300000D03*
X108600000Y-85300000D03*
%TO.N,Net-(C19-Pad2)*%
X108200000Y-166800000D03*
X107800000Y-166800000D03*
X106600000Y-166800000D03*
X107000000Y-166800000D03*
X107400000Y-166800000D03*
X109000000Y-166800000D03*
X108600000Y-166800000D03*
%TO.N,Net-(C18-Pad2)*%
X108200000Y-162600000D03*
X107800000Y-162600000D03*
X106600000Y-162600000D03*
X107000000Y-162600000D03*
X107400000Y-162600000D03*
X109000000Y-162600000D03*
X108600000Y-162600000D03*
%TO.N,Net-(C17-Pad2)*%
X108200000Y-157800000D03*
X107800000Y-157800000D03*
X106600000Y-157800000D03*
X107000000Y-157800000D03*
X107400000Y-157800000D03*
X109000000Y-157800000D03*
X108600000Y-157800000D03*
%TO.N,Net-(C16-Pad2)*%
X108200000Y-153600000D03*
X107800000Y-153600000D03*
X106600000Y-153600000D03*
X107000000Y-153600000D03*
X107400000Y-153600000D03*
X109000000Y-153600000D03*
X108600000Y-153600000D03*
%TO.N,Net-(C15-Pad2)*%
X108200000Y-148800000D03*
X107800000Y-148800000D03*
X106600000Y-148800000D03*
X107000000Y-148800000D03*
X107400000Y-148800000D03*
X109000000Y-148800000D03*
X108600000Y-148800000D03*
%TO.N,Net-(C14-Pad2)*%
X108200000Y-144600000D03*
X107800000Y-144600000D03*
X106600000Y-144600000D03*
X107000000Y-144600000D03*
X107400000Y-144600000D03*
X109000000Y-144600000D03*
X108600000Y-144600000D03*
%TO.N,Net-(C13-Pad2)*%
X108200000Y-139800000D03*
X107800000Y-139800000D03*
X106600000Y-139800000D03*
X107000000Y-139800000D03*
X107400000Y-139800000D03*
X109000000Y-139800000D03*
X108600000Y-139800000D03*
%TO.N,Net-(C12-Pad2)*%
X108200000Y-135600000D03*
X107800000Y-135600000D03*
X106600000Y-135600000D03*
X107000000Y-135600000D03*
X107400000Y-135600000D03*
X109000000Y-135600000D03*
X108600000Y-135600000D03*
%TO.N,Net-(C11-Pad2)*%
X108200000Y-130800000D03*
X107800000Y-130800000D03*
X106600000Y-130800000D03*
X107000000Y-130800000D03*
X107400000Y-130800000D03*
X109000000Y-130800000D03*
X108600000Y-130800000D03*
%TO.N,Net-(C10-Pad2)*%
X108200000Y-126600000D03*
X107800000Y-126600000D03*
X106600000Y-126600000D03*
X107000000Y-126600000D03*
X107400000Y-126600000D03*
X109000000Y-126600000D03*
X108600000Y-126600000D03*
%TO.N,Net-(C10-Pad1)*%
X108200000Y-121800000D03*
X107800000Y-121800000D03*
X106600000Y-121800000D03*
X107000000Y-121800000D03*
X107400000Y-121800000D03*
X109000000Y-121800000D03*
X108600000Y-121800000D03*
%TO.N,Net-(C8-Pad2)*%
X108200000Y-117600000D03*
X107800000Y-117600000D03*
X106600000Y-117600000D03*
X107000000Y-117600000D03*
X107400000Y-117600000D03*
X109000000Y-117600000D03*
X108600000Y-117600000D03*
%TO.N,Net-(C7-Pad2)*%
X108200000Y-112800000D03*
X107800000Y-112800000D03*
X106600000Y-112800000D03*
X107000000Y-112800000D03*
X107400000Y-112800000D03*
X109000000Y-112800000D03*
X108600000Y-112800000D03*
%TO.N,Net-(C6-Pad2)*%
X108200000Y-108600000D03*
X107800000Y-108600000D03*
X106600000Y-108600000D03*
X107000000Y-108600000D03*
X107400000Y-108600000D03*
X109000000Y-108600000D03*
X108600000Y-108600000D03*
%TO.N,Net-(C5-Pad2)*%
X108200000Y-103900000D03*
X107800000Y-103900000D03*
X106600000Y-103900000D03*
X107000000Y-103900000D03*
X107400000Y-103900000D03*
X109000000Y-103900000D03*
X108600000Y-103900000D03*
%TO.N,Net-(C4-Pad2)*%
X108200000Y-99600000D03*
X107800000Y-99600000D03*
X106600000Y-99600000D03*
X107000000Y-99600000D03*
X107400000Y-99600000D03*
X109000000Y-99600000D03*
X108600000Y-99600000D03*
%TO.N,Net-(C3-Pad2)*%
X108200000Y-94800000D03*
X107800000Y-94800000D03*
X106600000Y-94800000D03*
X107000000Y-94800000D03*
X107400000Y-94800000D03*
X109000000Y-94800000D03*
X108600000Y-94800000D03*
%TO.N,Net-(C2-Pad2)*%
X108200000Y-90600000D03*
X107800000Y-90600000D03*
X106600000Y-90600000D03*
X107000000Y-90600000D03*
X107400000Y-90600000D03*
X109000000Y-90600000D03*
X108600000Y-90600000D03*
%TO.N,Net-(C19-Pad2)*%
X119600000Y-167100000D03*
X119200000Y-167100000D03*
X118000000Y-167100000D03*
X118400000Y-167100000D03*
X118800000Y-167100000D03*
X120400000Y-167100000D03*
X120000000Y-167100000D03*
%TO.N,Net-(C18-Pad2)*%
X119600000Y-162300000D03*
X119200000Y-162300000D03*
X118000000Y-162300000D03*
X118400000Y-162300000D03*
X118800000Y-162300000D03*
X120400000Y-162300000D03*
X120000000Y-162300000D03*
%TO.N,Net-(C17-Pad2)*%
X119600000Y-158100000D03*
X119200000Y-158100000D03*
X118000000Y-158100000D03*
X118400000Y-158100000D03*
X118800000Y-158100000D03*
X120400000Y-158100000D03*
X120000000Y-158100000D03*
%TO.N,Net-(C16-Pad2)*%
X119600000Y-153300000D03*
X119200000Y-153300000D03*
X118000000Y-153300000D03*
X118400000Y-153300000D03*
X118800000Y-153300000D03*
X120400000Y-153300000D03*
X120000000Y-153300000D03*
%TO.N,Net-(C15-Pad2)*%
X119600000Y-149100000D03*
X119200000Y-149100000D03*
X118000000Y-149100000D03*
X118400000Y-149100000D03*
X118800000Y-149100000D03*
X120400000Y-149100000D03*
X120000000Y-149100000D03*
%TO.N,Net-(C14-Pad2)*%
X119600000Y-144300000D03*
X119200000Y-144300000D03*
X118000000Y-144300000D03*
X118400000Y-144300000D03*
X118800000Y-144300000D03*
X120400000Y-144300000D03*
X120000000Y-144300000D03*
%TO.N,Net-(C13-Pad2)*%
X119600000Y-140100000D03*
X119200000Y-140100000D03*
X118000000Y-140100000D03*
X118400000Y-140100000D03*
X118800000Y-140100000D03*
X120400000Y-140100000D03*
X120000000Y-140100000D03*
%TO.N,Net-(C12-Pad2)*%
X119600000Y-135300000D03*
X119200000Y-135300000D03*
X118000000Y-135300000D03*
X118400000Y-135300000D03*
X118800000Y-135300000D03*
X120400000Y-135300000D03*
X120000000Y-135300000D03*
%TO.N,Net-(C11-Pad2)*%
X119600000Y-131100000D03*
X119200000Y-131100000D03*
X118000000Y-131100000D03*
X118400000Y-131100000D03*
X118800000Y-131100000D03*
X120400000Y-131100000D03*
X120000000Y-131100000D03*
%TO.N,Net-(C10-Pad2)*%
X119600000Y-126300000D03*
X119200000Y-126300000D03*
X118000000Y-126300000D03*
X118400000Y-126300000D03*
X118800000Y-126300000D03*
X120400000Y-126300000D03*
X120000000Y-126300000D03*
%TO.N,Net-(C10-Pad1)*%
X119600000Y-122100000D03*
X119200000Y-122100000D03*
X118000000Y-122100000D03*
X118400000Y-122100000D03*
X118800000Y-122100000D03*
X120400000Y-122100000D03*
X120000000Y-122100000D03*
%TO.N,Net-(C8-Pad2)*%
X119600000Y-117300000D03*
X119200000Y-117300000D03*
X118000000Y-117300000D03*
X118400000Y-117300000D03*
X118800000Y-117300000D03*
X120400000Y-117300000D03*
X120000000Y-117300000D03*
%TO.N,Net-(C7-Pad2)*%
X119600000Y-113100000D03*
X119200000Y-113100000D03*
X118000000Y-113100000D03*
X118400000Y-113100000D03*
X118800000Y-113100000D03*
X120400000Y-113100000D03*
X120000000Y-113100000D03*
%TO.N,Net-(C6-Pad2)*%
X119600000Y-108300000D03*
X119200000Y-108300000D03*
X118000000Y-108300000D03*
X118400000Y-108300000D03*
X118800000Y-108300000D03*
X120400000Y-108300000D03*
X120000000Y-108300000D03*
%TO.N,Net-(C5-Pad2)*%
X119600000Y-104100000D03*
X119200000Y-104100000D03*
X118000000Y-104100000D03*
X118400000Y-104100000D03*
X118800000Y-104100000D03*
X120400000Y-104100000D03*
X120000000Y-104100000D03*
%TO.N,Net-(C4-Pad2)*%
X119600000Y-99300000D03*
X119200000Y-99300000D03*
X118000000Y-99300000D03*
X118400000Y-99300000D03*
X118800000Y-99300000D03*
X120400000Y-99300000D03*
X120000000Y-99300000D03*
%TO.N,Net-(C3-Pad2)*%
X119600000Y-95100000D03*
X119200000Y-95100000D03*
X118000000Y-95100000D03*
X118400000Y-95100000D03*
X118800000Y-95100000D03*
X120400000Y-95100000D03*
X120000000Y-95100000D03*
%TO.N,Net-(C2-Pad2)*%
X119600000Y-90300000D03*
X119200000Y-90300000D03*
X118000000Y-90300000D03*
X118400000Y-90300000D03*
X118800000Y-90300000D03*
X120400000Y-90300000D03*
X120000000Y-90300000D03*
%TO.N,Net-(C1-Pad2)*%
X119600000Y-86100000D03*
X119200000Y-86100000D03*
X118000000Y-86100000D03*
X118400000Y-86100000D03*
X118800000Y-86100000D03*
X120400000Y-86100000D03*
X120000000Y-86100000D03*
X106600000Y-85800000D03*
X109000000Y-85800000D03*
X108600000Y-85800000D03*
X108200000Y-85800000D03*
X107800000Y-85800000D03*
X107400000Y-85800000D03*
X107000000Y-85800000D03*
%TD*%
M02*
