%TF.GenerationSoftware,KiCad,Pcbnew,9.0.6*%
%TF.CreationDate,2025-12-24T02:22:15+01:00*%
%TF.ProjectId,secondary_mmc,7365636f-6e64-4617-9279-5f6d6d632e6b,rev?*%
%TF.SameCoordinates,Original*%
%TF.FileFunction,Legend,Top*%
%TF.FilePolarity,Positive*%
%FSLAX46Y46*%
G04 Gerber Fmt 4.6, Leading zero omitted, Abs format (unit mm)*
G04 Created by KiCad (PCBNEW 9.0.6) date 2025-12-24 02:22:15*
%MOMM*%
%LPD*%
G01*
G04 APERTURE LIST*
G04 Aperture macros list*
%AMRoundRect*
0 Rectangle with rounded corners*
0 $1 Rounding radius*
0 $2 $3 $4 $5 $6 $7 $8 $9 X,Y pos of 4 corners*
0 Add a 4 corners polygon primitive as box body*
4,1,4,$2,$3,$4,$5,$6,$7,$8,$9,$2,$3,0*
0 Add four circle primitives for the rounded corners*
1,1,$1+$1,$2,$3*
1,1,$1+$1,$4,$5*
1,1,$1+$1,$6,$7*
1,1,$1+$1,$8,$9*
0 Add four rect primitives between the rounded corners*
20,1,$1+$1,$2,$3,$4,$5,0*
20,1,$1+$1,$4,$5,$6,$7,0*
20,1,$1+$1,$6,$7,$8,$9,0*
20,1,$1+$1,$8,$9,$2,$3,0*%
G04 Aperture macros list end*
%ADD10C,0.400000*%
%ADD11C,0.250000*%
%ADD12C,0.150000*%
%ADD13C,0.000000*%
%ADD14C,0.120000*%
%ADD15C,0.100000*%
%ADD16C,3.200000*%
%ADD17RoundRect,0.250000X-1.450000X0.537500X-1.450000X-0.537500X1.450000X-0.537500X1.450000X0.537500X0*%
G04 APERTURE END LIST*
D10*
X142634438Y-143803509D02*
X142634438Y-144184462D01*
X142634438Y-144184462D02*
X142729676Y-144374938D01*
X142729676Y-144374938D02*
X142824914Y-144470176D01*
X142824914Y-144470176D02*
X143110628Y-144660652D01*
X143110628Y-144660652D02*
X143491580Y-144755890D01*
X143491580Y-144755890D02*
X144253485Y-144755890D01*
X144253485Y-144755890D02*
X144443961Y-144660652D01*
X144443961Y-144660652D02*
X144539200Y-144565414D01*
X144539200Y-144565414D02*
X144634438Y-144374938D01*
X144634438Y-144374938D02*
X144634438Y-143993985D01*
X144634438Y-143993985D02*
X144539200Y-143803509D01*
X144539200Y-143803509D02*
X144443961Y-143708271D01*
X144443961Y-143708271D02*
X144253485Y-143613033D01*
X144253485Y-143613033D02*
X143777295Y-143613033D01*
X143777295Y-143613033D02*
X143586819Y-143708271D01*
X143586819Y-143708271D02*
X143491580Y-143803509D01*
X143491580Y-143803509D02*
X143396342Y-143993985D01*
X143396342Y-143993985D02*
X143396342Y-144374938D01*
X143396342Y-144374938D02*
X143491580Y-144565414D01*
X143491580Y-144565414D02*
X143586819Y-144660652D01*
X143586819Y-144660652D02*
X143777295Y-144755890D01*
X142634438Y-142374938D02*
X142634438Y-142184461D01*
X142634438Y-142184461D02*
X142729676Y-141993985D01*
X142729676Y-141993985D02*
X142824914Y-141898747D01*
X142824914Y-141898747D02*
X143015390Y-141803509D01*
X143015390Y-141803509D02*
X143396342Y-141708271D01*
X143396342Y-141708271D02*
X143872533Y-141708271D01*
X143872533Y-141708271D02*
X144253485Y-141803509D01*
X144253485Y-141803509D02*
X144443961Y-141898747D01*
X144443961Y-141898747D02*
X144539200Y-141993985D01*
X144539200Y-141993985D02*
X144634438Y-142184461D01*
X144634438Y-142184461D02*
X144634438Y-142374938D01*
X144634438Y-142374938D02*
X144539200Y-142565414D01*
X144539200Y-142565414D02*
X144443961Y-142660652D01*
X144443961Y-142660652D02*
X144253485Y-142755890D01*
X144253485Y-142755890D02*
X143872533Y-142851128D01*
X143872533Y-142851128D02*
X143396342Y-142851128D01*
X143396342Y-142851128D02*
X143015390Y-142755890D01*
X143015390Y-142755890D02*
X142824914Y-142660652D01*
X142824914Y-142660652D02*
X142729676Y-142565414D01*
X142729676Y-142565414D02*
X142634438Y-142374938D01*
X144634438Y-140851128D02*
X142634438Y-140851128D01*
X143872533Y-140660652D02*
X144634438Y-140089223D01*
X143301104Y-140089223D02*
X144063009Y-140851128D01*
X142634438Y-139517794D02*
X144634438Y-138851128D01*
X144634438Y-138851128D02*
X142634438Y-138184461D01*
X142634438Y-135041603D02*
X142634438Y-135993984D01*
X142634438Y-135993984D02*
X143586819Y-136089222D01*
X143586819Y-136089222D02*
X143491580Y-135993984D01*
X143491580Y-135993984D02*
X143396342Y-135803508D01*
X143396342Y-135803508D02*
X143396342Y-135327317D01*
X143396342Y-135327317D02*
X143491580Y-135136841D01*
X143491580Y-135136841D02*
X143586819Y-135041603D01*
X143586819Y-135041603D02*
X143777295Y-134946365D01*
X143777295Y-134946365D02*
X144253485Y-134946365D01*
X144253485Y-134946365D02*
X144443961Y-135041603D01*
X144443961Y-135041603D02*
X144539200Y-135136841D01*
X144539200Y-135136841D02*
X144634438Y-135327317D01*
X144634438Y-135327317D02*
X144634438Y-135803508D01*
X144634438Y-135803508D02*
X144539200Y-135993984D01*
X144539200Y-135993984D02*
X144443961Y-136089222D01*
X142634438Y-133708270D02*
X142634438Y-133517793D01*
X142634438Y-133517793D02*
X142729676Y-133327317D01*
X142729676Y-133327317D02*
X142824914Y-133232079D01*
X142824914Y-133232079D02*
X143015390Y-133136841D01*
X143015390Y-133136841D02*
X143396342Y-133041603D01*
X143396342Y-133041603D02*
X143872533Y-133041603D01*
X143872533Y-133041603D02*
X144253485Y-133136841D01*
X144253485Y-133136841D02*
X144443961Y-133232079D01*
X144443961Y-133232079D02*
X144539200Y-133327317D01*
X144539200Y-133327317D02*
X144634438Y-133517793D01*
X144634438Y-133517793D02*
X144634438Y-133708270D01*
X144634438Y-133708270D02*
X144539200Y-133898746D01*
X144539200Y-133898746D02*
X144443961Y-133993984D01*
X144443961Y-133993984D02*
X144253485Y-134089222D01*
X144253485Y-134089222D02*
X143872533Y-134184460D01*
X143872533Y-134184460D02*
X143396342Y-134184460D01*
X143396342Y-134184460D02*
X143015390Y-134089222D01*
X143015390Y-134089222D02*
X142824914Y-133993984D01*
X142824914Y-133993984D02*
X142729676Y-133898746D01*
X142729676Y-133898746D02*
X142634438Y-133708270D01*
X143301104Y-132184460D02*
X145301104Y-132184460D01*
X143396342Y-132184460D02*
X143301104Y-131993984D01*
X143301104Y-131993984D02*
X143301104Y-131613031D01*
X143301104Y-131613031D02*
X143396342Y-131422555D01*
X143396342Y-131422555D02*
X143491580Y-131327317D01*
X143491580Y-131327317D02*
X143682057Y-131232079D01*
X143682057Y-131232079D02*
X144253485Y-131232079D01*
X144253485Y-131232079D02*
X144443961Y-131327317D01*
X144443961Y-131327317D02*
X144539200Y-131422555D01*
X144539200Y-131422555D02*
X144634438Y-131613031D01*
X144634438Y-131613031D02*
X144634438Y-131993984D01*
X144634438Y-131993984D02*
X144539200Y-132184460D01*
X143586819Y-129708269D02*
X143586819Y-130374936D01*
X144634438Y-130374936D02*
X142634438Y-130374936D01*
X142634438Y-130374936D02*
X142634438Y-129422555D01*
X144443961Y-125993983D02*
X144539200Y-126089221D01*
X144539200Y-126089221D02*
X144634438Y-126374935D01*
X144634438Y-126374935D02*
X144634438Y-126565411D01*
X144634438Y-126565411D02*
X144539200Y-126851126D01*
X144539200Y-126851126D02*
X144348723Y-127041602D01*
X144348723Y-127041602D02*
X144158247Y-127136840D01*
X144158247Y-127136840D02*
X143777295Y-127232078D01*
X143777295Y-127232078D02*
X143491580Y-127232078D01*
X143491580Y-127232078D02*
X143110628Y-127136840D01*
X143110628Y-127136840D02*
X142920152Y-127041602D01*
X142920152Y-127041602D02*
X142729676Y-126851126D01*
X142729676Y-126851126D02*
X142634438Y-126565411D01*
X142634438Y-126565411D02*
X142634438Y-126374935D01*
X142634438Y-126374935D02*
X142729676Y-126089221D01*
X142729676Y-126089221D02*
X142824914Y-125993983D01*
X142634438Y-124755888D02*
X142634438Y-124565411D01*
X142634438Y-124565411D02*
X142729676Y-124374935D01*
X142729676Y-124374935D02*
X142824914Y-124279697D01*
X142824914Y-124279697D02*
X143015390Y-124184459D01*
X143015390Y-124184459D02*
X143396342Y-124089221D01*
X143396342Y-124089221D02*
X143872533Y-124089221D01*
X143872533Y-124089221D02*
X144253485Y-124184459D01*
X144253485Y-124184459D02*
X144443961Y-124279697D01*
X144443961Y-124279697D02*
X144539200Y-124374935D01*
X144539200Y-124374935D02*
X144634438Y-124565411D01*
X144634438Y-124565411D02*
X144634438Y-124755888D01*
X144634438Y-124755888D02*
X144539200Y-124946364D01*
X144539200Y-124946364D02*
X144443961Y-125041602D01*
X144443961Y-125041602D02*
X144253485Y-125136840D01*
X144253485Y-125136840D02*
X143872533Y-125232078D01*
X143872533Y-125232078D02*
X143396342Y-125232078D01*
X143396342Y-125232078D02*
X143015390Y-125136840D01*
X143015390Y-125136840D02*
X142824914Y-125041602D01*
X142824914Y-125041602D02*
X142729676Y-124946364D01*
X142729676Y-124946364D02*
X142634438Y-124755888D01*
X142729676Y-122184459D02*
X142634438Y-122374935D01*
X142634438Y-122374935D02*
X142634438Y-122660649D01*
X142634438Y-122660649D02*
X142729676Y-122946364D01*
X142729676Y-122946364D02*
X142920152Y-123136840D01*
X142920152Y-123136840D02*
X143110628Y-123232078D01*
X143110628Y-123232078D02*
X143491580Y-123327316D01*
X143491580Y-123327316D02*
X143777295Y-123327316D01*
X143777295Y-123327316D02*
X144158247Y-123232078D01*
X144158247Y-123232078D02*
X144348723Y-123136840D01*
X144348723Y-123136840D02*
X144539200Y-122946364D01*
X144539200Y-122946364D02*
X144634438Y-122660649D01*
X144634438Y-122660649D02*
X144634438Y-122470173D01*
X144634438Y-122470173D02*
X144539200Y-122184459D01*
X144539200Y-122184459D02*
X144443961Y-122089221D01*
X144443961Y-122089221D02*
X143777295Y-122089221D01*
X143777295Y-122089221D02*
X143777295Y-122470173D01*
X144634438Y-119708268D02*
X142634438Y-119708268D01*
X142634438Y-119708268D02*
X144063009Y-119041601D01*
X144063009Y-119041601D02*
X142634438Y-118374935D01*
X142634438Y-118374935D02*
X144634438Y-118374935D01*
X144634438Y-117422554D02*
X142634438Y-117422554D01*
X142634438Y-117422554D02*
X144063009Y-116755887D01*
X144063009Y-116755887D02*
X142634438Y-116089221D01*
X142634438Y-116089221D02*
X144634438Y-116089221D01*
X144443961Y-113993983D02*
X144539200Y-114089221D01*
X144539200Y-114089221D02*
X144634438Y-114374935D01*
X144634438Y-114374935D02*
X144634438Y-114565411D01*
X144634438Y-114565411D02*
X144539200Y-114851126D01*
X144539200Y-114851126D02*
X144348723Y-115041602D01*
X144348723Y-115041602D02*
X144158247Y-115136840D01*
X144158247Y-115136840D02*
X143777295Y-115232078D01*
X143777295Y-115232078D02*
X143491580Y-115232078D01*
X143491580Y-115232078D02*
X143110628Y-115136840D01*
X143110628Y-115136840D02*
X142920152Y-115041602D01*
X142920152Y-115041602D02*
X142729676Y-114851126D01*
X142729676Y-114851126D02*
X142634438Y-114565411D01*
X142634438Y-114565411D02*
X142634438Y-114374935D01*
X142634438Y-114374935D02*
X142729676Y-114089221D01*
X142729676Y-114089221D02*
X142824914Y-113993983D01*
D11*
X82850187Y-97464619D02*
X83040663Y-97464619D01*
X83040663Y-97464619D02*
X83135901Y-97417000D01*
X83135901Y-97417000D02*
X83183520Y-97369380D01*
X83183520Y-97369380D02*
X83278758Y-97226523D01*
X83278758Y-97226523D02*
X83326377Y-97036047D01*
X83326377Y-97036047D02*
X83326377Y-96655095D01*
X83326377Y-96655095D02*
X83278758Y-96559857D01*
X83278758Y-96559857D02*
X83231139Y-96512238D01*
X83231139Y-96512238D02*
X83135901Y-96464619D01*
X83135901Y-96464619D02*
X82945425Y-96464619D01*
X82945425Y-96464619D02*
X82850187Y-96512238D01*
X82850187Y-96512238D02*
X82802568Y-96559857D01*
X82802568Y-96559857D02*
X82754949Y-96655095D01*
X82754949Y-96655095D02*
X82754949Y-96893190D01*
X82754949Y-96893190D02*
X82802568Y-96988428D01*
X82802568Y-96988428D02*
X82850187Y-97036047D01*
X82850187Y-97036047D02*
X82945425Y-97083666D01*
X82945425Y-97083666D02*
X83135901Y-97083666D01*
X83135901Y-97083666D02*
X83231139Y-97036047D01*
X83231139Y-97036047D02*
X83278758Y-96988428D01*
X83278758Y-96988428D02*
X83326377Y-96893190D01*
X84231139Y-96464619D02*
X83754949Y-96464619D01*
X83754949Y-96464619D02*
X83707330Y-96940809D01*
X83707330Y-96940809D02*
X83754949Y-96893190D01*
X83754949Y-96893190D02*
X83850187Y-96845571D01*
X83850187Y-96845571D02*
X84088282Y-96845571D01*
X84088282Y-96845571D02*
X84183520Y-96893190D01*
X84183520Y-96893190D02*
X84231139Y-96940809D01*
X84231139Y-96940809D02*
X84278758Y-97036047D01*
X84278758Y-97036047D02*
X84278758Y-97274142D01*
X84278758Y-97274142D02*
X84231139Y-97369380D01*
X84231139Y-97369380D02*
X84183520Y-97417000D01*
X84183520Y-97417000D02*
X84088282Y-97464619D01*
X84088282Y-97464619D02*
X83850187Y-97464619D01*
X83850187Y-97464619D02*
X83754949Y-97417000D01*
X83754949Y-97417000D02*
X83707330Y-97369380D01*
X85183520Y-96464619D02*
X84707330Y-96464619D01*
X84707330Y-96464619D02*
X84659711Y-96940809D01*
X84659711Y-96940809D02*
X84707330Y-96893190D01*
X84707330Y-96893190D02*
X84802568Y-96845571D01*
X84802568Y-96845571D02*
X85040663Y-96845571D01*
X85040663Y-96845571D02*
X85135901Y-96893190D01*
X85135901Y-96893190D02*
X85183520Y-96940809D01*
X85183520Y-96940809D02*
X85231139Y-97036047D01*
X85231139Y-97036047D02*
X85231139Y-97274142D01*
X85231139Y-97274142D02*
X85183520Y-97369380D01*
X85183520Y-97369380D02*
X85135901Y-97417000D01*
X85135901Y-97417000D02*
X85040663Y-97464619D01*
X85040663Y-97464619D02*
X84802568Y-97464619D01*
X84802568Y-97464619D02*
X84707330Y-97417000D01*
X84707330Y-97417000D02*
X84659711Y-97369380D01*
X86183520Y-97464619D02*
X85612092Y-97464619D01*
X85897806Y-97464619D02*
X85897806Y-96464619D01*
X85897806Y-96464619D02*
X85802568Y-96607476D01*
X85802568Y-96607476D02*
X85707330Y-96702714D01*
X85707330Y-96702714D02*
X85612092Y-96750333D01*
X87326377Y-96417000D02*
X86469235Y-97702714D01*
X88088282Y-97464619D02*
X88088282Y-96464619D01*
X88088282Y-97417000D02*
X87993044Y-97464619D01*
X87993044Y-97464619D02*
X87802568Y-97464619D01*
X87802568Y-97464619D02*
X87707330Y-97417000D01*
X87707330Y-97417000D02*
X87659711Y-97369380D01*
X87659711Y-97369380D02*
X87612092Y-97274142D01*
X87612092Y-97274142D02*
X87612092Y-96988428D01*
X87612092Y-96988428D02*
X87659711Y-96893190D01*
X87659711Y-96893190D02*
X87707330Y-96845571D01*
X87707330Y-96845571D02*
X87802568Y-96797952D01*
X87802568Y-96797952D02*
X87993044Y-96797952D01*
X87993044Y-96797952D02*
X88088282Y-96845571D01*
X88945425Y-97417000D02*
X88850187Y-97464619D01*
X88850187Y-97464619D02*
X88659711Y-97464619D01*
X88659711Y-97464619D02*
X88564473Y-97417000D01*
X88564473Y-97417000D02*
X88516854Y-97321761D01*
X88516854Y-97321761D02*
X88516854Y-96940809D01*
X88516854Y-96940809D02*
X88564473Y-96845571D01*
X88564473Y-96845571D02*
X88659711Y-96797952D01*
X88659711Y-96797952D02*
X88850187Y-96797952D01*
X88850187Y-96797952D02*
X88945425Y-96845571D01*
X88945425Y-96845571D02*
X88993044Y-96940809D01*
X88993044Y-96940809D02*
X88993044Y-97036047D01*
X88993044Y-97036047D02*
X88516854Y-97131285D01*
X89326378Y-96797952D02*
X89564473Y-97464619D01*
X89564473Y-97464619D02*
X89802568Y-96797952D01*
X90088283Y-96797952D02*
X90326378Y-97464619D01*
X90326378Y-97464619D02*
X90564473Y-96797952D01*
X90945426Y-97464619D02*
X90945426Y-96797952D01*
X90945426Y-96464619D02*
X90897807Y-96512238D01*
X90897807Y-96512238D02*
X90945426Y-96559857D01*
X90945426Y-96559857D02*
X90993045Y-96512238D01*
X90993045Y-96512238D02*
X90945426Y-96464619D01*
X90945426Y-96464619D02*
X90945426Y-96559857D01*
X91802568Y-97417000D02*
X91707330Y-97464619D01*
X91707330Y-97464619D02*
X91516854Y-97464619D01*
X91516854Y-97464619D02*
X91421616Y-97417000D01*
X91421616Y-97417000D02*
X91373997Y-97321761D01*
X91373997Y-97321761D02*
X91373997Y-96940809D01*
X91373997Y-96940809D02*
X91421616Y-96845571D01*
X91421616Y-96845571D02*
X91516854Y-96797952D01*
X91516854Y-96797952D02*
X91707330Y-96797952D01*
X91707330Y-96797952D02*
X91802568Y-96845571D01*
X91802568Y-96845571D02*
X91850187Y-96940809D01*
X91850187Y-96940809D02*
X91850187Y-97036047D01*
X91850187Y-97036047D02*
X91373997Y-97131285D01*
X92278759Y-97369380D02*
X92326378Y-97417000D01*
X92326378Y-97417000D02*
X92278759Y-97464619D01*
X92278759Y-97464619D02*
X92231140Y-97417000D01*
X92231140Y-97417000D02*
X92278759Y-97369380D01*
X92278759Y-97369380D02*
X92278759Y-97464619D01*
X93183520Y-97417000D02*
X93088282Y-97464619D01*
X93088282Y-97464619D02*
X92897806Y-97464619D01*
X92897806Y-97464619D02*
X92802568Y-97417000D01*
X92802568Y-97417000D02*
X92754949Y-97369380D01*
X92754949Y-97369380D02*
X92707330Y-97274142D01*
X92707330Y-97274142D02*
X92707330Y-96988428D01*
X92707330Y-96988428D02*
X92754949Y-96893190D01*
X92754949Y-96893190D02*
X92802568Y-96845571D01*
X92802568Y-96845571D02*
X92897806Y-96797952D01*
X92897806Y-96797952D02*
X93088282Y-96797952D01*
X93088282Y-96797952D02*
X93183520Y-96845571D01*
X94040663Y-97417000D02*
X93945425Y-97464619D01*
X93945425Y-97464619D02*
X93754949Y-97464619D01*
X93754949Y-97464619D02*
X93659711Y-97417000D01*
X93659711Y-97417000D02*
X93612092Y-97369380D01*
X93612092Y-97369380D02*
X93564473Y-97274142D01*
X93564473Y-97274142D02*
X93564473Y-96988428D01*
X93564473Y-96988428D02*
X93612092Y-96893190D01*
X93612092Y-96893190D02*
X93659711Y-96845571D01*
X93659711Y-96845571D02*
X93754949Y-96797952D01*
X93754949Y-96797952D02*
X93945425Y-96797952D01*
X93945425Y-96797952D02*
X94040663Y-96845571D01*
X95183521Y-96559857D02*
X95231140Y-96512238D01*
X95231140Y-96512238D02*
X95326378Y-96464619D01*
X95326378Y-96464619D02*
X95564473Y-96464619D01*
X95564473Y-96464619D02*
X95659711Y-96512238D01*
X95659711Y-96512238D02*
X95707330Y-96559857D01*
X95707330Y-96559857D02*
X95754949Y-96655095D01*
X95754949Y-96655095D02*
X95754949Y-96750333D01*
X95754949Y-96750333D02*
X95707330Y-96893190D01*
X95707330Y-96893190D02*
X95135902Y-97464619D01*
X95135902Y-97464619D02*
X95754949Y-97464619D01*
X96373997Y-96464619D02*
X96469235Y-96464619D01*
X96469235Y-96464619D02*
X96564473Y-96512238D01*
X96564473Y-96512238D02*
X96612092Y-96559857D01*
X96612092Y-96559857D02*
X96659711Y-96655095D01*
X96659711Y-96655095D02*
X96707330Y-96845571D01*
X96707330Y-96845571D02*
X96707330Y-97083666D01*
X96707330Y-97083666D02*
X96659711Y-97274142D01*
X96659711Y-97274142D02*
X96612092Y-97369380D01*
X96612092Y-97369380D02*
X96564473Y-97417000D01*
X96564473Y-97417000D02*
X96469235Y-97464619D01*
X96469235Y-97464619D02*
X96373997Y-97464619D01*
X96373997Y-97464619D02*
X96278759Y-97417000D01*
X96278759Y-97417000D02*
X96231140Y-97369380D01*
X96231140Y-97369380D02*
X96183521Y-97274142D01*
X96183521Y-97274142D02*
X96135902Y-97083666D01*
X96135902Y-97083666D02*
X96135902Y-96845571D01*
X96135902Y-96845571D02*
X96183521Y-96655095D01*
X96183521Y-96655095D02*
X96231140Y-96559857D01*
X96231140Y-96559857D02*
X96278759Y-96512238D01*
X96278759Y-96512238D02*
X96373997Y-96464619D01*
X97088283Y-96559857D02*
X97135902Y-96512238D01*
X97135902Y-96512238D02*
X97231140Y-96464619D01*
X97231140Y-96464619D02*
X97469235Y-96464619D01*
X97469235Y-96464619D02*
X97564473Y-96512238D01*
X97564473Y-96512238D02*
X97612092Y-96559857D01*
X97612092Y-96559857D02*
X97659711Y-96655095D01*
X97659711Y-96655095D02*
X97659711Y-96750333D01*
X97659711Y-96750333D02*
X97612092Y-96893190D01*
X97612092Y-96893190D02*
X97040664Y-97464619D01*
X97040664Y-97464619D02*
X97659711Y-97464619D01*
X98564473Y-96464619D02*
X98088283Y-96464619D01*
X98088283Y-96464619D02*
X98040664Y-96940809D01*
X98040664Y-96940809D02*
X98088283Y-96893190D01*
X98088283Y-96893190D02*
X98183521Y-96845571D01*
X98183521Y-96845571D02*
X98421616Y-96845571D01*
X98421616Y-96845571D02*
X98516854Y-96893190D01*
X98516854Y-96893190D02*
X98564473Y-96940809D01*
X98564473Y-96940809D02*
X98612092Y-97036047D01*
X98612092Y-97036047D02*
X98612092Y-97274142D01*
X98612092Y-97274142D02*
X98564473Y-97369380D01*
X98564473Y-97369380D02*
X98516854Y-97417000D01*
X98516854Y-97417000D02*
X98421616Y-97464619D01*
X98421616Y-97464619D02*
X98183521Y-97464619D01*
X98183521Y-97464619D02*
X98088283Y-97417000D01*
X98088283Y-97417000D02*
X98040664Y-97369380D01*
X99754949Y-96417000D02*
X98897807Y-97702714D01*
X100040664Y-96559857D02*
X100088283Y-96512238D01*
X100088283Y-96512238D02*
X100183521Y-96464619D01*
X100183521Y-96464619D02*
X100421616Y-96464619D01*
X100421616Y-96464619D02*
X100516854Y-96512238D01*
X100516854Y-96512238D02*
X100564473Y-96559857D01*
X100564473Y-96559857D02*
X100612092Y-96655095D01*
X100612092Y-96655095D02*
X100612092Y-96750333D01*
X100612092Y-96750333D02*
X100564473Y-96893190D01*
X100564473Y-96893190D02*
X99993045Y-97464619D01*
X99993045Y-97464619D02*
X100612092Y-97464619D01*
X101469235Y-96464619D02*
X101278759Y-96464619D01*
X101278759Y-96464619D02*
X101183521Y-96512238D01*
X101183521Y-96512238D02*
X101135902Y-96559857D01*
X101135902Y-96559857D02*
X101040664Y-96702714D01*
X101040664Y-96702714D02*
X100993045Y-96893190D01*
X100993045Y-96893190D02*
X100993045Y-97274142D01*
X100993045Y-97274142D02*
X101040664Y-97369380D01*
X101040664Y-97369380D02*
X101088283Y-97417000D01*
X101088283Y-97417000D02*
X101183521Y-97464619D01*
X101183521Y-97464619D02*
X101373997Y-97464619D01*
X101373997Y-97464619D02*
X101469235Y-97417000D01*
X101469235Y-97417000D02*
X101516854Y-97369380D01*
X101516854Y-97369380D02*
X101564473Y-97274142D01*
X101564473Y-97274142D02*
X101564473Y-97036047D01*
X101564473Y-97036047D02*
X101516854Y-96940809D01*
X101516854Y-96940809D02*
X101469235Y-96893190D01*
X101469235Y-96893190D02*
X101373997Y-96845571D01*
X101373997Y-96845571D02*
X101183521Y-96845571D01*
X101183521Y-96845571D02*
X101088283Y-96893190D01*
X101088283Y-96893190D02*
X101040664Y-96940809D01*
X101040664Y-96940809D02*
X100993045Y-97036047D01*
D12*
X86138095Y-84404819D02*
X86138095Y-83404819D01*
X86138095Y-83881009D02*
X86709523Y-83881009D01*
X86709523Y-84404819D02*
X86709523Y-83404819D01*
X87709523Y-84404819D02*
X87138095Y-84404819D01*
X87423809Y-84404819D02*
X87423809Y-83404819D01*
X87423809Y-83404819D02*
X87328571Y-83547676D01*
X87328571Y-83547676D02*
X87233333Y-83642914D01*
X87233333Y-83642914D02*
X87138095Y-83690533D01*
X140238095Y-84404819D02*
X140238095Y-83404819D01*
X140238095Y-83881009D02*
X140809523Y-83881009D01*
X140809523Y-84404819D02*
X140809523Y-83404819D01*
X141238095Y-83500057D02*
X141285714Y-83452438D01*
X141285714Y-83452438D02*
X141380952Y-83404819D01*
X141380952Y-83404819D02*
X141619047Y-83404819D01*
X141619047Y-83404819D02*
X141714285Y-83452438D01*
X141714285Y-83452438D02*
X141761904Y-83500057D01*
X141761904Y-83500057D02*
X141809523Y-83595295D01*
X141809523Y-83595295D02*
X141809523Y-83690533D01*
X141809523Y-83690533D02*
X141761904Y-83833390D01*
X141761904Y-83833390D02*
X141190476Y-84404819D01*
X141190476Y-84404819D02*
X141809523Y-84404819D01*
X82438095Y-162654819D02*
X82438095Y-161654819D01*
X82438095Y-162131009D02*
X83009523Y-162131009D01*
X83009523Y-162654819D02*
X83009523Y-161654819D01*
X83390476Y-161654819D02*
X84009523Y-161654819D01*
X84009523Y-161654819D02*
X83676190Y-162035771D01*
X83676190Y-162035771D02*
X83819047Y-162035771D01*
X83819047Y-162035771D02*
X83914285Y-162083390D01*
X83914285Y-162083390D02*
X83961904Y-162131009D01*
X83961904Y-162131009D02*
X84009523Y-162226247D01*
X84009523Y-162226247D02*
X84009523Y-162464342D01*
X84009523Y-162464342D02*
X83961904Y-162559580D01*
X83961904Y-162559580D02*
X83914285Y-162607200D01*
X83914285Y-162607200D02*
X83819047Y-162654819D01*
X83819047Y-162654819D02*
X83533333Y-162654819D01*
X83533333Y-162654819D02*
X83438095Y-162607200D01*
X83438095Y-162607200D02*
X83390476Y-162559580D01*
X144138095Y-163054819D02*
X144138095Y-162054819D01*
X144138095Y-162531009D02*
X144709523Y-162531009D01*
X144709523Y-163054819D02*
X144709523Y-162054819D01*
X145614285Y-162388152D02*
X145614285Y-163054819D01*
X145376190Y-162007200D02*
X145138095Y-162721485D01*
X145138095Y-162721485D02*
X145757142Y-162721485D01*
X114009580Y-101866666D02*
X114057200Y-101914285D01*
X114057200Y-101914285D02*
X114104819Y-102057142D01*
X114104819Y-102057142D02*
X114104819Y-102152380D01*
X114104819Y-102152380D02*
X114057200Y-102295237D01*
X114057200Y-102295237D02*
X113961961Y-102390475D01*
X113961961Y-102390475D02*
X113866723Y-102438094D01*
X113866723Y-102438094D02*
X113676247Y-102485713D01*
X113676247Y-102485713D02*
X113533390Y-102485713D01*
X113533390Y-102485713D02*
X113342914Y-102438094D01*
X113342914Y-102438094D02*
X113247676Y-102390475D01*
X113247676Y-102390475D02*
X113152438Y-102295237D01*
X113152438Y-102295237D02*
X113104819Y-102152380D01*
X113104819Y-102152380D02*
X113104819Y-102057142D01*
X113104819Y-102057142D02*
X113152438Y-101914285D01*
X113152438Y-101914285D02*
X113200057Y-101866666D01*
X113104819Y-100961904D02*
X113104819Y-101438094D01*
X113104819Y-101438094D02*
X113581009Y-101485713D01*
X113581009Y-101485713D02*
X113533390Y-101438094D01*
X113533390Y-101438094D02*
X113485771Y-101342856D01*
X113485771Y-101342856D02*
X113485771Y-101104761D01*
X113485771Y-101104761D02*
X113533390Y-101009523D01*
X113533390Y-101009523D02*
X113581009Y-100961904D01*
X113581009Y-100961904D02*
X113676247Y-100914285D01*
X113676247Y-100914285D02*
X113914342Y-100914285D01*
X113914342Y-100914285D02*
X114009580Y-100961904D01*
X114009580Y-100961904D02*
X114057200Y-101009523D01*
X114057200Y-101009523D02*
X114104819Y-101104761D01*
X114104819Y-101104761D02*
X114104819Y-101342856D01*
X114104819Y-101342856D02*
X114057200Y-101438094D01*
X114057200Y-101438094D02*
X114009580Y-101485713D01*
X119009580Y-97366666D02*
X119057200Y-97414285D01*
X119057200Y-97414285D02*
X119104819Y-97557142D01*
X119104819Y-97557142D02*
X119104819Y-97652380D01*
X119104819Y-97652380D02*
X119057200Y-97795237D01*
X119057200Y-97795237D02*
X118961961Y-97890475D01*
X118961961Y-97890475D02*
X118866723Y-97938094D01*
X118866723Y-97938094D02*
X118676247Y-97985713D01*
X118676247Y-97985713D02*
X118533390Y-97985713D01*
X118533390Y-97985713D02*
X118342914Y-97938094D01*
X118342914Y-97938094D02*
X118247676Y-97890475D01*
X118247676Y-97890475D02*
X118152438Y-97795237D01*
X118152438Y-97795237D02*
X118104819Y-97652380D01*
X118104819Y-97652380D02*
X118104819Y-97557142D01*
X118104819Y-97557142D02*
X118152438Y-97414285D01*
X118152438Y-97414285D02*
X118200057Y-97366666D01*
X118438152Y-96509523D02*
X119104819Y-96509523D01*
X118057200Y-96747618D02*
X118771485Y-96985713D01*
X118771485Y-96985713D02*
X118771485Y-96366666D01*
X114009580Y-83866666D02*
X114057200Y-83914285D01*
X114057200Y-83914285D02*
X114104819Y-84057142D01*
X114104819Y-84057142D02*
X114104819Y-84152380D01*
X114104819Y-84152380D02*
X114057200Y-84295237D01*
X114057200Y-84295237D02*
X113961961Y-84390475D01*
X113961961Y-84390475D02*
X113866723Y-84438094D01*
X113866723Y-84438094D02*
X113676247Y-84485713D01*
X113676247Y-84485713D02*
X113533390Y-84485713D01*
X113533390Y-84485713D02*
X113342914Y-84438094D01*
X113342914Y-84438094D02*
X113247676Y-84390475D01*
X113247676Y-84390475D02*
X113152438Y-84295237D01*
X113152438Y-84295237D02*
X113104819Y-84152380D01*
X113104819Y-84152380D02*
X113104819Y-84057142D01*
X113104819Y-84057142D02*
X113152438Y-83914285D01*
X113152438Y-83914285D02*
X113200057Y-83866666D01*
X114104819Y-82914285D02*
X114104819Y-83485713D01*
X114104819Y-83199999D02*
X113104819Y-83199999D01*
X113104819Y-83199999D02*
X113247676Y-83295237D01*
X113247676Y-83295237D02*
X113342914Y-83390475D01*
X113342914Y-83390475D02*
X113390533Y-83485713D01*
X119009580Y-88366666D02*
X119057200Y-88414285D01*
X119057200Y-88414285D02*
X119104819Y-88557142D01*
X119104819Y-88557142D02*
X119104819Y-88652380D01*
X119104819Y-88652380D02*
X119057200Y-88795237D01*
X119057200Y-88795237D02*
X118961961Y-88890475D01*
X118961961Y-88890475D02*
X118866723Y-88938094D01*
X118866723Y-88938094D02*
X118676247Y-88985713D01*
X118676247Y-88985713D02*
X118533390Y-88985713D01*
X118533390Y-88985713D02*
X118342914Y-88938094D01*
X118342914Y-88938094D02*
X118247676Y-88890475D01*
X118247676Y-88890475D02*
X118152438Y-88795237D01*
X118152438Y-88795237D02*
X118104819Y-88652380D01*
X118104819Y-88652380D02*
X118104819Y-88557142D01*
X118104819Y-88557142D02*
X118152438Y-88414285D01*
X118152438Y-88414285D02*
X118200057Y-88366666D01*
X118200057Y-87985713D02*
X118152438Y-87938094D01*
X118152438Y-87938094D02*
X118104819Y-87842856D01*
X118104819Y-87842856D02*
X118104819Y-87604761D01*
X118104819Y-87604761D02*
X118152438Y-87509523D01*
X118152438Y-87509523D02*
X118200057Y-87461904D01*
X118200057Y-87461904D02*
X118295295Y-87414285D01*
X118295295Y-87414285D02*
X118390533Y-87414285D01*
X118390533Y-87414285D02*
X118533390Y-87461904D01*
X118533390Y-87461904D02*
X119104819Y-88033332D01*
X119104819Y-88033332D02*
X119104819Y-87414285D01*
X114009580Y-92866666D02*
X114057200Y-92914285D01*
X114057200Y-92914285D02*
X114104819Y-93057142D01*
X114104819Y-93057142D02*
X114104819Y-93152380D01*
X114104819Y-93152380D02*
X114057200Y-93295237D01*
X114057200Y-93295237D02*
X113961961Y-93390475D01*
X113961961Y-93390475D02*
X113866723Y-93438094D01*
X113866723Y-93438094D02*
X113676247Y-93485713D01*
X113676247Y-93485713D02*
X113533390Y-93485713D01*
X113533390Y-93485713D02*
X113342914Y-93438094D01*
X113342914Y-93438094D02*
X113247676Y-93390475D01*
X113247676Y-93390475D02*
X113152438Y-93295237D01*
X113152438Y-93295237D02*
X113104819Y-93152380D01*
X113104819Y-93152380D02*
X113104819Y-93057142D01*
X113104819Y-93057142D02*
X113152438Y-92914285D01*
X113152438Y-92914285D02*
X113200057Y-92866666D01*
X113104819Y-92533332D02*
X113104819Y-91914285D01*
X113104819Y-91914285D02*
X113485771Y-92247618D01*
X113485771Y-92247618D02*
X113485771Y-92104761D01*
X113485771Y-92104761D02*
X113533390Y-92009523D01*
X113533390Y-92009523D02*
X113581009Y-91961904D01*
X113581009Y-91961904D02*
X113676247Y-91914285D01*
X113676247Y-91914285D02*
X113914342Y-91914285D01*
X113914342Y-91914285D02*
X114009580Y-91961904D01*
X114009580Y-91961904D02*
X114057200Y-92009523D01*
X114057200Y-92009523D02*
X114104819Y-92104761D01*
X114104819Y-92104761D02*
X114104819Y-92390475D01*
X114104819Y-92390475D02*
X114057200Y-92485713D01*
X114057200Y-92485713D02*
X114009580Y-92533332D01*
X114009580Y-165342857D02*
X114057200Y-165390476D01*
X114057200Y-165390476D02*
X114104819Y-165533333D01*
X114104819Y-165533333D02*
X114104819Y-165628571D01*
X114104819Y-165628571D02*
X114057200Y-165771428D01*
X114057200Y-165771428D02*
X113961961Y-165866666D01*
X113961961Y-165866666D02*
X113866723Y-165914285D01*
X113866723Y-165914285D02*
X113676247Y-165961904D01*
X113676247Y-165961904D02*
X113533390Y-165961904D01*
X113533390Y-165961904D02*
X113342914Y-165914285D01*
X113342914Y-165914285D02*
X113247676Y-165866666D01*
X113247676Y-165866666D02*
X113152438Y-165771428D01*
X113152438Y-165771428D02*
X113104819Y-165628571D01*
X113104819Y-165628571D02*
X113104819Y-165533333D01*
X113104819Y-165533333D02*
X113152438Y-165390476D01*
X113152438Y-165390476D02*
X113200057Y-165342857D01*
X114104819Y-164390476D02*
X114104819Y-164961904D01*
X114104819Y-164676190D02*
X113104819Y-164676190D01*
X113104819Y-164676190D02*
X113247676Y-164771428D01*
X113247676Y-164771428D02*
X113342914Y-164866666D01*
X113342914Y-164866666D02*
X113390533Y-164961904D01*
X114104819Y-163914285D02*
X114104819Y-163723809D01*
X114104819Y-163723809D02*
X114057200Y-163628571D01*
X114057200Y-163628571D02*
X114009580Y-163580952D01*
X114009580Y-163580952D02*
X113866723Y-163485714D01*
X113866723Y-163485714D02*
X113676247Y-163438095D01*
X113676247Y-163438095D02*
X113295295Y-163438095D01*
X113295295Y-163438095D02*
X113200057Y-163485714D01*
X113200057Y-163485714D02*
X113152438Y-163533333D01*
X113152438Y-163533333D02*
X113104819Y-163628571D01*
X113104819Y-163628571D02*
X113104819Y-163819047D01*
X113104819Y-163819047D02*
X113152438Y-163914285D01*
X113152438Y-163914285D02*
X113200057Y-163961904D01*
X113200057Y-163961904D02*
X113295295Y-164009523D01*
X113295295Y-164009523D02*
X113533390Y-164009523D01*
X113533390Y-164009523D02*
X113628628Y-163961904D01*
X113628628Y-163961904D02*
X113676247Y-163914285D01*
X113676247Y-163914285D02*
X113723866Y-163819047D01*
X113723866Y-163819047D02*
X113723866Y-163628571D01*
X113723866Y-163628571D02*
X113676247Y-163533333D01*
X113676247Y-163533333D02*
X113628628Y-163485714D01*
X113628628Y-163485714D02*
X113533390Y-163438095D01*
X119009580Y-160842857D02*
X119057200Y-160890476D01*
X119057200Y-160890476D02*
X119104819Y-161033333D01*
X119104819Y-161033333D02*
X119104819Y-161128571D01*
X119104819Y-161128571D02*
X119057200Y-161271428D01*
X119057200Y-161271428D02*
X118961961Y-161366666D01*
X118961961Y-161366666D02*
X118866723Y-161414285D01*
X118866723Y-161414285D02*
X118676247Y-161461904D01*
X118676247Y-161461904D02*
X118533390Y-161461904D01*
X118533390Y-161461904D02*
X118342914Y-161414285D01*
X118342914Y-161414285D02*
X118247676Y-161366666D01*
X118247676Y-161366666D02*
X118152438Y-161271428D01*
X118152438Y-161271428D02*
X118104819Y-161128571D01*
X118104819Y-161128571D02*
X118104819Y-161033333D01*
X118104819Y-161033333D02*
X118152438Y-160890476D01*
X118152438Y-160890476D02*
X118200057Y-160842857D01*
X119104819Y-159890476D02*
X119104819Y-160461904D01*
X119104819Y-160176190D02*
X118104819Y-160176190D01*
X118104819Y-160176190D02*
X118247676Y-160271428D01*
X118247676Y-160271428D02*
X118342914Y-160366666D01*
X118342914Y-160366666D02*
X118390533Y-160461904D01*
X118533390Y-159319047D02*
X118485771Y-159414285D01*
X118485771Y-159414285D02*
X118438152Y-159461904D01*
X118438152Y-159461904D02*
X118342914Y-159509523D01*
X118342914Y-159509523D02*
X118295295Y-159509523D01*
X118295295Y-159509523D02*
X118200057Y-159461904D01*
X118200057Y-159461904D02*
X118152438Y-159414285D01*
X118152438Y-159414285D02*
X118104819Y-159319047D01*
X118104819Y-159319047D02*
X118104819Y-159128571D01*
X118104819Y-159128571D02*
X118152438Y-159033333D01*
X118152438Y-159033333D02*
X118200057Y-158985714D01*
X118200057Y-158985714D02*
X118295295Y-158938095D01*
X118295295Y-158938095D02*
X118342914Y-158938095D01*
X118342914Y-158938095D02*
X118438152Y-158985714D01*
X118438152Y-158985714D02*
X118485771Y-159033333D01*
X118485771Y-159033333D02*
X118533390Y-159128571D01*
X118533390Y-159128571D02*
X118533390Y-159319047D01*
X118533390Y-159319047D02*
X118581009Y-159414285D01*
X118581009Y-159414285D02*
X118628628Y-159461904D01*
X118628628Y-159461904D02*
X118723866Y-159509523D01*
X118723866Y-159509523D02*
X118914342Y-159509523D01*
X118914342Y-159509523D02*
X119009580Y-159461904D01*
X119009580Y-159461904D02*
X119057200Y-159414285D01*
X119057200Y-159414285D02*
X119104819Y-159319047D01*
X119104819Y-159319047D02*
X119104819Y-159128571D01*
X119104819Y-159128571D02*
X119057200Y-159033333D01*
X119057200Y-159033333D02*
X119009580Y-158985714D01*
X119009580Y-158985714D02*
X118914342Y-158938095D01*
X118914342Y-158938095D02*
X118723866Y-158938095D01*
X118723866Y-158938095D02*
X118628628Y-158985714D01*
X118628628Y-158985714D02*
X118581009Y-159033333D01*
X118581009Y-159033333D02*
X118533390Y-159128571D01*
X114009580Y-156342857D02*
X114057200Y-156390476D01*
X114057200Y-156390476D02*
X114104819Y-156533333D01*
X114104819Y-156533333D02*
X114104819Y-156628571D01*
X114104819Y-156628571D02*
X114057200Y-156771428D01*
X114057200Y-156771428D02*
X113961961Y-156866666D01*
X113961961Y-156866666D02*
X113866723Y-156914285D01*
X113866723Y-156914285D02*
X113676247Y-156961904D01*
X113676247Y-156961904D02*
X113533390Y-156961904D01*
X113533390Y-156961904D02*
X113342914Y-156914285D01*
X113342914Y-156914285D02*
X113247676Y-156866666D01*
X113247676Y-156866666D02*
X113152438Y-156771428D01*
X113152438Y-156771428D02*
X113104819Y-156628571D01*
X113104819Y-156628571D02*
X113104819Y-156533333D01*
X113104819Y-156533333D02*
X113152438Y-156390476D01*
X113152438Y-156390476D02*
X113200057Y-156342857D01*
X114104819Y-155390476D02*
X114104819Y-155961904D01*
X114104819Y-155676190D02*
X113104819Y-155676190D01*
X113104819Y-155676190D02*
X113247676Y-155771428D01*
X113247676Y-155771428D02*
X113342914Y-155866666D01*
X113342914Y-155866666D02*
X113390533Y-155961904D01*
X113104819Y-155057142D02*
X113104819Y-154390476D01*
X113104819Y-154390476D02*
X114104819Y-154819047D01*
X119009580Y-151842857D02*
X119057200Y-151890476D01*
X119057200Y-151890476D02*
X119104819Y-152033333D01*
X119104819Y-152033333D02*
X119104819Y-152128571D01*
X119104819Y-152128571D02*
X119057200Y-152271428D01*
X119057200Y-152271428D02*
X118961961Y-152366666D01*
X118961961Y-152366666D02*
X118866723Y-152414285D01*
X118866723Y-152414285D02*
X118676247Y-152461904D01*
X118676247Y-152461904D02*
X118533390Y-152461904D01*
X118533390Y-152461904D02*
X118342914Y-152414285D01*
X118342914Y-152414285D02*
X118247676Y-152366666D01*
X118247676Y-152366666D02*
X118152438Y-152271428D01*
X118152438Y-152271428D02*
X118104819Y-152128571D01*
X118104819Y-152128571D02*
X118104819Y-152033333D01*
X118104819Y-152033333D02*
X118152438Y-151890476D01*
X118152438Y-151890476D02*
X118200057Y-151842857D01*
X119104819Y-150890476D02*
X119104819Y-151461904D01*
X119104819Y-151176190D02*
X118104819Y-151176190D01*
X118104819Y-151176190D02*
X118247676Y-151271428D01*
X118247676Y-151271428D02*
X118342914Y-151366666D01*
X118342914Y-151366666D02*
X118390533Y-151461904D01*
X118104819Y-150033333D02*
X118104819Y-150223809D01*
X118104819Y-150223809D02*
X118152438Y-150319047D01*
X118152438Y-150319047D02*
X118200057Y-150366666D01*
X118200057Y-150366666D02*
X118342914Y-150461904D01*
X118342914Y-150461904D02*
X118533390Y-150509523D01*
X118533390Y-150509523D02*
X118914342Y-150509523D01*
X118914342Y-150509523D02*
X119009580Y-150461904D01*
X119009580Y-150461904D02*
X119057200Y-150414285D01*
X119057200Y-150414285D02*
X119104819Y-150319047D01*
X119104819Y-150319047D02*
X119104819Y-150128571D01*
X119104819Y-150128571D02*
X119057200Y-150033333D01*
X119057200Y-150033333D02*
X119009580Y-149985714D01*
X119009580Y-149985714D02*
X118914342Y-149938095D01*
X118914342Y-149938095D02*
X118676247Y-149938095D01*
X118676247Y-149938095D02*
X118581009Y-149985714D01*
X118581009Y-149985714D02*
X118533390Y-150033333D01*
X118533390Y-150033333D02*
X118485771Y-150128571D01*
X118485771Y-150128571D02*
X118485771Y-150319047D01*
X118485771Y-150319047D02*
X118533390Y-150414285D01*
X118533390Y-150414285D02*
X118581009Y-150461904D01*
X118581009Y-150461904D02*
X118676247Y-150509523D01*
X114009580Y-147342857D02*
X114057200Y-147390476D01*
X114057200Y-147390476D02*
X114104819Y-147533333D01*
X114104819Y-147533333D02*
X114104819Y-147628571D01*
X114104819Y-147628571D02*
X114057200Y-147771428D01*
X114057200Y-147771428D02*
X113961961Y-147866666D01*
X113961961Y-147866666D02*
X113866723Y-147914285D01*
X113866723Y-147914285D02*
X113676247Y-147961904D01*
X113676247Y-147961904D02*
X113533390Y-147961904D01*
X113533390Y-147961904D02*
X113342914Y-147914285D01*
X113342914Y-147914285D02*
X113247676Y-147866666D01*
X113247676Y-147866666D02*
X113152438Y-147771428D01*
X113152438Y-147771428D02*
X113104819Y-147628571D01*
X113104819Y-147628571D02*
X113104819Y-147533333D01*
X113104819Y-147533333D02*
X113152438Y-147390476D01*
X113152438Y-147390476D02*
X113200057Y-147342857D01*
X114104819Y-146390476D02*
X114104819Y-146961904D01*
X114104819Y-146676190D02*
X113104819Y-146676190D01*
X113104819Y-146676190D02*
X113247676Y-146771428D01*
X113247676Y-146771428D02*
X113342914Y-146866666D01*
X113342914Y-146866666D02*
X113390533Y-146961904D01*
X113104819Y-145485714D02*
X113104819Y-145961904D01*
X113104819Y-145961904D02*
X113581009Y-146009523D01*
X113581009Y-146009523D02*
X113533390Y-145961904D01*
X113533390Y-145961904D02*
X113485771Y-145866666D01*
X113485771Y-145866666D02*
X113485771Y-145628571D01*
X113485771Y-145628571D02*
X113533390Y-145533333D01*
X113533390Y-145533333D02*
X113581009Y-145485714D01*
X113581009Y-145485714D02*
X113676247Y-145438095D01*
X113676247Y-145438095D02*
X113914342Y-145438095D01*
X113914342Y-145438095D02*
X114009580Y-145485714D01*
X114009580Y-145485714D02*
X114057200Y-145533333D01*
X114057200Y-145533333D02*
X114104819Y-145628571D01*
X114104819Y-145628571D02*
X114104819Y-145866666D01*
X114104819Y-145866666D02*
X114057200Y-145961904D01*
X114057200Y-145961904D02*
X114009580Y-146009523D01*
X119009580Y-142842857D02*
X119057200Y-142890476D01*
X119057200Y-142890476D02*
X119104819Y-143033333D01*
X119104819Y-143033333D02*
X119104819Y-143128571D01*
X119104819Y-143128571D02*
X119057200Y-143271428D01*
X119057200Y-143271428D02*
X118961961Y-143366666D01*
X118961961Y-143366666D02*
X118866723Y-143414285D01*
X118866723Y-143414285D02*
X118676247Y-143461904D01*
X118676247Y-143461904D02*
X118533390Y-143461904D01*
X118533390Y-143461904D02*
X118342914Y-143414285D01*
X118342914Y-143414285D02*
X118247676Y-143366666D01*
X118247676Y-143366666D02*
X118152438Y-143271428D01*
X118152438Y-143271428D02*
X118104819Y-143128571D01*
X118104819Y-143128571D02*
X118104819Y-143033333D01*
X118104819Y-143033333D02*
X118152438Y-142890476D01*
X118152438Y-142890476D02*
X118200057Y-142842857D01*
X119104819Y-141890476D02*
X119104819Y-142461904D01*
X119104819Y-142176190D02*
X118104819Y-142176190D01*
X118104819Y-142176190D02*
X118247676Y-142271428D01*
X118247676Y-142271428D02*
X118342914Y-142366666D01*
X118342914Y-142366666D02*
X118390533Y-142461904D01*
X118438152Y-141033333D02*
X119104819Y-141033333D01*
X118057200Y-141271428D02*
X118771485Y-141509523D01*
X118771485Y-141509523D02*
X118771485Y-140890476D01*
X114009580Y-138342857D02*
X114057200Y-138390476D01*
X114057200Y-138390476D02*
X114104819Y-138533333D01*
X114104819Y-138533333D02*
X114104819Y-138628571D01*
X114104819Y-138628571D02*
X114057200Y-138771428D01*
X114057200Y-138771428D02*
X113961961Y-138866666D01*
X113961961Y-138866666D02*
X113866723Y-138914285D01*
X113866723Y-138914285D02*
X113676247Y-138961904D01*
X113676247Y-138961904D02*
X113533390Y-138961904D01*
X113533390Y-138961904D02*
X113342914Y-138914285D01*
X113342914Y-138914285D02*
X113247676Y-138866666D01*
X113247676Y-138866666D02*
X113152438Y-138771428D01*
X113152438Y-138771428D02*
X113104819Y-138628571D01*
X113104819Y-138628571D02*
X113104819Y-138533333D01*
X113104819Y-138533333D02*
X113152438Y-138390476D01*
X113152438Y-138390476D02*
X113200057Y-138342857D01*
X114104819Y-137390476D02*
X114104819Y-137961904D01*
X114104819Y-137676190D02*
X113104819Y-137676190D01*
X113104819Y-137676190D02*
X113247676Y-137771428D01*
X113247676Y-137771428D02*
X113342914Y-137866666D01*
X113342914Y-137866666D02*
X113390533Y-137961904D01*
X113104819Y-137057142D02*
X113104819Y-136438095D01*
X113104819Y-136438095D02*
X113485771Y-136771428D01*
X113485771Y-136771428D02*
X113485771Y-136628571D01*
X113485771Y-136628571D02*
X113533390Y-136533333D01*
X113533390Y-136533333D02*
X113581009Y-136485714D01*
X113581009Y-136485714D02*
X113676247Y-136438095D01*
X113676247Y-136438095D02*
X113914342Y-136438095D01*
X113914342Y-136438095D02*
X114009580Y-136485714D01*
X114009580Y-136485714D02*
X114057200Y-136533333D01*
X114057200Y-136533333D02*
X114104819Y-136628571D01*
X114104819Y-136628571D02*
X114104819Y-136914285D01*
X114104819Y-136914285D02*
X114057200Y-137009523D01*
X114057200Y-137009523D02*
X114009580Y-137057142D01*
X119009580Y-133842857D02*
X119057200Y-133890476D01*
X119057200Y-133890476D02*
X119104819Y-134033333D01*
X119104819Y-134033333D02*
X119104819Y-134128571D01*
X119104819Y-134128571D02*
X119057200Y-134271428D01*
X119057200Y-134271428D02*
X118961961Y-134366666D01*
X118961961Y-134366666D02*
X118866723Y-134414285D01*
X118866723Y-134414285D02*
X118676247Y-134461904D01*
X118676247Y-134461904D02*
X118533390Y-134461904D01*
X118533390Y-134461904D02*
X118342914Y-134414285D01*
X118342914Y-134414285D02*
X118247676Y-134366666D01*
X118247676Y-134366666D02*
X118152438Y-134271428D01*
X118152438Y-134271428D02*
X118104819Y-134128571D01*
X118104819Y-134128571D02*
X118104819Y-134033333D01*
X118104819Y-134033333D02*
X118152438Y-133890476D01*
X118152438Y-133890476D02*
X118200057Y-133842857D01*
X119104819Y-132890476D02*
X119104819Y-133461904D01*
X119104819Y-133176190D02*
X118104819Y-133176190D01*
X118104819Y-133176190D02*
X118247676Y-133271428D01*
X118247676Y-133271428D02*
X118342914Y-133366666D01*
X118342914Y-133366666D02*
X118390533Y-133461904D01*
X118200057Y-132509523D02*
X118152438Y-132461904D01*
X118152438Y-132461904D02*
X118104819Y-132366666D01*
X118104819Y-132366666D02*
X118104819Y-132128571D01*
X118104819Y-132128571D02*
X118152438Y-132033333D01*
X118152438Y-132033333D02*
X118200057Y-131985714D01*
X118200057Y-131985714D02*
X118295295Y-131938095D01*
X118295295Y-131938095D02*
X118390533Y-131938095D01*
X118390533Y-131938095D02*
X118533390Y-131985714D01*
X118533390Y-131985714D02*
X119104819Y-132557142D01*
X119104819Y-132557142D02*
X119104819Y-131938095D01*
X114009580Y-129342857D02*
X114057200Y-129390476D01*
X114057200Y-129390476D02*
X114104819Y-129533333D01*
X114104819Y-129533333D02*
X114104819Y-129628571D01*
X114104819Y-129628571D02*
X114057200Y-129771428D01*
X114057200Y-129771428D02*
X113961961Y-129866666D01*
X113961961Y-129866666D02*
X113866723Y-129914285D01*
X113866723Y-129914285D02*
X113676247Y-129961904D01*
X113676247Y-129961904D02*
X113533390Y-129961904D01*
X113533390Y-129961904D02*
X113342914Y-129914285D01*
X113342914Y-129914285D02*
X113247676Y-129866666D01*
X113247676Y-129866666D02*
X113152438Y-129771428D01*
X113152438Y-129771428D02*
X113104819Y-129628571D01*
X113104819Y-129628571D02*
X113104819Y-129533333D01*
X113104819Y-129533333D02*
X113152438Y-129390476D01*
X113152438Y-129390476D02*
X113200057Y-129342857D01*
X114104819Y-128390476D02*
X114104819Y-128961904D01*
X114104819Y-128676190D02*
X113104819Y-128676190D01*
X113104819Y-128676190D02*
X113247676Y-128771428D01*
X113247676Y-128771428D02*
X113342914Y-128866666D01*
X113342914Y-128866666D02*
X113390533Y-128961904D01*
X114104819Y-127438095D02*
X114104819Y-128009523D01*
X114104819Y-127723809D02*
X113104819Y-127723809D01*
X113104819Y-127723809D02*
X113247676Y-127819047D01*
X113247676Y-127819047D02*
X113342914Y-127914285D01*
X113342914Y-127914285D02*
X113390533Y-128009523D01*
X119009580Y-124842857D02*
X119057200Y-124890476D01*
X119057200Y-124890476D02*
X119104819Y-125033333D01*
X119104819Y-125033333D02*
X119104819Y-125128571D01*
X119104819Y-125128571D02*
X119057200Y-125271428D01*
X119057200Y-125271428D02*
X118961961Y-125366666D01*
X118961961Y-125366666D02*
X118866723Y-125414285D01*
X118866723Y-125414285D02*
X118676247Y-125461904D01*
X118676247Y-125461904D02*
X118533390Y-125461904D01*
X118533390Y-125461904D02*
X118342914Y-125414285D01*
X118342914Y-125414285D02*
X118247676Y-125366666D01*
X118247676Y-125366666D02*
X118152438Y-125271428D01*
X118152438Y-125271428D02*
X118104819Y-125128571D01*
X118104819Y-125128571D02*
X118104819Y-125033333D01*
X118104819Y-125033333D02*
X118152438Y-124890476D01*
X118152438Y-124890476D02*
X118200057Y-124842857D01*
X119104819Y-123890476D02*
X119104819Y-124461904D01*
X119104819Y-124176190D02*
X118104819Y-124176190D01*
X118104819Y-124176190D02*
X118247676Y-124271428D01*
X118247676Y-124271428D02*
X118342914Y-124366666D01*
X118342914Y-124366666D02*
X118390533Y-124461904D01*
X118104819Y-123271428D02*
X118104819Y-123176190D01*
X118104819Y-123176190D02*
X118152438Y-123080952D01*
X118152438Y-123080952D02*
X118200057Y-123033333D01*
X118200057Y-123033333D02*
X118295295Y-122985714D01*
X118295295Y-122985714D02*
X118485771Y-122938095D01*
X118485771Y-122938095D02*
X118723866Y-122938095D01*
X118723866Y-122938095D02*
X118914342Y-122985714D01*
X118914342Y-122985714D02*
X119009580Y-123033333D01*
X119009580Y-123033333D02*
X119057200Y-123080952D01*
X119057200Y-123080952D02*
X119104819Y-123176190D01*
X119104819Y-123176190D02*
X119104819Y-123271428D01*
X119104819Y-123271428D02*
X119057200Y-123366666D01*
X119057200Y-123366666D02*
X119009580Y-123414285D01*
X119009580Y-123414285D02*
X118914342Y-123461904D01*
X118914342Y-123461904D02*
X118723866Y-123509523D01*
X118723866Y-123509523D02*
X118485771Y-123509523D01*
X118485771Y-123509523D02*
X118295295Y-123461904D01*
X118295295Y-123461904D02*
X118200057Y-123414285D01*
X118200057Y-123414285D02*
X118152438Y-123366666D01*
X118152438Y-123366666D02*
X118104819Y-123271428D01*
X114009580Y-119866666D02*
X114057200Y-119914285D01*
X114057200Y-119914285D02*
X114104819Y-120057142D01*
X114104819Y-120057142D02*
X114104819Y-120152380D01*
X114104819Y-120152380D02*
X114057200Y-120295237D01*
X114057200Y-120295237D02*
X113961961Y-120390475D01*
X113961961Y-120390475D02*
X113866723Y-120438094D01*
X113866723Y-120438094D02*
X113676247Y-120485713D01*
X113676247Y-120485713D02*
X113533390Y-120485713D01*
X113533390Y-120485713D02*
X113342914Y-120438094D01*
X113342914Y-120438094D02*
X113247676Y-120390475D01*
X113247676Y-120390475D02*
X113152438Y-120295237D01*
X113152438Y-120295237D02*
X113104819Y-120152380D01*
X113104819Y-120152380D02*
X113104819Y-120057142D01*
X113104819Y-120057142D02*
X113152438Y-119914285D01*
X113152438Y-119914285D02*
X113200057Y-119866666D01*
X114104819Y-119390475D02*
X114104819Y-119199999D01*
X114104819Y-119199999D02*
X114057200Y-119104761D01*
X114057200Y-119104761D02*
X114009580Y-119057142D01*
X114009580Y-119057142D02*
X113866723Y-118961904D01*
X113866723Y-118961904D02*
X113676247Y-118914285D01*
X113676247Y-118914285D02*
X113295295Y-118914285D01*
X113295295Y-118914285D02*
X113200057Y-118961904D01*
X113200057Y-118961904D02*
X113152438Y-119009523D01*
X113152438Y-119009523D02*
X113104819Y-119104761D01*
X113104819Y-119104761D02*
X113104819Y-119295237D01*
X113104819Y-119295237D02*
X113152438Y-119390475D01*
X113152438Y-119390475D02*
X113200057Y-119438094D01*
X113200057Y-119438094D02*
X113295295Y-119485713D01*
X113295295Y-119485713D02*
X113533390Y-119485713D01*
X113533390Y-119485713D02*
X113628628Y-119438094D01*
X113628628Y-119438094D02*
X113676247Y-119390475D01*
X113676247Y-119390475D02*
X113723866Y-119295237D01*
X113723866Y-119295237D02*
X113723866Y-119104761D01*
X113723866Y-119104761D02*
X113676247Y-119009523D01*
X113676247Y-119009523D02*
X113628628Y-118961904D01*
X113628628Y-118961904D02*
X113533390Y-118914285D01*
X119009580Y-115366666D02*
X119057200Y-115414285D01*
X119057200Y-115414285D02*
X119104819Y-115557142D01*
X119104819Y-115557142D02*
X119104819Y-115652380D01*
X119104819Y-115652380D02*
X119057200Y-115795237D01*
X119057200Y-115795237D02*
X118961961Y-115890475D01*
X118961961Y-115890475D02*
X118866723Y-115938094D01*
X118866723Y-115938094D02*
X118676247Y-115985713D01*
X118676247Y-115985713D02*
X118533390Y-115985713D01*
X118533390Y-115985713D02*
X118342914Y-115938094D01*
X118342914Y-115938094D02*
X118247676Y-115890475D01*
X118247676Y-115890475D02*
X118152438Y-115795237D01*
X118152438Y-115795237D02*
X118104819Y-115652380D01*
X118104819Y-115652380D02*
X118104819Y-115557142D01*
X118104819Y-115557142D02*
X118152438Y-115414285D01*
X118152438Y-115414285D02*
X118200057Y-115366666D01*
X118533390Y-114795237D02*
X118485771Y-114890475D01*
X118485771Y-114890475D02*
X118438152Y-114938094D01*
X118438152Y-114938094D02*
X118342914Y-114985713D01*
X118342914Y-114985713D02*
X118295295Y-114985713D01*
X118295295Y-114985713D02*
X118200057Y-114938094D01*
X118200057Y-114938094D02*
X118152438Y-114890475D01*
X118152438Y-114890475D02*
X118104819Y-114795237D01*
X118104819Y-114795237D02*
X118104819Y-114604761D01*
X118104819Y-114604761D02*
X118152438Y-114509523D01*
X118152438Y-114509523D02*
X118200057Y-114461904D01*
X118200057Y-114461904D02*
X118295295Y-114414285D01*
X118295295Y-114414285D02*
X118342914Y-114414285D01*
X118342914Y-114414285D02*
X118438152Y-114461904D01*
X118438152Y-114461904D02*
X118485771Y-114509523D01*
X118485771Y-114509523D02*
X118533390Y-114604761D01*
X118533390Y-114604761D02*
X118533390Y-114795237D01*
X118533390Y-114795237D02*
X118581009Y-114890475D01*
X118581009Y-114890475D02*
X118628628Y-114938094D01*
X118628628Y-114938094D02*
X118723866Y-114985713D01*
X118723866Y-114985713D02*
X118914342Y-114985713D01*
X118914342Y-114985713D02*
X119009580Y-114938094D01*
X119009580Y-114938094D02*
X119057200Y-114890475D01*
X119057200Y-114890475D02*
X119104819Y-114795237D01*
X119104819Y-114795237D02*
X119104819Y-114604761D01*
X119104819Y-114604761D02*
X119057200Y-114509523D01*
X119057200Y-114509523D02*
X119009580Y-114461904D01*
X119009580Y-114461904D02*
X118914342Y-114414285D01*
X118914342Y-114414285D02*
X118723866Y-114414285D01*
X118723866Y-114414285D02*
X118628628Y-114461904D01*
X118628628Y-114461904D02*
X118581009Y-114509523D01*
X118581009Y-114509523D02*
X118533390Y-114604761D01*
X114009580Y-110866666D02*
X114057200Y-110914285D01*
X114057200Y-110914285D02*
X114104819Y-111057142D01*
X114104819Y-111057142D02*
X114104819Y-111152380D01*
X114104819Y-111152380D02*
X114057200Y-111295237D01*
X114057200Y-111295237D02*
X113961961Y-111390475D01*
X113961961Y-111390475D02*
X113866723Y-111438094D01*
X113866723Y-111438094D02*
X113676247Y-111485713D01*
X113676247Y-111485713D02*
X113533390Y-111485713D01*
X113533390Y-111485713D02*
X113342914Y-111438094D01*
X113342914Y-111438094D02*
X113247676Y-111390475D01*
X113247676Y-111390475D02*
X113152438Y-111295237D01*
X113152438Y-111295237D02*
X113104819Y-111152380D01*
X113104819Y-111152380D02*
X113104819Y-111057142D01*
X113104819Y-111057142D02*
X113152438Y-110914285D01*
X113152438Y-110914285D02*
X113200057Y-110866666D01*
X113104819Y-110533332D02*
X113104819Y-109866666D01*
X113104819Y-109866666D02*
X114104819Y-110295237D01*
X119009580Y-106366666D02*
X119057200Y-106414285D01*
X119057200Y-106414285D02*
X119104819Y-106557142D01*
X119104819Y-106557142D02*
X119104819Y-106652380D01*
X119104819Y-106652380D02*
X119057200Y-106795237D01*
X119057200Y-106795237D02*
X118961961Y-106890475D01*
X118961961Y-106890475D02*
X118866723Y-106938094D01*
X118866723Y-106938094D02*
X118676247Y-106985713D01*
X118676247Y-106985713D02*
X118533390Y-106985713D01*
X118533390Y-106985713D02*
X118342914Y-106938094D01*
X118342914Y-106938094D02*
X118247676Y-106890475D01*
X118247676Y-106890475D02*
X118152438Y-106795237D01*
X118152438Y-106795237D02*
X118104819Y-106652380D01*
X118104819Y-106652380D02*
X118104819Y-106557142D01*
X118104819Y-106557142D02*
X118152438Y-106414285D01*
X118152438Y-106414285D02*
X118200057Y-106366666D01*
X118104819Y-105509523D02*
X118104819Y-105699999D01*
X118104819Y-105699999D02*
X118152438Y-105795237D01*
X118152438Y-105795237D02*
X118200057Y-105842856D01*
X118200057Y-105842856D02*
X118342914Y-105938094D01*
X118342914Y-105938094D02*
X118533390Y-105985713D01*
X118533390Y-105985713D02*
X118914342Y-105985713D01*
X118914342Y-105985713D02*
X119009580Y-105938094D01*
X119009580Y-105938094D02*
X119057200Y-105890475D01*
X119057200Y-105890475D02*
X119104819Y-105795237D01*
X119104819Y-105795237D02*
X119104819Y-105604761D01*
X119104819Y-105604761D02*
X119057200Y-105509523D01*
X119057200Y-105509523D02*
X119009580Y-105461904D01*
X119009580Y-105461904D02*
X118914342Y-105414285D01*
X118914342Y-105414285D02*
X118676247Y-105414285D01*
X118676247Y-105414285D02*
X118581009Y-105461904D01*
X118581009Y-105461904D02*
X118533390Y-105509523D01*
X118533390Y-105509523D02*
X118485771Y-105604761D01*
X118485771Y-105604761D02*
X118485771Y-105795237D01*
X118485771Y-105795237D02*
X118533390Y-105890475D01*
X118533390Y-105890475D02*
X118581009Y-105938094D01*
X118581009Y-105938094D02*
X118676247Y-105985713D01*
X119159580Y-169442857D02*
X119207200Y-169490476D01*
X119207200Y-169490476D02*
X119254819Y-169633333D01*
X119254819Y-169633333D02*
X119254819Y-169728571D01*
X119254819Y-169728571D02*
X119207200Y-169871428D01*
X119207200Y-169871428D02*
X119111961Y-169966666D01*
X119111961Y-169966666D02*
X119016723Y-170014285D01*
X119016723Y-170014285D02*
X118826247Y-170061904D01*
X118826247Y-170061904D02*
X118683390Y-170061904D01*
X118683390Y-170061904D02*
X118492914Y-170014285D01*
X118492914Y-170014285D02*
X118397676Y-169966666D01*
X118397676Y-169966666D02*
X118302438Y-169871428D01*
X118302438Y-169871428D02*
X118254819Y-169728571D01*
X118254819Y-169728571D02*
X118254819Y-169633333D01*
X118254819Y-169633333D02*
X118302438Y-169490476D01*
X118302438Y-169490476D02*
X118350057Y-169442857D01*
X118350057Y-169061904D02*
X118302438Y-169014285D01*
X118302438Y-169014285D02*
X118254819Y-168919047D01*
X118254819Y-168919047D02*
X118254819Y-168680952D01*
X118254819Y-168680952D02*
X118302438Y-168585714D01*
X118302438Y-168585714D02*
X118350057Y-168538095D01*
X118350057Y-168538095D02*
X118445295Y-168490476D01*
X118445295Y-168490476D02*
X118540533Y-168490476D01*
X118540533Y-168490476D02*
X118683390Y-168538095D01*
X118683390Y-168538095D02*
X119254819Y-169109523D01*
X119254819Y-169109523D02*
X119254819Y-168490476D01*
X118254819Y-167871428D02*
X118254819Y-167776190D01*
X118254819Y-167776190D02*
X118302438Y-167680952D01*
X118302438Y-167680952D02*
X118350057Y-167633333D01*
X118350057Y-167633333D02*
X118445295Y-167585714D01*
X118445295Y-167585714D02*
X118635771Y-167538095D01*
X118635771Y-167538095D02*
X118873866Y-167538095D01*
X118873866Y-167538095D02*
X119064342Y-167585714D01*
X119064342Y-167585714D02*
X119159580Y-167633333D01*
X119159580Y-167633333D02*
X119207200Y-167680952D01*
X119207200Y-167680952D02*
X119254819Y-167776190D01*
X119254819Y-167776190D02*
X119254819Y-167871428D01*
X119254819Y-167871428D02*
X119207200Y-167966666D01*
X119207200Y-167966666D02*
X119159580Y-168014285D01*
X119159580Y-168014285D02*
X119064342Y-168061904D01*
X119064342Y-168061904D02*
X118873866Y-168109523D01*
X118873866Y-168109523D02*
X118635771Y-168109523D01*
X118635771Y-168109523D02*
X118445295Y-168061904D01*
X118445295Y-168061904D02*
X118350057Y-168014285D01*
X118350057Y-168014285D02*
X118302438Y-167966666D01*
X118302438Y-167966666D02*
X118254819Y-167871428D01*
D13*
%TO.C,G\u002A\u002A\u002A*%
G36*
X90943576Y-99986750D02*
G01*
X90943576Y-100197884D01*
X89606397Y-100197884D01*
X88269218Y-100197884D01*
X88269218Y-99986750D01*
X88269218Y-99775617D01*
X89606397Y-99775617D01*
X90943576Y-99775617D01*
X90943576Y-99986750D01*
G37*
G36*
X86281204Y-98166970D02*
G01*
X86303500Y-98195985D01*
X86338455Y-98242299D01*
X86384837Y-98304240D01*
X86441413Y-98380136D01*
X86506950Y-98468313D01*
X86580215Y-98567099D01*
X86659975Y-98674822D01*
X86744998Y-98789810D01*
X86834052Y-98910390D01*
X86925902Y-99034888D01*
X87019317Y-99161634D01*
X87113063Y-99288954D01*
X87205908Y-99415176D01*
X87296620Y-99538628D01*
X87383964Y-99657637D01*
X87466709Y-99770530D01*
X87543622Y-99875635D01*
X87613470Y-99971279D01*
X87675020Y-100055791D01*
X87727039Y-100127497D01*
X87768295Y-100184725D01*
X87792901Y-100219214D01*
X87821588Y-100259738D01*
X87683917Y-100365161D01*
X87632115Y-100404830D01*
X87586994Y-100439385D01*
X87552781Y-100465588D01*
X87533701Y-100480204D01*
X87531913Y-100481576D01*
X87521615Y-100474063D01*
X87497290Y-100446378D01*
X87458858Y-100398416D01*
X87406239Y-100330070D01*
X87339354Y-100241234D01*
X87258122Y-100131804D01*
X87162464Y-100001674D01*
X87052301Y-99850738D01*
X86963012Y-99727820D01*
X86870964Y-99600894D01*
X86781733Y-99477873D01*
X86696701Y-99360659D01*
X86617248Y-99251153D01*
X86544755Y-99151258D01*
X86480602Y-99062876D01*
X86426170Y-98987910D01*
X86382839Y-98928262D01*
X86351991Y-98885835D01*
X86336742Y-98864905D01*
X86265039Y-98766738D01*
X85626045Y-99612753D01*
X85527887Y-99742714D01*
X85434021Y-99866991D01*
X85345613Y-99984042D01*
X85263829Y-100092324D01*
X85189834Y-100190293D01*
X85124793Y-100276407D01*
X85069872Y-100349124D01*
X85026236Y-100406899D01*
X84995050Y-100448191D01*
X84977479Y-100471456D01*
X84974037Y-100476015D01*
X84964680Y-100479710D01*
X84946934Y-100473597D01*
X84918076Y-100456003D01*
X84875385Y-100425253D01*
X84816140Y-100379673D01*
X84811409Y-100375966D01*
X84661796Y-100258672D01*
X84862515Y-99994751D01*
X85049675Y-99748715D01*
X85221791Y-99522576D01*
X85379258Y-99315818D01*
X85522471Y-99127929D01*
X85651823Y-98958394D01*
X85767711Y-98806699D01*
X85870527Y-98672329D01*
X85960668Y-98554770D01*
X86038527Y-98453508D01*
X86104500Y-98368028D01*
X86158980Y-98297817D01*
X86202363Y-98242360D01*
X86235043Y-98201143D01*
X86257414Y-98173651D01*
X86269872Y-98159371D01*
X86272800Y-98156926D01*
X86281204Y-98166970D01*
G37*
G36*
X92935261Y-98213283D02*
G01*
X92957585Y-98242622D01*
X92992856Y-98289749D01*
X93040010Y-98353221D01*
X93097982Y-98431592D01*
X93165706Y-98523418D01*
X93242117Y-98627255D01*
X93326150Y-98741657D01*
X93416740Y-98865180D01*
X93512820Y-98996380D01*
X93613327Y-99133811D01*
X93627034Y-99152569D01*
X93730017Y-99293500D01*
X93830057Y-99430390D01*
X93925939Y-99561578D01*
X94016448Y-99685401D01*
X94100368Y-99800196D01*
X94176483Y-99904302D01*
X94243579Y-99996056D01*
X94300440Y-100073796D01*
X94345850Y-100135859D01*
X94378595Y-100180583D01*
X94397458Y-100206306D01*
X94397463Y-100206312D01*
X94474206Y-100310711D01*
X94327846Y-100420645D01*
X94274895Y-100459879D01*
X94229060Y-100492826D01*
X94194259Y-100516746D01*
X94174411Y-100528901D01*
X94171624Y-100529867D01*
X94162764Y-100519633D01*
X94140084Y-100490196D01*
X94104729Y-100443115D01*
X94057842Y-100379947D01*
X94000568Y-100302250D01*
X93934052Y-100211583D01*
X93859439Y-100109502D01*
X93777873Y-99997567D01*
X93690498Y-99877336D01*
X93598459Y-99750365D01*
X93562972Y-99701328D01*
X93469001Y-99571431D01*
X93378992Y-99447048D01*
X93294127Y-99329808D01*
X93215587Y-99221342D01*
X93144553Y-99123280D01*
X93082207Y-99037252D01*
X93029730Y-98964889D01*
X92988303Y-98907820D01*
X92959107Y-98867677D01*
X92943324Y-98846089D01*
X92941226Y-98843269D01*
X92918270Y-98813037D01*
X92374212Y-99534251D01*
X92280618Y-99658306D01*
X92188973Y-99779748D01*
X92100852Y-99896490D01*
X92017831Y-100006449D01*
X91941484Y-100107538D01*
X91873386Y-100197673D01*
X91815113Y-100274768D01*
X91768240Y-100336738D01*
X91734341Y-100381498D01*
X91721882Y-100397914D01*
X91613609Y-100540362D01*
X91469692Y-100426027D01*
X91418749Y-100384638D01*
X91376305Y-100348393D01*
X91345819Y-100320389D01*
X91330755Y-100303720D01*
X91329814Y-100300942D01*
X91338153Y-100288931D01*
X91360704Y-100258344D01*
X91396216Y-100210822D01*
X91443438Y-100148007D01*
X91501122Y-100071541D01*
X91568017Y-99983066D01*
X91642874Y-99884223D01*
X91724441Y-99776655D01*
X91811469Y-99662002D01*
X91902709Y-99541908D01*
X91996909Y-99418014D01*
X92092821Y-99291961D01*
X92189193Y-99165392D01*
X92284777Y-99039948D01*
X92378322Y-98917271D01*
X92468578Y-98799003D01*
X92554295Y-98686786D01*
X92634223Y-98582262D01*
X92707113Y-98487071D01*
X92771713Y-98402857D01*
X92826775Y-98331261D01*
X92871047Y-98273924D01*
X92903281Y-98232489D01*
X92922225Y-98208598D01*
X92926951Y-98203178D01*
X92935261Y-98213283D01*
G37*
G36*
X97131251Y-100234567D02*
G01*
X97145606Y-100269301D01*
X97165033Y-100319020D01*
X97187733Y-100379177D01*
X97197866Y-100406615D01*
X97225983Y-100486210D01*
X97243491Y-100542904D01*
X97250485Y-100577040D01*
X97247759Y-100588804D01*
X97234215Y-100593776D01*
X97197994Y-100607083D01*
X97140441Y-100628232D01*
X97062899Y-100656728D01*
X96966712Y-100692077D01*
X96853224Y-100733786D01*
X96723779Y-100781361D01*
X96579722Y-100834307D01*
X96422396Y-100892130D01*
X96253145Y-100954337D01*
X96073314Y-101020434D01*
X95884245Y-101089926D01*
X95687284Y-101162321D01*
X95483774Y-101237123D01*
X95474311Y-101240601D01*
X95270805Y-101315399D01*
X95073955Y-101387747D01*
X94885090Y-101457155D01*
X94705540Y-101523135D01*
X94536635Y-101585199D01*
X94379704Y-101642858D01*
X94236077Y-101695624D01*
X94107084Y-101743007D01*
X93994055Y-101784521D01*
X93898320Y-101819675D01*
X93821208Y-101847982D01*
X93764050Y-101868953D01*
X93728174Y-101882100D01*
X93714912Y-101886933D01*
X93714865Y-101886948D01*
X93710874Y-101875450D01*
X93700510Y-101843758D01*
X93685132Y-101796076D01*
X93666099Y-101736607D01*
X93655322Y-101702778D01*
X93596740Y-101518610D01*
X93872853Y-101415549D01*
X93915858Y-101399499D01*
X93959056Y-101383381D01*
X94003730Y-101366719D01*
X94051160Y-101349034D01*
X94102628Y-101329850D01*
X94159417Y-101308690D01*
X94222808Y-101285076D01*
X94294083Y-101258531D01*
X94374523Y-101228578D01*
X94465410Y-101194740D01*
X94568026Y-101156540D01*
X94683653Y-101113501D01*
X94813572Y-101065145D01*
X94959064Y-101010995D01*
X95121413Y-100950574D01*
X95301898Y-100883405D01*
X95501803Y-100809011D01*
X95722409Y-100726914D01*
X95964997Y-100636637D01*
X96111596Y-100582082D01*
X96264566Y-100525320D01*
X96410648Y-100471430D01*
X96548066Y-100421049D01*
X96675045Y-100374813D01*
X96789812Y-100333358D01*
X96890592Y-100297320D01*
X96975609Y-100267335D01*
X97043090Y-100244038D01*
X97091260Y-100228066D01*
X97118344Y-100220055D01*
X97123768Y-100219364D01*
X97131251Y-100234567D01*
G37*
G36*
X82118964Y-100557335D02*
G01*
X82148481Y-100565637D01*
X82199628Y-100580176D01*
X82270705Y-100600464D01*
X82360011Y-100626012D01*
X82465847Y-100656330D01*
X82586511Y-100690929D01*
X82720303Y-100729319D01*
X82865523Y-100771012D01*
X83020470Y-100815518D01*
X83183443Y-100862348D01*
X83352744Y-100911012D01*
X83526669Y-100961021D01*
X83703521Y-101011886D01*
X83881597Y-101063118D01*
X84059198Y-101114227D01*
X84234623Y-101164725D01*
X84406171Y-101214120D01*
X84572143Y-101261926D01*
X84730837Y-101307651D01*
X84880554Y-101350807D01*
X85019592Y-101390905D01*
X85146252Y-101427455D01*
X85258833Y-101459968D01*
X85355634Y-101487955D01*
X85434955Y-101510926D01*
X85495095Y-101528392D01*
X85534355Y-101539864D01*
X85551033Y-101544853D01*
X85551508Y-101545026D01*
X85550612Y-101559142D01*
X85542969Y-101591982D01*
X85530215Y-101638353D01*
X85513985Y-101693061D01*
X85495916Y-101750913D01*
X85477641Y-101806715D01*
X85460798Y-101855274D01*
X85447021Y-101891396D01*
X85437947Y-101909887D01*
X85436184Y-101911232D01*
X85422426Y-101907621D01*
X85385472Y-101897367D01*
X85326729Y-101880872D01*
X85247606Y-101858536D01*
X85149511Y-101830760D01*
X85033851Y-101797942D01*
X84902035Y-101760485D01*
X84755471Y-101718787D01*
X84595565Y-101673249D01*
X84423728Y-101624272D01*
X84241365Y-101572256D01*
X84049886Y-101517601D01*
X83850698Y-101460707D01*
X83701646Y-101418110D01*
X83497868Y-101359828D01*
X83300877Y-101303428D01*
X83112072Y-101249313D01*
X82932853Y-101197888D01*
X82764620Y-101149556D01*
X82608773Y-101104719D01*
X82466711Y-101063783D01*
X82339833Y-101027150D01*
X82229541Y-100995225D01*
X82137232Y-100968410D01*
X82064308Y-100947110D01*
X82012168Y-100931727D01*
X81982211Y-100922666D01*
X81975151Y-100920273D01*
X81976510Y-100906563D01*
X81984257Y-100872799D01*
X81997262Y-100823389D01*
X82014392Y-100762741D01*
X82023956Y-100730232D01*
X82078786Y-100546215D01*
X82118964Y-100557335D01*
G37*
G36*
X87667808Y-101650226D02*
G01*
X87667808Y-102219647D01*
X87463072Y-102219647D01*
X87258337Y-102219647D01*
X87258337Y-101650226D01*
X87258337Y-101080805D01*
X87463072Y-101080805D01*
X87667808Y-101080805D01*
X87667808Y-101650226D01*
G37*
G36*
X92005642Y-101682216D02*
G01*
X92005642Y-102258035D01*
X91807304Y-102258035D01*
X91608967Y-102258035D01*
X91608967Y-101682216D01*
X91608967Y-101106397D01*
X91807304Y-101106397D01*
X92005642Y-101106397D01*
X92005642Y-101682216D01*
G37*
G36*
X85312015Y-102434164D02*
G01*
X85313473Y-102445351D01*
X85314893Y-102466493D01*
X85318694Y-102507530D01*
X85324330Y-102562932D01*
X85331254Y-102627171D01*
X85332763Y-102640751D01*
X85339552Y-102703777D01*
X85344786Y-102756822D01*
X85348036Y-102795151D01*
X85348869Y-102814029D01*
X85348635Y-102815169D01*
X85335782Y-102816874D01*
X85299540Y-102821032D01*
X85241975Y-102827423D01*
X85165151Y-102835828D01*
X85071131Y-102846029D01*
X84961981Y-102857806D01*
X84839765Y-102870940D01*
X84706546Y-102885213D01*
X84564389Y-102900405D01*
X84415359Y-102916297D01*
X84261519Y-102932671D01*
X84104934Y-102949307D01*
X83947668Y-102965986D01*
X83791786Y-102982490D01*
X83639351Y-102998598D01*
X83492429Y-103014093D01*
X83353082Y-103028756D01*
X83223377Y-103042366D01*
X83105376Y-103054705D01*
X83001144Y-103065555D01*
X82912745Y-103074696D01*
X82842244Y-103081909D01*
X82791705Y-103086975D01*
X82763193Y-103089675D01*
X82757598Y-103090072D01*
X82742972Y-103078965D01*
X82735705Y-103060982D01*
X82731587Y-103034575D01*
X82726533Y-102991789D01*
X82721030Y-102938221D01*
X82715564Y-102879467D01*
X82710621Y-102821122D01*
X82706689Y-102768781D01*
X82704252Y-102728040D01*
X82703798Y-102704496D01*
X82704417Y-102700954D01*
X82717566Y-102699080D01*
X82754451Y-102694773D01*
X82813352Y-102688216D01*
X82892545Y-102679593D01*
X82990310Y-102669087D01*
X83104926Y-102656880D01*
X83234669Y-102643155D01*
X83377820Y-102628095D01*
X83532656Y-102611884D01*
X83697456Y-102594705D01*
X83870498Y-102576739D01*
X83969773Y-102566464D01*
X84147584Y-102548051D01*
X84318754Y-102530268D01*
X84481494Y-102513303D01*
X84634014Y-102497345D01*
X84774527Y-102482584D01*
X84901244Y-102469209D01*
X85012376Y-102457409D01*
X85106133Y-102447373D01*
X85180729Y-102439290D01*
X85234373Y-102433348D01*
X85265277Y-102429738D01*
X85271763Y-102428845D01*
X85300567Y-102426212D01*
X85312015Y-102434164D01*
G37*
G36*
X93854044Y-102631621D02*
G01*
X93913163Y-102633467D01*
X93992676Y-102636203D01*
X94090856Y-102639764D01*
X94205980Y-102644085D01*
X94336321Y-102649100D01*
X94480155Y-102654745D01*
X94635757Y-102660954D01*
X94801401Y-102667661D01*
X94975362Y-102674802D01*
X95079195Y-102679109D01*
X95258289Y-102686542D01*
X95430828Y-102693659D01*
X95595007Y-102700389D01*
X95749021Y-102706658D01*
X95891066Y-102712396D01*
X96019335Y-102717529D01*
X96132024Y-102721987D01*
X96227329Y-102725696D01*
X96303443Y-102728585D01*
X96358563Y-102730582D01*
X96390884Y-102731615D01*
X96398183Y-102731747D01*
X96446493Y-102731486D01*
X96442969Y-102933022D01*
X96439445Y-103134559D01*
X96407455Y-103136304D01*
X96388677Y-103136072D01*
X96346903Y-103134743D01*
X96284701Y-103132423D01*
X96204641Y-103129218D01*
X96109289Y-103125235D01*
X96001214Y-103120578D01*
X95882984Y-103115353D01*
X95757167Y-103109666D01*
X95729269Y-103108388D01*
X95580978Y-103101621D01*
X95422253Y-103094447D01*
X95258590Y-103087111D01*
X95095487Y-103079857D01*
X94938439Y-103072929D01*
X94792945Y-103066571D01*
X94664500Y-103061026D01*
X94603224Y-103058416D01*
X94486149Y-103053435D01*
X94369627Y-103048428D01*
X94257948Y-103043585D01*
X94155403Y-103039092D01*
X94066283Y-103035138D01*
X93994880Y-103031911D01*
X93952137Y-103029918D01*
X93780899Y-103021730D01*
X93790079Y-102828623D01*
X93793561Y-102761178D01*
X93797071Y-102703372D01*
X93800291Y-102659753D01*
X93802903Y-102634866D01*
X93803888Y-102630862D01*
X93817044Y-102630732D01*
X93854044Y-102631621D01*
G37*
G36*
X88732174Y-102775328D02*
G01*
X88766269Y-102788844D01*
X88782267Y-102795558D01*
X88835562Y-102815342D01*
X88891999Y-102830689D01*
X88957744Y-102842821D01*
X89038966Y-102852962D01*
X89101920Y-102858973D01*
X89166148Y-102863675D01*
X89223396Y-102865217D01*
X89279484Y-102863089D01*
X89340235Y-102856780D01*
X89411470Y-102845782D01*
X89499011Y-102829585D01*
X89547930Y-102819934D01*
X89599806Y-102809910D01*
X89641037Y-102802584D01*
X89666071Y-102798907D01*
X89671005Y-102798845D01*
X89678432Y-102815990D01*
X89690014Y-102851622D01*
X89704369Y-102900490D01*
X89720116Y-102957346D01*
X89735871Y-103016936D01*
X89750254Y-103074012D01*
X89761882Y-103123321D01*
X89769374Y-103159614D01*
X89771346Y-103177640D01*
X89770958Y-103178589D01*
X89749008Y-103189236D01*
X89706660Y-103202468D01*
X89648825Y-103217076D01*
X89580414Y-103231856D01*
X89506338Y-103245599D01*
X89481587Y-103249685D01*
X89404735Y-103259363D01*
X89313478Y-103266784D01*
X89215374Y-103271702D01*
X89117978Y-103273870D01*
X89028847Y-103273043D01*
X88955538Y-103268973D01*
X88939994Y-103267353D01*
X88891902Y-103258493D01*
X88827288Y-103242277D01*
X88753348Y-103220964D01*
X88677276Y-103196814D01*
X88606268Y-103172086D01*
X88547518Y-103149041D01*
X88515469Y-103134029D01*
X88519196Y-103122367D01*
X88531610Y-103091296D01*
X88551051Y-103044813D01*
X88575857Y-102986915D01*
X88592836Y-102947879D01*
X88624286Y-102876065D01*
X88648180Y-102824903D01*
X88667718Y-102791820D01*
X88686097Y-102774244D01*
X88706516Y-102769604D01*
X88732174Y-102775328D01*
G37*
G36*
X94462468Y-103844735D02*
G01*
X94462468Y-104062266D01*
X89568009Y-104062266D01*
X84673551Y-104062266D01*
X84673551Y-103844735D01*
X84673551Y-103627203D01*
X89568009Y-103627203D01*
X94462468Y-103627203D01*
X94462468Y-103844735D01*
G37*
D14*
%TO.C,C5*%
X112710000Y-100538748D02*
X112710000Y-102861252D01*
X109290000Y-100538748D02*
X109290000Y-102861252D01*
%TO.C,C4*%
X117710000Y-96038748D02*
X117710000Y-98361252D01*
X114290000Y-96038748D02*
X114290000Y-98361252D01*
%TO.C,C1*%
X112710000Y-82538748D02*
X112710000Y-84861252D01*
X109290000Y-82538748D02*
X109290000Y-84861252D01*
%TO.C,C2*%
X117710000Y-87038748D02*
X117710000Y-89361252D01*
X114290000Y-87038748D02*
X114290000Y-89361252D01*
%TO.C,C3*%
X112710000Y-91538748D02*
X112710000Y-93861252D01*
X109290000Y-91538748D02*
X109290000Y-93861252D01*
%TO.C,C19*%
X109290000Y-163538748D02*
X109290000Y-165861252D01*
X112710000Y-163538748D02*
X112710000Y-165861252D01*
%TO.C,C18*%
X114290000Y-159038748D02*
X114290000Y-161361252D01*
X117710000Y-159038748D02*
X117710000Y-161361252D01*
%TO.C,C17*%
X109290000Y-154538748D02*
X109290000Y-156861252D01*
X112710000Y-154538748D02*
X112710000Y-156861252D01*
%TO.C,C16*%
X114290000Y-150038748D02*
X114290000Y-152361252D01*
X117710000Y-150038748D02*
X117710000Y-152361252D01*
%TO.C,C15*%
X109290000Y-145538748D02*
X109290000Y-147861252D01*
X112710000Y-145538748D02*
X112710000Y-147861252D01*
%TO.C,C14*%
X114290000Y-141038748D02*
X114290000Y-143361252D01*
X117710000Y-141038748D02*
X117710000Y-143361252D01*
%TO.C,C13*%
X109290000Y-136538748D02*
X109290000Y-138861252D01*
X112710000Y-136538748D02*
X112710000Y-138861252D01*
%TO.C,C12*%
X114290000Y-132038748D02*
X114290000Y-134361252D01*
X117710000Y-132038748D02*
X117710000Y-134361252D01*
%TO.C,C11*%
X109290000Y-127538748D02*
X109290000Y-129861252D01*
X112710000Y-127538748D02*
X112710000Y-129861252D01*
%TO.C,C10*%
X114290000Y-123038748D02*
X114290000Y-125361252D01*
X117710000Y-123038748D02*
X117710000Y-125361252D01*
%TO.C,C9*%
X109290000Y-118538748D02*
X109290000Y-120861252D01*
X112710000Y-118538748D02*
X112710000Y-120861252D01*
%TO.C,C8*%
X114290000Y-114038748D02*
X114290000Y-116361252D01*
X117710000Y-114038748D02*
X117710000Y-116361252D01*
%TO.C,C7*%
X109290000Y-109538748D02*
X109290000Y-111861252D01*
X112710000Y-109538748D02*
X112710000Y-111861252D01*
%TO.C,C6*%
X114290000Y-105038748D02*
X114290000Y-107361252D01*
X117710000Y-105038748D02*
X117710000Y-107361252D01*
%TO.C,C20*%
X114290000Y-168038748D02*
X114290000Y-170361252D01*
X117710000Y-168038748D02*
X117710000Y-170361252D01*
%TD*%
%LPC*%
D15*
X85350000Y-172650000D02*
X142150000Y-172650000D01*
X142150000Y-175550000D01*
X85350000Y-175550000D01*
X85350000Y-172650000D01*
G36*
X85350000Y-172650000D02*
G01*
X142150000Y-172650000D01*
X142150000Y-175550000D01*
X85350000Y-175550000D01*
X85350000Y-172650000D01*
G37*
X84700000Y-77500000D02*
X142400000Y-77500000D01*
X142400000Y-80200000D01*
X84700000Y-80200000D01*
X84700000Y-77500000D01*
G36*
X84700000Y-77500000D02*
G01*
X142400000Y-77500000D01*
X142400000Y-80200000D01*
X84700000Y-80200000D01*
X84700000Y-77500000D01*
G37*
D11*
X133607330Y-95603428D02*
X133893044Y-95603428D01*
X133893044Y-95603428D02*
X134035901Y-95674857D01*
X134035901Y-95674857D02*
X134178758Y-95817714D01*
X134178758Y-95817714D02*
X134250187Y-96103428D01*
X134250187Y-96103428D02*
X134250187Y-96603428D01*
X134250187Y-96603428D02*
X134178758Y-96889142D01*
X134178758Y-96889142D02*
X134035901Y-97032000D01*
X134035901Y-97032000D02*
X133893044Y-97103428D01*
X133893044Y-97103428D02*
X133607330Y-97103428D01*
X133607330Y-97103428D02*
X133464473Y-97032000D01*
X133464473Y-97032000D02*
X133321615Y-96889142D01*
X133321615Y-96889142D02*
X133250187Y-96603428D01*
X133250187Y-96603428D02*
X133250187Y-96103428D01*
X133250187Y-96103428D02*
X133321615Y-95817714D01*
X133321615Y-95817714D02*
X133464473Y-95674857D01*
X133464473Y-95674857D02*
X133607330Y-95603428D01*
X134893044Y-96103428D02*
X134893044Y-97603428D01*
X134893044Y-96174857D02*
X135035902Y-96103428D01*
X135035902Y-96103428D02*
X135321616Y-96103428D01*
X135321616Y-96103428D02*
X135464473Y-96174857D01*
X135464473Y-96174857D02*
X135535902Y-96246285D01*
X135535902Y-96246285D02*
X135607330Y-96389142D01*
X135607330Y-96389142D02*
X135607330Y-96817714D01*
X135607330Y-96817714D02*
X135535902Y-96960571D01*
X135535902Y-96960571D02*
X135464473Y-97032000D01*
X135464473Y-97032000D02*
X135321616Y-97103428D01*
X135321616Y-97103428D02*
X135035902Y-97103428D01*
X135035902Y-97103428D02*
X134893044Y-97032000D01*
X136821616Y-97032000D02*
X136678759Y-97103428D01*
X136678759Y-97103428D02*
X136393045Y-97103428D01*
X136393045Y-97103428D02*
X136250187Y-97032000D01*
X136250187Y-97032000D02*
X136178759Y-96889142D01*
X136178759Y-96889142D02*
X136178759Y-96317714D01*
X136178759Y-96317714D02*
X136250187Y-96174857D01*
X136250187Y-96174857D02*
X136393045Y-96103428D01*
X136393045Y-96103428D02*
X136678759Y-96103428D01*
X136678759Y-96103428D02*
X136821616Y-96174857D01*
X136821616Y-96174857D02*
X136893045Y-96317714D01*
X136893045Y-96317714D02*
X136893045Y-96460571D01*
X136893045Y-96460571D02*
X136178759Y-96603428D01*
X137535901Y-96103428D02*
X137535901Y-97103428D01*
X137535901Y-96246285D02*
X137607330Y-96174857D01*
X137607330Y-96174857D02*
X137750187Y-96103428D01*
X137750187Y-96103428D02*
X137964473Y-96103428D01*
X137964473Y-96103428D02*
X138107330Y-96174857D01*
X138107330Y-96174857D02*
X138178759Y-96317714D01*
X138178759Y-96317714D02*
X138178759Y-97103428D01*
X139893044Y-97246285D02*
X139750187Y-97174857D01*
X139750187Y-97174857D02*
X139607330Y-97032000D01*
X139607330Y-97032000D02*
X139393044Y-96817714D01*
X139393044Y-96817714D02*
X139250187Y-96746285D01*
X139250187Y-96746285D02*
X139107330Y-96746285D01*
X139178759Y-97103428D02*
X139035902Y-97032000D01*
X139035902Y-97032000D02*
X138893044Y-96889142D01*
X138893044Y-96889142D02*
X138821616Y-96603428D01*
X138821616Y-96603428D02*
X138821616Y-96103428D01*
X138821616Y-96103428D02*
X138893044Y-95817714D01*
X138893044Y-95817714D02*
X139035902Y-95674857D01*
X139035902Y-95674857D02*
X139178759Y-95603428D01*
X139178759Y-95603428D02*
X139464473Y-95603428D01*
X139464473Y-95603428D02*
X139607330Y-95674857D01*
X139607330Y-95674857D02*
X139750187Y-95817714D01*
X139750187Y-95817714D02*
X139821616Y-96103428D01*
X139821616Y-96103428D02*
X139821616Y-96603428D01*
X139821616Y-96603428D02*
X139750187Y-96889142D01*
X139750187Y-96889142D02*
X139607330Y-97032000D01*
X139607330Y-97032000D02*
X139464473Y-97103428D01*
X139464473Y-97103428D02*
X139178759Y-97103428D01*
X141321616Y-96960571D02*
X141250188Y-97032000D01*
X141250188Y-97032000D02*
X141035902Y-97103428D01*
X141035902Y-97103428D02*
X140893045Y-97103428D01*
X140893045Y-97103428D02*
X140678759Y-97032000D01*
X140678759Y-97032000D02*
X140535902Y-96889142D01*
X140535902Y-96889142D02*
X140464473Y-96746285D01*
X140464473Y-96746285D02*
X140393045Y-96460571D01*
X140393045Y-96460571D02*
X140393045Y-96246285D01*
X140393045Y-96246285D02*
X140464473Y-95960571D01*
X140464473Y-95960571D02*
X140535902Y-95817714D01*
X140535902Y-95817714D02*
X140678759Y-95674857D01*
X140678759Y-95674857D02*
X140893045Y-95603428D01*
X140893045Y-95603428D02*
X141035902Y-95603428D01*
X141035902Y-95603428D02*
X141250188Y-95674857D01*
X141250188Y-95674857D02*
X141321616Y-95746285D01*
X141821616Y-95603428D02*
X142178759Y-97103428D01*
X142178759Y-97103428D02*
X142464473Y-96032000D01*
X142464473Y-96032000D02*
X142750188Y-97103428D01*
X142750188Y-97103428D02*
X143107331Y-95603428D01*
D16*
%TO.C,H1*%
X86900000Y-88100000D03*
%TD*%
%TO.C,H2*%
X141000000Y-88100000D03*
%TD*%
%TO.C,H3*%
X86900000Y-165300000D03*
%TD*%
%TO.C,H4*%
X141000000Y-165300000D03*
%TD*%
D17*
%TO.C,C5*%
X111000000Y-99562500D03*
X111000000Y-103837500D03*
%TD*%
%TO.C,C4*%
X116000000Y-95062500D03*
X116000000Y-99337500D03*
%TD*%
%TO.C,C1*%
X111000000Y-81562500D03*
X111000000Y-85837500D03*
%TD*%
%TO.C,C2*%
X116000000Y-86062500D03*
X116000000Y-90337500D03*
%TD*%
%TO.C,C3*%
X111000000Y-90562500D03*
X111000000Y-94837500D03*
%TD*%
%TO.C,C19*%
X111000000Y-166837500D03*
X111000000Y-162562500D03*
%TD*%
%TO.C,C18*%
X116000000Y-162337500D03*
X116000000Y-158062500D03*
%TD*%
%TO.C,C17*%
X111000000Y-157837500D03*
X111000000Y-153562500D03*
%TD*%
%TO.C,C16*%
X116000000Y-153337500D03*
X116000000Y-149062500D03*
%TD*%
%TO.C,C15*%
X111000000Y-148837500D03*
X111000000Y-144562500D03*
%TD*%
%TO.C,C14*%
X116000000Y-144337500D03*
X116000000Y-140062500D03*
%TD*%
%TO.C,C13*%
X111000000Y-139837500D03*
X111000000Y-135562500D03*
%TD*%
%TO.C,C12*%
X116000000Y-135337500D03*
X116000000Y-131062500D03*
%TD*%
%TO.C,C11*%
X111000000Y-130837500D03*
X111000000Y-126562500D03*
%TD*%
%TO.C,C10*%
X116000000Y-126337500D03*
X116000000Y-122062500D03*
%TD*%
%TO.C,C9*%
X111000000Y-121837500D03*
X111000000Y-117562500D03*
%TD*%
%TO.C,C8*%
X116000000Y-117337500D03*
X116000000Y-113062500D03*
%TD*%
%TO.C,C7*%
X111000000Y-112837500D03*
X111000000Y-108562500D03*
%TD*%
%TO.C,C6*%
X116000000Y-108337500D03*
X116000000Y-104062500D03*
%TD*%
%TO.C,C20*%
X116000000Y-171337500D03*
X116000000Y-167062500D03*
%TD*%
%LPD*%
M02*
