M48
; DRILL file {KiCad 9.0.6} date 2025-12-24T02:21:30+0100
; FORMAT={-:-/ absolute / inch / decimal}
; #@! TF.CreationDate,2025-12-24T02:21:30+01:00
; #@! TF.GenerationSoftware,Kicad,Pcbnew,9.0.6
; #@! TF.FileFunction,Plated,1,2,PTH
FMAT,2
INCH
; #@! TA.AperFunction,Plated,PTH,ViaDrill
T1C0.0118
%
G90
G05
T1
X4.1969Y-3.378
X4.1969Y-3.5669
X4.1969Y-3.7323
X4.1969Y-3.9213
X4.1969Y-4.0906
X4.1969Y-4.2756
X4.1969Y-4.4409
X4.1969Y-4.6299
X4.1969Y-4.7953
X4.1969Y-4.9843
X4.1969Y-5.1496
X4.1969Y-5.3386
X4.1969Y-5.5039
X4.1969Y-5.6929
X4.1969Y-5.8583
X4.1969Y-6.0472
X4.1969Y-6.2126
X4.1969Y-6.4016
X4.1969Y-6.5669
X4.2126Y-3.3583
X4.2126Y-3.378
X4.2126Y-3.3976
X4.2126Y-3.5472
X4.2126Y-3.5669
X4.2126Y-3.5866
X4.2126Y-3.7126
X4.2126Y-3.7323
X4.2126Y-3.752
X4.2126Y-3.9016
X4.2126Y-3.9213
X4.2126Y-3.9409
X4.2126Y-4.0709
X4.2126Y-4.0906
X4.2126Y-4.1102
X4.2126Y-4.2559
X4.2126Y-4.2756
X4.2126Y-4.2953
X4.2126Y-4.4213
X4.2126Y-4.4409
X4.2126Y-4.4606
X4.2126Y-4.6102
X4.2126Y-4.6299
X4.2126Y-4.6496
X4.2126Y-4.7756
X4.2126Y-4.7953
X4.2126Y-4.815
X4.2126Y-4.9646
X4.2126Y-4.9843
X4.2126Y-5.0039
X4.2126Y-5.1299
X4.2126Y-5.1496
X4.2126Y-5.1693
X4.2126Y-5.3189
X4.2126Y-5.3386
X4.2126Y-5.3583
X4.2126Y-5.4843
X4.2126Y-5.5039
X4.2126Y-5.5236
X4.2126Y-5.6732
X4.2126Y-5.6929
X4.2126Y-5.7126
X4.2126Y-5.8386
X4.2126Y-5.8583
X4.2126Y-5.878
X4.2126Y-6.0276
X4.2126Y-6.0472
X4.2126Y-6.0669
X4.2126Y-6.1929
X4.2126Y-6.2126
X4.2126Y-6.2323
X4.2126Y-6.3819
X4.2126Y-6.4016
X4.2126Y-6.4213
X4.2126Y-6.5472
X4.2126Y-6.5669
X4.2126Y-6.5866
X4.2283Y-3.3583
X4.2283Y-3.378
X4.2283Y-3.3976
X4.2283Y-3.5472
X4.2283Y-3.5669
X4.2283Y-3.5866
X4.2283Y-3.7126
X4.2283Y-3.7323
X4.2283Y-3.752
X4.2283Y-3.9016
X4.2283Y-3.9213
X4.2283Y-3.9409
X4.2283Y-4.0709
X4.2283Y-4.0906
X4.2283Y-4.1102
X4.2283Y-4.2559
X4.2283Y-4.2756
X4.2283Y-4.2953
X4.2283Y-4.4213
X4.2283Y-4.4409
X4.2283Y-4.4606
X4.2283Y-4.6102
X4.2283Y-4.6299
X4.2283Y-4.6496
X4.2283Y-4.7756
X4.2283Y-4.7953
X4.2283Y-4.815
X4.2283Y-4.9646
X4.2283Y-4.9843
X4.2283Y-5.0039
X4.2283Y-5.1299
X4.2283Y-5.1496
X4.2283Y-5.1693
X4.2283Y-5.3189
X4.2283Y-5.3386
X4.2283Y-5.3583
X4.2283Y-5.4843
X4.2283Y-5.5039
X4.2283Y-5.5236
X4.2283Y-5.6732
X4.2283Y-5.6929
X4.2283Y-5.7126
X4.2283Y-5.8386
X4.2283Y-5.8583
X4.2283Y-5.878
X4.2283Y-6.0276
X4.2283Y-6.0472
X4.2283Y-6.0669
X4.2283Y-6.1929
X4.2283Y-6.2126
X4.2283Y-6.2323
X4.2283Y-6.3819
X4.2283Y-6.4016
X4.2283Y-6.4213
X4.2283Y-6.5472
X4.2283Y-6.5669
X4.2283Y-6.5866
X4.2441Y-3.3583
X4.2441Y-3.378
X4.2441Y-3.3976
X4.2441Y-3.5472
X4.2441Y-3.5669
X4.2441Y-3.5866
X4.2441Y-3.7126
X4.2441Y-3.7323
X4.2441Y-3.752
X4.2441Y-3.9016
X4.2441Y-3.9213
X4.2441Y-3.9409
X4.2441Y-4.0709
X4.2441Y-4.0906
X4.2441Y-4.1102
X4.2441Y-4.2559
X4.2441Y-4.2756
X4.2441Y-4.2953
X4.2441Y-4.4213
X4.2441Y-4.4409
X4.2441Y-4.4606
X4.2441Y-4.6102
X4.2441Y-4.6299
X4.2441Y-4.6496
X4.2441Y-4.7756
X4.2441Y-4.7953
X4.2441Y-4.815
X4.2441Y-4.9646
X4.2441Y-4.9843
X4.2441Y-5.0039
X4.2441Y-5.1299
X4.2441Y-5.1496
X4.2441Y-5.1693
X4.2441Y-5.3189
X4.2441Y-5.3386
X4.2441Y-5.3583
X4.2441Y-5.4843
X4.2441Y-5.5039
X4.2441Y-5.5236
X4.2441Y-5.6732
X4.2441Y-5.6929
X4.2441Y-5.7126
X4.2441Y-5.8386
X4.2441Y-5.8583
X4.2441Y-5.878
X4.2441Y-6.0276
X4.2441Y-6.0472
X4.2441Y-6.0669
X4.2441Y-6.1929
X4.2441Y-6.2126
X4.2441Y-6.2323
X4.2441Y-6.3819
X4.2441Y-6.4016
X4.2441Y-6.4213
X4.2441Y-6.5472
X4.2441Y-6.5669
X4.2441Y-6.5866
X4.2598Y-3.3583
X4.2598Y-3.378
X4.2598Y-3.3976
X4.2598Y-3.5472
X4.2598Y-3.5669
X4.2598Y-3.5866
X4.2598Y-3.7126
X4.2598Y-3.7323
X4.2598Y-3.752
X4.2598Y-3.9016
X4.2598Y-3.9213
X4.2598Y-3.9409
X4.2598Y-4.0709
X4.2598Y-4.0906
X4.2598Y-4.1102
X4.2598Y-4.2559
X4.2598Y-4.2756
X4.2598Y-4.2953
X4.2598Y-4.4213
X4.2598Y-4.4409
X4.2598Y-4.4606
X4.2598Y-4.6102
X4.2598Y-4.6299
X4.2598Y-4.6496
X4.2598Y-4.7756
X4.2598Y-4.7953
X4.2598Y-4.815
X4.2598Y-4.9646
X4.2598Y-4.9843
X4.2598Y-5.0039
X4.2598Y-5.1299
X4.2598Y-5.1496
X4.2598Y-5.1693
X4.2598Y-5.3189
X4.2598Y-5.3386
X4.2598Y-5.3583
X4.2598Y-5.4843
X4.2598Y-5.5039
X4.2598Y-5.5236
X4.2598Y-5.6732
X4.2598Y-5.6929
X4.2598Y-5.7126
X4.2598Y-5.8386
X4.2598Y-5.8583
X4.2598Y-5.878
X4.2598Y-6.0276
X4.2598Y-6.0472
X4.2598Y-6.0669
X4.2598Y-6.1929
X4.2598Y-6.2126
X4.2598Y-6.2323
X4.2598Y-6.3819
X4.2598Y-6.4016
X4.2598Y-6.4213
X4.2598Y-6.5472
X4.2598Y-6.5669
X4.2598Y-6.5866
X4.2756Y-3.3583
X4.2756Y-3.378
X4.2756Y-3.3976
X4.2756Y-3.5472
X4.2756Y-3.5669
X4.2756Y-3.5866
X4.2756Y-3.7126
X4.2756Y-3.7323
X4.2756Y-3.752
X4.2756Y-3.9016
X4.2756Y-3.9213
X4.2756Y-3.9409
X4.2756Y-4.0709
X4.2756Y-4.0906
X4.2756Y-4.1102
X4.2756Y-4.2559
X4.2756Y-4.2756
X4.2756Y-4.2953
X4.2756Y-4.4213
X4.2756Y-4.4409
X4.2756Y-4.4606
X4.2756Y-4.6102
X4.2756Y-4.6299
X4.2756Y-4.6496
X4.2756Y-4.7756
X4.2756Y-4.7953
X4.2756Y-4.815
X4.2756Y-4.9646
X4.2756Y-4.9843
X4.2756Y-5.0039
X4.2756Y-5.1299
X4.2756Y-5.1496
X4.2756Y-5.1693
X4.2756Y-5.3189
X4.2756Y-5.3386
X4.2756Y-5.3583
X4.2756Y-5.4843
X4.2756Y-5.5039
X4.2756Y-5.5236
X4.2756Y-5.6732
X4.2756Y-5.6929
X4.2756Y-5.7126
X4.2756Y-5.8386
X4.2756Y-5.8583
X4.2756Y-5.878
X4.2756Y-6.0276
X4.2756Y-6.0472
X4.2756Y-6.0669
X4.2756Y-6.1929
X4.2756Y-6.2126
X4.2756Y-6.2323
X4.2756Y-6.3819
X4.2756Y-6.4016
X4.2756Y-6.4213
X4.2756Y-6.5472
X4.2756Y-6.5669
X4.2756Y-6.5866
X4.2913Y-3.3583
X4.2913Y-3.378
X4.2913Y-3.3976
X4.2913Y-3.5472
X4.2913Y-3.5669
X4.2913Y-3.5866
X4.2913Y-3.7126
X4.2913Y-3.7323
X4.2913Y-3.752
X4.2913Y-3.9016
X4.2913Y-3.9213
X4.2913Y-3.9409
X4.2913Y-4.0709
X4.2913Y-4.0906
X4.2913Y-4.1102
X4.2913Y-4.2559
X4.2913Y-4.2756
X4.2913Y-4.2953
X4.2913Y-4.4213
X4.2913Y-4.4409
X4.2913Y-4.4606
X4.2913Y-4.6102
X4.2913Y-4.6299
X4.2913Y-4.6496
X4.2913Y-4.7756
X4.2913Y-4.7953
X4.2913Y-4.815
X4.2913Y-4.9646
X4.2913Y-4.9843
X4.2913Y-5.0039
X4.2913Y-5.1299
X4.2913Y-5.1496
X4.2913Y-5.1693
X4.2913Y-5.3189
X4.2913Y-5.3386
X4.2913Y-5.3583
X4.2913Y-5.4843
X4.2913Y-5.5039
X4.2913Y-5.5236
X4.2913Y-5.6732
X4.2913Y-5.6929
X4.2913Y-5.7126
X4.2913Y-5.8386
X4.2913Y-5.8583
X4.2913Y-5.878
X4.2913Y-6.0276
X4.2913Y-6.0472
X4.2913Y-6.0669
X4.2913Y-6.1929
X4.2913Y-6.2126
X4.2913Y-6.2323
X4.2913Y-6.3819
X4.2913Y-6.4016
X4.2913Y-6.4213
X4.2913Y-6.5472
X4.2913Y-6.5669
X4.2913Y-6.5866
X4.4488Y-3.3883
X4.4488Y-3.5669
X4.4488Y-3.7441
X4.4488Y-3.9213
X4.4488Y-4.0984
X4.4488Y-4.2756
X4.4488Y-4.4528
X4.4488Y-4.6299
X4.4488Y-4.8071
X4.4488Y-4.9843
X4.4488Y-5.1614
X4.4488Y-5.3386
X4.4488Y-5.5157
X4.4488Y-5.6929
X4.4488Y-5.8701
X4.4488Y-6.0472
X4.4488Y-6.2244
X4.4488Y-6.4016
X4.4488Y-6.5787
X4.4685Y-3.3883
X4.4685Y-3.5669
X4.4685Y-3.7441
X4.4685Y-3.9213
X4.4685Y-4.0984
X4.4685Y-4.2756
X4.4685Y-4.4528
X4.4685Y-4.6299
X4.4685Y-4.8071
X4.4685Y-4.9843
X4.4685Y-5.1614
X4.4685Y-5.3386
X4.4685Y-5.5157
X4.4685Y-5.6929
X4.4685Y-5.8701
X4.4685Y-6.0472
X4.4685Y-6.2244
X4.4685Y-6.4016
X4.4685Y-6.5787
X4.4882Y-3.3883
X4.4882Y-3.5669
X4.4882Y-3.7441
X4.4882Y-3.9213
X4.4882Y-4.0984
X4.4882Y-4.2756
X4.4882Y-4.4528
X4.4882Y-4.6299
X4.4882Y-4.8071
X4.4882Y-4.9843
X4.4882Y-5.1614
X4.4882Y-5.3386
X4.4882Y-5.5157
X4.4882Y-5.6929
X4.4882Y-5.8701
X4.4882Y-6.0472
X4.4882Y-6.2244
X4.4882Y-6.4016
X4.4882Y-6.5787
X4.6457Y-3.3701
X4.6457Y-3.3898
X4.6457Y-3.4094
X4.6457Y-3.5354
X4.6457Y-3.5551
X4.6457Y-3.5748
X4.6457Y-3.7244
X4.6457Y-3.7441
X4.6457Y-3.7638
X4.6457Y-3.8898
X4.6457Y-3.9094
X4.6457Y-3.9291
X4.6457Y-4.0787
X4.6457Y-4.0984
X4.6457Y-4.1181
X4.6457Y-4.2441
X4.6457Y-4.2638
X4.6457Y-4.2835
X4.6457Y-4.4331
X4.6457Y-4.4528
X4.6457Y-4.4724
X4.6457Y-4.5984
X4.6457Y-4.6181
X4.6457Y-4.6378
X4.6457Y-4.7874
X4.6457Y-4.8071
X4.6457Y-4.8268
X4.6457Y-4.9528
X4.6457Y-4.9724
X4.6457Y-4.9921
X4.6457Y-5.1417
X4.6457Y-5.1614
X4.6457Y-5.1811
X4.6457Y-5.3071
X4.6457Y-5.3268
X4.6457Y-5.3465
X4.6457Y-5.4961
X4.6457Y-5.5157
X4.6457Y-5.5354
X4.6457Y-5.6614
X4.6457Y-5.6811
X4.6457Y-5.7008
X4.6457Y-5.8504
X4.6457Y-5.8701
X4.6457Y-5.8898
X4.6457Y-6.0157
X4.6457Y-6.0354
X4.6457Y-6.0551
X4.6457Y-6.2047
X4.6457Y-6.2244
X4.6457Y-6.2441
X4.6457Y-6.3701
X4.6457Y-6.3898
X4.6457Y-6.4094
X4.6457Y-6.5591
X4.6457Y-6.5787
X4.6457Y-6.5984
X4.6614Y-3.3701
X4.6614Y-3.3898
X4.6614Y-3.4094
X4.6614Y-3.5354
X4.6614Y-3.5551
X4.6614Y-3.5748
X4.6614Y-3.7244
X4.6614Y-3.7441
X4.6614Y-3.7638
X4.6614Y-3.8898
X4.6614Y-3.9094
X4.6614Y-3.9291
X4.6614Y-4.0787
X4.6614Y-4.0984
X4.6614Y-4.1181
X4.6614Y-4.2441
X4.6614Y-4.2638
X4.6614Y-4.2835
X4.6614Y-4.4331
X4.6614Y-4.4528
X4.6614Y-4.4724
X4.6614Y-4.5984
X4.6614Y-4.6181
X4.6614Y-4.6378
X4.6614Y-4.7874
X4.6614Y-4.8071
X4.6614Y-4.8268
X4.6614Y-4.9528
X4.6614Y-4.9724
X4.6614Y-4.9921
X4.6614Y-5.1417
X4.6614Y-5.1614
X4.6614Y-5.1811
X4.6614Y-5.3071
X4.6614Y-5.3268
X4.6614Y-5.3465
X4.6614Y-5.4961
X4.6614Y-5.5157
X4.6614Y-5.5354
X4.6614Y-5.6614
X4.6614Y-5.6811
X4.6614Y-5.7008
X4.6614Y-5.8504
X4.6614Y-5.8701
X4.6614Y-5.8898
X4.6614Y-6.0157
X4.6614Y-6.0354
X4.6614Y-6.0551
X4.6614Y-6.2047
X4.6614Y-6.2244
X4.6614Y-6.2441
X4.6614Y-6.3701
X4.6614Y-6.3898
X4.6614Y-6.4094
X4.6614Y-6.5591
X4.6614Y-6.5787
X4.6614Y-6.5984
X4.6772Y-3.3701
X4.6772Y-3.3898
X4.6772Y-3.4094
X4.6772Y-3.5354
X4.6772Y-3.5551
X4.6772Y-3.5748
X4.6772Y-3.7244
X4.6772Y-3.7441
X4.6772Y-3.7638
X4.6772Y-3.8898
X4.6772Y-3.9094
X4.6772Y-3.9291
X4.6772Y-4.0787
X4.6772Y-4.0984
X4.6772Y-4.1181
X4.6772Y-4.2441
X4.6772Y-4.2638
X4.6772Y-4.2835
X4.6772Y-4.4331
X4.6772Y-4.4528
X4.6772Y-4.4724
X4.6772Y-4.5984
X4.6772Y-4.6181
X4.6772Y-4.6378
X4.6772Y-4.7874
X4.6772Y-4.8071
X4.6772Y-4.8268
X4.6772Y-4.9528
X4.6772Y-4.9724
X4.6772Y-4.9921
X4.6772Y-5.1417
X4.6772Y-5.1614
X4.6772Y-5.1811
X4.6772Y-5.3071
X4.6772Y-5.3268
X4.6772Y-5.3465
X4.6772Y-5.4961
X4.6772Y-5.5157
X4.6772Y-5.5354
X4.6772Y-5.6614
X4.6772Y-5.6811
X4.6772Y-5.7008
X4.6772Y-5.8504
X4.6772Y-5.8701
X4.6772Y-5.8898
X4.6772Y-6.0157
X4.6772Y-6.0354
X4.6772Y-6.0551
X4.6772Y-6.2047
X4.6772Y-6.2244
X4.6772Y-6.2441
X4.6772Y-6.3701
X4.6772Y-6.3898
X4.6772Y-6.4094
X4.6772Y-6.5591
X4.6772Y-6.5787
X4.6772Y-6.5984
X4.6929Y-3.3701
X4.6929Y-3.3898
X4.6929Y-3.4094
X4.6929Y-3.5354
X4.6929Y-3.5551
X4.6929Y-3.5748
X4.6929Y-3.7244
X4.6929Y-3.7441
X4.6929Y-3.7638
X4.6929Y-3.8898
X4.6929Y-3.9094
X4.6929Y-3.9291
X4.6929Y-4.0787
X4.6929Y-4.0984
X4.6929Y-4.1181
X4.6929Y-4.2441
X4.6929Y-4.2638
X4.6929Y-4.2835
X4.6929Y-4.4331
X4.6929Y-4.4528
X4.6929Y-4.4724
X4.6929Y-4.5984
X4.6929Y-4.6181
X4.6929Y-4.6378
X4.6929Y-4.7874
X4.6929Y-4.8071
X4.6929Y-4.8268
X4.6929Y-4.9528
X4.6929Y-4.9724
X4.6929Y-4.9921
X4.6929Y-5.1417
X4.6929Y-5.1614
X4.6929Y-5.1811
X4.6929Y-5.3071
X4.6929Y-5.3268
X4.6929Y-5.3465
X4.6929Y-5.4961
X4.6929Y-5.5157
X4.6929Y-5.5354
X4.6929Y-5.6614
X4.6929Y-5.6811
X4.6929Y-5.7008
X4.6929Y-5.8504
X4.6929Y-5.8701
X4.6929Y-5.8898
X4.6929Y-6.0157
X4.6929Y-6.0354
X4.6929Y-6.0551
X4.6929Y-6.2047
X4.6929Y-6.2244
X4.6929Y-6.2441
X4.6929Y-6.3701
X4.6929Y-6.3898
X4.6929Y-6.4094
X4.6929Y-6.5591
X4.6929Y-6.5787
X4.6929Y-6.5984
X4.7087Y-3.3701
X4.7087Y-3.3898
X4.7087Y-3.4094
X4.7087Y-3.5354
X4.7087Y-3.5551
X4.7087Y-3.5748
X4.7087Y-3.7244
X4.7087Y-3.7441
X4.7087Y-3.7638
X4.7087Y-3.8898
X4.7087Y-3.9094
X4.7087Y-3.9291
X4.7087Y-4.0787
X4.7087Y-4.0984
X4.7087Y-4.1181
X4.7087Y-4.2441
X4.7087Y-4.2638
X4.7087Y-4.2835
X4.7087Y-4.4331
X4.7087Y-4.4528
X4.7087Y-4.4724
X4.7087Y-4.5984
X4.7087Y-4.6181
X4.7087Y-4.6378
X4.7087Y-4.7874
X4.7087Y-4.8071
X4.7087Y-4.8268
X4.7087Y-4.9528
X4.7087Y-4.9724
X4.7087Y-4.9921
X4.7087Y-5.1417
X4.7087Y-5.1614
X4.7087Y-5.1811
X4.7087Y-5.3071
X4.7087Y-5.3268
X4.7087Y-5.3465
X4.7087Y-5.4961
X4.7087Y-5.5157
X4.7087Y-5.5354
X4.7087Y-5.6614
X4.7087Y-5.6811
X4.7087Y-5.7008
X4.7087Y-5.8504
X4.7087Y-5.8701
X4.7087Y-5.8898
X4.7087Y-6.0157
X4.7087Y-6.0354
X4.7087Y-6.0551
X4.7087Y-6.2047
X4.7087Y-6.2244
X4.7087Y-6.2441
X4.7087Y-6.3701
X4.7087Y-6.3898
X4.7087Y-6.4094
X4.7087Y-6.5591
X4.7087Y-6.5787
X4.7087Y-6.5984
X4.7244Y-3.3701
X4.7244Y-3.3898
X4.7244Y-3.4094
X4.7244Y-3.5354
X4.7244Y-3.5551
X4.7244Y-3.5748
X4.7244Y-3.7244
X4.7244Y-3.7441
X4.7244Y-3.7638
X4.7244Y-3.8898
X4.7244Y-3.9094
X4.7244Y-3.9291
X4.7244Y-4.0787
X4.7244Y-4.0984
X4.7244Y-4.1181
X4.7244Y-4.2441
X4.7244Y-4.2638
X4.7244Y-4.2835
X4.7244Y-4.4331
X4.7244Y-4.4528
X4.7244Y-4.4724
X4.7244Y-4.5984
X4.7244Y-4.6181
X4.7244Y-4.6378
X4.7244Y-4.7874
X4.7244Y-4.8071
X4.7244Y-4.8268
X4.7244Y-4.9528
X4.7244Y-4.9724
X4.7244Y-4.9921
X4.7244Y-5.1417
X4.7244Y-5.1614
X4.7244Y-5.1811
X4.7244Y-5.3071
X4.7244Y-5.3268
X4.7244Y-5.3465
X4.7244Y-5.4961
X4.7244Y-5.5157
X4.7244Y-5.5354
X4.7244Y-5.6614
X4.7244Y-5.6811
X4.7244Y-5.7008
X4.7244Y-5.8504
X4.7244Y-5.8701
X4.7244Y-5.8898
X4.7244Y-6.0157
X4.7244Y-6.0354
X4.7244Y-6.0551
X4.7244Y-6.2047
X4.7244Y-6.2244
X4.7244Y-6.2441
X4.7244Y-6.3701
X4.7244Y-6.3898
X4.7244Y-6.4094
X4.7244Y-6.5591
X4.7244Y-6.5787
X4.7244Y-6.5984
X4.7402Y-3.3898
X4.7402Y-3.5551
X4.7402Y-3.7441
X4.7402Y-3.9094
X4.7402Y-4.0984
X4.7402Y-4.2638
X4.7402Y-4.4528
X4.7402Y-4.6181
X4.7402Y-4.8071
X4.7402Y-4.9724
X4.7402Y-5.1614
X4.7402Y-5.3268
X4.7402Y-5.5157
X4.7402Y-5.6811
X4.7402Y-5.8701
X4.7402Y-6.0354
X4.7402Y-6.2244
X4.7402Y-6.3898
X4.7402Y-6.5787
M30
