%TF.GenerationSoftware,KiCad,Pcbnew,9.0.6*%
%TF.CreationDate,2025-12-24T02:21:30+01:00*%
%TF.ProjectId,secondary_mmc,7365636f-6e64-4617-9279-5f6d6d632e6b,rev?*%
%TF.SameCoordinates,Original*%
%TF.FileFunction,Drillmap*%
%TF.FilePolarity,Positive*%
%FSLAX45Y45*%
G04 Gerber Fmt 4.5, Leading zero omitted, Abs format (unit mm)*
G04 Created by KiCad (PCBNEW 9.0.6) date 2025-12-24 02:21:30*
%MOMM*%
%LPD*%
G01*
G04 APERTURE LIST*
%ADD10C,0.050000*%
%ADD11C,0.200000*%
%ADD12C,0.100000*%
G04 APERTURE END LIST*
D10*
X8125000Y-7650000D02*
X14625000Y-7650000D01*
X14625000Y-17650000D01*
X8125000Y-17650000D01*
X8125000Y-7650000D01*
D11*
D12*
X10645000Y-8565000D02*
X10675000Y-8595000D01*
X10675000Y-8565000D02*
X10645000Y-8595000D01*
X10645000Y-9045000D02*
X10675000Y-9075000D01*
X10675000Y-9045000D02*
X10645000Y-9075000D01*
X10645000Y-9465000D02*
X10675000Y-9495000D01*
X10675000Y-9465000D02*
X10645000Y-9495000D01*
X10645000Y-9945000D02*
X10675000Y-9975000D01*
X10675000Y-9945000D02*
X10645000Y-9975000D01*
X10645000Y-10375000D02*
X10675000Y-10405000D01*
X10675000Y-10375000D02*
X10645000Y-10405000D01*
X10645000Y-10845000D02*
X10675000Y-10875000D01*
X10675000Y-10845000D02*
X10645000Y-10875000D01*
X10645000Y-11265000D02*
X10675000Y-11295000D01*
X10675000Y-11265000D02*
X10645000Y-11295000D01*
X10645000Y-11745000D02*
X10675000Y-11775000D01*
X10675000Y-11745000D02*
X10645000Y-11775000D01*
X10645000Y-12165000D02*
X10675000Y-12195000D01*
X10675000Y-12165000D02*
X10645000Y-12195000D01*
X10645000Y-12645000D02*
X10675000Y-12675000D01*
X10675000Y-12645000D02*
X10645000Y-12675000D01*
X10645000Y-13065000D02*
X10675000Y-13095000D01*
X10675000Y-13065000D02*
X10645000Y-13095000D01*
X10645000Y-13545000D02*
X10675000Y-13575000D01*
X10675000Y-13545000D02*
X10645000Y-13575000D01*
X10645000Y-13965000D02*
X10675000Y-13995000D01*
X10675000Y-13965000D02*
X10645000Y-13995000D01*
X10645000Y-14445000D02*
X10675000Y-14475000D01*
X10675000Y-14445000D02*
X10645000Y-14475000D01*
X10645000Y-14865000D02*
X10675000Y-14895000D01*
X10675000Y-14865000D02*
X10645000Y-14895000D01*
X10645000Y-15345000D02*
X10675000Y-15375000D01*
X10675000Y-15345000D02*
X10645000Y-15375000D01*
X10645000Y-15765000D02*
X10675000Y-15795000D01*
X10675000Y-15765000D02*
X10645000Y-15795000D01*
X10645000Y-16245000D02*
X10675000Y-16275000D01*
X10675000Y-16245000D02*
X10645000Y-16275000D01*
X10645000Y-16665000D02*
X10675000Y-16695000D01*
X10675000Y-16665000D02*
X10645000Y-16695000D01*
X10685000Y-8515000D02*
X10715000Y-8545000D01*
X10715000Y-8515000D02*
X10685000Y-8545000D01*
X10685000Y-8565000D02*
X10715000Y-8595000D01*
X10715000Y-8565000D02*
X10685000Y-8595000D01*
X10685000Y-8615000D02*
X10715000Y-8645000D01*
X10715000Y-8615000D02*
X10685000Y-8645000D01*
X10685000Y-8995000D02*
X10715000Y-9025000D01*
X10715000Y-8995000D02*
X10685000Y-9025000D01*
X10685000Y-9045000D02*
X10715000Y-9075000D01*
X10715000Y-9045000D02*
X10685000Y-9075000D01*
X10685000Y-9095000D02*
X10715000Y-9125000D01*
X10715000Y-9095000D02*
X10685000Y-9125000D01*
X10685000Y-9415000D02*
X10715000Y-9445000D01*
X10715000Y-9415000D02*
X10685000Y-9445000D01*
X10685000Y-9465000D02*
X10715000Y-9495000D01*
X10715000Y-9465000D02*
X10685000Y-9495000D01*
X10685000Y-9515000D02*
X10715000Y-9545000D01*
X10715000Y-9515000D02*
X10685000Y-9545000D01*
X10685000Y-9895000D02*
X10715000Y-9925000D01*
X10715000Y-9895000D02*
X10685000Y-9925000D01*
X10685000Y-9945000D02*
X10715000Y-9975000D01*
X10715000Y-9945000D02*
X10685000Y-9975000D01*
X10685000Y-9995000D02*
X10715000Y-10025000D01*
X10715000Y-9995000D02*
X10685000Y-10025000D01*
X10685000Y-10325000D02*
X10715000Y-10355000D01*
X10715000Y-10325000D02*
X10685000Y-10355000D01*
X10685000Y-10375000D02*
X10715000Y-10405000D01*
X10715000Y-10375000D02*
X10685000Y-10405000D01*
X10685000Y-10425000D02*
X10715000Y-10455000D01*
X10715000Y-10425000D02*
X10685000Y-10455000D01*
X10685000Y-10795000D02*
X10715000Y-10825000D01*
X10715000Y-10795000D02*
X10685000Y-10825000D01*
X10685000Y-10845000D02*
X10715000Y-10875000D01*
X10715000Y-10845000D02*
X10685000Y-10875000D01*
X10685000Y-10895000D02*
X10715000Y-10925000D01*
X10715000Y-10895000D02*
X10685000Y-10925000D01*
X10685000Y-11215000D02*
X10715000Y-11245000D01*
X10715000Y-11215000D02*
X10685000Y-11245000D01*
X10685000Y-11265000D02*
X10715000Y-11295000D01*
X10715000Y-11265000D02*
X10685000Y-11295000D01*
X10685000Y-11315000D02*
X10715000Y-11345000D01*
X10715000Y-11315000D02*
X10685000Y-11345000D01*
X10685000Y-11695000D02*
X10715000Y-11725000D01*
X10715000Y-11695000D02*
X10685000Y-11725000D01*
X10685000Y-11745000D02*
X10715000Y-11775000D01*
X10715000Y-11745000D02*
X10685000Y-11775000D01*
X10685000Y-11795000D02*
X10715000Y-11825000D01*
X10715000Y-11795000D02*
X10685000Y-11825000D01*
X10685000Y-12115000D02*
X10715000Y-12145000D01*
X10715000Y-12115000D02*
X10685000Y-12145000D01*
X10685000Y-12165000D02*
X10715000Y-12195000D01*
X10715000Y-12165000D02*
X10685000Y-12195000D01*
X10685000Y-12215000D02*
X10715000Y-12245000D01*
X10715000Y-12215000D02*
X10685000Y-12245000D01*
X10685000Y-12595000D02*
X10715000Y-12625000D01*
X10715000Y-12595000D02*
X10685000Y-12625000D01*
X10685000Y-12645000D02*
X10715000Y-12675000D01*
X10715000Y-12645000D02*
X10685000Y-12675000D01*
X10685000Y-12695000D02*
X10715000Y-12725000D01*
X10715000Y-12695000D02*
X10685000Y-12725000D01*
X10685000Y-13015000D02*
X10715000Y-13045000D01*
X10715000Y-13015000D02*
X10685000Y-13045000D01*
X10685000Y-13065000D02*
X10715000Y-13095000D01*
X10715000Y-13065000D02*
X10685000Y-13095000D01*
X10685000Y-13115000D02*
X10715000Y-13145000D01*
X10715000Y-13115000D02*
X10685000Y-13145000D01*
X10685000Y-13495000D02*
X10715000Y-13525000D01*
X10715000Y-13495000D02*
X10685000Y-13525000D01*
X10685000Y-13545000D02*
X10715000Y-13575000D01*
X10715000Y-13545000D02*
X10685000Y-13575000D01*
X10685000Y-13595000D02*
X10715000Y-13625000D01*
X10715000Y-13595000D02*
X10685000Y-13625000D01*
X10685000Y-13915000D02*
X10715000Y-13945000D01*
X10715000Y-13915000D02*
X10685000Y-13945000D01*
X10685000Y-13965000D02*
X10715000Y-13995000D01*
X10715000Y-13965000D02*
X10685000Y-13995000D01*
X10685000Y-14015000D02*
X10715000Y-14045000D01*
X10715000Y-14015000D02*
X10685000Y-14045000D01*
X10685000Y-14395000D02*
X10715000Y-14425000D01*
X10715000Y-14395000D02*
X10685000Y-14425000D01*
X10685000Y-14445000D02*
X10715000Y-14475000D01*
X10715000Y-14445000D02*
X10685000Y-14475000D01*
X10685000Y-14495000D02*
X10715000Y-14525000D01*
X10715000Y-14495000D02*
X10685000Y-14525000D01*
X10685000Y-14815000D02*
X10715000Y-14845000D01*
X10715000Y-14815000D02*
X10685000Y-14845000D01*
X10685000Y-14865000D02*
X10715000Y-14895000D01*
X10715000Y-14865000D02*
X10685000Y-14895000D01*
X10685000Y-14915000D02*
X10715000Y-14945000D01*
X10715000Y-14915000D02*
X10685000Y-14945000D01*
X10685000Y-15295000D02*
X10715000Y-15325000D01*
X10715000Y-15295000D02*
X10685000Y-15325000D01*
X10685000Y-15345000D02*
X10715000Y-15375000D01*
X10715000Y-15345000D02*
X10685000Y-15375000D01*
X10685000Y-15395000D02*
X10715000Y-15425000D01*
X10715000Y-15395000D02*
X10685000Y-15425000D01*
X10685000Y-15715000D02*
X10715000Y-15745000D01*
X10715000Y-15715000D02*
X10685000Y-15745000D01*
X10685000Y-15765000D02*
X10715000Y-15795000D01*
X10715000Y-15765000D02*
X10685000Y-15795000D01*
X10685000Y-15815000D02*
X10715000Y-15845000D01*
X10715000Y-15815000D02*
X10685000Y-15845000D01*
X10685000Y-16195000D02*
X10715000Y-16225000D01*
X10715000Y-16195000D02*
X10685000Y-16225000D01*
X10685000Y-16245000D02*
X10715000Y-16275000D01*
X10715000Y-16245000D02*
X10685000Y-16275000D01*
X10685000Y-16295000D02*
X10715000Y-16325000D01*
X10715000Y-16295000D02*
X10685000Y-16325000D01*
X10685000Y-16615000D02*
X10715000Y-16645000D01*
X10715000Y-16615000D02*
X10685000Y-16645000D01*
X10685000Y-16665000D02*
X10715000Y-16695000D01*
X10715000Y-16665000D02*
X10685000Y-16695000D01*
X10685000Y-16715000D02*
X10715000Y-16745000D01*
X10715000Y-16715000D02*
X10685000Y-16745000D01*
X10725000Y-8515000D02*
X10755000Y-8545000D01*
X10755000Y-8515000D02*
X10725000Y-8545000D01*
X10725000Y-8565000D02*
X10755000Y-8595000D01*
X10755000Y-8565000D02*
X10725000Y-8595000D01*
X10725000Y-8615000D02*
X10755000Y-8645000D01*
X10755000Y-8615000D02*
X10725000Y-8645000D01*
X10725000Y-8995000D02*
X10755000Y-9025000D01*
X10755000Y-8995000D02*
X10725000Y-9025000D01*
X10725000Y-9045000D02*
X10755000Y-9075000D01*
X10755000Y-9045000D02*
X10725000Y-9075000D01*
X10725000Y-9095000D02*
X10755000Y-9125000D01*
X10755000Y-9095000D02*
X10725000Y-9125000D01*
X10725000Y-9415000D02*
X10755000Y-9445000D01*
X10755000Y-9415000D02*
X10725000Y-9445000D01*
X10725000Y-9465000D02*
X10755000Y-9495000D01*
X10755000Y-9465000D02*
X10725000Y-9495000D01*
X10725000Y-9515000D02*
X10755000Y-9545000D01*
X10755000Y-9515000D02*
X10725000Y-9545000D01*
X10725000Y-9895000D02*
X10755000Y-9925000D01*
X10755000Y-9895000D02*
X10725000Y-9925000D01*
X10725000Y-9945000D02*
X10755000Y-9975000D01*
X10755000Y-9945000D02*
X10725000Y-9975000D01*
X10725000Y-9995000D02*
X10755000Y-10025000D01*
X10755000Y-9995000D02*
X10725000Y-10025000D01*
X10725000Y-10325000D02*
X10755000Y-10355000D01*
X10755000Y-10325000D02*
X10725000Y-10355000D01*
X10725000Y-10375000D02*
X10755000Y-10405000D01*
X10755000Y-10375000D02*
X10725000Y-10405000D01*
X10725000Y-10425000D02*
X10755000Y-10455000D01*
X10755000Y-10425000D02*
X10725000Y-10455000D01*
X10725000Y-10795000D02*
X10755000Y-10825000D01*
X10755000Y-10795000D02*
X10725000Y-10825000D01*
X10725000Y-10845000D02*
X10755000Y-10875000D01*
X10755000Y-10845000D02*
X10725000Y-10875000D01*
X10725000Y-10895000D02*
X10755000Y-10925000D01*
X10755000Y-10895000D02*
X10725000Y-10925000D01*
X10725000Y-11215000D02*
X10755000Y-11245000D01*
X10755000Y-11215000D02*
X10725000Y-11245000D01*
X10725000Y-11265000D02*
X10755000Y-11295000D01*
X10755000Y-11265000D02*
X10725000Y-11295000D01*
X10725000Y-11315000D02*
X10755000Y-11345000D01*
X10755000Y-11315000D02*
X10725000Y-11345000D01*
X10725000Y-11695000D02*
X10755000Y-11725000D01*
X10755000Y-11695000D02*
X10725000Y-11725000D01*
X10725000Y-11745000D02*
X10755000Y-11775000D01*
X10755000Y-11745000D02*
X10725000Y-11775000D01*
X10725000Y-11795000D02*
X10755000Y-11825000D01*
X10755000Y-11795000D02*
X10725000Y-11825000D01*
X10725000Y-12115000D02*
X10755000Y-12145000D01*
X10755000Y-12115000D02*
X10725000Y-12145000D01*
X10725000Y-12165000D02*
X10755000Y-12195000D01*
X10755000Y-12165000D02*
X10725000Y-12195000D01*
X10725000Y-12215000D02*
X10755000Y-12245000D01*
X10755000Y-12215000D02*
X10725000Y-12245000D01*
X10725000Y-12595000D02*
X10755000Y-12625000D01*
X10755000Y-12595000D02*
X10725000Y-12625000D01*
X10725000Y-12645000D02*
X10755000Y-12675000D01*
X10755000Y-12645000D02*
X10725000Y-12675000D01*
X10725000Y-12695000D02*
X10755000Y-12725000D01*
X10755000Y-12695000D02*
X10725000Y-12725000D01*
X10725000Y-13015000D02*
X10755000Y-13045000D01*
X10755000Y-13015000D02*
X10725000Y-13045000D01*
X10725000Y-13065000D02*
X10755000Y-13095000D01*
X10755000Y-13065000D02*
X10725000Y-13095000D01*
X10725000Y-13115000D02*
X10755000Y-13145000D01*
X10755000Y-13115000D02*
X10725000Y-13145000D01*
X10725000Y-13495000D02*
X10755000Y-13525000D01*
X10755000Y-13495000D02*
X10725000Y-13525000D01*
X10725000Y-13545000D02*
X10755000Y-13575000D01*
X10755000Y-13545000D02*
X10725000Y-13575000D01*
X10725000Y-13595000D02*
X10755000Y-13625000D01*
X10755000Y-13595000D02*
X10725000Y-13625000D01*
X10725000Y-13915000D02*
X10755000Y-13945000D01*
X10755000Y-13915000D02*
X10725000Y-13945000D01*
X10725000Y-13965000D02*
X10755000Y-13995000D01*
X10755000Y-13965000D02*
X10725000Y-13995000D01*
X10725000Y-14015000D02*
X10755000Y-14045000D01*
X10755000Y-14015000D02*
X10725000Y-14045000D01*
X10725000Y-14395000D02*
X10755000Y-14425000D01*
X10755000Y-14395000D02*
X10725000Y-14425000D01*
X10725000Y-14445000D02*
X10755000Y-14475000D01*
X10755000Y-14445000D02*
X10725000Y-14475000D01*
X10725000Y-14495000D02*
X10755000Y-14525000D01*
X10755000Y-14495000D02*
X10725000Y-14525000D01*
X10725000Y-14815000D02*
X10755000Y-14845000D01*
X10755000Y-14815000D02*
X10725000Y-14845000D01*
X10725000Y-14865000D02*
X10755000Y-14895000D01*
X10755000Y-14865000D02*
X10725000Y-14895000D01*
X10725000Y-14915000D02*
X10755000Y-14945000D01*
X10755000Y-14915000D02*
X10725000Y-14945000D01*
X10725000Y-15295000D02*
X10755000Y-15325000D01*
X10755000Y-15295000D02*
X10725000Y-15325000D01*
X10725000Y-15345000D02*
X10755000Y-15375000D01*
X10755000Y-15345000D02*
X10725000Y-15375000D01*
X10725000Y-15395000D02*
X10755000Y-15425000D01*
X10755000Y-15395000D02*
X10725000Y-15425000D01*
X10725000Y-15715000D02*
X10755000Y-15745000D01*
X10755000Y-15715000D02*
X10725000Y-15745000D01*
X10725000Y-15765000D02*
X10755000Y-15795000D01*
X10755000Y-15765000D02*
X10725000Y-15795000D01*
X10725000Y-15815000D02*
X10755000Y-15845000D01*
X10755000Y-15815000D02*
X10725000Y-15845000D01*
X10725000Y-16195000D02*
X10755000Y-16225000D01*
X10755000Y-16195000D02*
X10725000Y-16225000D01*
X10725000Y-16245000D02*
X10755000Y-16275000D01*
X10755000Y-16245000D02*
X10725000Y-16275000D01*
X10725000Y-16295000D02*
X10755000Y-16325000D01*
X10755000Y-16295000D02*
X10725000Y-16325000D01*
X10725000Y-16615000D02*
X10755000Y-16645000D01*
X10755000Y-16615000D02*
X10725000Y-16645000D01*
X10725000Y-16665000D02*
X10755000Y-16695000D01*
X10755000Y-16665000D02*
X10725000Y-16695000D01*
X10725000Y-16715000D02*
X10755000Y-16745000D01*
X10755000Y-16715000D02*
X10725000Y-16745000D01*
X10765000Y-8515000D02*
X10795000Y-8545000D01*
X10795000Y-8515000D02*
X10765000Y-8545000D01*
X10765000Y-8565000D02*
X10795000Y-8595000D01*
X10795000Y-8565000D02*
X10765000Y-8595000D01*
X10765000Y-8615000D02*
X10795000Y-8645000D01*
X10795000Y-8615000D02*
X10765000Y-8645000D01*
X10765000Y-8995000D02*
X10795000Y-9025000D01*
X10795000Y-8995000D02*
X10765000Y-9025000D01*
X10765000Y-9045000D02*
X10795000Y-9075000D01*
X10795000Y-9045000D02*
X10765000Y-9075000D01*
X10765000Y-9095000D02*
X10795000Y-9125000D01*
X10795000Y-9095000D02*
X10765000Y-9125000D01*
X10765000Y-9415000D02*
X10795000Y-9445000D01*
X10795000Y-9415000D02*
X10765000Y-9445000D01*
X10765000Y-9465000D02*
X10795000Y-9495000D01*
X10795000Y-9465000D02*
X10765000Y-9495000D01*
X10765000Y-9515000D02*
X10795000Y-9545000D01*
X10795000Y-9515000D02*
X10765000Y-9545000D01*
X10765000Y-9895000D02*
X10795000Y-9925000D01*
X10795000Y-9895000D02*
X10765000Y-9925000D01*
X10765000Y-9945000D02*
X10795000Y-9975000D01*
X10795000Y-9945000D02*
X10765000Y-9975000D01*
X10765000Y-9995000D02*
X10795000Y-10025000D01*
X10795000Y-9995000D02*
X10765000Y-10025000D01*
X10765000Y-10325000D02*
X10795000Y-10355000D01*
X10795000Y-10325000D02*
X10765000Y-10355000D01*
X10765000Y-10375000D02*
X10795000Y-10405000D01*
X10795000Y-10375000D02*
X10765000Y-10405000D01*
X10765000Y-10425000D02*
X10795000Y-10455000D01*
X10795000Y-10425000D02*
X10765000Y-10455000D01*
X10765000Y-10795000D02*
X10795000Y-10825000D01*
X10795000Y-10795000D02*
X10765000Y-10825000D01*
X10765000Y-10845000D02*
X10795000Y-10875000D01*
X10795000Y-10845000D02*
X10765000Y-10875000D01*
X10765000Y-10895000D02*
X10795000Y-10925000D01*
X10795000Y-10895000D02*
X10765000Y-10925000D01*
X10765000Y-11215000D02*
X10795000Y-11245000D01*
X10795000Y-11215000D02*
X10765000Y-11245000D01*
X10765000Y-11265000D02*
X10795000Y-11295000D01*
X10795000Y-11265000D02*
X10765000Y-11295000D01*
X10765000Y-11315000D02*
X10795000Y-11345000D01*
X10795000Y-11315000D02*
X10765000Y-11345000D01*
X10765000Y-11695000D02*
X10795000Y-11725000D01*
X10795000Y-11695000D02*
X10765000Y-11725000D01*
X10765000Y-11745000D02*
X10795000Y-11775000D01*
X10795000Y-11745000D02*
X10765000Y-11775000D01*
X10765000Y-11795000D02*
X10795000Y-11825000D01*
X10795000Y-11795000D02*
X10765000Y-11825000D01*
X10765000Y-12115000D02*
X10795000Y-12145000D01*
X10795000Y-12115000D02*
X10765000Y-12145000D01*
X10765000Y-12165000D02*
X10795000Y-12195000D01*
X10795000Y-12165000D02*
X10765000Y-12195000D01*
X10765000Y-12215000D02*
X10795000Y-12245000D01*
X10795000Y-12215000D02*
X10765000Y-12245000D01*
X10765000Y-12595000D02*
X10795000Y-12625000D01*
X10795000Y-12595000D02*
X10765000Y-12625000D01*
X10765000Y-12645000D02*
X10795000Y-12675000D01*
X10795000Y-12645000D02*
X10765000Y-12675000D01*
X10765000Y-12695000D02*
X10795000Y-12725000D01*
X10795000Y-12695000D02*
X10765000Y-12725000D01*
X10765000Y-13015000D02*
X10795000Y-13045000D01*
X10795000Y-13015000D02*
X10765000Y-13045000D01*
X10765000Y-13065000D02*
X10795000Y-13095000D01*
X10795000Y-13065000D02*
X10765000Y-13095000D01*
X10765000Y-13115000D02*
X10795000Y-13145000D01*
X10795000Y-13115000D02*
X10765000Y-13145000D01*
X10765000Y-13495000D02*
X10795000Y-13525000D01*
X10795000Y-13495000D02*
X10765000Y-13525000D01*
X10765000Y-13545000D02*
X10795000Y-13575000D01*
X10795000Y-13545000D02*
X10765000Y-13575000D01*
X10765000Y-13595000D02*
X10795000Y-13625000D01*
X10795000Y-13595000D02*
X10765000Y-13625000D01*
X10765000Y-13915000D02*
X10795000Y-13945000D01*
X10795000Y-13915000D02*
X10765000Y-13945000D01*
X10765000Y-13965000D02*
X10795000Y-13995000D01*
X10795000Y-13965000D02*
X10765000Y-13995000D01*
X10765000Y-14015000D02*
X10795000Y-14045000D01*
X10795000Y-14015000D02*
X10765000Y-14045000D01*
X10765000Y-14395000D02*
X10795000Y-14425000D01*
X10795000Y-14395000D02*
X10765000Y-14425000D01*
X10765000Y-14445000D02*
X10795000Y-14475000D01*
X10795000Y-14445000D02*
X10765000Y-14475000D01*
X10765000Y-14495000D02*
X10795000Y-14525000D01*
X10795000Y-14495000D02*
X10765000Y-14525000D01*
X10765000Y-14815000D02*
X10795000Y-14845000D01*
X10795000Y-14815000D02*
X10765000Y-14845000D01*
X10765000Y-14865000D02*
X10795000Y-14895000D01*
X10795000Y-14865000D02*
X10765000Y-14895000D01*
X10765000Y-14915000D02*
X10795000Y-14945000D01*
X10795000Y-14915000D02*
X10765000Y-14945000D01*
X10765000Y-15295000D02*
X10795000Y-15325000D01*
X10795000Y-15295000D02*
X10765000Y-15325000D01*
X10765000Y-15345000D02*
X10795000Y-15375000D01*
X10795000Y-15345000D02*
X10765000Y-15375000D01*
X10765000Y-15395000D02*
X10795000Y-15425000D01*
X10795000Y-15395000D02*
X10765000Y-15425000D01*
X10765000Y-15715000D02*
X10795000Y-15745000D01*
X10795000Y-15715000D02*
X10765000Y-15745000D01*
X10765000Y-15765000D02*
X10795000Y-15795000D01*
X10795000Y-15765000D02*
X10765000Y-15795000D01*
X10765000Y-15815000D02*
X10795000Y-15845000D01*
X10795000Y-15815000D02*
X10765000Y-15845000D01*
X10765000Y-16195000D02*
X10795000Y-16225000D01*
X10795000Y-16195000D02*
X10765000Y-16225000D01*
X10765000Y-16245000D02*
X10795000Y-16275000D01*
X10795000Y-16245000D02*
X10765000Y-16275000D01*
X10765000Y-16295000D02*
X10795000Y-16325000D01*
X10795000Y-16295000D02*
X10765000Y-16325000D01*
X10765000Y-16615000D02*
X10795000Y-16645000D01*
X10795000Y-16615000D02*
X10765000Y-16645000D01*
X10765000Y-16665000D02*
X10795000Y-16695000D01*
X10795000Y-16665000D02*
X10765000Y-16695000D01*
X10765000Y-16715000D02*
X10795000Y-16745000D01*
X10795000Y-16715000D02*
X10765000Y-16745000D01*
X10805000Y-8515000D02*
X10835000Y-8545000D01*
X10835000Y-8515000D02*
X10805000Y-8545000D01*
X10805000Y-8565000D02*
X10835000Y-8595000D01*
X10835000Y-8565000D02*
X10805000Y-8595000D01*
X10805000Y-8615000D02*
X10835000Y-8645000D01*
X10835000Y-8615000D02*
X10805000Y-8645000D01*
X10805000Y-8995000D02*
X10835000Y-9025000D01*
X10835000Y-8995000D02*
X10805000Y-9025000D01*
X10805000Y-9045000D02*
X10835000Y-9075000D01*
X10835000Y-9045000D02*
X10805000Y-9075000D01*
X10805000Y-9095000D02*
X10835000Y-9125000D01*
X10835000Y-9095000D02*
X10805000Y-9125000D01*
X10805000Y-9415000D02*
X10835000Y-9445000D01*
X10835000Y-9415000D02*
X10805000Y-9445000D01*
X10805000Y-9465000D02*
X10835000Y-9495000D01*
X10835000Y-9465000D02*
X10805000Y-9495000D01*
X10805000Y-9515000D02*
X10835000Y-9545000D01*
X10835000Y-9515000D02*
X10805000Y-9545000D01*
X10805000Y-9895000D02*
X10835000Y-9925000D01*
X10835000Y-9895000D02*
X10805000Y-9925000D01*
X10805000Y-9945000D02*
X10835000Y-9975000D01*
X10835000Y-9945000D02*
X10805000Y-9975000D01*
X10805000Y-9995000D02*
X10835000Y-10025000D01*
X10835000Y-9995000D02*
X10805000Y-10025000D01*
X10805000Y-10325000D02*
X10835000Y-10355000D01*
X10835000Y-10325000D02*
X10805000Y-10355000D01*
X10805000Y-10375000D02*
X10835000Y-10405000D01*
X10835000Y-10375000D02*
X10805000Y-10405000D01*
X10805000Y-10425000D02*
X10835000Y-10455000D01*
X10835000Y-10425000D02*
X10805000Y-10455000D01*
X10805000Y-10795000D02*
X10835000Y-10825000D01*
X10835000Y-10795000D02*
X10805000Y-10825000D01*
X10805000Y-10845000D02*
X10835000Y-10875000D01*
X10835000Y-10845000D02*
X10805000Y-10875000D01*
X10805000Y-10895000D02*
X10835000Y-10925000D01*
X10835000Y-10895000D02*
X10805000Y-10925000D01*
X10805000Y-11215000D02*
X10835000Y-11245000D01*
X10835000Y-11215000D02*
X10805000Y-11245000D01*
X10805000Y-11265000D02*
X10835000Y-11295000D01*
X10835000Y-11265000D02*
X10805000Y-11295000D01*
X10805000Y-11315000D02*
X10835000Y-11345000D01*
X10835000Y-11315000D02*
X10805000Y-11345000D01*
X10805000Y-11695000D02*
X10835000Y-11725000D01*
X10835000Y-11695000D02*
X10805000Y-11725000D01*
X10805000Y-11745000D02*
X10835000Y-11775000D01*
X10835000Y-11745000D02*
X10805000Y-11775000D01*
X10805000Y-11795000D02*
X10835000Y-11825000D01*
X10835000Y-11795000D02*
X10805000Y-11825000D01*
X10805000Y-12115000D02*
X10835000Y-12145000D01*
X10835000Y-12115000D02*
X10805000Y-12145000D01*
X10805000Y-12165000D02*
X10835000Y-12195000D01*
X10835000Y-12165000D02*
X10805000Y-12195000D01*
X10805000Y-12215000D02*
X10835000Y-12245000D01*
X10835000Y-12215000D02*
X10805000Y-12245000D01*
X10805000Y-12595000D02*
X10835000Y-12625000D01*
X10835000Y-12595000D02*
X10805000Y-12625000D01*
X10805000Y-12645000D02*
X10835000Y-12675000D01*
X10835000Y-12645000D02*
X10805000Y-12675000D01*
X10805000Y-12695000D02*
X10835000Y-12725000D01*
X10835000Y-12695000D02*
X10805000Y-12725000D01*
X10805000Y-13015000D02*
X10835000Y-13045000D01*
X10835000Y-13015000D02*
X10805000Y-13045000D01*
X10805000Y-13065000D02*
X10835000Y-13095000D01*
X10835000Y-13065000D02*
X10805000Y-13095000D01*
X10805000Y-13115000D02*
X10835000Y-13145000D01*
X10835000Y-13115000D02*
X10805000Y-13145000D01*
X10805000Y-13495000D02*
X10835000Y-13525000D01*
X10835000Y-13495000D02*
X10805000Y-13525000D01*
X10805000Y-13545000D02*
X10835000Y-13575000D01*
X10835000Y-13545000D02*
X10805000Y-13575000D01*
X10805000Y-13595000D02*
X10835000Y-13625000D01*
X10835000Y-13595000D02*
X10805000Y-13625000D01*
X10805000Y-13915000D02*
X10835000Y-13945000D01*
X10835000Y-13915000D02*
X10805000Y-13945000D01*
X10805000Y-13965000D02*
X10835000Y-13995000D01*
X10835000Y-13965000D02*
X10805000Y-13995000D01*
X10805000Y-14015000D02*
X10835000Y-14045000D01*
X10835000Y-14015000D02*
X10805000Y-14045000D01*
X10805000Y-14395000D02*
X10835000Y-14425000D01*
X10835000Y-14395000D02*
X10805000Y-14425000D01*
X10805000Y-14445000D02*
X10835000Y-14475000D01*
X10835000Y-14445000D02*
X10805000Y-14475000D01*
X10805000Y-14495000D02*
X10835000Y-14525000D01*
X10835000Y-14495000D02*
X10805000Y-14525000D01*
X10805000Y-14815000D02*
X10835000Y-14845000D01*
X10835000Y-14815000D02*
X10805000Y-14845000D01*
X10805000Y-14865000D02*
X10835000Y-14895000D01*
X10835000Y-14865000D02*
X10805000Y-14895000D01*
X10805000Y-14915000D02*
X10835000Y-14945000D01*
X10835000Y-14915000D02*
X10805000Y-14945000D01*
X10805000Y-15295000D02*
X10835000Y-15325000D01*
X10835000Y-15295000D02*
X10805000Y-15325000D01*
X10805000Y-15345000D02*
X10835000Y-15375000D01*
X10835000Y-15345000D02*
X10805000Y-15375000D01*
X10805000Y-15395000D02*
X10835000Y-15425000D01*
X10835000Y-15395000D02*
X10805000Y-15425000D01*
X10805000Y-15715000D02*
X10835000Y-15745000D01*
X10835000Y-15715000D02*
X10805000Y-15745000D01*
X10805000Y-15765000D02*
X10835000Y-15795000D01*
X10835000Y-15765000D02*
X10805000Y-15795000D01*
X10805000Y-15815000D02*
X10835000Y-15845000D01*
X10835000Y-15815000D02*
X10805000Y-15845000D01*
X10805000Y-16195000D02*
X10835000Y-16225000D01*
X10835000Y-16195000D02*
X10805000Y-16225000D01*
X10805000Y-16245000D02*
X10835000Y-16275000D01*
X10835000Y-16245000D02*
X10805000Y-16275000D01*
X10805000Y-16295000D02*
X10835000Y-16325000D01*
X10835000Y-16295000D02*
X10805000Y-16325000D01*
X10805000Y-16615000D02*
X10835000Y-16645000D01*
X10835000Y-16615000D02*
X10805000Y-16645000D01*
X10805000Y-16665000D02*
X10835000Y-16695000D01*
X10835000Y-16665000D02*
X10805000Y-16695000D01*
X10805000Y-16715000D02*
X10835000Y-16745000D01*
X10835000Y-16715000D02*
X10805000Y-16745000D01*
X10845000Y-8515000D02*
X10875000Y-8545000D01*
X10875000Y-8515000D02*
X10845000Y-8545000D01*
X10845000Y-8565000D02*
X10875000Y-8595000D01*
X10875000Y-8565000D02*
X10845000Y-8595000D01*
X10845000Y-8615000D02*
X10875000Y-8645000D01*
X10875000Y-8615000D02*
X10845000Y-8645000D01*
X10845000Y-8995000D02*
X10875000Y-9025000D01*
X10875000Y-8995000D02*
X10845000Y-9025000D01*
X10845000Y-9045000D02*
X10875000Y-9075000D01*
X10875000Y-9045000D02*
X10845000Y-9075000D01*
X10845000Y-9095000D02*
X10875000Y-9125000D01*
X10875000Y-9095000D02*
X10845000Y-9125000D01*
X10845000Y-9415000D02*
X10875000Y-9445000D01*
X10875000Y-9415000D02*
X10845000Y-9445000D01*
X10845000Y-9465000D02*
X10875000Y-9495000D01*
X10875000Y-9465000D02*
X10845000Y-9495000D01*
X10845000Y-9515000D02*
X10875000Y-9545000D01*
X10875000Y-9515000D02*
X10845000Y-9545000D01*
X10845000Y-9895000D02*
X10875000Y-9925000D01*
X10875000Y-9895000D02*
X10845000Y-9925000D01*
X10845000Y-9945000D02*
X10875000Y-9975000D01*
X10875000Y-9945000D02*
X10845000Y-9975000D01*
X10845000Y-9995000D02*
X10875000Y-10025000D01*
X10875000Y-9995000D02*
X10845000Y-10025000D01*
X10845000Y-10325000D02*
X10875000Y-10355000D01*
X10875000Y-10325000D02*
X10845000Y-10355000D01*
X10845000Y-10375000D02*
X10875000Y-10405000D01*
X10875000Y-10375000D02*
X10845000Y-10405000D01*
X10845000Y-10425000D02*
X10875000Y-10455000D01*
X10875000Y-10425000D02*
X10845000Y-10455000D01*
X10845000Y-10795000D02*
X10875000Y-10825000D01*
X10875000Y-10795000D02*
X10845000Y-10825000D01*
X10845000Y-10845000D02*
X10875000Y-10875000D01*
X10875000Y-10845000D02*
X10845000Y-10875000D01*
X10845000Y-10895000D02*
X10875000Y-10925000D01*
X10875000Y-10895000D02*
X10845000Y-10925000D01*
X10845000Y-11215000D02*
X10875000Y-11245000D01*
X10875000Y-11215000D02*
X10845000Y-11245000D01*
X10845000Y-11265000D02*
X10875000Y-11295000D01*
X10875000Y-11265000D02*
X10845000Y-11295000D01*
X10845000Y-11315000D02*
X10875000Y-11345000D01*
X10875000Y-11315000D02*
X10845000Y-11345000D01*
X10845000Y-11695000D02*
X10875000Y-11725000D01*
X10875000Y-11695000D02*
X10845000Y-11725000D01*
X10845000Y-11745000D02*
X10875000Y-11775000D01*
X10875000Y-11745000D02*
X10845000Y-11775000D01*
X10845000Y-11795000D02*
X10875000Y-11825000D01*
X10875000Y-11795000D02*
X10845000Y-11825000D01*
X10845000Y-12115000D02*
X10875000Y-12145000D01*
X10875000Y-12115000D02*
X10845000Y-12145000D01*
X10845000Y-12165000D02*
X10875000Y-12195000D01*
X10875000Y-12165000D02*
X10845000Y-12195000D01*
X10845000Y-12215000D02*
X10875000Y-12245000D01*
X10875000Y-12215000D02*
X10845000Y-12245000D01*
X10845000Y-12595000D02*
X10875000Y-12625000D01*
X10875000Y-12595000D02*
X10845000Y-12625000D01*
X10845000Y-12645000D02*
X10875000Y-12675000D01*
X10875000Y-12645000D02*
X10845000Y-12675000D01*
X10845000Y-12695000D02*
X10875000Y-12725000D01*
X10875000Y-12695000D02*
X10845000Y-12725000D01*
X10845000Y-13015000D02*
X10875000Y-13045000D01*
X10875000Y-13015000D02*
X10845000Y-13045000D01*
X10845000Y-13065000D02*
X10875000Y-13095000D01*
X10875000Y-13065000D02*
X10845000Y-13095000D01*
X10845000Y-13115000D02*
X10875000Y-13145000D01*
X10875000Y-13115000D02*
X10845000Y-13145000D01*
X10845000Y-13495000D02*
X10875000Y-13525000D01*
X10875000Y-13495000D02*
X10845000Y-13525000D01*
X10845000Y-13545000D02*
X10875000Y-13575000D01*
X10875000Y-13545000D02*
X10845000Y-13575000D01*
X10845000Y-13595000D02*
X10875000Y-13625000D01*
X10875000Y-13595000D02*
X10845000Y-13625000D01*
X10845000Y-13915000D02*
X10875000Y-13945000D01*
X10875000Y-13915000D02*
X10845000Y-13945000D01*
X10845000Y-13965000D02*
X10875000Y-13995000D01*
X10875000Y-13965000D02*
X10845000Y-13995000D01*
X10845000Y-14015000D02*
X10875000Y-14045000D01*
X10875000Y-14015000D02*
X10845000Y-14045000D01*
X10845000Y-14395000D02*
X10875000Y-14425000D01*
X10875000Y-14395000D02*
X10845000Y-14425000D01*
X10845000Y-14445000D02*
X10875000Y-14475000D01*
X10875000Y-14445000D02*
X10845000Y-14475000D01*
X10845000Y-14495000D02*
X10875000Y-14525000D01*
X10875000Y-14495000D02*
X10845000Y-14525000D01*
X10845000Y-14815000D02*
X10875000Y-14845000D01*
X10875000Y-14815000D02*
X10845000Y-14845000D01*
X10845000Y-14865000D02*
X10875000Y-14895000D01*
X10875000Y-14865000D02*
X10845000Y-14895000D01*
X10845000Y-14915000D02*
X10875000Y-14945000D01*
X10875000Y-14915000D02*
X10845000Y-14945000D01*
X10845000Y-15295000D02*
X10875000Y-15325000D01*
X10875000Y-15295000D02*
X10845000Y-15325000D01*
X10845000Y-15345000D02*
X10875000Y-15375000D01*
X10875000Y-15345000D02*
X10845000Y-15375000D01*
X10845000Y-15395000D02*
X10875000Y-15425000D01*
X10875000Y-15395000D02*
X10845000Y-15425000D01*
X10845000Y-15715000D02*
X10875000Y-15745000D01*
X10875000Y-15715000D02*
X10845000Y-15745000D01*
X10845000Y-15765000D02*
X10875000Y-15795000D01*
X10875000Y-15765000D02*
X10845000Y-15795000D01*
X10845000Y-15815000D02*
X10875000Y-15845000D01*
X10875000Y-15815000D02*
X10845000Y-15845000D01*
X10845000Y-16195000D02*
X10875000Y-16225000D01*
X10875000Y-16195000D02*
X10845000Y-16225000D01*
X10845000Y-16245000D02*
X10875000Y-16275000D01*
X10875000Y-16245000D02*
X10845000Y-16275000D01*
X10845000Y-16295000D02*
X10875000Y-16325000D01*
X10875000Y-16295000D02*
X10845000Y-16325000D01*
X10845000Y-16615000D02*
X10875000Y-16645000D01*
X10875000Y-16615000D02*
X10845000Y-16645000D01*
X10845000Y-16665000D02*
X10875000Y-16695000D01*
X10875000Y-16665000D02*
X10845000Y-16695000D01*
X10845000Y-16715000D02*
X10875000Y-16745000D01*
X10875000Y-16715000D02*
X10845000Y-16745000D01*
X10885000Y-8515000D02*
X10915000Y-8545000D01*
X10915000Y-8515000D02*
X10885000Y-8545000D01*
X10885000Y-8565000D02*
X10915000Y-8595000D01*
X10915000Y-8565000D02*
X10885000Y-8595000D01*
X10885000Y-8615000D02*
X10915000Y-8645000D01*
X10915000Y-8615000D02*
X10885000Y-8645000D01*
X10885000Y-8995000D02*
X10915000Y-9025000D01*
X10915000Y-8995000D02*
X10885000Y-9025000D01*
X10885000Y-9045000D02*
X10915000Y-9075000D01*
X10915000Y-9045000D02*
X10885000Y-9075000D01*
X10885000Y-9095000D02*
X10915000Y-9125000D01*
X10915000Y-9095000D02*
X10885000Y-9125000D01*
X10885000Y-9415000D02*
X10915000Y-9445000D01*
X10915000Y-9415000D02*
X10885000Y-9445000D01*
X10885000Y-9465000D02*
X10915000Y-9495000D01*
X10915000Y-9465000D02*
X10885000Y-9495000D01*
X10885000Y-9515000D02*
X10915000Y-9545000D01*
X10915000Y-9515000D02*
X10885000Y-9545000D01*
X10885000Y-9895000D02*
X10915000Y-9925000D01*
X10915000Y-9895000D02*
X10885000Y-9925000D01*
X10885000Y-9945000D02*
X10915000Y-9975000D01*
X10915000Y-9945000D02*
X10885000Y-9975000D01*
X10885000Y-9995000D02*
X10915000Y-10025000D01*
X10915000Y-9995000D02*
X10885000Y-10025000D01*
X10885000Y-10325000D02*
X10915000Y-10355000D01*
X10915000Y-10325000D02*
X10885000Y-10355000D01*
X10885000Y-10375000D02*
X10915000Y-10405000D01*
X10915000Y-10375000D02*
X10885000Y-10405000D01*
X10885000Y-10425000D02*
X10915000Y-10455000D01*
X10915000Y-10425000D02*
X10885000Y-10455000D01*
X10885000Y-10795000D02*
X10915000Y-10825000D01*
X10915000Y-10795000D02*
X10885000Y-10825000D01*
X10885000Y-10845000D02*
X10915000Y-10875000D01*
X10915000Y-10845000D02*
X10885000Y-10875000D01*
X10885000Y-10895000D02*
X10915000Y-10925000D01*
X10915000Y-10895000D02*
X10885000Y-10925000D01*
X10885000Y-11215000D02*
X10915000Y-11245000D01*
X10915000Y-11215000D02*
X10885000Y-11245000D01*
X10885000Y-11265000D02*
X10915000Y-11295000D01*
X10915000Y-11265000D02*
X10885000Y-11295000D01*
X10885000Y-11315000D02*
X10915000Y-11345000D01*
X10915000Y-11315000D02*
X10885000Y-11345000D01*
X10885000Y-11695000D02*
X10915000Y-11725000D01*
X10915000Y-11695000D02*
X10885000Y-11725000D01*
X10885000Y-11745000D02*
X10915000Y-11775000D01*
X10915000Y-11745000D02*
X10885000Y-11775000D01*
X10885000Y-11795000D02*
X10915000Y-11825000D01*
X10915000Y-11795000D02*
X10885000Y-11825000D01*
X10885000Y-12115000D02*
X10915000Y-12145000D01*
X10915000Y-12115000D02*
X10885000Y-12145000D01*
X10885000Y-12165000D02*
X10915000Y-12195000D01*
X10915000Y-12165000D02*
X10885000Y-12195000D01*
X10885000Y-12215000D02*
X10915000Y-12245000D01*
X10915000Y-12215000D02*
X10885000Y-12245000D01*
X10885000Y-12595000D02*
X10915000Y-12625000D01*
X10915000Y-12595000D02*
X10885000Y-12625000D01*
X10885000Y-12645000D02*
X10915000Y-12675000D01*
X10915000Y-12645000D02*
X10885000Y-12675000D01*
X10885000Y-12695000D02*
X10915000Y-12725000D01*
X10915000Y-12695000D02*
X10885000Y-12725000D01*
X10885000Y-13015000D02*
X10915000Y-13045000D01*
X10915000Y-13015000D02*
X10885000Y-13045000D01*
X10885000Y-13065000D02*
X10915000Y-13095000D01*
X10915000Y-13065000D02*
X10885000Y-13095000D01*
X10885000Y-13115000D02*
X10915000Y-13145000D01*
X10915000Y-13115000D02*
X10885000Y-13145000D01*
X10885000Y-13495000D02*
X10915000Y-13525000D01*
X10915000Y-13495000D02*
X10885000Y-13525000D01*
X10885000Y-13545000D02*
X10915000Y-13575000D01*
X10915000Y-13545000D02*
X10885000Y-13575000D01*
X10885000Y-13595000D02*
X10915000Y-13625000D01*
X10915000Y-13595000D02*
X10885000Y-13625000D01*
X10885000Y-13915000D02*
X10915000Y-13945000D01*
X10915000Y-13915000D02*
X10885000Y-13945000D01*
X10885000Y-13965000D02*
X10915000Y-13995000D01*
X10915000Y-13965000D02*
X10885000Y-13995000D01*
X10885000Y-14015000D02*
X10915000Y-14045000D01*
X10915000Y-14015000D02*
X10885000Y-14045000D01*
X10885000Y-14395000D02*
X10915000Y-14425000D01*
X10915000Y-14395000D02*
X10885000Y-14425000D01*
X10885000Y-14445000D02*
X10915000Y-14475000D01*
X10915000Y-14445000D02*
X10885000Y-14475000D01*
X10885000Y-14495000D02*
X10915000Y-14525000D01*
X10915000Y-14495000D02*
X10885000Y-14525000D01*
X10885000Y-14815000D02*
X10915000Y-14845000D01*
X10915000Y-14815000D02*
X10885000Y-14845000D01*
X10885000Y-14865000D02*
X10915000Y-14895000D01*
X10915000Y-14865000D02*
X10885000Y-14895000D01*
X10885000Y-14915000D02*
X10915000Y-14945000D01*
X10915000Y-14915000D02*
X10885000Y-14945000D01*
X10885000Y-15295000D02*
X10915000Y-15325000D01*
X10915000Y-15295000D02*
X10885000Y-15325000D01*
X10885000Y-15345000D02*
X10915000Y-15375000D01*
X10915000Y-15345000D02*
X10885000Y-15375000D01*
X10885000Y-15395000D02*
X10915000Y-15425000D01*
X10915000Y-15395000D02*
X10885000Y-15425000D01*
X10885000Y-15715000D02*
X10915000Y-15745000D01*
X10915000Y-15715000D02*
X10885000Y-15745000D01*
X10885000Y-15765000D02*
X10915000Y-15795000D01*
X10915000Y-15765000D02*
X10885000Y-15795000D01*
X10885000Y-15815000D02*
X10915000Y-15845000D01*
X10915000Y-15815000D02*
X10885000Y-15845000D01*
X10885000Y-16195000D02*
X10915000Y-16225000D01*
X10915000Y-16195000D02*
X10885000Y-16225000D01*
X10885000Y-16245000D02*
X10915000Y-16275000D01*
X10915000Y-16245000D02*
X10885000Y-16275000D01*
X10885000Y-16295000D02*
X10915000Y-16325000D01*
X10915000Y-16295000D02*
X10885000Y-16325000D01*
X10885000Y-16615000D02*
X10915000Y-16645000D01*
X10915000Y-16615000D02*
X10885000Y-16645000D01*
X10885000Y-16665000D02*
X10915000Y-16695000D01*
X10915000Y-16665000D02*
X10885000Y-16695000D01*
X10885000Y-16715000D02*
X10915000Y-16745000D01*
X10915000Y-16715000D02*
X10885000Y-16745000D01*
X11285000Y-8591250D02*
X11315000Y-8621250D01*
X11315000Y-8591250D02*
X11285000Y-8621250D01*
X11285000Y-9045000D02*
X11315000Y-9075000D01*
X11315000Y-9045000D02*
X11285000Y-9075000D01*
X11285000Y-9495000D02*
X11315000Y-9525000D01*
X11315000Y-9495000D02*
X11285000Y-9525000D01*
X11285000Y-9945000D02*
X11315000Y-9975000D01*
X11315000Y-9945000D02*
X11285000Y-9975000D01*
X11285000Y-10395000D02*
X11315000Y-10425000D01*
X11315000Y-10395000D02*
X11285000Y-10425000D01*
X11285000Y-10845000D02*
X11315000Y-10875000D01*
X11315000Y-10845000D02*
X11285000Y-10875000D01*
X11285000Y-11295000D02*
X11315000Y-11325000D01*
X11315000Y-11295000D02*
X11285000Y-11325000D01*
X11285000Y-11745000D02*
X11315000Y-11775000D01*
X11315000Y-11745000D02*
X11285000Y-11775000D01*
X11285000Y-12195000D02*
X11315000Y-12225000D01*
X11315000Y-12195000D02*
X11285000Y-12225000D01*
X11285000Y-12645000D02*
X11315000Y-12675000D01*
X11315000Y-12645000D02*
X11285000Y-12675000D01*
X11285000Y-13095000D02*
X11315000Y-13125000D01*
X11315000Y-13095000D02*
X11285000Y-13125000D01*
X11285000Y-13545000D02*
X11315000Y-13575000D01*
X11315000Y-13545000D02*
X11285000Y-13575000D01*
X11285000Y-13995000D02*
X11315000Y-14025000D01*
X11315000Y-13995000D02*
X11285000Y-14025000D01*
X11285000Y-14445000D02*
X11315000Y-14475000D01*
X11315000Y-14445000D02*
X11285000Y-14475000D01*
X11285000Y-14895000D02*
X11315000Y-14925000D01*
X11315000Y-14895000D02*
X11285000Y-14925000D01*
X11285000Y-15345000D02*
X11315000Y-15375000D01*
X11315000Y-15345000D02*
X11285000Y-15375000D01*
X11285000Y-15795000D02*
X11315000Y-15825000D01*
X11315000Y-15795000D02*
X11285000Y-15825000D01*
X11285000Y-16245000D02*
X11315000Y-16275000D01*
X11315000Y-16245000D02*
X11285000Y-16275000D01*
X11285000Y-16695000D02*
X11315000Y-16725000D01*
X11315000Y-16695000D02*
X11285000Y-16725000D01*
X11335000Y-8591250D02*
X11365000Y-8621250D01*
X11365000Y-8591250D02*
X11335000Y-8621250D01*
X11335000Y-9045000D02*
X11365000Y-9075000D01*
X11365000Y-9045000D02*
X11335000Y-9075000D01*
X11335000Y-9495000D02*
X11365000Y-9525000D01*
X11365000Y-9495000D02*
X11335000Y-9525000D01*
X11335000Y-9945000D02*
X11365000Y-9975000D01*
X11365000Y-9945000D02*
X11335000Y-9975000D01*
X11335000Y-10395000D02*
X11365000Y-10425000D01*
X11365000Y-10395000D02*
X11335000Y-10425000D01*
X11335000Y-10845000D02*
X11365000Y-10875000D01*
X11365000Y-10845000D02*
X11335000Y-10875000D01*
X11335000Y-11295000D02*
X11365000Y-11325000D01*
X11365000Y-11295000D02*
X11335000Y-11325000D01*
X11335000Y-11745000D02*
X11365000Y-11775000D01*
X11365000Y-11745000D02*
X11335000Y-11775000D01*
X11335000Y-12195000D02*
X11365000Y-12225000D01*
X11365000Y-12195000D02*
X11335000Y-12225000D01*
X11335000Y-12645000D02*
X11365000Y-12675000D01*
X11365000Y-12645000D02*
X11335000Y-12675000D01*
X11335000Y-13095000D02*
X11365000Y-13125000D01*
X11365000Y-13095000D02*
X11335000Y-13125000D01*
X11335000Y-13545000D02*
X11365000Y-13575000D01*
X11365000Y-13545000D02*
X11335000Y-13575000D01*
X11335000Y-13995000D02*
X11365000Y-14025000D01*
X11365000Y-13995000D02*
X11335000Y-14025000D01*
X11335000Y-14445000D02*
X11365000Y-14475000D01*
X11365000Y-14445000D02*
X11335000Y-14475000D01*
X11335000Y-14895000D02*
X11365000Y-14925000D01*
X11365000Y-14895000D02*
X11335000Y-14925000D01*
X11335000Y-15345000D02*
X11365000Y-15375000D01*
X11365000Y-15345000D02*
X11335000Y-15375000D01*
X11335000Y-15795000D02*
X11365000Y-15825000D01*
X11365000Y-15795000D02*
X11335000Y-15825000D01*
X11335000Y-16245000D02*
X11365000Y-16275000D01*
X11365000Y-16245000D02*
X11335000Y-16275000D01*
X11335000Y-16695000D02*
X11365000Y-16725000D01*
X11365000Y-16695000D02*
X11335000Y-16725000D01*
X11385000Y-8591250D02*
X11415000Y-8621250D01*
X11415000Y-8591250D02*
X11385000Y-8621250D01*
X11385000Y-9045000D02*
X11415000Y-9075000D01*
X11415000Y-9045000D02*
X11385000Y-9075000D01*
X11385000Y-9495000D02*
X11415000Y-9525000D01*
X11415000Y-9495000D02*
X11385000Y-9525000D01*
X11385000Y-9945000D02*
X11415000Y-9975000D01*
X11415000Y-9945000D02*
X11385000Y-9975000D01*
X11385000Y-10395000D02*
X11415000Y-10425000D01*
X11415000Y-10395000D02*
X11385000Y-10425000D01*
X11385000Y-10845000D02*
X11415000Y-10875000D01*
X11415000Y-10845000D02*
X11385000Y-10875000D01*
X11385000Y-11295000D02*
X11415000Y-11325000D01*
X11415000Y-11295000D02*
X11385000Y-11325000D01*
X11385000Y-11745000D02*
X11415000Y-11775000D01*
X11415000Y-11745000D02*
X11385000Y-11775000D01*
X11385000Y-12195000D02*
X11415000Y-12225000D01*
X11415000Y-12195000D02*
X11385000Y-12225000D01*
X11385000Y-12645000D02*
X11415000Y-12675000D01*
X11415000Y-12645000D02*
X11385000Y-12675000D01*
X11385000Y-13095000D02*
X11415000Y-13125000D01*
X11415000Y-13095000D02*
X11385000Y-13125000D01*
X11385000Y-13545000D02*
X11415000Y-13575000D01*
X11415000Y-13545000D02*
X11385000Y-13575000D01*
X11385000Y-13995000D02*
X11415000Y-14025000D01*
X11415000Y-13995000D02*
X11385000Y-14025000D01*
X11385000Y-14445000D02*
X11415000Y-14475000D01*
X11415000Y-14445000D02*
X11385000Y-14475000D01*
X11385000Y-14895000D02*
X11415000Y-14925000D01*
X11415000Y-14895000D02*
X11385000Y-14925000D01*
X11385000Y-15345000D02*
X11415000Y-15375000D01*
X11415000Y-15345000D02*
X11385000Y-15375000D01*
X11385000Y-15795000D02*
X11415000Y-15825000D01*
X11415000Y-15795000D02*
X11385000Y-15825000D01*
X11385000Y-16245000D02*
X11415000Y-16275000D01*
X11415000Y-16245000D02*
X11385000Y-16275000D01*
X11385000Y-16695000D02*
X11415000Y-16725000D01*
X11415000Y-16695000D02*
X11385000Y-16725000D01*
X11785000Y-8545000D02*
X11815000Y-8575000D01*
X11815000Y-8545000D02*
X11785000Y-8575000D01*
X11785000Y-8595000D02*
X11815000Y-8625000D01*
X11815000Y-8595000D02*
X11785000Y-8625000D01*
X11785000Y-8645000D02*
X11815000Y-8675000D01*
X11815000Y-8645000D02*
X11785000Y-8675000D01*
X11785000Y-8965000D02*
X11815000Y-8995000D01*
X11815000Y-8965000D02*
X11785000Y-8995000D01*
X11785000Y-9015000D02*
X11815000Y-9045000D01*
X11815000Y-9015000D02*
X11785000Y-9045000D01*
X11785000Y-9065000D02*
X11815000Y-9095000D01*
X11815000Y-9065000D02*
X11785000Y-9095000D01*
X11785000Y-9445000D02*
X11815000Y-9475000D01*
X11815000Y-9445000D02*
X11785000Y-9475000D01*
X11785000Y-9495000D02*
X11815000Y-9525000D01*
X11815000Y-9495000D02*
X11785000Y-9525000D01*
X11785000Y-9545000D02*
X11815000Y-9575000D01*
X11815000Y-9545000D02*
X11785000Y-9575000D01*
X11785000Y-9865000D02*
X11815000Y-9895000D01*
X11815000Y-9865000D02*
X11785000Y-9895000D01*
X11785000Y-9915000D02*
X11815000Y-9945000D01*
X11815000Y-9915000D02*
X11785000Y-9945000D01*
X11785000Y-9965000D02*
X11815000Y-9995000D01*
X11815000Y-9965000D02*
X11785000Y-9995000D01*
X11785000Y-10345000D02*
X11815000Y-10375000D01*
X11815000Y-10345000D02*
X11785000Y-10375000D01*
X11785000Y-10395000D02*
X11815000Y-10425000D01*
X11815000Y-10395000D02*
X11785000Y-10425000D01*
X11785000Y-10445000D02*
X11815000Y-10475000D01*
X11815000Y-10445000D02*
X11785000Y-10475000D01*
X11785000Y-10765000D02*
X11815000Y-10795000D01*
X11815000Y-10765000D02*
X11785000Y-10795000D01*
X11785000Y-10815000D02*
X11815000Y-10845000D01*
X11815000Y-10815000D02*
X11785000Y-10845000D01*
X11785000Y-10865000D02*
X11815000Y-10895000D01*
X11815000Y-10865000D02*
X11785000Y-10895000D01*
X11785000Y-11245000D02*
X11815000Y-11275000D01*
X11815000Y-11245000D02*
X11785000Y-11275000D01*
X11785000Y-11295000D02*
X11815000Y-11325000D01*
X11815000Y-11295000D02*
X11785000Y-11325000D01*
X11785000Y-11345000D02*
X11815000Y-11375000D01*
X11815000Y-11345000D02*
X11785000Y-11375000D01*
X11785000Y-11665000D02*
X11815000Y-11695000D01*
X11815000Y-11665000D02*
X11785000Y-11695000D01*
X11785000Y-11715000D02*
X11815000Y-11745000D01*
X11815000Y-11715000D02*
X11785000Y-11745000D01*
X11785000Y-11765000D02*
X11815000Y-11795000D01*
X11815000Y-11765000D02*
X11785000Y-11795000D01*
X11785000Y-12145000D02*
X11815000Y-12175000D01*
X11815000Y-12145000D02*
X11785000Y-12175000D01*
X11785000Y-12195000D02*
X11815000Y-12225000D01*
X11815000Y-12195000D02*
X11785000Y-12225000D01*
X11785000Y-12245000D02*
X11815000Y-12275000D01*
X11815000Y-12245000D02*
X11785000Y-12275000D01*
X11785000Y-12565000D02*
X11815000Y-12595000D01*
X11815000Y-12565000D02*
X11785000Y-12595000D01*
X11785000Y-12615000D02*
X11815000Y-12645000D01*
X11815000Y-12615000D02*
X11785000Y-12645000D01*
X11785000Y-12665000D02*
X11815000Y-12695000D01*
X11815000Y-12665000D02*
X11785000Y-12695000D01*
X11785000Y-13045000D02*
X11815000Y-13075000D01*
X11815000Y-13045000D02*
X11785000Y-13075000D01*
X11785000Y-13095000D02*
X11815000Y-13125000D01*
X11815000Y-13095000D02*
X11785000Y-13125000D01*
X11785000Y-13145000D02*
X11815000Y-13175000D01*
X11815000Y-13145000D02*
X11785000Y-13175000D01*
X11785000Y-13465000D02*
X11815000Y-13495000D01*
X11815000Y-13465000D02*
X11785000Y-13495000D01*
X11785000Y-13515000D02*
X11815000Y-13545000D01*
X11815000Y-13515000D02*
X11785000Y-13545000D01*
X11785000Y-13565000D02*
X11815000Y-13595000D01*
X11815000Y-13565000D02*
X11785000Y-13595000D01*
X11785000Y-13945000D02*
X11815000Y-13975000D01*
X11815000Y-13945000D02*
X11785000Y-13975000D01*
X11785000Y-13995000D02*
X11815000Y-14025000D01*
X11815000Y-13995000D02*
X11785000Y-14025000D01*
X11785000Y-14045000D02*
X11815000Y-14075000D01*
X11815000Y-14045000D02*
X11785000Y-14075000D01*
X11785000Y-14365000D02*
X11815000Y-14395000D01*
X11815000Y-14365000D02*
X11785000Y-14395000D01*
X11785000Y-14415000D02*
X11815000Y-14445000D01*
X11815000Y-14415000D02*
X11785000Y-14445000D01*
X11785000Y-14465000D02*
X11815000Y-14495000D01*
X11815000Y-14465000D02*
X11785000Y-14495000D01*
X11785000Y-14845000D02*
X11815000Y-14875000D01*
X11815000Y-14845000D02*
X11785000Y-14875000D01*
X11785000Y-14895000D02*
X11815000Y-14925000D01*
X11815000Y-14895000D02*
X11785000Y-14925000D01*
X11785000Y-14945000D02*
X11815000Y-14975000D01*
X11815000Y-14945000D02*
X11785000Y-14975000D01*
X11785000Y-15265000D02*
X11815000Y-15295000D01*
X11815000Y-15265000D02*
X11785000Y-15295000D01*
X11785000Y-15315000D02*
X11815000Y-15345000D01*
X11815000Y-15315000D02*
X11785000Y-15345000D01*
X11785000Y-15365000D02*
X11815000Y-15395000D01*
X11815000Y-15365000D02*
X11785000Y-15395000D01*
X11785000Y-15745000D02*
X11815000Y-15775000D01*
X11815000Y-15745000D02*
X11785000Y-15775000D01*
X11785000Y-15795000D02*
X11815000Y-15825000D01*
X11815000Y-15795000D02*
X11785000Y-15825000D01*
X11785000Y-15845000D02*
X11815000Y-15875000D01*
X11815000Y-15845000D02*
X11785000Y-15875000D01*
X11785000Y-16165000D02*
X11815000Y-16195000D01*
X11815000Y-16165000D02*
X11785000Y-16195000D01*
X11785000Y-16215000D02*
X11815000Y-16245000D01*
X11815000Y-16215000D02*
X11785000Y-16245000D01*
X11785000Y-16265000D02*
X11815000Y-16295000D01*
X11815000Y-16265000D02*
X11785000Y-16295000D01*
X11785000Y-16645000D02*
X11815000Y-16675000D01*
X11815000Y-16645000D02*
X11785000Y-16675000D01*
X11785000Y-16695000D02*
X11815000Y-16725000D01*
X11815000Y-16695000D02*
X11785000Y-16725000D01*
X11785000Y-16745000D02*
X11815000Y-16775000D01*
X11815000Y-16745000D02*
X11785000Y-16775000D01*
X11825000Y-8545000D02*
X11855000Y-8575000D01*
X11855000Y-8545000D02*
X11825000Y-8575000D01*
X11825000Y-8595000D02*
X11855000Y-8625000D01*
X11855000Y-8595000D02*
X11825000Y-8625000D01*
X11825000Y-8645000D02*
X11855000Y-8675000D01*
X11855000Y-8645000D02*
X11825000Y-8675000D01*
X11825000Y-8965000D02*
X11855000Y-8995000D01*
X11855000Y-8965000D02*
X11825000Y-8995000D01*
X11825000Y-9015000D02*
X11855000Y-9045000D01*
X11855000Y-9015000D02*
X11825000Y-9045000D01*
X11825000Y-9065000D02*
X11855000Y-9095000D01*
X11855000Y-9065000D02*
X11825000Y-9095000D01*
X11825000Y-9445000D02*
X11855000Y-9475000D01*
X11855000Y-9445000D02*
X11825000Y-9475000D01*
X11825000Y-9495000D02*
X11855000Y-9525000D01*
X11855000Y-9495000D02*
X11825000Y-9525000D01*
X11825000Y-9545000D02*
X11855000Y-9575000D01*
X11855000Y-9545000D02*
X11825000Y-9575000D01*
X11825000Y-9865000D02*
X11855000Y-9895000D01*
X11855000Y-9865000D02*
X11825000Y-9895000D01*
X11825000Y-9915000D02*
X11855000Y-9945000D01*
X11855000Y-9915000D02*
X11825000Y-9945000D01*
X11825000Y-9965000D02*
X11855000Y-9995000D01*
X11855000Y-9965000D02*
X11825000Y-9995000D01*
X11825000Y-10345000D02*
X11855000Y-10375000D01*
X11855000Y-10345000D02*
X11825000Y-10375000D01*
X11825000Y-10395000D02*
X11855000Y-10425000D01*
X11855000Y-10395000D02*
X11825000Y-10425000D01*
X11825000Y-10445000D02*
X11855000Y-10475000D01*
X11855000Y-10445000D02*
X11825000Y-10475000D01*
X11825000Y-10765000D02*
X11855000Y-10795000D01*
X11855000Y-10765000D02*
X11825000Y-10795000D01*
X11825000Y-10815000D02*
X11855000Y-10845000D01*
X11855000Y-10815000D02*
X11825000Y-10845000D01*
X11825000Y-10865000D02*
X11855000Y-10895000D01*
X11855000Y-10865000D02*
X11825000Y-10895000D01*
X11825000Y-11245000D02*
X11855000Y-11275000D01*
X11855000Y-11245000D02*
X11825000Y-11275000D01*
X11825000Y-11295000D02*
X11855000Y-11325000D01*
X11855000Y-11295000D02*
X11825000Y-11325000D01*
X11825000Y-11345000D02*
X11855000Y-11375000D01*
X11855000Y-11345000D02*
X11825000Y-11375000D01*
X11825000Y-11665000D02*
X11855000Y-11695000D01*
X11855000Y-11665000D02*
X11825000Y-11695000D01*
X11825000Y-11715000D02*
X11855000Y-11745000D01*
X11855000Y-11715000D02*
X11825000Y-11745000D01*
X11825000Y-11765000D02*
X11855000Y-11795000D01*
X11855000Y-11765000D02*
X11825000Y-11795000D01*
X11825000Y-12145000D02*
X11855000Y-12175000D01*
X11855000Y-12145000D02*
X11825000Y-12175000D01*
X11825000Y-12195000D02*
X11855000Y-12225000D01*
X11855000Y-12195000D02*
X11825000Y-12225000D01*
X11825000Y-12245000D02*
X11855000Y-12275000D01*
X11855000Y-12245000D02*
X11825000Y-12275000D01*
X11825000Y-12565000D02*
X11855000Y-12595000D01*
X11855000Y-12565000D02*
X11825000Y-12595000D01*
X11825000Y-12615000D02*
X11855000Y-12645000D01*
X11855000Y-12615000D02*
X11825000Y-12645000D01*
X11825000Y-12665000D02*
X11855000Y-12695000D01*
X11855000Y-12665000D02*
X11825000Y-12695000D01*
X11825000Y-13045000D02*
X11855000Y-13075000D01*
X11855000Y-13045000D02*
X11825000Y-13075000D01*
X11825000Y-13095000D02*
X11855000Y-13125000D01*
X11855000Y-13095000D02*
X11825000Y-13125000D01*
X11825000Y-13145000D02*
X11855000Y-13175000D01*
X11855000Y-13145000D02*
X11825000Y-13175000D01*
X11825000Y-13465000D02*
X11855000Y-13495000D01*
X11855000Y-13465000D02*
X11825000Y-13495000D01*
X11825000Y-13515000D02*
X11855000Y-13545000D01*
X11855000Y-13515000D02*
X11825000Y-13545000D01*
X11825000Y-13565000D02*
X11855000Y-13595000D01*
X11855000Y-13565000D02*
X11825000Y-13595000D01*
X11825000Y-13945000D02*
X11855000Y-13975000D01*
X11855000Y-13945000D02*
X11825000Y-13975000D01*
X11825000Y-13995000D02*
X11855000Y-14025000D01*
X11855000Y-13995000D02*
X11825000Y-14025000D01*
X11825000Y-14045000D02*
X11855000Y-14075000D01*
X11855000Y-14045000D02*
X11825000Y-14075000D01*
X11825000Y-14365000D02*
X11855000Y-14395000D01*
X11855000Y-14365000D02*
X11825000Y-14395000D01*
X11825000Y-14415000D02*
X11855000Y-14445000D01*
X11855000Y-14415000D02*
X11825000Y-14445000D01*
X11825000Y-14465000D02*
X11855000Y-14495000D01*
X11855000Y-14465000D02*
X11825000Y-14495000D01*
X11825000Y-14845000D02*
X11855000Y-14875000D01*
X11855000Y-14845000D02*
X11825000Y-14875000D01*
X11825000Y-14895000D02*
X11855000Y-14925000D01*
X11855000Y-14895000D02*
X11825000Y-14925000D01*
X11825000Y-14945000D02*
X11855000Y-14975000D01*
X11855000Y-14945000D02*
X11825000Y-14975000D01*
X11825000Y-15265000D02*
X11855000Y-15295000D01*
X11855000Y-15265000D02*
X11825000Y-15295000D01*
X11825000Y-15315000D02*
X11855000Y-15345000D01*
X11855000Y-15315000D02*
X11825000Y-15345000D01*
X11825000Y-15365000D02*
X11855000Y-15395000D01*
X11855000Y-15365000D02*
X11825000Y-15395000D01*
X11825000Y-15745000D02*
X11855000Y-15775000D01*
X11855000Y-15745000D02*
X11825000Y-15775000D01*
X11825000Y-15795000D02*
X11855000Y-15825000D01*
X11855000Y-15795000D02*
X11825000Y-15825000D01*
X11825000Y-15845000D02*
X11855000Y-15875000D01*
X11855000Y-15845000D02*
X11825000Y-15875000D01*
X11825000Y-16165000D02*
X11855000Y-16195000D01*
X11855000Y-16165000D02*
X11825000Y-16195000D01*
X11825000Y-16215000D02*
X11855000Y-16245000D01*
X11855000Y-16215000D02*
X11825000Y-16245000D01*
X11825000Y-16265000D02*
X11855000Y-16295000D01*
X11855000Y-16265000D02*
X11825000Y-16295000D01*
X11825000Y-16645000D02*
X11855000Y-16675000D01*
X11855000Y-16645000D02*
X11825000Y-16675000D01*
X11825000Y-16695000D02*
X11855000Y-16725000D01*
X11855000Y-16695000D02*
X11825000Y-16725000D01*
X11825000Y-16745000D02*
X11855000Y-16775000D01*
X11855000Y-16745000D02*
X11825000Y-16775000D01*
X11865000Y-8545000D02*
X11895000Y-8575000D01*
X11895000Y-8545000D02*
X11865000Y-8575000D01*
X11865000Y-8595000D02*
X11895000Y-8625000D01*
X11895000Y-8595000D02*
X11865000Y-8625000D01*
X11865000Y-8645000D02*
X11895000Y-8675000D01*
X11895000Y-8645000D02*
X11865000Y-8675000D01*
X11865000Y-8965000D02*
X11895000Y-8995000D01*
X11895000Y-8965000D02*
X11865000Y-8995000D01*
X11865000Y-9015000D02*
X11895000Y-9045000D01*
X11895000Y-9015000D02*
X11865000Y-9045000D01*
X11865000Y-9065000D02*
X11895000Y-9095000D01*
X11895000Y-9065000D02*
X11865000Y-9095000D01*
X11865000Y-9445000D02*
X11895000Y-9475000D01*
X11895000Y-9445000D02*
X11865000Y-9475000D01*
X11865000Y-9495000D02*
X11895000Y-9525000D01*
X11895000Y-9495000D02*
X11865000Y-9525000D01*
X11865000Y-9545000D02*
X11895000Y-9575000D01*
X11895000Y-9545000D02*
X11865000Y-9575000D01*
X11865000Y-9865000D02*
X11895000Y-9895000D01*
X11895000Y-9865000D02*
X11865000Y-9895000D01*
X11865000Y-9915000D02*
X11895000Y-9945000D01*
X11895000Y-9915000D02*
X11865000Y-9945000D01*
X11865000Y-9965000D02*
X11895000Y-9995000D01*
X11895000Y-9965000D02*
X11865000Y-9995000D01*
X11865000Y-10345000D02*
X11895000Y-10375000D01*
X11895000Y-10345000D02*
X11865000Y-10375000D01*
X11865000Y-10395000D02*
X11895000Y-10425000D01*
X11895000Y-10395000D02*
X11865000Y-10425000D01*
X11865000Y-10445000D02*
X11895000Y-10475000D01*
X11895000Y-10445000D02*
X11865000Y-10475000D01*
X11865000Y-10765000D02*
X11895000Y-10795000D01*
X11895000Y-10765000D02*
X11865000Y-10795000D01*
X11865000Y-10815000D02*
X11895000Y-10845000D01*
X11895000Y-10815000D02*
X11865000Y-10845000D01*
X11865000Y-10865000D02*
X11895000Y-10895000D01*
X11895000Y-10865000D02*
X11865000Y-10895000D01*
X11865000Y-11245000D02*
X11895000Y-11275000D01*
X11895000Y-11245000D02*
X11865000Y-11275000D01*
X11865000Y-11295000D02*
X11895000Y-11325000D01*
X11895000Y-11295000D02*
X11865000Y-11325000D01*
X11865000Y-11345000D02*
X11895000Y-11375000D01*
X11895000Y-11345000D02*
X11865000Y-11375000D01*
X11865000Y-11665000D02*
X11895000Y-11695000D01*
X11895000Y-11665000D02*
X11865000Y-11695000D01*
X11865000Y-11715000D02*
X11895000Y-11745000D01*
X11895000Y-11715000D02*
X11865000Y-11745000D01*
X11865000Y-11765000D02*
X11895000Y-11795000D01*
X11895000Y-11765000D02*
X11865000Y-11795000D01*
X11865000Y-12145000D02*
X11895000Y-12175000D01*
X11895000Y-12145000D02*
X11865000Y-12175000D01*
X11865000Y-12195000D02*
X11895000Y-12225000D01*
X11895000Y-12195000D02*
X11865000Y-12225000D01*
X11865000Y-12245000D02*
X11895000Y-12275000D01*
X11895000Y-12245000D02*
X11865000Y-12275000D01*
X11865000Y-12565000D02*
X11895000Y-12595000D01*
X11895000Y-12565000D02*
X11865000Y-12595000D01*
X11865000Y-12615000D02*
X11895000Y-12645000D01*
X11895000Y-12615000D02*
X11865000Y-12645000D01*
X11865000Y-12665000D02*
X11895000Y-12695000D01*
X11895000Y-12665000D02*
X11865000Y-12695000D01*
X11865000Y-13045000D02*
X11895000Y-13075000D01*
X11895000Y-13045000D02*
X11865000Y-13075000D01*
X11865000Y-13095000D02*
X11895000Y-13125000D01*
X11895000Y-13095000D02*
X11865000Y-13125000D01*
X11865000Y-13145000D02*
X11895000Y-13175000D01*
X11895000Y-13145000D02*
X11865000Y-13175000D01*
X11865000Y-13465000D02*
X11895000Y-13495000D01*
X11895000Y-13465000D02*
X11865000Y-13495000D01*
X11865000Y-13515000D02*
X11895000Y-13545000D01*
X11895000Y-13515000D02*
X11865000Y-13545000D01*
X11865000Y-13565000D02*
X11895000Y-13595000D01*
X11895000Y-13565000D02*
X11865000Y-13595000D01*
X11865000Y-13945000D02*
X11895000Y-13975000D01*
X11895000Y-13945000D02*
X11865000Y-13975000D01*
X11865000Y-13995000D02*
X11895000Y-14025000D01*
X11895000Y-13995000D02*
X11865000Y-14025000D01*
X11865000Y-14045000D02*
X11895000Y-14075000D01*
X11895000Y-14045000D02*
X11865000Y-14075000D01*
X11865000Y-14365000D02*
X11895000Y-14395000D01*
X11895000Y-14365000D02*
X11865000Y-14395000D01*
X11865000Y-14415000D02*
X11895000Y-14445000D01*
X11895000Y-14415000D02*
X11865000Y-14445000D01*
X11865000Y-14465000D02*
X11895000Y-14495000D01*
X11895000Y-14465000D02*
X11865000Y-14495000D01*
X11865000Y-14845000D02*
X11895000Y-14875000D01*
X11895000Y-14845000D02*
X11865000Y-14875000D01*
X11865000Y-14895000D02*
X11895000Y-14925000D01*
X11895000Y-14895000D02*
X11865000Y-14925000D01*
X11865000Y-14945000D02*
X11895000Y-14975000D01*
X11895000Y-14945000D02*
X11865000Y-14975000D01*
X11865000Y-15265000D02*
X11895000Y-15295000D01*
X11895000Y-15265000D02*
X11865000Y-15295000D01*
X11865000Y-15315000D02*
X11895000Y-15345000D01*
X11895000Y-15315000D02*
X11865000Y-15345000D01*
X11865000Y-15365000D02*
X11895000Y-15395000D01*
X11895000Y-15365000D02*
X11865000Y-15395000D01*
X11865000Y-15745000D02*
X11895000Y-15775000D01*
X11895000Y-15745000D02*
X11865000Y-15775000D01*
X11865000Y-15795000D02*
X11895000Y-15825000D01*
X11895000Y-15795000D02*
X11865000Y-15825000D01*
X11865000Y-15845000D02*
X11895000Y-15875000D01*
X11895000Y-15845000D02*
X11865000Y-15875000D01*
X11865000Y-16165000D02*
X11895000Y-16195000D01*
X11895000Y-16165000D02*
X11865000Y-16195000D01*
X11865000Y-16215000D02*
X11895000Y-16245000D01*
X11895000Y-16215000D02*
X11865000Y-16245000D01*
X11865000Y-16265000D02*
X11895000Y-16295000D01*
X11895000Y-16265000D02*
X11865000Y-16295000D01*
X11865000Y-16645000D02*
X11895000Y-16675000D01*
X11895000Y-16645000D02*
X11865000Y-16675000D01*
X11865000Y-16695000D02*
X11895000Y-16725000D01*
X11895000Y-16695000D02*
X11865000Y-16725000D01*
X11865000Y-16745000D02*
X11895000Y-16775000D01*
X11895000Y-16745000D02*
X11865000Y-16775000D01*
X11905000Y-8545000D02*
X11935000Y-8575000D01*
X11935000Y-8545000D02*
X11905000Y-8575000D01*
X11905000Y-8595000D02*
X11935000Y-8625000D01*
X11935000Y-8595000D02*
X11905000Y-8625000D01*
X11905000Y-8645000D02*
X11935000Y-8675000D01*
X11935000Y-8645000D02*
X11905000Y-8675000D01*
X11905000Y-8965000D02*
X11935000Y-8995000D01*
X11935000Y-8965000D02*
X11905000Y-8995000D01*
X11905000Y-9015000D02*
X11935000Y-9045000D01*
X11935000Y-9015000D02*
X11905000Y-9045000D01*
X11905000Y-9065000D02*
X11935000Y-9095000D01*
X11935000Y-9065000D02*
X11905000Y-9095000D01*
X11905000Y-9445000D02*
X11935000Y-9475000D01*
X11935000Y-9445000D02*
X11905000Y-9475000D01*
X11905000Y-9495000D02*
X11935000Y-9525000D01*
X11935000Y-9495000D02*
X11905000Y-9525000D01*
X11905000Y-9545000D02*
X11935000Y-9575000D01*
X11935000Y-9545000D02*
X11905000Y-9575000D01*
X11905000Y-9865000D02*
X11935000Y-9895000D01*
X11935000Y-9865000D02*
X11905000Y-9895000D01*
X11905000Y-9915000D02*
X11935000Y-9945000D01*
X11935000Y-9915000D02*
X11905000Y-9945000D01*
X11905000Y-9965000D02*
X11935000Y-9995000D01*
X11935000Y-9965000D02*
X11905000Y-9995000D01*
X11905000Y-10345000D02*
X11935000Y-10375000D01*
X11935000Y-10345000D02*
X11905000Y-10375000D01*
X11905000Y-10395000D02*
X11935000Y-10425000D01*
X11935000Y-10395000D02*
X11905000Y-10425000D01*
X11905000Y-10445000D02*
X11935000Y-10475000D01*
X11935000Y-10445000D02*
X11905000Y-10475000D01*
X11905000Y-10765000D02*
X11935000Y-10795000D01*
X11935000Y-10765000D02*
X11905000Y-10795000D01*
X11905000Y-10815000D02*
X11935000Y-10845000D01*
X11935000Y-10815000D02*
X11905000Y-10845000D01*
X11905000Y-10865000D02*
X11935000Y-10895000D01*
X11935000Y-10865000D02*
X11905000Y-10895000D01*
X11905000Y-11245000D02*
X11935000Y-11275000D01*
X11935000Y-11245000D02*
X11905000Y-11275000D01*
X11905000Y-11295000D02*
X11935000Y-11325000D01*
X11935000Y-11295000D02*
X11905000Y-11325000D01*
X11905000Y-11345000D02*
X11935000Y-11375000D01*
X11935000Y-11345000D02*
X11905000Y-11375000D01*
X11905000Y-11665000D02*
X11935000Y-11695000D01*
X11935000Y-11665000D02*
X11905000Y-11695000D01*
X11905000Y-11715000D02*
X11935000Y-11745000D01*
X11935000Y-11715000D02*
X11905000Y-11745000D01*
X11905000Y-11765000D02*
X11935000Y-11795000D01*
X11935000Y-11765000D02*
X11905000Y-11795000D01*
X11905000Y-12145000D02*
X11935000Y-12175000D01*
X11935000Y-12145000D02*
X11905000Y-12175000D01*
X11905000Y-12195000D02*
X11935000Y-12225000D01*
X11935000Y-12195000D02*
X11905000Y-12225000D01*
X11905000Y-12245000D02*
X11935000Y-12275000D01*
X11935000Y-12245000D02*
X11905000Y-12275000D01*
X11905000Y-12565000D02*
X11935000Y-12595000D01*
X11935000Y-12565000D02*
X11905000Y-12595000D01*
X11905000Y-12615000D02*
X11935000Y-12645000D01*
X11935000Y-12615000D02*
X11905000Y-12645000D01*
X11905000Y-12665000D02*
X11935000Y-12695000D01*
X11935000Y-12665000D02*
X11905000Y-12695000D01*
X11905000Y-13045000D02*
X11935000Y-13075000D01*
X11935000Y-13045000D02*
X11905000Y-13075000D01*
X11905000Y-13095000D02*
X11935000Y-13125000D01*
X11935000Y-13095000D02*
X11905000Y-13125000D01*
X11905000Y-13145000D02*
X11935000Y-13175000D01*
X11935000Y-13145000D02*
X11905000Y-13175000D01*
X11905000Y-13465000D02*
X11935000Y-13495000D01*
X11935000Y-13465000D02*
X11905000Y-13495000D01*
X11905000Y-13515000D02*
X11935000Y-13545000D01*
X11935000Y-13515000D02*
X11905000Y-13545000D01*
X11905000Y-13565000D02*
X11935000Y-13595000D01*
X11935000Y-13565000D02*
X11905000Y-13595000D01*
X11905000Y-13945000D02*
X11935000Y-13975000D01*
X11935000Y-13945000D02*
X11905000Y-13975000D01*
X11905000Y-13995000D02*
X11935000Y-14025000D01*
X11935000Y-13995000D02*
X11905000Y-14025000D01*
X11905000Y-14045000D02*
X11935000Y-14075000D01*
X11935000Y-14045000D02*
X11905000Y-14075000D01*
X11905000Y-14365000D02*
X11935000Y-14395000D01*
X11935000Y-14365000D02*
X11905000Y-14395000D01*
X11905000Y-14415000D02*
X11935000Y-14445000D01*
X11935000Y-14415000D02*
X11905000Y-14445000D01*
X11905000Y-14465000D02*
X11935000Y-14495000D01*
X11935000Y-14465000D02*
X11905000Y-14495000D01*
X11905000Y-14845000D02*
X11935000Y-14875000D01*
X11935000Y-14845000D02*
X11905000Y-14875000D01*
X11905000Y-14895000D02*
X11935000Y-14925000D01*
X11935000Y-14895000D02*
X11905000Y-14925000D01*
X11905000Y-14945000D02*
X11935000Y-14975000D01*
X11935000Y-14945000D02*
X11905000Y-14975000D01*
X11905000Y-15265000D02*
X11935000Y-15295000D01*
X11935000Y-15265000D02*
X11905000Y-15295000D01*
X11905000Y-15315000D02*
X11935000Y-15345000D01*
X11935000Y-15315000D02*
X11905000Y-15345000D01*
X11905000Y-15365000D02*
X11935000Y-15395000D01*
X11935000Y-15365000D02*
X11905000Y-15395000D01*
X11905000Y-15745000D02*
X11935000Y-15775000D01*
X11935000Y-15745000D02*
X11905000Y-15775000D01*
X11905000Y-15795000D02*
X11935000Y-15825000D01*
X11935000Y-15795000D02*
X11905000Y-15825000D01*
X11905000Y-15845000D02*
X11935000Y-15875000D01*
X11935000Y-15845000D02*
X11905000Y-15875000D01*
X11905000Y-16165000D02*
X11935000Y-16195000D01*
X11935000Y-16165000D02*
X11905000Y-16195000D01*
X11905000Y-16215000D02*
X11935000Y-16245000D01*
X11935000Y-16215000D02*
X11905000Y-16245000D01*
X11905000Y-16265000D02*
X11935000Y-16295000D01*
X11935000Y-16265000D02*
X11905000Y-16295000D01*
X11905000Y-16645000D02*
X11935000Y-16675000D01*
X11935000Y-16645000D02*
X11905000Y-16675000D01*
X11905000Y-16695000D02*
X11935000Y-16725000D01*
X11935000Y-16695000D02*
X11905000Y-16725000D01*
X11905000Y-16745000D02*
X11935000Y-16775000D01*
X11935000Y-16745000D02*
X11905000Y-16775000D01*
X11945000Y-8545000D02*
X11975000Y-8575000D01*
X11975000Y-8545000D02*
X11945000Y-8575000D01*
X11945000Y-8595000D02*
X11975000Y-8625000D01*
X11975000Y-8595000D02*
X11945000Y-8625000D01*
X11945000Y-8645000D02*
X11975000Y-8675000D01*
X11975000Y-8645000D02*
X11945000Y-8675000D01*
X11945000Y-8965000D02*
X11975000Y-8995000D01*
X11975000Y-8965000D02*
X11945000Y-8995000D01*
X11945000Y-9015000D02*
X11975000Y-9045000D01*
X11975000Y-9015000D02*
X11945000Y-9045000D01*
X11945000Y-9065000D02*
X11975000Y-9095000D01*
X11975000Y-9065000D02*
X11945000Y-9095000D01*
X11945000Y-9445000D02*
X11975000Y-9475000D01*
X11975000Y-9445000D02*
X11945000Y-9475000D01*
X11945000Y-9495000D02*
X11975000Y-9525000D01*
X11975000Y-9495000D02*
X11945000Y-9525000D01*
X11945000Y-9545000D02*
X11975000Y-9575000D01*
X11975000Y-9545000D02*
X11945000Y-9575000D01*
X11945000Y-9865000D02*
X11975000Y-9895000D01*
X11975000Y-9865000D02*
X11945000Y-9895000D01*
X11945000Y-9915000D02*
X11975000Y-9945000D01*
X11975000Y-9915000D02*
X11945000Y-9945000D01*
X11945000Y-9965000D02*
X11975000Y-9995000D01*
X11975000Y-9965000D02*
X11945000Y-9995000D01*
X11945000Y-10345000D02*
X11975000Y-10375000D01*
X11975000Y-10345000D02*
X11945000Y-10375000D01*
X11945000Y-10395000D02*
X11975000Y-10425000D01*
X11975000Y-10395000D02*
X11945000Y-10425000D01*
X11945000Y-10445000D02*
X11975000Y-10475000D01*
X11975000Y-10445000D02*
X11945000Y-10475000D01*
X11945000Y-10765000D02*
X11975000Y-10795000D01*
X11975000Y-10765000D02*
X11945000Y-10795000D01*
X11945000Y-10815000D02*
X11975000Y-10845000D01*
X11975000Y-10815000D02*
X11945000Y-10845000D01*
X11945000Y-10865000D02*
X11975000Y-10895000D01*
X11975000Y-10865000D02*
X11945000Y-10895000D01*
X11945000Y-11245000D02*
X11975000Y-11275000D01*
X11975000Y-11245000D02*
X11945000Y-11275000D01*
X11945000Y-11295000D02*
X11975000Y-11325000D01*
X11975000Y-11295000D02*
X11945000Y-11325000D01*
X11945000Y-11345000D02*
X11975000Y-11375000D01*
X11975000Y-11345000D02*
X11945000Y-11375000D01*
X11945000Y-11665000D02*
X11975000Y-11695000D01*
X11975000Y-11665000D02*
X11945000Y-11695000D01*
X11945000Y-11715000D02*
X11975000Y-11745000D01*
X11975000Y-11715000D02*
X11945000Y-11745000D01*
X11945000Y-11765000D02*
X11975000Y-11795000D01*
X11975000Y-11765000D02*
X11945000Y-11795000D01*
X11945000Y-12145000D02*
X11975000Y-12175000D01*
X11975000Y-12145000D02*
X11945000Y-12175000D01*
X11945000Y-12195000D02*
X11975000Y-12225000D01*
X11975000Y-12195000D02*
X11945000Y-12225000D01*
X11945000Y-12245000D02*
X11975000Y-12275000D01*
X11975000Y-12245000D02*
X11945000Y-12275000D01*
X11945000Y-12565000D02*
X11975000Y-12595000D01*
X11975000Y-12565000D02*
X11945000Y-12595000D01*
X11945000Y-12615000D02*
X11975000Y-12645000D01*
X11975000Y-12615000D02*
X11945000Y-12645000D01*
X11945000Y-12665000D02*
X11975000Y-12695000D01*
X11975000Y-12665000D02*
X11945000Y-12695000D01*
X11945000Y-13045000D02*
X11975000Y-13075000D01*
X11975000Y-13045000D02*
X11945000Y-13075000D01*
X11945000Y-13095000D02*
X11975000Y-13125000D01*
X11975000Y-13095000D02*
X11945000Y-13125000D01*
X11945000Y-13145000D02*
X11975000Y-13175000D01*
X11975000Y-13145000D02*
X11945000Y-13175000D01*
X11945000Y-13465000D02*
X11975000Y-13495000D01*
X11975000Y-13465000D02*
X11945000Y-13495000D01*
X11945000Y-13515000D02*
X11975000Y-13545000D01*
X11975000Y-13515000D02*
X11945000Y-13545000D01*
X11945000Y-13565000D02*
X11975000Y-13595000D01*
X11975000Y-13565000D02*
X11945000Y-13595000D01*
X11945000Y-13945000D02*
X11975000Y-13975000D01*
X11975000Y-13945000D02*
X11945000Y-13975000D01*
X11945000Y-13995000D02*
X11975000Y-14025000D01*
X11975000Y-13995000D02*
X11945000Y-14025000D01*
X11945000Y-14045000D02*
X11975000Y-14075000D01*
X11975000Y-14045000D02*
X11945000Y-14075000D01*
X11945000Y-14365000D02*
X11975000Y-14395000D01*
X11975000Y-14365000D02*
X11945000Y-14395000D01*
X11945000Y-14415000D02*
X11975000Y-14445000D01*
X11975000Y-14415000D02*
X11945000Y-14445000D01*
X11945000Y-14465000D02*
X11975000Y-14495000D01*
X11975000Y-14465000D02*
X11945000Y-14495000D01*
X11945000Y-14845000D02*
X11975000Y-14875000D01*
X11975000Y-14845000D02*
X11945000Y-14875000D01*
X11945000Y-14895000D02*
X11975000Y-14925000D01*
X11975000Y-14895000D02*
X11945000Y-14925000D01*
X11945000Y-14945000D02*
X11975000Y-14975000D01*
X11975000Y-14945000D02*
X11945000Y-14975000D01*
X11945000Y-15265000D02*
X11975000Y-15295000D01*
X11975000Y-15265000D02*
X11945000Y-15295000D01*
X11945000Y-15315000D02*
X11975000Y-15345000D01*
X11975000Y-15315000D02*
X11945000Y-15345000D01*
X11945000Y-15365000D02*
X11975000Y-15395000D01*
X11975000Y-15365000D02*
X11945000Y-15395000D01*
X11945000Y-15745000D02*
X11975000Y-15775000D01*
X11975000Y-15745000D02*
X11945000Y-15775000D01*
X11945000Y-15795000D02*
X11975000Y-15825000D01*
X11975000Y-15795000D02*
X11945000Y-15825000D01*
X11945000Y-15845000D02*
X11975000Y-15875000D01*
X11975000Y-15845000D02*
X11945000Y-15875000D01*
X11945000Y-16165000D02*
X11975000Y-16195000D01*
X11975000Y-16165000D02*
X11945000Y-16195000D01*
X11945000Y-16215000D02*
X11975000Y-16245000D01*
X11975000Y-16215000D02*
X11945000Y-16245000D01*
X11945000Y-16265000D02*
X11975000Y-16295000D01*
X11975000Y-16265000D02*
X11945000Y-16295000D01*
X11945000Y-16645000D02*
X11975000Y-16675000D01*
X11975000Y-16645000D02*
X11945000Y-16675000D01*
X11945000Y-16695000D02*
X11975000Y-16725000D01*
X11975000Y-16695000D02*
X11945000Y-16725000D01*
X11945000Y-16745000D02*
X11975000Y-16775000D01*
X11975000Y-16745000D02*
X11945000Y-16775000D01*
X11985000Y-8545000D02*
X12015000Y-8575000D01*
X12015000Y-8545000D02*
X11985000Y-8575000D01*
X11985000Y-8595000D02*
X12015000Y-8625000D01*
X12015000Y-8595000D02*
X11985000Y-8625000D01*
X11985000Y-8645000D02*
X12015000Y-8675000D01*
X12015000Y-8645000D02*
X11985000Y-8675000D01*
X11985000Y-8965000D02*
X12015000Y-8995000D01*
X12015000Y-8965000D02*
X11985000Y-8995000D01*
X11985000Y-9015000D02*
X12015000Y-9045000D01*
X12015000Y-9015000D02*
X11985000Y-9045000D01*
X11985000Y-9065000D02*
X12015000Y-9095000D01*
X12015000Y-9065000D02*
X11985000Y-9095000D01*
X11985000Y-9445000D02*
X12015000Y-9475000D01*
X12015000Y-9445000D02*
X11985000Y-9475000D01*
X11985000Y-9495000D02*
X12015000Y-9525000D01*
X12015000Y-9495000D02*
X11985000Y-9525000D01*
X11985000Y-9545000D02*
X12015000Y-9575000D01*
X12015000Y-9545000D02*
X11985000Y-9575000D01*
X11985000Y-9865000D02*
X12015000Y-9895000D01*
X12015000Y-9865000D02*
X11985000Y-9895000D01*
X11985000Y-9915000D02*
X12015000Y-9945000D01*
X12015000Y-9915000D02*
X11985000Y-9945000D01*
X11985000Y-9965000D02*
X12015000Y-9995000D01*
X12015000Y-9965000D02*
X11985000Y-9995000D01*
X11985000Y-10345000D02*
X12015000Y-10375000D01*
X12015000Y-10345000D02*
X11985000Y-10375000D01*
X11985000Y-10395000D02*
X12015000Y-10425000D01*
X12015000Y-10395000D02*
X11985000Y-10425000D01*
X11985000Y-10445000D02*
X12015000Y-10475000D01*
X12015000Y-10445000D02*
X11985000Y-10475000D01*
X11985000Y-10765000D02*
X12015000Y-10795000D01*
X12015000Y-10765000D02*
X11985000Y-10795000D01*
X11985000Y-10815000D02*
X12015000Y-10845000D01*
X12015000Y-10815000D02*
X11985000Y-10845000D01*
X11985000Y-10865000D02*
X12015000Y-10895000D01*
X12015000Y-10865000D02*
X11985000Y-10895000D01*
X11985000Y-11245000D02*
X12015000Y-11275000D01*
X12015000Y-11245000D02*
X11985000Y-11275000D01*
X11985000Y-11295000D02*
X12015000Y-11325000D01*
X12015000Y-11295000D02*
X11985000Y-11325000D01*
X11985000Y-11345000D02*
X12015000Y-11375000D01*
X12015000Y-11345000D02*
X11985000Y-11375000D01*
X11985000Y-11665000D02*
X12015000Y-11695000D01*
X12015000Y-11665000D02*
X11985000Y-11695000D01*
X11985000Y-11715000D02*
X12015000Y-11745000D01*
X12015000Y-11715000D02*
X11985000Y-11745000D01*
X11985000Y-11765000D02*
X12015000Y-11795000D01*
X12015000Y-11765000D02*
X11985000Y-11795000D01*
X11985000Y-12145000D02*
X12015000Y-12175000D01*
X12015000Y-12145000D02*
X11985000Y-12175000D01*
X11985000Y-12195000D02*
X12015000Y-12225000D01*
X12015000Y-12195000D02*
X11985000Y-12225000D01*
X11985000Y-12245000D02*
X12015000Y-12275000D01*
X12015000Y-12245000D02*
X11985000Y-12275000D01*
X11985000Y-12565000D02*
X12015000Y-12595000D01*
X12015000Y-12565000D02*
X11985000Y-12595000D01*
X11985000Y-12615000D02*
X12015000Y-12645000D01*
X12015000Y-12615000D02*
X11985000Y-12645000D01*
X11985000Y-12665000D02*
X12015000Y-12695000D01*
X12015000Y-12665000D02*
X11985000Y-12695000D01*
X11985000Y-13045000D02*
X12015000Y-13075000D01*
X12015000Y-13045000D02*
X11985000Y-13075000D01*
X11985000Y-13095000D02*
X12015000Y-13125000D01*
X12015000Y-13095000D02*
X11985000Y-13125000D01*
X11985000Y-13145000D02*
X12015000Y-13175000D01*
X12015000Y-13145000D02*
X11985000Y-13175000D01*
X11985000Y-13465000D02*
X12015000Y-13495000D01*
X12015000Y-13465000D02*
X11985000Y-13495000D01*
X11985000Y-13515000D02*
X12015000Y-13545000D01*
X12015000Y-13515000D02*
X11985000Y-13545000D01*
X11985000Y-13565000D02*
X12015000Y-13595000D01*
X12015000Y-13565000D02*
X11985000Y-13595000D01*
X11985000Y-13945000D02*
X12015000Y-13975000D01*
X12015000Y-13945000D02*
X11985000Y-13975000D01*
X11985000Y-13995000D02*
X12015000Y-14025000D01*
X12015000Y-13995000D02*
X11985000Y-14025000D01*
X11985000Y-14045000D02*
X12015000Y-14075000D01*
X12015000Y-14045000D02*
X11985000Y-14075000D01*
X11985000Y-14365000D02*
X12015000Y-14395000D01*
X12015000Y-14365000D02*
X11985000Y-14395000D01*
X11985000Y-14415000D02*
X12015000Y-14445000D01*
X12015000Y-14415000D02*
X11985000Y-14445000D01*
X11985000Y-14465000D02*
X12015000Y-14495000D01*
X12015000Y-14465000D02*
X11985000Y-14495000D01*
X11985000Y-14845000D02*
X12015000Y-14875000D01*
X12015000Y-14845000D02*
X11985000Y-14875000D01*
X11985000Y-14895000D02*
X12015000Y-14925000D01*
X12015000Y-14895000D02*
X11985000Y-14925000D01*
X11985000Y-14945000D02*
X12015000Y-14975000D01*
X12015000Y-14945000D02*
X11985000Y-14975000D01*
X11985000Y-15265000D02*
X12015000Y-15295000D01*
X12015000Y-15265000D02*
X11985000Y-15295000D01*
X11985000Y-15315000D02*
X12015000Y-15345000D01*
X12015000Y-15315000D02*
X11985000Y-15345000D01*
X11985000Y-15365000D02*
X12015000Y-15395000D01*
X12015000Y-15365000D02*
X11985000Y-15395000D01*
X11985000Y-15745000D02*
X12015000Y-15775000D01*
X12015000Y-15745000D02*
X11985000Y-15775000D01*
X11985000Y-15795000D02*
X12015000Y-15825000D01*
X12015000Y-15795000D02*
X11985000Y-15825000D01*
X11985000Y-15845000D02*
X12015000Y-15875000D01*
X12015000Y-15845000D02*
X11985000Y-15875000D01*
X11985000Y-16165000D02*
X12015000Y-16195000D01*
X12015000Y-16165000D02*
X11985000Y-16195000D01*
X11985000Y-16215000D02*
X12015000Y-16245000D01*
X12015000Y-16215000D02*
X11985000Y-16245000D01*
X11985000Y-16265000D02*
X12015000Y-16295000D01*
X12015000Y-16265000D02*
X11985000Y-16295000D01*
X11985000Y-16645000D02*
X12015000Y-16675000D01*
X12015000Y-16645000D02*
X11985000Y-16675000D01*
X11985000Y-16695000D02*
X12015000Y-16725000D01*
X12015000Y-16695000D02*
X11985000Y-16725000D01*
X11985000Y-16745000D02*
X12015000Y-16775000D01*
X12015000Y-16745000D02*
X11985000Y-16775000D01*
X12025000Y-8595000D02*
X12055000Y-8625000D01*
X12055000Y-8595000D02*
X12025000Y-8625000D01*
X12025000Y-9015000D02*
X12055000Y-9045000D01*
X12055000Y-9015000D02*
X12025000Y-9045000D01*
X12025000Y-9495000D02*
X12055000Y-9525000D01*
X12055000Y-9495000D02*
X12025000Y-9525000D01*
X12025000Y-9915000D02*
X12055000Y-9945000D01*
X12055000Y-9915000D02*
X12025000Y-9945000D01*
X12025000Y-10395000D02*
X12055000Y-10425000D01*
X12055000Y-10395000D02*
X12025000Y-10425000D01*
X12025000Y-10815000D02*
X12055000Y-10845000D01*
X12055000Y-10815000D02*
X12025000Y-10845000D01*
X12025000Y-11295000D02*
X12055000Y-11325000D01*
X12055000Y-11295000D02*
X12025000Y-11325000D01*
X12025000Y-11715000D02*
X12055000Y-11745000D01*
X12055000Y-11715000D02*
X12025000Y-11745000D01*
X12025000Y-12195000D02*
X12055000Y-12225000D01*
X12055000Y-12195000D02*
X12025000Y-12225000D01*
X12025000Y-12615000D02*
X12055000Y-12645000D01*
X12055000Y-12615000D02*
X12025000Y-12645000D01*
X12025000Y-13095000D02*
X12055000Y-13125000D01*
X12055000Y-13095000D02*
X12025000Y-13125000D01*
X12025000Y-13515000D02*
X12055000Y-13545000D01*
X12055000Y-13515000D02*
X12025000Y-13545000D01*
X12025000Y-13995000D02*
X12055000Y-14025000D01*
X12055000Y-13995000D02*
X12025000Y-14025000D01*
X12025000Y-14415000D02*
X12055000Y-14445000D01*
X12055000Y-14415000D02*
X12025000Y-14445000D01*
X12025000Y-14895000D02*
X12055000Y-14925000D01*
X12055000Y-14895000D02*
X12025000Y-14925000D01*
X12025000Y-15315000D02*
X12055000Y-15345000D01*
X12055000Y-15315000D02*
X12025000Y-15345000D01*
X12025000Y-15795000D02*
X12055000Y-15825000D01*
X12055000Y-15795000D02*
X12025000Y-15825000D01*
X12025000Y-16215000D02*
X12055000Y-16245000D01*
X12055000Y-16215000D02*
X12025000Y-16245000D01*
X12025000Y-16695000D02*
X12055000Y-16725000D01*
X12055000Y-16695000D02*
X12025000Y-16725000D01*
D11*
X8383277Y-17963984D02*
X8383277Y-17763984D01*
X8383277Y-17763984D02*
X8430896Y-17763984D01*
X8430896Y-17763984D02*
X8459467Y-17773508D01*
X8459467Y-17773508D02*
X8478515Y-17792555D01*
X8478515Y-17792555D02*
X8488039Y-17811603D01*
X8488039Y-17811603D02*
X8497563Y-17849698D01*
X8497563Y-17849698D02*
X8497563Y-17878270D01*
X8497563Y-17878270D02*
X8488039Y-17916365D01*
X8488039Y-17916365D02*
X8478515Y-17935412D01*
X8478515Y-17935412D02*
X8459467Y-17954460D01*
X8459467Y-17954460D02*
X8430896Y-17963984D01*
X8430896Y-17963984D02*
X8383277Y-17963984D01*
X8583277Y-17963984D02*
X8583277Y-17830650D01*
X8583277Y-17868746D02*
X8592801Y-17849698D01*
X8592801Y-17849698D02*
X8602324Y-17840174D01*
X8602324Y-17840174D02*
X8621372Y-17830650D01*
X8621372Y-17830650D02*
X8640420Y-17830650D01*
X8707086Y-17963984D02*
X8707086Y-17830650D01*
X8707086Y-17763984D02*
X8697563Y-17773508D01*
X8697563Y-17773508D02*
X8707086Y-17783031D01*
X8707086Y-17783031D02*
X8716610Y-17773508D01*
X8716610Y-17773508D02*
X8707086Y-17763984D01*
X8707086Y-17763984D02*
X8707086Y-17783031D01*
X8830896Y-17963984D02*
X8811848Y-17954460D01*
X8811848Y-17954460D02*
X8802324Y-17935412D01*
X8802324Y-17935412D02*
X8802324Y-17763984D01*
X8935658Y-17963984D02*
X8916610Y-17954460D01*
X8916610Y-17954460D02*
X8907086Y-17935412D01*
X8907086Y-17935412D02*
X8907086Y-17763984D01*
X9164229Y-17963984D02*
X9164229Y-17763984D01*
X9164229Y-17763984D02*
X9230896Y-17906841D01*
X9230896Y-17906841D02*
X9297563Y-17763984D01*
X9297563Y-17763984D02*
X9297563Y-17963984D01*
X9478515Y-17963984D02*
X9478515Y-17859222D01*
X9478515Y-17859222D02*
X9468991Y-17840174D01*
X9468991Y-17840174D02*
X9449944Y-17830650D01*
X9449944Y-17830650D02*
X9411848Y-17830650D01*
X9411848Y-17830650D02*
X9392801Y-17840174D01*
X9478515Y-17954460D02*
X9459467Y-17963984D01*
X9459467Y-17963984D02*
X9411848Y-17963984D01*
X9411848Y-17963984D02*
X9392801Y-17954460D01*
X9392801Y-17954460D02*
X9383277Y-17935412D01*
X9383277Y-17935412D02*
X9383277Y-17916365D01*
X9383277Y-17916365D02*
X9392801Y-17897317D01*
X9392801Y-17897317D02*
X9411848Y-17887793D01*
X9411848Y-17887793D02*
X9459467Y-17887793D01*
X9459467Y-17887793D02*
X9478515Y-17878270D01*
X9573753Y-17830650D02*
X9573753Y-18030650D01*
X9573753Y-17840174D02*
X9592801Y-17830650D01*
X9592801Y-17830650D02*
X9630896Y-17830650D01*
X9630896Y-17830650D02*
X9649944Y-17840174D01*
X9649944Y-17840174D02*
X9659467Y-17849698D01*
X9659467Y-17849698D02*
X9668991Y-17868746D01*
X9668991Y-17868746D02*
X9668991Y-17925889D01*
X9668991Y-17925889D02*
X9659467Y-17944936D01*
X9659467Y-17944936D02*
X9649944Y-17954460D01*
X9649944Y-17954460D02*
X9630896Y-17963984D01*
X9630896Y-17963984D02*
X9592801Y-17963984D01*
X9592801Y-17963984D02*
X9573753Y-17954460D01*
X9754705Y-17944936D02*
X9764229Y-17954460D01*
X9764229Y-17954460D02*
X9754705Y-17963984D01*
X9754705Y-17963984D02*
X9745182Y-17954460D01*
X9745182Y-17954460D02*
X9754705Y-17944936D01*
X9754705Y-17944936D02*
X9754705Y-17963984D01*
X9754705Y-17840174D02*
X9764229Y-17849698D01*
X9764229Y-17849698D02*
X9754705Y-17859222D01*
X9754705Y-17859222D02*
X9745182Y-17849698D01*
X9745182Y-17849698D02*
X9754705Y-17840174D01*
X9754705Y-17840174D02*
X9754705Y-17859222D01*
D12*
X8092500Y-18277500D02*
X8122500Y-18307500D01*
X8122500Y-18277500D02*
X8092500Y-18307500D01*
D11*
X8421372Y-18183984D02*
X8440420Y-18183984D01*
X8440420Y-18183984D02*
X8459467Y-18193508D01*
X8459467Y-18193508D02*
X8468991Y-18203031D01*
X8468991Y-18203031D02*
X8478515Y-18222079D01*
X8478515Y-18222079D02*
X8488039Y-18260174D01*
X8488039Y-18260174D02*
X8488039Y-18307793D01*
X8488039Y-18307793D02*
X8478515Y-18345889D01*
X8478515Y-18345889D02*
X8468991Y-18364936D01*
X8468991Y-18364936D02*
X8459467Y-18374460D01*
X8459467Y-18374460D02*
X8440420Y-18383984D01*
X8440420Y-18383984D02*
X8421372Y-18383984D01*
X8421372Y-18383984D02*
X8402324Y-18374460D01*
X8402324Y-18374460D02*
X8392801Y-18364936D01*
X8392801Y-18364936D02*
X8383277Y-18345889D01*
X8383277Y-18345889D02*
X8373753Y-18307793D01*
X8373753Y-18307793D02*
X8373753Y-18260174D01*
X8373753Y-18260174D02*
X8383277Y-18222079D01*
X8383277Y-18222079D02*
X8392801Y-18203031D01*
X8392801Y-18203031D02*
X8402324Y-18193508D01*
X8402324Y-18193508D02*
X8421372Y-18183984D01*
X8573753Y-18364936D02*
X8583277Y-18374460D01*
X8583277Y-18374460D02*
X8573753Y-18383984D01*
X8573753Y-18383984D02*
X8564229Y-18374460D01*
X8564229Y-18374460D02*
X8573753Y-18364936D01*
X8573753Y-18364936D02*
X8573753Y-18383984D01*
X8649944Y-18183984D02*
X8773753Y-18183984D01*
X8773753Y-18183984D02*
X8707086Y-18260174D01*
X8707086Y-18260174D02*
X8735658Y-18260174D01*
X8735658Y-18260174D02*
X8754705Y-18269698D01*
X8754705Y-18269698D02*
X8764229Y-18279222D01*
X8764229Y-18279222D02*
X8773753Y-18298270D01*
X8773753Y-18298270D02*
X8773753Y-18345889D01*
X8773753Y-18345889D02*
X8764229Y-18364936D01*
X8764229Y-18364936D02*
X8754705Y-18374460D01*
X8754705Y-18374460D02*
X8735658Y-18383984D01*
X8735658Y-18383984D02*
X8678515Y-18383984D01*
X8678515Y-18383984D02*
X8659467Y-18374460D01*
X8659467Y-18374460D02*
X8649944Y-18364936D01*
X8897563Y-18183984D02*
X8916610Y-18183984D01*
X8916610Y-18183984D02*
X8935658Y-18193508D01*
X8935658Y-18193508D02*
X8945182Y-18203031D01*
X8945182Y-18203031D02*
X8954705Y-18222079D01*
X8954705Y-18222079D02*
X8964229Y-18260174D01*
X8964229Y-18260174D02*
X8964229Y-18307793D01*
X8964229Y-18307793D02*
X8954705Y-18345889D01*
X8954705Y-18345889D02*
X8945182Y-18364936D01*
X8945182Y-18364936D02*
X8935658Y-18374460D01*
X8935658Y-18374460D02*
X8916610Y-18383984D01*
X8916610Y-18383984D02*
X8897563Y-18383984D01*
X8897563Y-18383984D02*
X8878515Y-18374460D01*
X8878515Y-18374460D02*
X8868991Y-18364936D01*
X8868991Y-18364936D02*
X8859467Y-18345889D01*
X8859467Y-18345889D02*
X8849944Y-18307793D01*
X8849944Y-18307793D02*
X8849944Y-18260174D01*
X8849944Y-18260174D02*
X8859467Y-18222079D01*
X8859467Y-18222079D02*
X8868991Y-18203031D01*
X8868991Y-18203031D02*
X8878515Y-18193508D01*
X8878515Y-18193508D02*
X8897563Y-18183984D01*
X9088039Y-18183984D02*
X9107086Y-18183984D01*
X9107086Y-18183984D02*
X9126134Y-18193508D01*
X9126134Y-18193508D02*
X9135658Y-18203031D01*
X9135658Y-18203031D02*
X9145182Y-18222079D01*
X9145182Y-18222079D02*
X9154705Y-18260174D01*
X9154705Y-18260174D02*
X9154705Y-18307793D01*
X9154705Y-18307793D02*
X9145182Y-18345889D01*
X9145182Y-18345889D02*
X9135658Y-18364936D01*
X9135658Y-18364936D02*
X9126134Y-18374460D01*
X9126134Y-18374460D02*
X9107086Y-18383984D01*
X9107086Y-18383984D02*
X9088039Y-18383984D01*
X9088039Y-18383984D02*
X9068991Y-18374460D01*
X9068991Y-18374460D02*
X9059467Y-18364936D01*
X9059467Y-18364936D02*
X9049944Y-18345889D01*
X9049944Y-18345889D02*
X9040420Y-18307793D01*
X9040420Y-18307793D02*
X9040420Y-18260174D01*
X9040420Y-18260174D02*
X9049944Y-18222079D01*
X9049944Y-18222079D02*
X9059467Y-18203031D01*
X9059467Y-18203031D02*
X9068991Y-18193508D01*
X9068991Y-18193508D02*
X9088039Y-18183984D01*
X9240420Y-18383984D02*
X9240420Y-18250650D01*
X9240420Y-18269698D02*
X9249944Y-18260174D01*
X9249944Y-18260174D02*
X9268991Y-18250650D01*
X9268991Y-18250650D02*
X9297563Y-18250650D01*
X9297563Y-18250650D02*
X9316610Y-18260174D01*
X9316610Y-18260174D02*
X9326134Y-18279222D01*
X9326134Y-18279222D02*
X9326134Y-18383984D01*
X9326134Y-18279222D02*
X9335658Y-18260174D01*
X9335658Y-18260174D02*
X9354705Y-18250650D01*
X9354705Y-18250650D02*
X9383277Y-18250650D01*
X9383277Y-18250650D02*
X9402325Y-18260174D01*
X9402325Y-18260174D02*
X9411848Y-18279222D01*
X9411848Y-18279222D02*
X9411848Y-18383984D01*
X9507086Y-18383984D02*
X9507086Y-18250650D01*
X9507086Y-18269698D02*
X9516610Y-18260174D01*
X9516610Y-18260174D02*
X9535658Y-18250650D01*
X9535658Y-18250650D02*
X9564229Y-18250650D01*
X9564229Y-18250650D02*
X9583277Y-18260174D01*
X9583277Y-18260174D02*
X9592801Y-18279222D01*
X9592801Y-18279222D02*
X9592801Y-18383984D01*
X9592801Y-18279222D02*
X9602325Y-18260174D01*
X9602325Y-18260174D02*
X9621372Y-18250650D01*
X9621372Y-18250650D02*
X9649944Y-18250650D01*
X9649944Y-18250650D02*
X9668991Y-18260174D01*
X9668991Y-18260174D02*
X9678515Y-18279222D01*
X9678515Y-18279222D02*
X9678515Y-18383984D01*
X10068991Y-18174460D02*
X9897563Y-18431603D01*
X10326134Y-18183984D02*
X10345182Y-18183984D01*
X10345182Y-18183984D02*
X10364229Y-18193508D01*
X10364229Y-18193508D02*
X10373753Y-18203031D01*
X10373753Y-18203031D02*
X10383277Y-18222079D01*
X10383277Y-18222079D02*
X10392801Y-18260174D01*
X10392801Y-18260174D02*
X10392801Y-18307793D01*
X10392801Y-18307793D02*
X10383277Y-18345889D01*
X10383277Y-18345889D02*
X10373753Y-18364936D01*
X10373753Y-18364936D02*
X10364229Y-18374460D01*
X10364229Y-18374460D02*
X10345182Y-18383984D01*
X10345182Y-18383984D02*
X10326134Y-18383984D01*
X10326134Y-18383984D02*
X10307087Y-18374460D01*
X10307087Y-18374460D02*
X10297563Y-18364936D01*
X10297563Y-18364936D02*
X10288039Y-18345889D01*
X10288039Y-18345889D02*
X10278515Y-18307793D01*
X10278515Y-18307793D02*
X10278515Y-18260174D01*
X10278515Y-18260174D02*
X10288039Y-18222079D01*
X10288039Y-18222079D02*
X10297563Y-18203031D01*
X10297563Y-18203031D02*
X10307087Y-18193508D01*
X10307087Y-18193508D02*
X10326134Y-18183984D01*
X10478515Y-18364936D02*
X10488039Y-18374460D01*
X10488039Y-18374460D02*
X10478515Y-18383984D01*
X10478515Y-18383984D02*
X10468991Y-18374460D01*
X10468991Y-18374460D02*
X10478515Y-18364936D01*
X10478515Y-18364936D02*
X10478515Y-18383984D01*
X10611848Y-18183984D02*
X10630896Y-18183984D01*
X10630896Y-18183984D02*
X10649944Y-18193508D01*
X10649944Y-18193508D02*
X10659468Y-18203031D01*
X10659468Y-18203031D02*
X10668991Y-18222079D01*
X10668991Y-18222079D02*
X10678515Y-18260174D01*
X10678515Y-18260174D02*
X10678515Y-18307793D01*
X10678515Y-18307793D02*
X10668991Y-18345889D01*
X10668991Y-18345889D02*
X10659468Y-18364936D01*
X10659468Y-18364936D02*
X10649944Y-18374460D01*
X10649944Y-18374460D02*
X10630896Y-18383984D01*
X10630896Y-18383984D02*
X10611848Y-18383984D01*
X10611848Y-18383984D02*
X10592801Y-18374460D01*
X10592801Y-18374460D02*
X10583277Y-18364936D01*
X10583277Y-18364936D02*
X10573753Y-18345889D01*
X10573753Y-18345889D02*
X10564229Y-18307793D01*
X10564229Y-18307793D02*
X10564229Y-18260174D01*
X10564229Y-18260174D02*
X10573753Y-18222079D01*
X10573753Y-18222079D02*
X10583277Y-18203031D01*
X10583277Y-18203031D02*
X10592801Y-18193508D01*
X10592801Y-18193508D02*
X10611848Y-18183984D01*
X10868991Y-18383984D02*
X10754706Y-18383984D01*
X10811848Y-18383984D02*
X10811848Y-18183984D01*
X10811848Y-18183984D02*
X10792801Y-18212555D01*
X10792801Y-18212555D02*
X10773753Y-18231603D01*
X10773753Y-18231603D02*
X10754706Y-18241127D01*
X11059468Y-18383984D02*
X10945182Y-18383984D01*
X11002325Y-18383984D02*
X11002325Y-18183984D01*
X11002325Y-18183984D02*
X10983277Y-18212555D01*
X10983277Y-18212555D02*
X10964229Y-18231603D01*
X10964229Y-18231603D02*
X10945182Y-18241127D01*
X11173753Y-18269698D02*
X11154706Y-18260174D01*
X11154706Y-18260174D02*
X11145182Y-18250650D01*
X11145182Y-18250650D02*
X11135658Y-18231603D01*
X11135658Y-18231603D02*
X11135658Y-18222079D01*
X11135658Y-18222079D02*
X11145182Y-18203031D01*
X11145182Y-18203031D02*
X11154706Y-18193508D01*
X11154706Y-18193508D02*
X11173753Y-18183984D01*
X11173753Y-18183984D02*
X11211848Y-18183984D01*
X11211848Y-18183984D02*
X11230896Y-18193508D01*
X11230896Y-18193508D02*
X11240420Y-18203031D01*
X11240420Y-18203031D02*
X11249944Y-18222079D01*
X11249944Y-18222079D02*
X11249944Y-18231603D01*
X11249944Y-18231603D02*
X11240420Y-18250650D01*
X11240420Y-18250650D02*
X11230896Y-18260174D01*
X11230896Y-18260174D02*
X11211848Y-18269698D01*
X11211848Y-18269698D02*
X11173753Y-18269698D01*
X11173753Y-18269698D02*
X11154706Y-18279222D01*
X11154706Y-18279222D02*
X11145182Y-18288746D01*
X11145182Y-18288746D02*
X11135658Y-18307793D01*
X11135658Y-18307793D02*
X11135658Y-18345889D01*
X11135658Y-18345889D02*
X11145182Y-18364936D01*
X11145182Y-18364936D02*
X11154706Y-18374460D01*
X11154706Y-18374460D02*
X11173753Y-18383984D01*
X11173753Y-18383984D02*
X11211848Y-18383984D01*
X11211848Y-18383984D02*
X11230896Y-18374460D01*
X11230896Y-18374460D02*
X11240420Y-18364936D01*
X11240420Y-18364936D02*
X11249944Y-18345889D01*
X11249944Y-18345889D02*
X11249944Y-18307793D01*
X11249944Y-18307793D02*
X11240420Y-18288746D01*
X11240420Y-18288746D02*
X11230896Y-18279222D01*
X11230896Y-18279222D02*
X11211848Y-18269698D01*
X11326134Y-18183984D02*
X11326134Y-18222079D01*
X11402325Y-18183984D02*
X11402325Y-18222079D01*
X11697563Y-18460174D02*
X11688039Y-18450650D01*
X11688039Y-18450650D02*
X11668991Y-18422079D01*
X11668991Y-18422079D02*
X11659468Y-18403031D01*
X11659468Y-18403031D02*
X11649944Y-18374460D01*
X11649944Y-18374460D02*
X11640420Y-18326841D01*
X11640420Y-18326841D02*
X11640420Y-18288746D01*
X11640420Y-18288746D02*
X11649944Y-18241127D01*
X11649944Y-18241127D02*
X11659468Y-18212555D01*
X11659468Y-18212555D02*
X11668991Y-18193508D01*
X11668991Y-18193508D02*
X11688039Y-18164936D01*
X11688039Y-18164936D02*
X11697563Y-18155412D01*
X11754706Y-18183984D02*
X11888039Y-18183984D01*
X11888039Y-18183984D02*
X11802325Y-18383984D01*
X11945182Y-18183984D02*
X12078515Y-18183984D01*
X12078515Y-18183984D02*
X11992801Y-18383984D01*
X12164229Y-18383984D02*
X12202325Y-18383984D01*
X12202325Y-18383984D02*
X12221372Y-18374460D01*
X12221372Y-18374460D02*
X12230896Y-18364936D01*
X12230896Y-18364936D02*
X12249944Y-18336365D01*
X12249944Y-18336365D02*
X12259468Y-18298270D01*
X12259468Y-18298270D02*
X12259468Y-18222079D01*
X12259468Y-18222079D02*
X12249944Y-18203031D01*
X12249944Y-18203031D02*
X12240420Y-18193508D01*
X12240420Y-18193508D02*
X12221372Y-18183984D01*
X12221372Y-18183984D02*
X12183277Y-18183984D01*
X12183277Y-18183984D02*
X12164229Y-18193508D01*
X12164229Y-18193508D02*
X12154706Y-18203031D01*
X12154706Y-18203031D02*
X12145182Y-18222079D01*
X12145182Y-18222079D02*
X12145182Y-18269698D01*
X12145182Y-18269698D02*
X12154706Y-18288746D01*
X12154706Y-18288746D02*
X12164229Y-18298270D01*
X12164229Y-18298270D02*
X12183277Y-18307793D01*
X12183277Y-18307793D02*
X12221372Y-18307793D01*
X12221372Y-18307793D02*
X12240420Y-18298270D01*
X12240420Y-18298270D02*
X12249944Y-18288746D01*
X12249944Y-18288746D02*
X12259468Y-18269698D01*
X12497563Y-18383984D02*
X12497563Y-18183984D01*
X12583277Y-18383984D02*
X12583277Y-18279222D01*
X12583277Y-18279222D02*
X12573753Y-18260174D01*
X12573753Y-18260174D02*
X12554706Y-18250650D01*
X12554706Y-18250650D02*
X12526134Y-18250650D01*
X12526134Y-18250650D02*
X12507087Y-18260174D01*
X12507087Y-18260174D02*
X12497563Y-18269698D01*
X12707087Y-18383984D02*
X12688039Y-18374460D01*
X12688039Y-18374460D02*
X12678515Y-18364936D01*
X12678515Y-18364936D02*
X12668991Y-18345889D01*
X12668991Y-18345889D02*
X12668991Y-18288746D01*
X12668991Y-18288746D02*
X12678515Y-18269698D01*
X12678515Y-18269698D02*
X12688039Y-18260174D01*
X12688039Y-18260174D02*
X12707087Y-18250650D01*
X12707087Y-18250650D02*
X12735658Y-18250650D01*
X12735658Y-18250650D02*
X12754706Y-18260174D01*
X12754706Y-18260174D02*
X12764230Y-18269698D01*
X12764230Y-18269698D02*
X12773753Y-18288746D01*
X12773753Y-18288746D02*
X12773753Y-18345889D01*
X12773753Y-18345889D02*
X12764230Y-18364936D01*
X12764230Y-18364936D02*
X12754706Y-18374460D01*
X12754706Y-18374460D02*
X12735658Y-18383984D01*
X12735658Y-18383984D02*
X12707087Y-18383984D01*
X12888039Y-18383984D02*
X12868991Y-18374460D01*
X12868991Y-18374460D02*
X12859468Y-18355412D01*
X12859468Y-18355412D02*
X12859468Y-18183984D01*
X13040420Y-18374460D02*
X13021372Y-18383984D01*
X13021372Y-18383984D02*
X12983277Y-18383984D01*
X12983277Y-18383984D02*
X12964230Y-18374460D01*
X12964230Y-18374460D02*
X12954706Y-18355412D01*
X12954706Y-18355412D02*
X12954706Y-18279222D01*
X12954706Y-18279222D02*
X12964230Y-18260174D01*
X12964230Y-18260174D02*
X12983277Y-18250650D01*
X12983277Y-18250650D02*
X13021372Y-18250650D01*
X13021372Y-18250650D02*
X13040420Y-18260174D01*
X13040420Y-18260174D02*
X13049944Y-18279222D01*
X13049944Y-18279222D02*
X13049944Y-18298270D01*
X13049944Y-18298270D02*
X12954706Y-18317317D01*
X13126134Y-18374460D02*
X13145182Y-18383984D01*
X13145182Y-18383984D02*
X13183277Y-18383984D01*
X13183277Y-18383984D02*
X13202325Y-18374460D01*
X13202325Y-18374460D02*
X13211849Y-18355412D01*
X13211849Y-18355412D02*
X13211849Y-18345889D01*
X13211849Y-18345889D02*
X13202325Y-18326841D01*
X13202325Y-18326841D02*
X13183277Y-18317317D01*
X13183277Y-18317317D02*
X13154706Y-18317317D01*
X13154706Y-18317317D02*
X13135658Y-18307793D01*
X13135658Y-18307793D02*
X13126134Y-18288746D01*
X13126134Y-18288746D02*
X13126134Y-18279222D01*
X13126134Y-18279222D02*
X13135658Y-18260174D01*
X13135658Y-18260174D02*
X13154706Y-18250650D01*
X13154706Y-18250650D02*
X13183277Y-18250650D01*
X13183277Y-18250650D02*
X13202325Y-18260174D01*
X13278515Y-18460174D02*
X13288039Y-18450650D01*
X13288039Y-18450650D02*
X13307087Y-18422079D01*
X13307087Y-18422079D02*
X13316611Y-18403031D01*
X13316611Y-18403031D02*
X13326134Y-18374460D01*
X13326134Y-18374460D02*
X13335658Y-18326841D01*
X13335658Y-18326841D02*
X13335658Y-18288746D01*
X13335658Y-18288746D02*
X13326134Y-18241127D01*
X13326134Y-18241127D02*
X13316611Y-18212555D01*
X13316611Y-18212555D02*
X13307087Y-18193508D01*
X13307087Y-18193508D02*
X13288039Y-18164936D01*
X13288039Y-18164936D02*
X13278515Y-18155412D01*
M02*
