%TF.GenerationSoftware,KiCad,Pcbnew,9.0.6*%
%TF.CreationDate,2025-12-26T03:05:52+01:00*%
%TF.ProjectId,secondary_mmc,7365636f-6e64-4617-9279-5f6d6d632e6b,rev?*%
%TF.SameCoordinates,Original*%
%TF.FileFunction,Paste,Top*%
%TF.FilePolarity,Positive*%
%FSLAX46Y46*%
G04 Gerber Fmt 4.6, Leading zero omitted, Abs format (unit mm)*
G04 Created by KiCad (PCBNEW 9.0.6) date 2025-12-26 03:05:52*
%MOMM*%
%LPD*%
G01*
G04 APERTURE LIST*
G04 Aperture macros list*
%AMRoundRect*
0 Rectangle with rounded corners*
0 $1 Rounding radius*
0 $2 $3 $4 $5 $6 $7 $8 $9 X,Y pos of 4 corners*
0 Add a 4 corners polygon primitive as box body*
4,1,4,$2,$3,$4,$5,$6,$7,$8,$9,$2,$3,0*
0 Add four circle primitives for the rounded corners*
1,1,$1+$1,$2,$3*
1,1,$1+$1,$4,$5*
1,1,$1+$1,$6,$7*
1,1,$1+$1,$8,$9*
0 Add four rect primitives between the rounded corners*
20,1,$1+$1,$2,$3,$4,$5,0*
20,1,$1+$1,$4,$5,$6,$7,0*
20,1,$1+$1,$6,$7,$8,$9,0*
20,1,$1+$1,$8,$9,$2,$3,0*%
G04 Aperture macros list end*
%ADD10RoundRect,0.250000X-1.405375X-0.645235X-0.645235X-1.405375X1.405375X0.645235X0.645235X1.405375X0*%
%ADD11RoundRect,0.250000X-0.645235X1.405375X-1.405375X0.645235X0.645235X-1.405375X1.405375X-0.645235X0*%
G04 APERTURE END LIST*
D10*
%TO.C,C18*%
X33032559Y-90944559D03*
X36055441Y-93967441D03*
%TD*%
D11*
%TO.C,C13*%
X23355441Y-70878559D03*
X20332559Y-73901441D03*
%TD*%
%TO.C,C1*%
X23355441Y-23634559D03*
X20332559Y-26657441D03*
%TD*%
D10*
%TO.C,C7*%
X38620559Y-47256559D03*
X41643441Y-50279441D03*
%TD*%
D11*
%TO.C,C9*%
X45707441Y-56654559D03*
X42684559Y-59677441D03*
%TD*%
D10*
%TO.C,C19*%
X38608000Y-94488000D03*
X41630882Y-97510882D03*
%TD*%
%TO.C,C5*%
X27444559Y-40144559D03*
X30467441Y-43167441D03*
%TD*%
%TO.C,C6*%
X33032559Y-43700559D03*
X36055441Y-46723441D03*
%TD*%
%TO.C,C15*%
X16268559Y-80276559D03*
X19291441Y-83299441D03*
%TD*%
D11*
%TO.C,C12*%
X28943441Y-67322559D03*
X25920559Y-70345441D03*
%TD*%
%TO.C,C2*%
X17767441Y-27190559D03*
X14744559Y-30213441D03*
%TD*%
D10*
%TO.C,C8*%
X44208559Y-50812559D03*
X47231441Y-53835441D03*
%TD*%
D11*
%TO.C,C14*%
X17767441Y-74434559D03*
X14744559Y-77457441D03*
%TD*%
D10*
%TO.C,C17*%
X27444559Y-87388559D03*
X30467441Y-90411441D03*
%TD*%
%TO.C,C3*%
X16268559Y-33032559D03*
X19291441Y-36055441D03*
%TD*%
D11*
%TO.C,C11*%
X34531441Y-63766559D03*
X31508559Y-66789441D03*
%TD*%
D10*
%TO.C,C16*%
X21856559Y-83832559D03*
X24879441Y-86855441D03*
%TD*%
D11*
%TO.C,C10*%
X40119441Y-60210559D03*
X37096559Y-63233441D03*
%TD*%
D10*
%TO.C,C20*%
X44208559Y-98056559D03*
X47231441Y-101079441D03*
%TD*%
%TO.C,C4*%
X21856559Y-36588559D03*
X24879441Y-39611441D03*
%TD*%
M02*
