%TF.GenerationSoftware,KiCad,Pcbnew,9.0.6*%
%TF.CreationDate,2025-12-26T03:05:52+01:00*%
%TF.ProjectId,secondary_mmc,7365636f-6e64-4617-9279-5f6d6d632e6b,rev?*%
%TF.SameCoordinates,Original*%
%TF.FileFunction,Copper,L1,Top*%
%TF.FilePolarity,Positive*%
%FSLAX46Y46*%
G04 Gerber Fmt 4.6, Leading zero omitted, Abs format (unit mm)*
G04 Created by KiCad (PCBNEW 9.0.6) date 2025-12-26 03:05:52*
%MOMM*%
%LPD*%
G01*
G04 APERTURE LIST*
G04 Aperture macros list*
%AMRoundRect*
0 Rectangle with rounded corners*
0 $1 Rounding radius*
0 $2 $3 $4 $5 $6 $7 $8 $9 X,Y pos of 4 corners*
0 Add a 4 corners polygon primitive as box body*
4,1,4,$2,$3,$4,$5,$6,$7,$8,$9,$2,$3,0*
0 Add four circle primitives for the rounded corners*
1,1,$1+$1,$2,$3*
1,1,$1+$1,$4,$5*
1,1,$1+$1,$6,$7*
1,1,$1+$1,$8,$9*
0 Add four rect primitives between the rounded corners*
20,1,$1+$1,$2,$3,$4,$5,0*
20,1,$1+$1,$4,$5,$6,$7,0*
20,1,$1+$1,$6,$7,$8,$9,0*
20,1,$1+$1,$8,$9,$2,$3,0*%
G04 Aperture macros list end*
%TA.AperFunction,NonConductor*%
%ADD10C,0.200000*%
%TD*%
%TA.AperFunction,SMDPad,CuDef*%
%ADD11RoundRect,0.250000X-1.405375X-0.645235X-0.645235X-1.405375X1.405375X0.645235X0.645235X1.405375X0*%
%TD*%
%TA.AperFunction,SMDPad,CuDef*%
%ADD12RoundRect,0.250000X-0.645235X1.405375X-1.405375X0.645235X0.645235X-1.405375X1.405375X-0.645235X0*%
%TD*%
%TA.AperFunction,Conductor*%
%ADD13C,1.000000*%
%TD*%
%TA.AperFunction,Conductor*%
%ADD14C,1.600000*%
%TD*%
%TA.AperFunction,Conductor*%
%ADD15C,1.500000*%
%TD*%
G04 APERTURE END LIST*
D10*
X12573000Y-98399600D02*
X16484600Y-98399600D01*
X16484600Y-100025200D01*
X12573000Y-100025200D01*
X12573000Y-98399600D01*
%TA.AperFunction,NonConductor*%
G36*
X12573000Y-98399600D02*
G01*
X16484600Y-98399600D01*
X16484600Y-100025200D01*
X12573000Y-100025200D01*
X12573000Y-98399600D01*
G37*
%TD.AperFunction*%
D11*
%TO.P,C18,1*%
%TO.N,Net-(C17-Pad2)*%
X33032559Y-90944559D03*
%TO.P,C18,2*%
%TO.N,Net-(C18-Pad2)*%
X36055441Y-93967441D03*
%TD*%
D12*
%TO.P,C13,1*%
%TO.N,Net-(C12-Pad2)*%
X23355441Y-70878559D03*
%TO.P,C13,2*%
%TO.N,Net-(C13-Pad2)*%
X20332559Y-73901441D03*
%TD*%
%TO.P,C1,1*%
%TO.N,CONN_1*%
X23355441Y-23634559D03*
%TO.P,C1,2*%
%TO.N,Net-(C1-Pad2)*%
X20332559Y-26657441D03*
%TD*%
D11*
%TO.P,C7,1*%
%TO.N,Net-(C6-Pad2)*%
X38620559Y-47256559D03*
%TO.P,C7,2*%
%TO.N,Net-(C7-Pad2)*%
X41643441Y-50279441D03*
%TD*%
D12*
%TO.P,C9,1*%
%TO.N,Net-(C8-Pad2)*%
X45707441Y-56654559D03*
%TO.P,C9,2*%
%TO.N,Net-(C10-Pad1)*%
X42684559Y-59677441D03*
%TD*%
D11*
%TO.P,C19,1*%
%TO.N,Net-(C18-Pad2)*%
X38608000Y-94488000D03*
%TO.P,C19,2*%
%TO.N,Net-(C19-Pad2)*%
X41630882Y-97510882D03*
%TD*%
%TO.P,C5,1*%
%TO.N,Net-(C4-Pad2)*%
X27444559Y-40144559D03*
%TO.P,C5,2*%
%TO.N,Net-(C5-Pad2)*%
X30467441Y-43167441D03*
%TD*%
%TO.P,C6,1*%
%TO.N,Net-(C5-Pad2)*%
X33032559Y-43700559D03*
%TO.P,C6,2*%
%TO.N,Net-(C6-Pad2)*%
X36055441Y-46723441D03*
%TD*%
%TO.P,C15,1*%
%TO.N,Net-(C14-Pad2)*%
X16268559Y-80276559D03*
%TO.P,C15,2*%
%TO.N,Net-(C15-Pad2)*%
X19291441Y-83299441D03*
%TD*%
D12*
%TO.P,C12,1*%
%TO.N,Net-(C11-Pad2)*%
X28943441Y-67322559D03*
%TO.P,C12,2*%
%TO.N,Net-(C12-Pad2)*%
X25920559Y-70345441D03*
%TD*%
%TO.P,C2,1*%
%TO.N,Net-(C1-Pad2)*%
X17767441Y-27190559D03*
%TO.P,C2,2*%
%TO.N,Net-(C2-Pad2)*%
X14744559Y-30213441D03*
%TD*%
D11*
%TO.P,C8,1*%
%TO.N,Net-(C7-Pad2)*%
X44208559Y-50812559D03*
%TO.P,C8,2*%
%TO.N,Net-(C8-Pad2)*%
X47231441Y-53835441D03*
%TD*%
D12*
%TO.P,C14,1*%
%TO.N,Net-(C13-Pad2)*%
X17767441Y-74434559D03*
%TO.P,C14,2*%
%TO.N,Net-(C14-Pad2)*%
X14744559Y-77457441D03*
%TD*%
D11*
%TO.P,C17,1*%
%TO.N,Net-(C16-Pad2)*%
X27444559Y-87388559D03*
%TO.P,C17,2*%
%TO.N,Net-(C17-Pad2)*%
X30467441Y-90411441D03*
%TD*%
%TO.P,C3,1*%
%TO.N,Net-(C2-Pad2)*%
X16268559Y-33032559D03*
%TO.P,C3,2*%
%TO.N,Net-(C3-Pad2)*%
X19291441Y-36055441D03*
%TD*%
D12*
%TO.P,C11,1*%
%TO.N,Net-(C10-Pad2)*%
X34531441Y-63766559D03*
%TO.P,C11,2*%
%TO.N,Net-(C11-Pad2)*%
X31508559Y-66789441D03*
%TD*%
D11*
%TO.P,C16,1*%
%TO.N,Net-(C15-Pad2)*%
X21856559Y-83832559D03*
%TO.P,C16,2*%
%TO.N,Net-(C16-Pad2)*%
X24879441Y-86855441D03*
%TD*%
D12*
%TO.P,C10,1*%
%TO.N,Net-(C10-Pad1)*%
X40119441Y-60210559D03*
%TO.P,C10,2*%
%TO.N,Net-(C10-Pad2)*%
X37096559Y-63233441D03*
%TD*%
D11*
%TO.P,C20,1*%
%TO.N,Net-(C19-Pad2)*%
X44208559Y-98056559D03*
%TO.P,C20,2*%
%TO.N,CONN_2*%
X47231441Y-101079441D03*
%TD*%
%TO.P,C4,1*%
%TO.N,Net-(C3-Pad2)*%
X21856559Y-36588559D03*
%TO.P,C4,2*%
%TO.N,Net-(C4-Pad2)*%
X24879441Y-39611441D03*
%TD*%
D13*
%TO.N,CONN_1*%
X24638000Y-19124394D02*
X24638000Y-18975605D01*
X24638000Y-19483605D02*
X24638000Y-21445093D01*
X25654000Y-21844000D02*
X25654000Y-18923000D01*
X23355441Y-19759044D02*
X23355441Y-23622000D01*
X23876000Y-19558000D02*
X23755279Y-19437279D01*
X25654000Y-21844000D02*
X25654000Y-22352000D01*
X23996720Y-22993279D02*
X23364321Y-23625678D01*
X25273000Y-22098000D02*
X25400000Y-22098000D01*
X24892000Y-21717000D02*
X24892000Y-19737605D01*
X24130000Y-20171210D02*
X24130000Y-22312304D01*
X24377720Y-23882279D02*
X25474394Y-22785605D01*
X25071605Y-18542000D02*
X25273000Y-18542000D01*
X23733242Y-23733242D02*
X23882279Y-23882279D01*
X23346560Y-23600560D02*
X22980720Y-23234720D01*
X24638000Y-19483605D02*
X24638000Y-19124394D01*
X23742720Y-23247279D02*
X23364321Y-23625678D01*
X22606000Y-22330065D02*
X22606000Y-18796000D01*
X24622592Y-22367407D02*
X23364321Y-23625678D01*
X23495000Y-23634559D02*
X23368000Y-23634559D01*
X24765000Y-19431000D02*
G75*
G02*
X24891998Y-19737605I-306600J-306600D01*
G01*
X24892000Y-21717000D02*
G75*
G03*
X25273000Y-22098000I381000J0D01*
G01*
X23364321Y-23625678D02*
G75*
G03*
X23368000Y-23634633I3679J-3722D01*
G01*
X24765000Y-18669000D02*
G75*
G03*
X24638002Y-18975605I306600J-306600D01*
G01*
X25273000Y-22098000D02*
G75*
G03*
X24622596Y-22367411I0J-919800D01*
G01*
X24638000Y-19124394D02*
G75*
G03*
X24764998Y-19431002I433600J-6D01*
G01*
X23755279Y-19437279D02*
G75*
G03*
X23488721Y-19437279I-133279J-133277D01*
G01*
X24765000Y-19431000D02*
G75*
G03*
X24638012Y-19483605I-52600J-52600D01*
G01*
X25654000Y-22352000D02*
G75*
G03*
X25400000Y-22098000I-254000J0D01*
G01*
X23355441Y-23622000D02*
X23355441Y-23622000D01*
X23364321Y-23625678D02*
X23364321Y-23625678D01*
X23876000Y-19558000D02*
G75*
G02*
X24129996Y-20171210I-613200J-613200D01*
G01*
X23733242Y-23733242D02*
G75*
G03*
X23495000Y-23634564I-238242J-238258D01*
G01*
X25654000Y-18923000D02*
G75*
G03*
X25273000Y-18542000I-381000J0D01*
G01*
X23364321Y-23625678D02*
X23364321Y-23625678D01*
X25071605Y-18542000D02*
G75*
G03*
X24764998Y-18668998I-5J-433600D01*
G01*
X23882279Y-23882279D02*
G75*
G03*
X24377720Y-23882279I247720J247721D01*
G01*
X23355441Y-23622000D02*
G75*
G03*
X23364269Y-23625627I5159J0D01*
G01*
X24622592Y-22367407D02*
G75*
G03*
X24892004Y-21717000I-650392J650407D01*
G01*
X23368000Y-23634559D02*
G75*
G02*
X23355441Y-23622000I0J12559D01*
G01*
X23346560Y-23600560D02*
G75*
G02*
X23355435Y-23622000I-21460J-21440D01*
G01*
X23488720Y-19437279D02*
G75*
G03*
X23355476Y-19759044I321780J-321721D01*
G01*
X22606000Y-22330065D02*
G75*
G03*
X22980698Y-23234742I1279400J-35D01*
G01*
X24130000Y-22312304D02*
G75*
G02*
X23742728Y-23247287I-1322300J4D01*
G01*
X24638000Y-21445093D02*
G75*
G02*
X23996731Y-22993290I-2189500J-7D01*
G01*
X25400000Y-22098000D02*
G75*
G03*
X25654000Y-21844000I0J254000D01*
G01*
X25654000Y-22352000D02*
G75*
G02*
X25474392Y-22785603I-613200J0D01*
G01*
D14*
%TO.N,Net-(C10-Pad2)*%
X34908412Y-63766559D02*
X36186469Y-63766559D01*
X35441530Y-63233441D02*
X36719587Y-63233441D01*
X36830000Y-63500000D02*
G75*
G03*
X36719587Y-63233471I-110400J110400D01*
G01*
X35441530Y-63233441D02*
G75*
G03*
X34797991Y-63499991I-30J-910059D01*
G01*
X34798000Y-63500000D02*
G75*
G03*
X34908412Y-63766529I110400J-110400D01*
G01*
X36830000Y-63500000D02*
G75*
G02*
X36186469Y-63766546I-643500J643500D01*
G01*
D15*
%TO.N,CONN_2*%
X45592999Y-105028999D02*
X46414337Y-104207662D01*
D13*
X48937000Y-102616500D02*
X48937000Y-101919316D01*
X48937000Y-104351500D02*
X48937000Y-104436500D01*
D14*
X47616700Y-104529300D02*
X46355000Y-105791000D01*
D13*
X48496900Y-103649100D02*
X47616700Y-104529300D01*
X48471500Y-100795500D02*
X48014880Y-100338880D01*
X48906947Y-104509052D02*
X46228000Y-107188000D01*
X48937000Y-103801500D02*
X48937000Y-104351500D01*
D14*
X48056800Y-102488416D02*
X48056800Y-103466804D01*
X47644120Y-101492120D02*
X47606161Y-101454161D01*
D13*
X47972001Y-100338880D02*
X47606161Y-100704720D01*
X48937000Y-102616500D02*
X48937000Y-103801500D01*
D15*
X47231441Y-102235000D02*
X47231441Y-101609375D01*
D13*
X48518039Y-103627960D02*
X48496900Y-103649100D01*
D14*
X45593000Y-105791000D02*
G75*
G03*
X46355000Y-105791000I381000J381001D01*
G01*
X48056800Y-103466804D02*
G75*
G03*
X48496892Y-103649092I257800J4D01*
G01*
X47616700Y-104529300D02*
G75*
G03*
X48056802Y-103466804I-1062500J1062500D01*
G01*
D13*
X48471500Y-100795500D02*
G75*
G02*
X48936993Y-101919316I-1123800J-1123800D01*
G01*
D15*
X47231441Y-101609375D02*
G75*
G02*
X47606177Y-100704736I1279359J-25D01*
G01*
D13*
X48014880Y-100338880D02*
G75*
G03*
X47993441Y-100329965I-21480J-21420D01*
G01*
D15*
X45592999Y-105028999D02*
G75*
G03*
X45592999Y-105791001I381001J-381001D01*
G01*
D13*
X48937000Y-104436500D02*
G75*
G02*
X48906947Y-104509052I-102600J0D01*
G01*
D14*
X47644120Y-101492120D02*
G75*
G02*
X48056781Y-102488416I-996320J-996280D01*
G01*
X47606161Y-101454161D02*
G75*
G03*
X47231343Y-101609375I-155261J-155239D01*
G01*
D13*
X48937000Y-103801500D02*
G75*
G03*
X48518065Y-103627986I-245400J0D01*
G01*
D15*
X47231441Y-102235000D02*
G75*
G02*
X46414332Y-104207657I-2789741J0D01*
G01*
D13*
X48518039Y-103627960D02*
G75*
G03*
X48937006Y-102616500I-1011439J1011460D01*
G01*
X47993441Y-100330000D02*
G75*
G03*
X47971985Y-100338864I-41J-30300D01*
G01*
X47606161Y-100704720D02*
G75*
G03*
X47606201Y-101454120I374739J-374680D01*
G01*
D14*
%TO.N,Net-(C10-Pad1)*%
X41029530Y-59677441D02*
X42307587Y-59677441D01*
X40496412Y-60210559D02*
X41774469Y-60210559D01*
X40386000Y-59944000D02*
G75*
G03*
X40496412Y-60210529I110400J-110400D01*
G01*
X42418000Y-59944000D02*
G75*
G03*
X42307587Y-59677471I-110400J110400D01*
G01*
X41029530Y-59677441D02*
G75*
G03*
X40385991Y-59943991I-30J-910059D01*
G01*
X42418000Y-59944000D02*
G75*
G02*
X41774469Y-60210546I-643500J643500D01*
G01*
%TO.N,Net-(C1-Pad2)*%
X19422469Y-27190559D02*
X18144412Y-27190559D01*
X18677530Y-26657441D02*
X19955587Y-26657441D01*
X20066000Y-26924000D02*
G75*
G03*
X19955587Y-26657471I-110400J110400D01*
G01*
X18034000Y-26924000D02*
G75*
G03*
X18144412Y-27190529I110400J-110400D01*
G01*
X18677530Y-26657441D02*
G75*
G03*
X18033991Y-26923991I-30J-910059D01*
G01*
X20066000Y-26924000D02*
G75*
G02*
X19422469Y-27190546I-643500J643500D01*
G01*
%TO.N,Net-(C2-Pad2)*%
X15202452Y-30671334D02*
X15810665Y-31279547D01*
X15202452Y-31966452D02*
X15810665Y-32574665D01*
X15810665Y-31279547D02*
G75*
G02*
X16268555Y-32385000I-1105465J-1105453D01*
G01*
X15202452Y-30671334D02*
G75*
G03*
X14744582Y-30861000I-189652J-189666D01*
G01*
X15810665Y-32574665D02*
G75*
G03*
X16268506Y-32385000I189635J189665D01*
G01*
X14744559Y-30861000D02*
G75*
G03*
X15202453Y-31966451I1563341J0D01*
G01*
%TO.N,Net-(C3-Pad2)*%
X19668412Y-36055441D02*
X20946469Y-36055441D01*
X20201530Y-36588559D02*
X21479587Y-36588559D01*
X19558000Y-36322000D02*
G75*
G03*
X20201530Y-36588546I643500J643500D01*
G01*
X21590000Y-36322000D02*
G75*
G03*
X20946469Y-36055454I-643500J-643500D01*
G01*
X19668412Y-36055441D02*
G75*
G03*
X19557979Y-36322021I-12J-156159D01*
G01*
X21590000Y-36322000D02*
G75*
G02*
X21479587Y-36588529I-110400J-110400D01*
G01*
%TO.N,Net-(C4-Pad2)*%
X25256412Y-39611441D02*
X26534469Y-39611441D01*
X27067587Y-40144559D02*
X25789530Y-40144559D01*
X27178000Y-39878000D02*
G75*
G03*
X26534469Y-39611454I-643500J-643500D01*
G01*
X25256412Y-39611441D02*
G75*
G03*
X25145979Y-39878021I-12J-156159D01*
G01*
X27178000Y-39878000D02*
G75*
G02*
X27067587Y-40144529I-110400J-110400D01*
G01*
X25146000Y-39878000D02*
G75*
G03*
X25789530Y-40144546I643500J643500D01*
G01*
%TO.N,Net-(C5-Pad2)*%
X30844412Y-43167441D02*
X32122469Y-43167441D01*
X31377530Y-43700559D02*
X32655587Y-43700559D01*
X30844412Y-43167441D02*
G75*
G03*
X30733979Y-43434021I-12J-156159D01*
G01*
X32766000Y-43434000D02*
G75*
G02*
X32655587Y-43700529I-110400J-110400D01*
G01*
X32766000Y-43434000D02*
G75*
G03*
X32122469Y-43167454I-643500J-643500D01*
G01*
X30734000Y-43434000D02*
G75*
G03*
X31377530Y-43700546I643500J643500D01*
G01*
%TO.N,Net-(C6-Pad2)*%
X37710469Y-46723441D02*
X36432412Y-46723441D01*
X36965530Y-47256559D02*
X38243587Y-47256559D01*
X38354000Y-46990000D02*
G75*
G03*
X37710469Y-46723454I-643500J-643500D01*
G01*
X36322000Y-46990000D02*
G75*
G03*
X36965530Y-47256546I643500J643500D01*
G01*
X38354000Y-46990000D02*
G75*
G02*
X38243587Y-47256529I-110400J-110400D01*
G01*
X36432412Y-46723441D02*
G75*
G03*
X36321979Y-46990021I-12J-156159D01*
G01*
%TO.N,Net-(C7-Pad2)*%
X42020412Y-50279441D02*
X43298469Y-50279441D01*
X42553530Y-50812559D02*
X43831587Y-50812559D01*
X41910000Y-50546000D02*
G75*
G03*
X42553530Y-50812546I643500J643500D01*
G01*
X42020412Y-50279441D02*
G75*
G03*
X41909979Y-50546021I-12J-156159D01*
G01*
X43942000Y-50546000D02*
G75*
G03*
X43298469Y-50279454I-643500J-643500D01*
G01*
X43942000Y-50546000D02*
G75*
G02*
X43831587Y-50812529I-110400J-110400D01*
G01*
%TO.N,Net-(C8-Pad2)*%
X46165334Y-56196665D02*
X46773547Y-55588452D01*
X46165334Y-54901547D02*
X46773547Y-54293334D01*
X46165334Y-54901547D02*
G75*
G03*
X45707444Y-56007000I1105466J-1105453D01*
G01*
X45707441Y-56007000D02*
G75*
G03*
X46165372Y-56196703I268259J0D01*
G01*
X47231441Y-54483000D02*
G75*
G03*
X46773531Y-54293318I-268241J0D01*
G01*
X47231441Y-54483000D02*
G75*
G02*
X46773547Y-55588452I-1563341J0D01*
G01*
%TO.N,Net-(C11-Pad2)*%
X30598469Y-67322559D02*
X29320412Y-67322559D01*
X29853530Y-66789441D02*
X31131587Y-66789441D01*
X31242000Y-67056000D02*
G75*
G02*
X30598469Y-67322546I-643500J643500D01*
G01*
X29210000Y-67056000D02*
G75*
G03*
X29320412Y-67322529I110400J-110400D01*
G01*
X31242000Y-67056000D02*
G75*
G03*
X31131587Y-66789471I-110400J110400D01*
G01*
X29853530Y-66789441D02*
G75*
G03*
X29209991Y-67055991I-30J-910059D01*
G01*
%TO.N,Net-(C12-Pad2)*%
X23732412Y-70878559D02*
X25010469Y-70878559D01*
X24265530Y-70345441D02*
X25543587Y-70345441D01*
X25654000Y-70612000D02*
G75*
G03*
X25543587Y-70345471I-110400J110400D01*
G01*
X23622000Y-70612000D02*
G75*
G03*
X23732412Y-70878529I110400J-110400D01*
G01*
X24265530Y-70345441D02*
G75*
G03*
X23621991Y-70611991I-30J-910059D01*
G01*
X25654000Y-70612000D02*
G75*
G02*
X25010469Y-70878546I-643500J643500D01*
G01*
%TO.N,Net-(C13-Pad2)*%
X18677530Y-73901441D02*
X19955587Y-73901441D01*
X18144412Y-74434559D02*
X19422469Y-74434559D01*
X18677530Y-73901441D02*
G75*
G03*
X18033991Y-74167991I-30J-910059D01*
G01*
X18034000Y-74168000D02*
G75*
G03*
X18144412Y-74434529I110400J-110400D01*
G01*
X20066000Y-74168000D02*
G75*
G03*
X19955587Y-73901471I-110400J110400D01*
G01*
X20066000Y-74168000D02*
G75*
G02*
X19422469Y-74434546I-643500J643500D01*
G01*
%TO.N,Net-(C14-Pad2)*%
X15810665Y-78523547D02*
X15202452Y-77915334D01*
X15202452Y-79210452D02*
X15810665Y-79818665D01*
X15202452Y-77915334D02*
G75*
G03*
X14744582Y-78105000I-189652J-189666D01*
G01*
X14744559Y-78105000D02*
G75*
G03*
X15202453Y-79210451I1563341J0D01*
G01*
X15810665Y-78523547D02*
G75*
G02*
X16268555Y-79629000I-1105465J-1105453D01*
G01*
X15810665Y-79818665D02*
G75*
G03*
X16268506Y-79629000I189635J189665D01*
G01*
%TO.N,Net-(C15-Pad2)*%
X20201530Y-83832559D02*
X21479587Y-83832559D01*
X19668412Y-83299441D02*
X20946469Y-83299441D01*
X21590000Y-83566000D02*
G75*
G03*
X20946469Y-83299454I-643500J-643500D01*
G01*
X21590000Y-83566000D02*
G75*
G02*
X21479587Y-83832529I-110400J-110400D01*
G01*
X19558000Y-83566000D02*
G75*
G03*
X20201530Y-83832546I643500J643500D01*
G01*
X19668412Y-83299441D02*
G75*
G03*
X19557979Y-83566021I-12J-156159D01*
G01*
%TO.N,Net-(C16-Pad2)*%
X25256412Y-86855441D02*
X26534469Y-86855441D01*
X25789530Y-87388559D02*
X27067587Y-87388559D01*
X25146000Y-87122000D02*
G75*
G03*
X25789530Y-87388546I643500J643500D01*
G01*
X27178000Y-87122000D02*
G75*
G02*
X27067587Y-87388529I-110400J-110400D01*
G01*
X27178000Y-87122000D02*
G75*
G03*
X26534469Y-86855454I-643500J-643500D01*
G01*
X25256412Y-86855441D02*
G75*
G03*
X25145979Y-87122021I-12J-156159D01*
G01*
%TO.N,Net-(C17-Pad2)*%
X30844412Y-90411441D02*
X32122469Y-90411441D01*
X32655587Y-90944559D02*
X31377530Y-90944559D01*
X32766000Y-90678000D02*
G75*
G02*
X32655587Y-90944529I-110400J-110400D01*
G01*
X30844412Y-90411441D02*
G75*
G03*
X30733979Y-90678021I-12J-156159D01*
G01*
X32766000Y-90678000D02*
G75*
G03*
X32122469Y-90411454I-643500J-643500D01*
G01*
X30734000Y-90678000D02*
G75*
G03*
X31377530Y-90944546I643500J643500D01*
G01*
%TO.N,Net-(C18-Pad2)*%
X36423531Y-93967441D02*
X37719350Y-93967441D01*
X36944090Y-94488000D02*
X38239909Y-94488000D01*
X36423531Y-93967441D02*
G75*
G03*
X36315715Y-94227725I-31J-152459D01*
G01*
X38347720Y-94227720D02*
G75*
G03*
X37719350Y-93967479I-628320J-628380D01*
G01*
X38347720Y-94227720D02*
G75*
G02*
X38239909Y-94487952I-107820J-107780D01*
G01*
X36315720Y-94227720D02*
G75*
G03*
X36944090Y-94487992I628380J628420D01*
G01*
%TO.N,Net-(C19-Pad2)*%
X42562410Y-98056559D02*
X43822707Y-98056559D01*
X42016733Y-97510882D02*
X43277030Y-97510882D01*
X43935720Y-97783720D02*
G75*
G03*
X43277030Y-97510858I-658720J-658680D01*
G01*
X41903720Y-97783720D02*
G75*
G03*
X42562410Y-98056542I658680J658720D01*
G01*
X42016733Y-97510882D02*
G75*
G03*
X41903712Y-97783728I-33J-159818D01*
G01*
X43935720Y-97783720D02*
G75*
G02*
X43822707Y-98056506I-113020J-112980D01*
G01*
%TD*%
%TA.AperFunction,Conductor*%
%TO.N,CONN_1*%
G36*
X45114190Y-12515263D02*
G01*
X45420168Y-12603017D01*
X45433238Y-12607569D01*
X45730122Y-12729959D01*
X45742609Y-12735943D01*
X46023999Y-12890671D01*
X46035740Y-12898010D01*
X46298112Y-13083135D01*
X46308962Y-13091736D01*
X46549070Y-13304967D01*
X46558894Y-13314725D01*
X46773733Y-13553396D01*
X46782404Y-13564184D01*
X46969299Y-13825328D01*
X46976703Y-13836999D01*
X47133318Y-14117349D01*
X47139385Y-14129794D01*
X47263766Y-14425852D01*
X47268408Y-14438897D01*
X47359007Y-14746976D01*
X47362165Y-14760457D01*
X47417849Y-15076705D01*
X47419485Y-15090454D01*
X47439782Y-15414406D01*
X47440022Y-15421328D01*
X47449722Y-16866704D01*
X47449573Y-16873684D01*
X47433350Y-17200508D01*
X47431874Y-17214388D01*
X47379591Y-17533845D01*
X47376565Y-17547471D01*
X47288707Y-17859042D01*
X47284168Y-17872241D01*
X47161859Y-18171941D01*
X47155867Y-18184547D01*
X47000640Y-18468624D01*
X46993268Y-18480477D01*
X46807100Y-18745306D01*
X46798443Y-18756255D01*
X46583698Y-18998476D01*
X46573865Y-19008382D01*
X46333254Y-19224938D01*
X46322370Y-19233677D01*
X46058945Y-19421821D01*
X46047148Y-19429281D01*
X45764258Y-19586622D01*
X45751698Y-19592710D01*
X45452898Y-19717269D01*
X45439732Y-19721906D01*
X45128839Y-19812090D01*
X45115237Y-19815218D01*
X44796169Y-19869894D01*
X44782300Y-19871473D01*
X44455634Y-19890141D01*
X44448655Y-19890343D01*
X31992679Y-19900009D01*
X17483806Y-19911267D01*
X17476850Y-19911077D01*
X17151209Y-19893034D01*
X17137383Y-19891486D01*
X16819257Y-19837661D01*
X16805695Y-19834576D01*
X16681762Y-19798957D01*
X16495585Y-19745449D01*
X16482451Y-19740862D01*
X16184281Y-19617559D01*
X16171743Y-19611529D01*
X15889271Y-19455607D01*
X15877487Y-19448211D01*
X15614257Y-19261625D01*
X15603376Y-19252956D01*
X15362696Y-19038051D01*
X15352855Y-19028217D01*
X15335116Y-19008382D01*
X15137774Y-18787716D01*
X15129096Y-18776842D01*
X14942302Y-18513750D01*
X14934897Y-18501972D01*
X14778753Y-18219618D01*
X14772714Y-18207085D01*
X14649178Y-17909005D01*
X14644587Y-17895891D01*
X14555219Y-17585850D01*
X14552122Y-17572287D01*
X14498050Y-17254203D01*
X14496491Y-17240378D01*
X14478195Y-16914741D01*
X14478000Y-16907785D01*
X14478000Y-15441480D01*
X14478195Y-15434528D01*
X14479325Y-15414406D01*
X14496473Y-15109048D01*
X14498027Y-15095253D01*
X14552049Y-14777299D01*
X14555143Y-14763747D01*
X14644423Y-14453851D01*
X14649016Y-14440727D01*
X14672728Y-14383479D01*
X14772430Y-14142775D01*
X14778452Y-14130269D01*
X14934467Y-13847983D01*
X14941854Y-13836228D01*
X15128482Y-13573201D01*
X15137128Y-13562358D01*
X15352049Y-13321861D01*
X15361861Y-13312049D01*
X15602358Y-13097128D01*
X15613201Y-13088482D01*
X15876228Y-12901854D01*
X15887983Y-12894467D01*
X16170269Y-12738452D01*
X16182775Y-12732430D01*
X16480727Y-12609016D01*
X16493847Y-12604424D01*
X16803186Y-12515305D01*
X16837514Y-12510459D01*
X45080006Y-12510459D01*
X45114190Y-12515263D01*
G37*
%TD.AperFunction*%
%TD*%
%TA.AperFunction,Conductor*%
%TO.N,CONN_2*%
G36*
X44438442Y-103908535D02*
G01*
X44767400Y-103926187D01*
X44781359Y-103927733D01*
X45102694Y-103981894D01*
X45116375Y-103985005D01*
X45429535Y-104075176D01*
X45442788Y-104079820D01*
X45743718Y-104204832D01*
X45756362Y-104210946D01*
X46041230Y-104369205D01*
X46053102Y-104376711D01*
X46151754Y-104447210D01*
X46318225Y-104566175D01*
X46329176Y-104574979D01*
X46571165Y-104793221D01*
X46581049Y-104803207D01*
X46796796Y-105047426D01*
X46805485Y-105058463D01*
X46992222Y-105325527D01*
X46999602Y-105337470D01*
X47154923Y-105623936D01*
X47160910Y-105636648D01*
X47282825Y-105938847D01*
X47287335Y-105952154D01*
X47374282Y-106266211D01*
X47377254Y-106279927D01*
X47428113Y-106601808D01*
X47429516Y-106615780D01*
X47443787Y-106944870D01*
X47443892Y-106951897D01*
X47424638Y-108394401D01*
X47424318Y-108401806D01*
X47398938Y-108748243D01*
X47396974Y-108762930D01*
X47331163Y-109100212D01*
X47327461Y-109114560D01*
X47221891Y-109441578D01*
X47216505Y-109455381D01*
X47072678Y-109767481D01*
X47065683Y-109780544D01*
X46885660Y-110073251D01*
X46877158Y-110085386D01*
X46663497Y-110354540D01*
X46653607Y-110365574D01*
X46409375Y-110607312D01*
X46398240Y-110617088D01*
X46126912Y-110827972D01*
X46114690Y-110836350D01*
X45820146Y-111013362D01*
X45807013Y-111020222D01*
X45493450Y-111160840D01*
X45479591Y-111166084D01*
X45151509Y-111268291D01*
X45137124Y-111271845D01*
X44799183Y-111334190D01*
X44784477Y-111336003D01*
X44437801Y-111357826D01*
X44430393Y-111358070D01*
X23440856Y-111422795D01*
X17470612Y-111441205D01*
X17463616Y-111441029D01*
X17136080Y-111423533D01*
X17122172Y-111422000D01*
X16802142Y-111368295D01*
X16788495Y-111365204D01*
X16476547Y-111275784D01*
X16463336Y-111271176D01*
X16163461Y-111147187D01*
X16150853Y-111141120D01*
X16150190Y-111140753D01*
X15866847Y-110984132D01*
X15855006Y-110976685D01*
X15652164Y-110832527D01*
X15590486Y-110788693D01*
X15579562Y-110779960D01*
X15337917Y-110563375D01*
X15328041Y-110553464D01*
X15112334Y-110311034D01*
X15103637Y-110300072D01*
X14916615Y-110034883D01*
X14909209Y-110023012D01*
X14753250Y-109738437D01*
X14747229Y-109725807D01*
X14624330Y-109425487D01*
X14619769Y-109412259D01*
X14531482Y-109099990D01*
X14528441Y-109086333D01*
X14475894Y-108766100D01*
X14474414Y-108752208D01*
X14458104Y-108424564D01*
X14457955Y-108417605D01*
X14467638Y-106974692D01*
X14467875Y-106967842D01*
X14488099Y-106644490D01*
X14489729Y-106630770D01*
X14545201Y-106315118D01*
X14548346Y-106301671D01*
X14558753Y-106266211D01*
X14638600Y-105994138D01*
X14643214Y-105981143D01*
X14767137Y-105685537D01*
X14773165Y-105673146D01*
X14929200Y-105393183D01*
X14936581Y-105381519D01*
X14972440Y-105331286D01*
X15122802Y-105120652D01*
X15131435Y-105109884D01*
X15345513Y-104871372D01*
X15355287Y-104861633D01*
X15594590Y-104648409D01*
X15605388Y-104639819D01*
X15696920Y-104574979D01*
X15866919Y-104454553D01*
X15878606Y-104447217D01*
X16159129Y-104292203D01*
X16171571Y-104286206D01*
X16467599Y-104163368D01*
X16480613Y-104158800D01*
X16788478Y-104069662D01*
X16801922Y-104066569D01*
X17117809Y-104012238D01*
X17131510Y-104010662D01*
X17454918Y-103991614D01*
X17461801Y-103991401D01*
X31381198Y-103948542D01*
X44431476Y-103908359D01*
X44438442Y-103908535D01*
G37*
%TD.AperFunction*%
%TD*%
M02*
